<?xml version="1.0" standalone="no"?>
<!DOCTYPE svg PUBLIC "-//W3C//DTD SVG 1.1//EN" "http://www.w3.org/Graphics/SVG/1.1/DTD/svg11.dtd" >
<svg xmlns="http://www.w3.org/2000/svg">
<metadata></metadata>
<defs>
<font id="hsbc_iconsregular" horiz-adv-x="1500" >
<font-face units-per-em="1792" ascent="1536" descent="-256" />
<missing-glyph horiz-adv-x="500" />
<glyph />
<glyph />
<glyph unicode=" " />
<glyph unicode="a" />
<glyph unicode="b" />
<glyph unicode="c" />
<glyph unicode="v" />
<glyph unicode="&#xa0;" />
<glyph unicode="&#x2000;" />
<glyph unicode="&#x2001;" />
<glyph unicode="&#x2002;" />
<glyph unicode="&#x2003;" />
<glyph unicode="&#x2004;" />
<glyph unicode="&#x2005;" />
<glyph unicode="&#x2006;" />
<glyph unicode="&#x2007;" />
<glyph unicode="&#x2008;" />
<glyph unicode="&#x2009;" />
<glyph unicode="&#x200a;" />
<glyph unicode="&#x202f;" />
<glyph unicode="&#x205f;" />
<glyph unicode="&#x25fc;" horiz-adv-x="500" d="M0 0z" />
<glyph unicode="&#xf000;" horiz-adv-x="1440" d="M834 678h148q20 0 8 -16l-226 -262q-14 -16 -28 0l-225 262q-5 7 -3 11.5t10 4.5h141h7v485q0 8 6 14.5t14 6.5h128q8 0 14 -6.5t6 -14.5v-485zM1177 551h127q8 0 14.5 -6t6.5 -15v-464q0 -9 -6.5 -15t-14.5 -6h-124h-3h-842h-21h-106q-9 0 -15 6t-6 15v464q0 9 6 15 t15 6h127q8 0 14.5 -6t6.5 -15v-317h800v317q0 9 6 15t15 6z" />
<glyph unicode="&#xf001;" d="M954 992l180 -179q14 -15 0 -29l-647 -646l-306 -99l97 307l647 647q14 14 29 -1zM1327 978l-90 -91q-6 -6 -14.5 -6t-14.5 6l-180 180q-14 15 0 29l90 90q14 14 29 0l180 -180q14 -14 0 -28z" />
<glyph unicode="&#xf002;" d="M1159 870l-257 -258l257 -255q15 -14 0 -29l-122 -125q-6 -6 -14.5 -6t-14.5 6l-257 258l-258 -258q-6 -6 -14.5 -6t-13.5 6l-126 125q-6 6 -6 14.5t6 14.5l258 255l-258 258q-14 14 0 28l126 125q5 6 13.5 6t14.5 -6l258 -257l257 257q6 6 14.5 6t14.5 -6l122 -125 q15 -15 0 -28z" />
<glyph unicode="&#xf003;" d="M752 772q59 0 101.5 -42.5t42.5 -102.5q0 -59 -42.5 -101.5t-101.5 -42.5q-60 0 -102 42.5t-42 101.5q0 60 42 102.5t102 42.5zM752 334q122 0 208 86t86 207q0 122 -86 208.5t-208 86.5t-208.5 -86.5t-86.5 -208.5q0 -121 86.5 -207t208.5 -86zM752 1038q8 0 22.5 -1 t62 -9t96.5 -22.5t122 -45.5t144 -73t156 -110.5t164 -153.5q-108 -116 -226.5 -202t-211 -125t-169.5 -61.5t-118 -24.5l-42 -3q-8 0 -22.5 1t-62 9t-97 22.5t-122.5 45.5t-143.5 73t-156 111t-164.5 154q108 116 226.5 201.5t211 124.5t169.5 61.5t119 25.5z" />
<glyph unicode="&#xf004;" d="M380 174h729v84h-729v-84zM786 1063h-286v-529h491v324h-205v205zM1132 534h120q9 0 15 -6t6 -15v-445q0 -8 -6 -14.5t-15 -6.5h-1012q-9 0 -15.5 6.5t-6.5 14.5v445q0 9 6.5 15t15.5 6h120h20v466v42v120q0 9 6.5 15t15.5 6h120h42h201q21 0 21 -2t15 -17l295 -290 q15 -17 15 -36v-304h21z" />
<glyph unicode="&#xf005;" d="M209 806q-19 47 -15.5 105.5t21 112.5t57 97.5t91.5 60.5q52 16 96.5 -6.5t73.5 -72t47 -102t27 -107.5l-129 -128q-2 -36 41 -100t87 -110l44 -46q7 -7 19.5 -19t47.5 -42t66 -53t67 -41t58 -17l150 149q11 -2 31.5 -9t94 -42.5t157.5 -88.5q-18 -136 -106.5 -212 t-225.5 -63q-22 2 -58 11t-97.5 32.5t-125.5 57.5t-139.5 92.5t-142 131t-130 179t-107.5 230.5z" />
<glyph unicode="&#xf006;" d="M180 924l571 -545l568 545v-720q0 -8 -6 -14t-14 -6h-1099q-8 0 -14 6t-6 14v720zM751 497l-505 481h1006z" />
<glyph unicode="&#xf007;" d="M776 589q68 66 68 164q0 97 -68 163q-68 68 -164 68t-164 -68t-68 -164t68 -163q68 -68 164 -68t164 68zM952 542l342 -342q6 -6 6 -15t-6 -15l-120 -119q-6 -6 -14.5 -6t-14.5 6l-347 347q-86 -46 -186 -46q-165 0 -283 118q-117 117 -117.5 283t117.5 283 q115 117 283 117t283 -117q117 -117 117 -283q0 -114 -60 -211z" />
<glyph unicode="&#xf008;" d="M825 1135l528 -241q26 -12 26 -25v-6v-20v-6q0 -8 -6 -14t-14 -6h-6h-152h-445h-5h-453h-152h-6q-8 0 -14 6t-6 14v6v20v6q0 13 26 25l605 279l72 -35zM1232 760v-505h-189v505h189zM455 760v-505h-188v505h188zM843 760v-505h-187v505h187zM1356 178v-100 q0 -11 -7.5 -19t-18.5 -8h-1161q-11 0 -18.5 8t-7.5 19v100q0 10 7.5 17.5t18.5 7.5h1161q11 0 18.5 -7.5t7.5 -17.5z" />
<glyph unicode="&#xf009;" d="M711 1018h-315v-800h315q8 0 14 -5.5t6 -14.5v-128q0 -9 -6 -14.5t-14 -5.5h-465q-9 0 -15.5 5.5t-6.5 14.5v103v25v840v67v63q0 8 7 14t15 6h465q8 0 14 -6t6 -14v-130q0 -8 -6 -14t-14 -6zM1072 694v147q0 8 4 11t10 -2l264 -227q15 -13 0 -26l-264 -227q-6 -5 -10 -2 t-4 11v141v6h-484q-8 0 -14 5.5t-6 14.5v128q0 9 6 14.5t14 5.5h484z" />
<glyph unicode="&#xf00a;" d="M1374 802l-714 -713l-14 -15l-15 15l-117 117l-267 270q-6 6 -6 14.5t6 14.5l118 117q14 14 28 0l253 -252l581 579q6 6 14.5 6t14.5 -6l118 -118q14 -15 0 -29z" />
<glyph unicode="&#xf00b;" d="M1318 672v-126q0 -9 -6 -14.5t-14 -5.5h-1098q-20 0 -20 20v126q0 9 5.5 16t14.5 7h1098q8 0 14 -7t6 -16zM1318 380v-130q0 -8 -6 -14t-14 -6h-1098q-9 0 -14.5 6t-5.5 14v130q0 8 5.5 14t14.5 6h1098q8 0 14 -6t6 -14zM1318 967v-125q0 -9 -6 -14.5t-14 -5.5h-1098 q-20 0 -20 20v125q0 9 5.5 16t14.5 7h1098q8 0 14 -7t6 -16z" />
<glyph unicode="&#xf00c;" d="M798 226h514q8 0 14 -6t6 -14v-138q0 -9 -6 -15t-14 -6h-514q-8 0 -14 6t-6 15v138q0 8 6 14t14 6zM798 498h514q8 0 14 -6t6 -14v-138q0 -8 -6 -14t-14 -6h-514q-8 0 -14 6t-6 14v138q0 8 6 14t14 6zM798 914h514q8 0 14 -7.5t6 -16.5v-134q0 -8 -6 -14t-14 -6h-514 q-8 0 -14 6t-6 14v134q0 9 6 16.5t14 7.5zM798 1183h514q8 0 14 -6t6 -14v-137q0 -9 -6 -15t-14 -6h-514q-8 0 -14 6t-6 15v137q0 8 6 14t14 6zM210 498h402q8 0 14 -6t6 -14v-410q0 -9 -6 -15t-14 -6h-402q-9 0 -15.5 6t-6.5 15v410q0 8 7 14t15 6zM632 1163v-407 q0 -8 -6 -14t-14 -6h-402q-8 0 -15 6t-7 14v407q0 8 7 14t15 6h402q8 0 14 -6t6 -14z" />
<glyph unicode="&#xf00d;" d="M592 46l-263 226q-15 14 0 29l263 224q15 12 15 -6v-141v-8h430h3h138v358q0 8 6 14t14 6h129q8 0 14 -6t6 -14v-378v-15v-111q0 -9 -6 -16t-14 -7h-232h-55h-433v-147q0 -9 -4 -11.5t-11 3.5zM900 1202l264 -227q15 -13 0 -26l-264 -227q-7 -5 -11 -2.5t-4 11.5v141v6 h-430h-3h-137v-356q0 -9 -6 -16t-14 -7h-130q-8 0 -14 7t-6 16v376v14v114q0 9 6 14.5t14 5.5h233h54h433v147q0 9 4 11.5t11 -2.5z" />
<glyph unicode="&#xf00e;" d="M407 116l-261 226q-15 13 0 26l261 227q6 6 11.5 3t5.5 -12v-140v-6h459h174q9 0 14.5 -6t5.5 -14v-129q0 -8 -5.5 -14t-14.5 -6h-148h-485v-146q0 -9 -5 -11.5t-12 2.5zM1096 1099l264 -223q16 -14 0 -29l-264 -224q-14 -11 -14 7v140v8h-459h-3h-172q-9 0 -16 6t-7 14 v127q0 8 7 14t16 6h146h488v149q0 17 14 5z" />
<glyph unicode="&#xf010;" d="M760 1168q154 0 285 -76t207 -206.5t76 -284.5t-76 -285t-207 -207t-285 -76q-145 0 -271.5 67t-205 184.5t-87.5 258.5l-3 38q-1 8 6.5 14t16.5 6h137q8 0 14 -6t6 -14v-29q18 -148 131 -249t265 -101q165 0 280.5 117t115.5 282t-115.5 281.5t-280.5 116.5 q-164 0 -281 -117l86 -89l18 -20l11 -15q11 -14 -6 -14h-347h-2q-4 0 -7 3q-1 1 -3 2l-2 1v3q0 1 -1.5 1t-1.5 1q-1 2 0 6v1v346q0 16 15 6l11 -8l23 -20l80 -81q78 77 181 120t217 43z" />
<glyph unicode="&#xf011;" d="M770 1182l614 -613q13 -15 0 -28h-235q0 -1 1 -3t1.5 -3.5t0.5 -2.5v-447q0 -8 -7 -15.5t-16 -7.5h-221q-8 0 -14 7t-6 16v324h-267v-324q0 -8 -7.5 -15.5t-15.5 -7.5h-221q-8 0 -14 7t-6 16v447v9h-232q-14 14 0 28l614 613q6 6 15.5 6t15.5 -6z" />
<glyph unicode="&#xf012;" d="M1015 1091q113 -81 113 -241q0 -95 -49 -164q-32 -43 -109 -104l-54 -41q-43 -34 -58 -79q-9 -29 -9 -88q0 -9 -6.5 -15.5t-14.5 -6.5h-162q-9 0 -15.5 6.5t-5.5 15.5q5 127 24 175t101 112l54 42q28 22 44 45q30 43 30 90q0 56 -34 104q-35 48 -122 48q-86 0 -123 -58 q-37 -59 -37 -120q0 -9 -6 -15.5t-14 -6.5h-176q-8 0 -14.5 6.5t-5.5 15.5q9 213 149 303q89 57 218 57q172 0 282 -81zM661 270h182q8 0 14.5 -6t6.5 -14v-176q0 -9 -6.5 -15t-14.5 -6h-182q-9 0 -15.5 6t-6.5 15v176q0 8 6.5 14t15.5 6z" />
<glyph unicode="&#xf013;" d="M1317 799q4 -12 -9 -22l-324 -235l126 -382q5 -16 -9 -25q-5 -4 -14 -4q-6 0 -11 4l-324 235l-324 -235q-13 -10 -26 0q-14 9 -9 25l124 382l-321 235q-13 10 -9 22q4 18 20 18h398l127 378q5 15 20 15t20 -15l123 -378h402q13 0 20 -18z" />
<glyph unicode="&#xf014;" d="M1086 883v192h-89h-75h-75h-177h-258v-192h258h177h75h75h89zM1086 631v169h-170v-169h170zM1086 378v170h-170v-170h170zM1086 126v169h-170v-169h170zM833 631v169h-169v-169h169zM833 378v170h-169v-170h169zM833 126v169h-169v-169h169zM578 631v169h-166v-169h166z M578 378v170h-166v-170h166zM578 126v169h-166v-169h166zM1169 1158v-1095q0 -8 -6 -14t-14 -6h-800q-9 0 -16 6t-7 14v1095q0 9 7 14.5t16 5.5h800q8 0 14 -5.5t6 -14.5z" />
<glyph unicode="&#xf015;" d="M1024 762l309 201q8 5 14.5 2t6.5 -12v-346v-346q0 -9 -7 -12t-14 2l-309 201q-18 11 -18 36v119v118q0 26 18 37zM167 953h753q9 0 15 -7t6 -16v-638q0 -9 -6 -16t-15 -7h-753q-9 0 -15 7t-6 16v638q0 9 6 16t15 7z" />
<glyph unicode="&#xf016;" d="M1295 1062q8 0 15 -7t7 -16v-697q0 -8 -7 -14t-15 -6h-109h-545l-270 -275v275h-108h-61q-9 0 -16 6t-7 14v697q0 9 7.5 16t15.5 7h1093z" />
<glyph unicode="&#xf017;" d="M1170 456q5 -5 12 -12.5t26 -30.5t26.5 -41t14 -43t-12.5 -36t-53 -21t-107 3h-319q49 -2 83.5 -37t34.5 -83q0 -50 -36 -85.5t-87 -35.5q-52 0 -88 35.5t-36 85.5q0 48 34 83t83 37h-321q-68 -8 -107 -3t-53 21t-12.5 36t14 42.5t27 41.5t25.5 31l12 12q2 2 6 8.5 t16 42.5t23 89.5t24.5 161.5t24.5 246q11 52 49 90t83.5 55t89 26.5t72.5 10.5l30 1h4q12 0 31 -1t70 -10.5t92 -26.5t80.5 -55t50.5 -90q10 -138 23.5 -245.5t25.5 -162t22.5 -89t16.5 -43.5z" />
<glyph unicode="&#xf018;" d="M1054 963q-31 19 -34 21l-2 2q-3 1 -4 2l37 49q11 15 26 4l101 -75q15 -11 4 -26l-41 -54q-3 3 -7.5 8t-5.5 6t-16.5 15.5t-23.5 20.5q-7 5 -18.5 14.5t-15.5 12.5zM839 1040h-178q-8 0 -13.5 6t-5.5 14v118q0 8 5.5 13.5t13.5 5.5h178q8 0 13.5 -5.5t5.5 -13.5v-118 q0 -8 -5.5 -14t-13.5 -6zM788 778v-274l136 -136q6 -7 0 -13l-43 -43q-6 -6 -13 0l-153 154q-6 6 -6 19v293q0 10 11 10h58q10 0 10 -10zM750 140q154 0 262.5 109t108.5 262q0 154 -108.5 262.5t-262.5 108.5t-262.5 -108.5t-108.5 -262.5q0 -153 108.5 -262t262.5 -109z M750 1001q133 0 246 -65.5t178.5 -178.5t65.5 -246t-65.5 -246t-178.5 -178.5t-246 -65.5t-246 65.5t-178.5 178.5t-65.5 246t65.5 246t178.5 178.5t246 65.5z" />
<glyph unicode="&#xf019;" d="M747 662q69 0 117.5 47t48.5 114t-48.5 114t-117.5 47t-117.5 -47t-48.5 -114t48.5 -114t117.5 -47zM747 1212q165 0 282 -114t117 -275q0 -69 -36 -161v-1q-4 -10 -13.5 -25.5t-12.5 -21.5l-337 -601l-337 601q-18 32 -26 47v1q-37 76 -37 161q0 161 117 275t283 114z " />
<glyph unicode="&#xf01a;" d="M627 45v190q0 9 6.5 15.5t15.5 6.5h198q8 0 14.5 -6.5t6.5 -15.5v-190q0 -9 -6.5 -15.5t-14.5 -6.5h-198q-9 0 -15.5 6.5t-6.5 15.5zM644 1208h207q9 0 16.5 -7t7.5 -17v-257q0 -7 -2.5 -22.5t-2.5 -19.5l-59 -512q-2 -9 -8.5 -15t-15.5 -6h-77q-20 0 -23 21l-62 512 q-5 30 -5 42v257q0 10 7.5 17t16.5 7z" />
<glyph unicode="&#xf01b;" d="M1226 436v553h-956v-553h956zM172 1107h1151q9 0 15 -6.5t6 -15.5v-746q0 -9 -6 -15.5t-15 -6.5h-439q-10 -49 -8.5 -78.5t8.5 -42.5l6 -12q24 -31 97 -76v-28h-479v28q32 20 56 39t32 28l9 9q3 4 6 12.5t7.5 42t-7.5 78.5h-439q-9 0 -15.5 6.5t-6.5 15.5v746 q0 9 6.5 15.5t15.5 6.5z" />
<glyph unicode="&#xf01c;" d="M748 674q-101 0 -173 72t-72 173q0 103 71.5 174.5t173.5 71.5t174 -71.5t72 -174.5q0 -101 -72 -173t-174 -72zM629 631h239q65 0 126 -37.5t103.5 -96t68.5 -130t26 -138.5v-156h-888v156q0 90 43 183t119.5 156t162.5 63z" />
<glyph unicode="&#xf01d;" d="M773 733h281v-531h-201v407q-1 0 -74 68.5t-153.5 143.5t-88.5 82v2h-72v122h275v-265q0 -29 33 -29zM779 771v237l253 -237h-253zM538 575h280v-530h-590v825h275v-265q0 -30 35 -30zM543 615v236l253 -236h-253zM1011 903h280v-531h-201v407h-1l-314 294l-2 2h-71v122 h275v-265q0 -20 13 -24q6 -5 21 -5zM1016 942v236l253 -236h-253z" />
<glyph unicode="&#xf01e;" d="M920 573l370 -372q15 -15 15 -36t-15 -36l-52 -52q-14 -14 -35.5 -14t-35.5 14l-369 372q-27 27 -5 61l-25 24l-364 -435q-31 -28 -63.5 -32.5t-48.5 4.5l-17 9q-29 20 -30 22q-4 3 -27 31q-2 2 -5 6t-8 17.5t-5.5 27.5t6 35.5t22.5 42.5l410 402l-239 239l-69 39 l-77 115l58 58l115 -77l39 -66l243 -242l7 8l119 121q-3 2 -8.5 21.5t-9.5 37.5l-4 18q-15 52 19.5 112.5t93.5 97.5q34 21 82.5 28.5t80 5t37.5 -6.5q1 -1 2.5 -2t3.5 -6t-3 -11l-146 -144l-3 -33l42 -35l41 -36l30 3l132 154q6 4 11 4t7 -2l2 -2q5 -6 9.5 -38t0 -81 t-22.5 -85q-33 -62 -89.5 -100t-109.5 -27q-74 10 -79 17l-119 -137l-6 -6l31 -27q10 4 23.5 3t25.5 -5z" />
<glyph unicode="&#xf021;" d="M1126 983l9 3l-69 136l-908 -456l65 -136zM126 731l906 453q28 13 57 3.5t43 -37.5l276 -551q14 -28 3.5 -57t-37.5 -43l-904 -453q-28 -14 -58.5 -4t-44.5 39l-273 550q-14 28 -5 57t37 43z" />
<glyph unicode="&#xf022;" d="M1034 930v186l374 -306l-374 -304v186q-72 3 -152 -10.5t-124 -28.5l-43 -15q-58 -22 -104 -55t-69.5 -58.5t-42.5 -59.5t-21.5 -43t-7.5 -25v105q0 8 1 23t12.5 57.5t30.5 81t61.5 87t99.5 84.5t150.5 63t208.5 32zM321 267h788v202l155 127v-483h-1098v769h444 q-100 -65 -156 -156h-133v-459z" />
<glyph unicode="&#xf023;" d="M767 1043q0 57 42.5 98t99.5 41q52 0 86 -32.5t34 -85.5q0 -59 -42.5 -98.5t-101.5 -39.5q-53 0 -85.5 32t-32.5 85zM552 397l122 305q7 23 0.5 35t-18.5 12q-22 0 -37 -13.5t-25.5 -27t-21.5 -14.5q-10 0 -16.5 7.5t-5.5 15.5q0 5 0.5 9.5t2.5 8.5t2.5 6t5 6.5t6 6.5 t8 8t8.5 8q52 50 104.5 71.5t126.5 21.5q30 0 54.5 -10t42.5 -33t17.5 -66.5t-22.5 -103.5l-125 -338q-30 -78 -30 -97q0 -10 5.5 -17.5t15.5 -7.5q22 0 34.5 10t19.5 20.5t17 10.5q8 0 14.5 -7t6.5 -18q0 -20 -22 -46.5t-58 -52t-89.5 -43t-108.5 -17.5q-49 0 -77 23.5 t-28 71.5q0 78 71 255z" />
<glyph unicode="&#xf024;" d="M565 597l-256 -189v-220h1066v-145h-1066h-24h-123v1091h147v-551l265 192l230 -197l385 453l186 -161v-184l-172 147l-381 -453l-78 67l-28 25z" />
<glyph unicode="&#xf025;" d="M456 430v636q0 20 20 20h846q20 0 20 -20v-636q0 -20 -20 -20h-846q-20 0 -20 20zM373 304h717l20 2v-145q0 -9 -6 -16t-14 -7h-907q-8 0 -15 7t-7 16v696q0 9 6.5 15t15.5 6h147h20v-552q0 -8 7 -15t16 -7z" />
<glyph unicode="&#xf026;" d="M641 555l-158 -310l89 -46l130 254v-418h-494q-10 0 -16.5 7t-6.5 16v497h456zM984 428l-115 127h475v-497q0 -9 -7 -16t-17 -7h-517v443l107 -117zM547 878q51 -35 84.5 -73.5t43.5 -61t7 -30.5q-10 -5 -25 -5q-74 0 -178 71q-51 35 -84.5 73t-43.5 61t-6 31q5 5 24 5 q74 0 178 -71zM185 656v515q0 9 6.5 16t16.5 7h495v-318q-46 49 -99 85q-126 88 -235 88q-74 0 -107 -48q-42 -62 8.5 -149t151.5 -156q30 -22 68 -40h-305zM1034 857q19 0 25 -6q5 -7 -0.5 -25.5t-26 -46t-52.5 -51.5q-62 -46 -114 -46q-20 0 -25 7q-8 10 6 39q21 45 72 84 q61 45 115 45zM859 892q-32 -24 -56 -51l1 353h516q10 0 17 -7t7 -16v-515h-293q75 60 100.5 132t-11.5 123q-34 47 -106 47q-87 0 -175 -66z" />
<glyph unicode="&#xf027;" d="M954 534v-109h-730v109h730zM1003 63v506q0 8 -6 13.5t-14 5.5h-788q-8 0 -14 -5.5t-6 -13.5v-506q0 -8 6 -14t14 -6h788q8 0 14 6t6 14zM1320 155v-92l-1 -1q0 -19 -19 -19h-89h-146q8 0 13.5 6t5.5 14v112h108v32v646h-2h-166h-53v219h-307v-344v-57h-129v334v45v129 q0 9 6.5 16t15.5 7h130h45h216q23 0 23 -2t16 -18l317 -313q16 -16 16 -39v-450v-173v-52z" />
<glyph unicode="&#xf028;" d="M931 229q89 0 134.5 40t45.5 128q0 58 -18 93.5t-69 45.5v3q77 11 77 128q0 82 -37.5 117.5t-119.5 35.5q-93 0 -127 -29q-39 -33 -39 -121h117q0 20 2 32.5t13 23.5t31 11q44 0 44 -70q0 -57 -19 -72t-79 -13v-92q65 0 86.5 -14.5t21.5 -73.5q0 -26 -2.5 -42.5t-16 -32 t-38.5 -15.5q-15 0 -25 5.5t-14.5 11t-7 19.5t-2.5 20v24h-119q0 -92 36.5 -127.5t124.5 -35.5zM386 237h343v87h-220q4 4 27 29t34 37t34.5 40t36.5 46.5t31 46.5t28 50.5t17 49t7 49.5q0 148 -168 148q-81 0 -123.5 -43t-36.5 -123h116q0 24 2.5 39.5t15 29.5t34.5 14 q44 0 44 -57q0 -18 -4.5 -34.5t-11.5 -31.5t-27.5 -42.5t-39.5 -52.5t-60 -78.5t-79 -103.5v-100zM1343 1143v-1059q0 -8 5.5 -14.5t12.5 -6.5h-1189q-7 0 -12.5 6.5t-5.5 14.5v1059q0 7 5 12.5t13 5.5h206v-68q-33 -28 -33 -72q0 -41 28.5 -69.5t69.5 -28.5q40 0 68.5 28.5 t28.5 69.5q0 44 -33 72v68h483v-68q-31 -26 -31 -72q0 -41 28.5 -69.5t69.5 -28.5q40 0 67.5 28.5t27.5 69.5q0 46 -31 72v68h240q-7 0 -12.5 -5.5t-5.5 -12.5z" />
<glyph unicode="&#xf029;" d="M934 377l41 41q13 14 2 25l-168 169v327q0 8 -5.5 13.5t-13.5 5.5h-57q-19 0 -19 -19v-349l7 -27l189 -188q9 -11 24 2zM748 1051q178 0 304.5 -126.5t126.5 -304.5t-126.5 -304t-304.5 -126t-304 126t-126 304t126 304.5t304 126.5zM748 100q105 0 200.5 41t164.5 109.5 t110 164t41 199.5q0 105 -41 200.5t-110 164.5t-164.5 110t-200.5 41q-104 0 -199.5 -41t-164 -110t-109.5 -164.5t-41 -200.5q0 -139 69 -257.5t187.5 -187.5t257.5 -69zM748 1211q163 0 301 -80t218.5 -217.5t80.5 -299.5t-80.5 -300t-218.5 -218.5t-301 -80.5 q-162 0 -299 80.5t-217 218.5t-80 300t80 299.5t217 217.5t299 80z" />
<glyph unicode="&#xf02a;" d="M917 681v210v1q0 71 -49 122t-119 51q-69 0 -118 -50.5t-49 -122.5v-1v-210h335zM725 348l-67 -165h181l-68 165q29 8 47 31t18 53q0 37 -26 62.5t-62 25.5q-37 0 -62.5 -25.5t-25.5 -62.5q0 -30 18 -53t47 -31zM1063 681h88q8 0 14 -6.5t6 -14.5v-601q0 -9 -6 -14.5 t-14 -5.5h-803q-8 0 -14 5.5t-6 14.5v601q0 8 6 14.5t14 6.5h86v189v2q0 134 92 229t223 95q130 0 222 -95t92 -229v-2v-189z" />
<glyph unicode="&#xf02b;" d="M806 1121q178 -9 326 -68.5t233.5 -155.5t85.5 -209v-9q-77 31 -172 31q-78 0 -143 -20t-102 -54q-74 58 -228 71v-520q0 -20 14 -34.5t34 -14.5q21 0 35.5 14.5t14.5 34.5h111q0 -66 -47.5 -112t-113.5 -46q-65 0 -111.5 46t-46.5 112v520q-159 -13 -231 -74 q-37 35 -103 56t-145 21q-94 0 -166 -28v6q0 113 85.5 209t233.5 155.5t326 68.5v95h110v-95z" />
<glyph unicode="&#xf02c;" d="M646 1202h206v-578h-206v578zM941 877v194q156 -59 253 -197t97 -310q0 -110 -43 -210.5t-115.5 -173t-173 -115.5t-210.5 -43t-210.5 43t-173 115.5t-115.5 173t-43 210.5q0 172 97.5 310t253.5 197v-194q-81 -49 -129 -132t-48 -181q0 -152 108 -260t260 -108t260 108 t108 260q0 98 -48 181t-128 132z" />
<glyph unicode="&#xf02d;" d="M1064 224q37 15 52 51.5t0 73.5q-16 37 -52.5 52t-73.5 0q-36 -16 -51.5 -52t-0.5 -73q16 -37 52.5 -52t73.5 0zM1283 378l-46 -19q10 -44 0 -93l46 -19l-29 -69l-46 20q-24 -40 -66 -67l20 -46l-69 -28l-19 46q-48 -11 -93 0l-19 -46l-69 28l19 46q-42 27 -66 67 l-46 -20l-29 69l47 19q-10 48 0 93l-47 19l29 69l46 -19q26 39 66 66l-19 46l69 28l19 -46q47 11 93 0l19 46l69 -28l-20 -46q39 -24 66 -66l46 19zM559 630q62 0 106.5 44t44.5 106q0 63 -44.5 107t-106.5 44t-106.5 -44t-44.5 -107q0 -62 44.5 -106t106.5 -44zM836 586 l56 -56l-83 -82l-56 56q-58 -42 -135 -56v-79h-117v79q-73 12 -135 56l-56 -56l-83 82l55 56q-44 65 -55 136h-79v117h79q11 70 55 135l-55 56l83 83l56 -56q59 42 135 56v79h117v-79q77 -14 135 -56l56 56l83 -83l-56 -56q43 -61 56 -135h79v-117h-79q-14 -75 -56 -136z " />
<glyph unicode="&#xf02e;" d="M163 593h226v-447h-226v447zM478 414h224v-268h-224v268zM1106 1131h224v-985h-224v985zM794 773h223v-627h-223v627z" />
<glyph unicode="&#xf02f;" d="M397 57l545 1119h154l-545 -1119h-154zM1074 178q41 0 62 36.5t21 131.5q0 152 -79 152q-84 0 -84 -159q0 -85 17.5 -123t62.5 -38zM1080 610q57 0 100 -15t68 -38.5t40 -58.5t20 -70t5 -79q0 -24 -0.5 -39.5t-5.5 -48.5t-13.5 -56.5t-26.5 -52.5t-43 -47t-65.5 -31 t-90.5 -13q-120 0 -174 74t-54 199q0 24 0.5 39.5t5 47t13 53.5t26.5 50t42.5 45t64 29t88.5 12zM336 895q0 -85 17.5 -123t61.5 -38q41 0 62 36.5t21 131.5q0 152 -78 152q-84 0 -84 -159zM654 904q0 -23 -0.5 -39t-5.5 -49t-13.5 -56t-26.5 -52t-43 -47.5t-65 -31 t-90 -12.5q-120 0 -174.5 73.5t-54.5 199.5q0 23 0.5 39t5.5 47.5t13 54t26 50t42.5 44.5t63.5 29t88 12q58 0 101 -15t68 -38.5t40 -59t20 -70.5t5 -79z" />
<glyph unicode="&#xf030;" d="M459 1020h884q18 0 18 -19v-146q0 -18 -18 -18h-884q-7 0 -12.5 5.5t-5.5 12.5v146q0 8 5.5 13.5t12.5 5.5zM220 1020q37 0 63.5 -27t26.5 -65t-26.5 -64.5t-63.5 -26.5q-39 0 -65.5 26.5t-26.5 64.5t26.5 65t65.5 27zM459 699h884q18 0 18 -18v-146q0 -18 -18 -18h-884 q-7 0 -12.5 5.5t-5.5 12.5v146q0 18 18 18zM220 699q37 0 63.5 -26.5t26.5 -64.5t-26.5 -64.5t-63.5 -26.5q-39 0 -65.5 26.5t-26.5 64.5t26.5 64.5t65.5 26.5zM459 380h884q18 0 18 -19v-145q0 -19 -18 -19h-884q-7 0 -12.5 5.5t-5.5 13.5v145q0 8 5.5 13.5t12.5 5.5z M220 380q37 0 63.5 -27t26.5 -65t-26.5 -64.5t-63.5 -26.5q-39 0 -65.5 26.5t-26.5 64.5t26.5 65t65.5 27z" />
<glyph unicode="&#xf031;" d="M853 723h366q8 0 14.5 -6t6.5 -15v-172q0 -8 -6.5 -14.5t-14.5 -6.5h-366v-365q0 -20 -21 -20h-172q-8 0 -14 6t-6 14v365h-365q-8 0 -14.5 6.5t-6.5 14.5v172q0 9 6.5 15t14.5 6h365v365q0 9 6 15t14 6h172q21 0 21 -21v-365z" />
<glyph unicode="&#xf032;" d="M502 205h490v814h-490v-814zM835 1122h-176v-30h176v30zM519 1210h456q38 0 65.5 -27t27.5 -66v-1010q0 -39 -27.5 -66.5t-65.5 -27.5h-456q-39 0 -66 27.5t-27 66.5v1010q0 39 27 66t66 27z" />
<glyph unicode="&#xf033;" d="M275 1094h1096q8 0 14.5 -6t6.5 -15v-711q0 -9 -6.5 -15t-14.5 -6h-418q-9 -46 -7.5 -74.5t6.5 -40.5l6 -12q24 -30 93 -72v-28h-456v28q30 19 53 37t31 27l8 8q1 1 2.5 4t5 13.5t5 24t0.5 36.5t-7 49h-110v134h674v483h-1004v115q0 9 6.5 15t15.5 6zM152 240h320v532 h-320v-532zM369 840h-115v-19h115v19zM163 897h298q25 0 43 -18t18 -43v-661q0 -25 -18 -43t-43 -18h-298q-25 0 -43 18t-18 43v661q0 25 18 43t43 18z" />
<glyph unicode="&#xf034;" d="M609 1094v-251q154 -6 279 -41t202 -86t133.5 -111.5t82.5 -119t41 -107t17 -78.5l1 -30v-140q-26 81 -70 139q-91 119 -258 184q-24 9 -65 22.5t-154 34t-209 16.5v-251l-500 409z" />
<glyph unicode="&#xf035;" d="M1072 1178q150 -262 150 -566q0 -306 -150 -567q-13 -23 -38 -29.5t-48 6.5t-30 37.5t6 47.5q133 232 133 505q0 271 -133 504q-13 23 -6 48t30 38t48 6t38 -30zM842 1060q122 -209 122 -448q0 -240 -122 -448q-13 -23 -38 -29t-48 7t-29 38t7 48q104 178 104 384 t-104 384q-13 23 -7 48t29 38t48 7t38 -29zM526 963q21 14 47 7.5t39 -28.5q94 -153 94 -330t-94 -330q-13 -22 -38.5 -28.5t-47.5 7.5q-23 13 -29 38.5t8 47.5q74 123 74 265q0 143 -74 264q-14 22 -8 48t29 39zM302 846q21 16 46.5 12.5t41.5 -24.5q73 -102 73 -222 q0 -124 -73 -222q-16 -20 -41.5 -24.5t-46.5 11.5t-25 41.5t11 46.5q50 63 49 147q-1 86 -49 146q-15 21 -11 47t25 41z" />
<glyph unicode="&#xf036;" d="M754 545q73 0 125.5 -52.5t52.5 -126.5t-52 -126t-126 -52t-126.5 52t-52.5 126t52.5 126.5t126.5 52.5zM754 125q99 0 169.5 70.5t70.5 170.5t-70.5 170.5t-169.5 70.5q-100 0 -171 -70.5t-71 -170.5t71 -170.5t171 -70.5zM754 720q146 0 249.5 -104t103.5 -250 t-103.5 -249.5t-249.5 -103.5q-147 0 -251 103.5t-104 249.5t104 250t251 104zM754 783q-41 0 -88 -10l247 415h295l-269 -450q-90 45 -185 45zM593 1188l124 -207l-149 -243l-269 450h294z" />
<glyph unicode="&#xf037;" d="M1248 690q1 4 3 11t3 11l-7 41q-21 76 -67 145q-6 -39 -23 -78q55 -60 91 -130zM1133 265q66 75 100 166q-1 31 -6 63q-46 -56 -104 -100q10 -59 10 -129zM1031 652q44 -82 72 -173q59 53 100 115q-30 83 -86 153q-41 -57 -86 -95zM1048 189q9 78 1 154q-75 -45 -162 -75 l40 -143q43 16 92 45q5 3 29 19zM813 528l52 -183q89 30 169 82q-23 92 -67 176q-12 -8 -18 -11q-60 -38 -136 -64zM748 93q52 0 101 10l-41 144q-86 -21 -177 -23q33 -69 81 -130q12 -1 36 -1zM429 202q78 -60 172 -88q-36 60 -59 114q-78 10 -141 31q13 -32 28 -57z M361 532q-11 -91 8 -175q68 -33 145 -45q-25 93 -30 184q-66 12 -123 36zM310 656q27 83 73 159q-8 5 -20 17q-47 -52 -94 -128q14 -22 41 -48zM280 415q-7 81 8 158q-38 27 -60 55q-3 -81 19 -159q4 -13 16 -39q5 -5 17 -15zM422 979q-25 -37 -16 -67q4 -16 20 -30 q44 63 98 120q-54 -10 -102 -23zM502 769q-24 3 -49 11q-2 -3 -5.5 -8.5t-4.5 -8.5q-45 -79 -65 -152q45 -23 104 -34q3 110 20 192zM608 950l-5 19q-60 -60 -104 -119q29 -6 61 -6q46 2 76 9zM713 583l-54 192q-48 -9 -78 -10q-18 -97 -19 -197q66 -3 151 15zM832 944 q-77 32 -151 47l6 -19l27 -98q43 17 70 34q21 13 48 36zM830 1095q-57 -17 -98 -35q64 -16 146 -49q5 20 1 36q-9 30 -49 48zM787 322l-52 184q-70 -16 -150 -18q-3 0 -10 0.5t-11 0.5q8 -99 35 -185q92 -3 188 18zM736 797l54 -191q76 25 137 66q-47 75 -120 157 q-40 -21 -71 -32zM908 909q-10 -12 -35 -35q70 -79 117 -153q39 35 71 84q-57 52 -135 96q-12 6 -18 8zM1105 941q-77 39 -148 60q-5 -19 -7 -25q85 -45 145 -96q10 33 10 61zM1323 776q25 -97 22.5 -190.5t-37 -181.5t-89.5 -160.5t-134.5 -126.5t-173.5 -81 q-119 -36 -237.5 -18.5t-218.5 71.5t-175.5 148t-108.5 211q-36 119 -18.5 237.5t71.5 218t148 175.5t211 109q97 25 190.5 22.5t181.5 -37t160.5 -89.5t126.5 -134.5t81 -173.5z" />
<glyph unicode="&#xf038;" d="M749 17q36 0 64.5 14t39.5 37h-207q11 -23 39 -37t64 -14zM947 339h-396q-18 0 -30.5 -12.5t-12.5 -30.5q0 -17 12.5 -29.5t30.5 -12.5h14v-51q-16 -3 -26 -14.5t-10 -27.5q0 -18 12 -30.5t30 -12.5h356q17 0 30 13t13 30q0 16 -10.5 27.5t-27.5 14.5v51h15 q18 0 30.5 12.5t12.5 29.5q0 18 -12.5 30.5t-30.5 12.5zM996 696q41 73 41 149q0 122 -84 205.5t-207 83.5q-120 0 -202.5 -83.5t-82.5 -205.5q0 -76 41 -149l6 -9q5 -9 9 -14q20 -29 31.5 -48t29 -63.5t26.5 -94.5h142h149q18 111 86 206q14 21 15 23zM746 1211 q154 0 261 -105.5t107 -260.5q0 -97 -50 -187q-4 -7 -24.5 -37.5t-32.5 -53t-26 -71t-17 -107.5h-218h-211q-4 58 -17.5 107t-26.5 72t-33 52.5t-24 37.5q-51 94 -51 187q0 154 107 260t256 106z" />
<glyph unicode="&#xf039;" d="M1345 673h-545v543q148 0 273.5 -72.5t198.5 -197.5t73 -273zM702 572l542 3q0 -111 -43 -211.5t-115.5 -173.5t-173 -116.5t-210.5 -43.5q-148 0 -273.5 73t-199 199t-73.5 273t73.5 272t199 197.5t273.5 72.5v-545z" />
<glyph unicode="&#xf03a;" d="M830 923v-766l-296 -134v1034zM1113 1206v-1183h-103v1080h-525v-1080h-102v1183h730z" />
<glyph unicode="&#xf03b;" d="M455 589q-21 0 -36 -15t-15 -36t15 -36t36 -15t35.5 15t14.5 36t-14.5 36t-35.5 15zM1077 589h-486q-13 0 -13 -13v-76q0 -13 13 -13h486q12 0 12 13v76q0 13 -12 13zM455 766q21 0 35.5 -14.5t14.5 -35.5t-14.5 -36t-35.5 -15t-36 15t-15 36t15 35.5t36 14.5zM591 766 h486q12 0 12 -12v-77q0 -12 -12 -12h-486q-13 0 -13 12v77q0 12 13 12zM455 944q21 0 35.5 -14.5t14.5 -36.5q0 -21 -14.5 -35.5t-35.5 -14.5t-36 14.5t-15 35.5q0 22 15 36.5t36 14.5zM591 944h486q12 0 12 -13v-75q0 -13 -12 -13h-486q-13 0 -13 13v75q0 13 13 13z M295 391h904v650h-904v-650zM783 1126h475q10 0 17.5 -7.5t7.5 -18.5v-769q0 -10 -7.5 -17.5t-17.5 -7.5h-380l192 -246h-94l-192 245v-163h-73v164l-193 -246h-94l192 246h-380q-10 0 -17.5 7.5t-7.5 17.5v769q0 11 7.5 18.5t17.5 7.5h474v82h73v-82z" />
<glyph unicode="&#xf03c;" d="M874 1031v-123h-85v123q0 11 -8 18.5t-19 7.5h-177q-10 0 -17.5 -7.5t-7.5 -18.5v-123h-86v123q0 46 32.5 79t78.5 33h177q46 0 79 -33t33 -79zM1044 513v122h-86v-122q0 -11 -7.5 -18.5t-17.5 -7.5h-177q-11 0 -19 7.5t-8 18.5v122h-85v-122q0 -47 33 -79.5t79 -32.5 h177q46 0 78.5 33t32.5 79zM467 683h885q31 0 56.5 -23t13.5 -47l-213 -430q-15 -31 -45 -50.5t-71 -19.5h-874q-45 0 -64 22t-6 48l213 430q14 28 45 49t60 21zM143 269v535q0 29 21 49.5t50 20.5h920q29 0 50 -20.5t21 -49.5v-79h-738q-41 0 -83 -28t-62 -67z" />
<glyph unicode="&#xf03d;" d="M821 727v45v103q0 13 -13 13h-57h-4h-58q-13 0 -13 -13v-103v-45q0 -11 2 -25l35 -294q2 -12 15 -12h43q12 0 14 12l35 294q0 4 0.5 13t0.5 12zM818 219v64v45q0 13 -13 13h-113q-12 0 -12 -13v-45v-64q0 -13 12 -13h113q5 0 9 4t4 9zM832 1129l535 -883q21 -26 21 -60 q0 -40 -28 -68.5t-68 -28.5h-2h-1082q-57 0 -85 49q-28 50 1 98l542 893q29 46 83 46t83 -46z" />
<glyph unicode="&#xf03e;" d="M1326 182l-95 -35v459l95 37v-461zM747 474l-726 281l726 279l725 -279zM729 434l18 -8l13 8l362 138v-213q0 -56 -109.5 -95t-265.5 -39t-266 39t-110 95v213z" />
<glyph unicode="&#xf040;" d="M483 154h545v696h-227v228h-318v-924zM817 1190l328 -324q17 -15 17 -40v-782q0 -10 -7 -16.5t-16 -6.5h-767q-10 0 -16.5 7t-6.5 17v1143q0 10 6.5 16.5t16.5 6.5h405q19 0 40 -21z" />
<glyph unicode="&#xf041;" d="M553 375h403q10 0 10 -9v-72q0 -10 -10 -10h-403q-9 0 -9 10v72q0 9 9 9zM553 538h403q10 0 10 -9v-74q0 -9 -10 -9h-403q-9 0 -9 9v74q0 9 9 9zM553 700h403q10 0 10 -10v-72q0 -9 -10 -9h-403q-9 0 -9 9v72q0 10 9 10zM482 154h546v696h-228v228h-318v-924zM816 1190 l328 -324q17 -15 17 -40v-782q0 -10 -6.5 -16.5t-16.5 -6.5h-766q-10 0 -17 7t-7 17v1143q0 10 7 16.5t17 6.5h404q21 0 40 -21z" />
<glyph unicode="&#xf042;" d="M605 720l-62 -159q-38 -17 -65 -55.5t-27 -90.5v-234h-117q-19 0 -19 18v457q0 19 -19 19h-188q-7 0 -8.5 3.5t3.5 8.5l215 190v240h166v-93l195 174q15 13 29 0l427 -376l-3 1h-375q-54 0 -93.5 -27t-58.5 -76zM1243 322q25 0 42.5 18t17.5 44t-17.5 43.5t-42.5 17.5h-1 q-25 0 -42.5 -18t-17.5 -43t18 -43.5t43 -18.5zM716 661l-54 -144h565l-54 144q-14 36 -40 36h-377q-28 0 -40 -36zM646 322q25 0 42.5 18t17.5 44t-17 43.5t-42 17.5h-1h-1q-25 0 -42.5 -18t-17.5 -43t18 -43.5t43 -18.5zM1230 699l71 -184q27 -4 52.5 -30.5t25.5 -69.5 v-235h-69v-79q0 -27 -19 -45.5t-46 -18.5t-46.5 18.5t-19.5 45.5v79h-470v-79q0 -27 -19 -45.5t-46 -18.5t-46 18.5t-19 45.5v79h-70v235q0 43 26 69.5t52 30.5l72 184q24 65 98 65h375q72 0 98 -65z" />
<glyph unicode="&#xf043;" d="M631 1008q91 0 156.5 -65t65.5 -157q0 -93 -65 -158t-157 -65t-157.5 65t-65.5 158q0 92 65.5 157t157.5 65zM220 19v142q0 82 38.5 165.5t108 140.5t147.5 57h215q78 0 147.5 -57t108 -140.5t38.5 -165.5v-142h-803zM1318 179h-216q-5 122 -75.5 236t-176.5 163 q42 43 65 105h109q77 0 146.5 -57t108.5 -141t39 -165v-141zM1148 944q0 -92 -65 -157t-157 -65q7 28 7 64q0 95 -53.5 171.5t-139.5 109.5q31 46 80 73t106 27q92 0 157 -65t65 -158z" />
<glyph unicode="&#xf044;" d="M118 670v301q0 8 6 14.5t15 6.5h756q8 0 14 -6.5t6 -14.5v-301q0 -9 -6 -15t-14 -6h-756q-9 0 -15 6t-6 15zM1027 215v302q0 8 6 14t14 6h302q8 0 14.5 -6t6.5 -14v-302q0 -9 -6.5 -15t-14.5 -6h-302q-8 0 -14 6t-6 15zM572 215v302q0 8 6.5 14t14.5 6h302q8 0 14 -6 t6 -14v-302q0 -9 -6 -15t-14 -6h-302q-8 0 -14.5 6t-6.5 15zM118 215v302q0 8 6 14t15 6h301q8 0 14.5 -6t6.5 -14v-302q0 -9 -6.5 -15t-14.5 -6h-301q-9 0 -15 6t-6 15zM1027 670v301q0 8 6 14.5t14 6.5h302q8 0 14.5 -6.5t6.5 -14.5v-301q0 -9 -6.5 -15t-14.5 -6h-302 q-8 0 -14 6t-6 15z" />
<glyph unicode="&#xf045;" d="M1110 965q74 -75 104 -150t-1 -105q-27 -28 -89 -7l-221 -237q64 -131 11 -184q-39 -36 -117.5 -12.5t-168.5 95.5l-342 -221l221 338q-71 90 -94 171t14 119q27 26 74 22.5t107 -33.5l238 217q-21 66 5 92q32 31 108 0t151 -105z" />
<glyph unicode="&#xf046;" d="M793 17h-365l-71 181l805 3q-32 -79 -134 -131.5t-235 -52.5zM919 254l-3 620l362 -618zM858 254l-616 -3l614 955z" />
<glyph unicode="&#xf047;" d="M547 184h784v145h-784v-145zM104 176v162q0 22 16 38t38 16h1182q22 0 38 -16t16 -38v-162q0 -22 -16 -38t-38 -16h-1182q-22 0 -38 16t-16 38zM1050 539h281v144h-281v-144zM104 530v162q0 23 16 39t38 16h1182q22 0 38 -16t16 -39v-162q0 -22 -16 -38t-38 -16h-1182 q-22 0 -38 16t-16 38zM862 893h469v145h-469v-145zM158 1101h1182q22 0 38 -16t16 -38v-163q0 -22 -16 -38t-38 -16h-1182q-22 0 -38 16t-16 38v163q0 22 16 38t38 16z" />
<glyph unicode="&#xf048;" d="M503 810l238 -239l545 545l140 -138l-685 -684l-375 375zM1142 196v430l141 144v-717h-1127v1129h1127v-3l-29 -31l-112 -112v3h-843v-367v-3v-473h843z" />
<glyph unicode="&#xf049;" d="M755 817v82q0 11 -10 11h-177v177q0 10 -10 10h-83q-10 0 -10 -10v-177h-177q-10 0 -10 -11v-82q0 -10 10 -10h177v-176q0 -11 10 -11h83q10 0 10 11v176h177q10 0 10 10zM517 1220q149 0 255 -106t106 -255q0 -150 -106 -256t-255 -106q-150 0 -256 106t-106 256 q0 149 106 255t256 106zM1238 334v82q0 11 -10 11h-456q-11 0 -11 -11v-82q0 -10 11 -10h456q10 0 10 10zM1000 737q149 0 255 -106t106 -255q0 -150 -106 -256t-255 -106q-150 0 -256 106t-106 256q0 52 15 102q86 31 150 95t95 150q50 14 102 14z" />
<glyph unicode="&#xf04a;" d="M753 825q106 0 182 -75.5t76 -181.5t-75.5 -182t-182.5 -76q-106 0 -181.5 75.5t-75.5 182.5q0 106 75.5 181.5t181.5 75.5zM1335 813v94q0 10 -6.5 16.5t-16.5 6.5h-142q-10 0 -17 -6.5t-7 -16.5v-94q0 -10 7 -17t17 -7h142q10 0 16.5 7t6.5 17zM753 213q147 0 251 104 t104 251q0 146 -104 250.5t-251 104.5t-251 -104.5t-104 -250.5q0 -147 104 -251t251 -104zM978 996h398q10 0 17 -7t7 -17v-809q0 -10 -7 -17t-17 -7h-1247q-10 0 -16.5 7t-6.5 17v809q0 10 6.5 17t16.5 7h399l34 83q0 12 8 20t20 8h326q12 0 20 -8t8 -20z" />
<glyph unicode="&#xf04b;" d="M465 986h154v-283h-154v283zM399 645h696v399h-696v-399zM1154 1104l93 -94q12 -11 12 -32v-830q0 -21 -15 -36t-36 -15h-921q-21 0 -36.5 15t-15.5 36v922q0 21 15.5 36t36.5 15h824q26 0 43 -17z" />
<glyph unicode="&#xf04c;" d="M747 1077q17 0 29 12.5t12 29.5t-12 29t-29 12t-30 -12t-13 -29t13 -29.5t30 -12.5zM962 932v-45h-431v45q0 76 67 76q10 0 17.5 2t13.5 5t10.5 9l7.5 10t5 13l3 13.5t1.5 15t0.5 14.5v15.5v14.5q0 36 25.5 62t64.5 26q38 0 63 -25.5t25 -62.5v-14.5v-15.5t0.5 -14.5 t1.5 -15l3 -13.5t5 -13l7.5 -10t10.5 -9t13.5 -5t17.5 -2q68 0 68 -76zM1010 971h62q19 0 32.5 -13.5t13.5 -32.5v-853q0 -19 -13.5 -32.5t-32.5 -13.5h-653q-19 0 -32.5 13.5t-13.5 32.5v853q0 19 13.5 32.5t32.5 13.5h63v-133h528v133z" />
<glyph unicode="&#xf04d;" d="M145 439h127v-397q0 -7 5 -12.5t12 -5.5h104q17 0 17 18v397h116q7 0 8.5 4t-2.5 9l-185 215q-11 13 -22 0l-185 -215q-5 -5 -3.5 -9t8.5 -4zM757 625q-87 0 -148 61.5t-61 147.5q0 87 61 148.5t148 61.5t148.5 -61.5t61.5 -148.5q0 -86 -61.5 -147.5t-148.5 -61.5z M647 588h203q73 0 138.5 -53.5t102 -132.5t36.5 -156v-133h-657v267h56q45 0 63 38t-12 72l-50 58q58 40 120 40zM1025 738h103q73 0 138.5 -54t102 -133t36.5 -156v-133h-203q-5 115 -72 222.5t-166 153.5q40 43 61 100zM1042 834q0 90 -50 162.5t-131 103.5q28 43 74 68.5 t100 25.5q87 0 148.5 -61.5t61.5 -148.5q0 -86 -61.5 -147.5t-147.5 -61.5q6 28 6 59z" />
<glyph unicode="&#xf04e;" d="M757 625q-87 0 -148.5 62t-61.5 148q0 87 61.5 148.5t148.5 61.5t148.5 -61.5t61.5 -148.5q0 -86 -61.5 -148t-148.5 -62zM647 589h203q73 0 138.5 -53.5t102 -132.5t36.5 -156v-133h-614l94 108q28 35 11 73q-18 38 -63 38h-67v184q74 72 159 72zM1025 739h103 q73 0 138.5 -54t102 -133t36.5 -156v-133h-203q-5 115 -72 222.5t-167 153.5q41 42 62 100zM1042 835q0 90 -50.5 162t-131.5 104q29 43 75 68.5t100 25.5q87 0 148.5 -61.5t61.5 -148.5t-61.5 -148.5t-147.5 -61.5q6 38 6 60zM429 274h126q8 0 9.5 -4t-3.5 -9l-185 -216 q-11 -13 -22 0l-185 216q-4 5 -2.5 9t8.5 4h116v397q0 7 5 12t12 5h104q7 0 12 -5t5 -12v-397z" />
<glyph unicode="&#xf050;" d="M938 355l13 12l103 103v-415q0 -9 -7 -15.5t-16 -6.5h-751q-10 0 -16.5 6.5t-6.5 16.5v1121q0 9 6.5 15.5t16.5 6.5h396q18 0 40 -20l294 -290l-87 -87v43h-224v223h-311v-904h535v185zM1195 955l113 -112q3 -5 3 -9q0 -7 -3 -10l-407 -407l-193 -62l61 194l408 406 q3 4 8 4h1q5 0 9 -4zM1430 964q9 -9 0 -18l-57 -56q-3 -4 -10 -4q-5 0 -8 4l-113 113q-4 3 -4 8q0 6 4 10l56 57q8 8 18 0z" />
<glyph unicode="&#xf051;" d="M1250 1010v14v49q0 4 -3.5 7.5t-7.5 3.5h-437q-10 0 -10 -11v-49v-14v-108v-63v-171q0 -11 10 -11h437q11 0 11 11v171v63v108zM1250 496v64q0 4 -3.5 7.5t-7.5 3.5h-437q-10 0 -10 -11v-64q0 -11 10 -11h437q4 0 7.5 3.5t3.5 7.5zM1250 325v64q0 4 -3.5 7.5t-7.5 3.5 h-437q-10 0 -10 -11v-64q0 -11 10 -11h437q4 0 7.5 3.5t3.5 7.5zM1250 154v64q0 10 -11 10h-437q-10 0 -10 -10v-64q0 -11 10 -11h437q4 0 7.5 3.5t3.5 7.5zM257 999h436q12 0 12 11v63q0 11 -12 11h-436q-10 0 -10 -11v-63q0 -11 10 -11zM705 839v63q0 11 -12 11h-436 q-10 0 -10 -11v-63q0 -11 10 -11h436q12 0 12 11zM705 668v63q0 11 -12 11h-436q-10 0 -10 -11v-63q0 -11 10 -11h436q12 0 12 11zM705 496v64q0 11 -12 11h-436q-10 0 -10 -11v-64q0 -11 10 -11h436q12 0 12 11zM705 325v64q0 11 -12 11h-436q-10 0 -10 -11v-64 q0 -11 10 -11h436q12 0 12 11zM705 154v64q0 10 -12 10h-436q-10 0 -10 -10v-64q0 -11 10 -11h436q12 0 12 11zM162 1209h1172q9 0 16 -6.5t7 -15.5v-1147q0 -9 -7 -15.5t-16 -6.5h-1172q-10 0 -16.5 6.5t-6.5 15.5v1147q0 10 6.5 16t16.5 6z" />
<glyph unicode="&#xf052;" d="M822 933v-103v-44q0 -11 -2 -25l-34 -290q-2 -13 -14 -13h-44q-12 0 -14 13l-35 290q-1 7 -1 25v44v103q0 12 12 12h57h5h57q5 0 9 -4t4 -8zM818 391v-45v-62q0 -5 -3.5 -9t-8.5 -4h-113q-12 0 -12 13v62v45q0 13 12 13h113q5 0 8.5 -4t3.5 -9zM750 47q114 0 218 44.5 t179 119.5t119.5 179t44.5 218t-44.5 218t-119.5 179t-179 119.5t-218 44.5q-152 0 -281.5 -75.5t-204.5 -204.5t-75 -281t75 -281t204.5 -204.5t281.5 -75.5zM750 1238q128 0 244.5 -50t201 -134.5t134.5 -201t50 -244.5t-50 -244.5t-134.5 -201t-201 -134.5t-244.5 -50 q-171 0 -316 84.5t-229.5 229.5t-84.5 316t84.5 316t229.5 229.5t316 84.5z" />
<glyph unicode="&#xf053;" d="M759 900q0 36 26.5 61.5t63.5 25.5q33 0 53.5 -20.5t20.5 -53.5q0 -37 -26.5 -62.5t-63.5 -25.5q-34 0 -54 20.5t-20 54.5zM624 493l76 192q5 14 1 22t-12 8q-18 0 -32.5 -17.5t-20.5 -17.5t-10 4.5t-4 9.5q0 4 0.5 7.5t1.5 5.5t3.5 5t3.5 4.5t5.5 5.5t6.5 6 q34 32 66 45.5t79 13.5q27 0 45 -11.5t26 -41.5t-13 -82l-78 -212q-19 -54 -19 -62q0 -15 13 -15q19 0 29.5 12.5t15.5 12.5q4 0 8.5 -4.5t4.5 -10.5q0 -28 -53.5 -64t-120.5 -36t-67 59q0 54 45 161zM750 47q114 0 218 44.5t179 119.5t119.5 179t44.5 218t-44.5 218 t-119.5 179t-179 119.5t-218 44.5q-152 0 -281.5 -75.5t-204.5 -204.5t-75 -281t75 -281t204.5 -204.5t281.5 -75.5zM750 1238q128 0 244.5 -50t201 -134.5t134.5 -201t50 -244.5t-50 -244.5t-134.5 -201t-201 -134.5t-244.5 -50q-171 0 -316 84.5t-229.5 229.5t-84.5 316 t84.5 316t229.5 229.5t316 84.5z" />
<glyph unicode="&#xf054;" d="M526 669l137 -136l312 312l79 -79l-391 -391l-216 215zM750 47q114 0 218 44.5t179 119.5t119.5 179t44.5 218t-44.5 218t-119.5 179t-179 119.5t-218 44.5q-152 0 -281.5 -75.5t-204.5 -204.5t-75 -281t75 -281t204.5 -204.5t281.5 -75.5zM750 1238q128 0 244.5 -50 t201 -134.5t134.5 -201t50 -244.5t-50 -244.5t-134.5 -201t-201 -134.5t-244.5 -50q-171 0 -316 84.5t-229.5 229.5t-84.5 316t84.5 316t229.5 229.5t316 84.5z" />
<glyph unicode="&#xf055;" d="M1087 784l80 -80l-421 -422h-1l-421 422l80 80l342 -342z" />
<glyph unicode="&#xf056;" d="M1167 474l-80 -80l-341 342l-342 -342l-80 80l421 422l1 -1v1z" />
<glyph unicode="&#xf057;" d="M519 955l79 79l422 -421v-1l-422 -421l-79 81l341 341z" />
<glyph unicode="&#xf058;" d="M877 1034l79 -79l-341 -342l341 -341l-79 -81l-422 421v1z" />
<glyph unicode="&#xf059;" d="M749 828q89 0 152.5 -63t63.5 -151q0 -89 -63.5 -152.5t-152.5 -63.5q-88 0 -151 63.5t-63 152.5q0 88 62.5 151t151.5 63z" />
<glyph unicode="&#xf060;" d="M802 394h-112q-13 0 -13 -13v-108q0 -13 13 -13h112q13 0 13 13v108q0 13 -13 13zM908 899q-70 50 -174 50q-78 0 -134 -35q-88 -56 -92 -187q0 -13 13 -13h108q13 0 13 13q0 39 22 74t76 35t75 -28q21 -30 21 -65q0 -27 -19 -56q-11 -13 -27 -27l-33 -26 q-50 -40 -62 -69q-12 -30 -15 -108q0 -13 13 -13h100q13 0 13 13q0 37 6 55q7 27 35 48l33 26q47 36 67 64q30 40 30 86q0 51 -18 95t-51 68zM749 47q114 0 218 44.5t179 119.5t119.5 179t44.5 218t-44.5 218t-119.5 179t-179 119.5t-218 44.5t-218 -44.5t-179 -119.5 t-119.5 -179t-44.5 -218t44.5 -218t119.5 -179t179 -119.5t218 -44.5zM749 1238q128 0 244.5 -50t201 -134.5t134.5 -201t50 -244.5t-50 -244.5t-134.5 -201t-201 -134.5t-244.5 -50t-244.5 50t-201 134.5t-134.5 201t-50 244.5t50 244.5t134.5 201t201 134.5t244.5 50z" />
<glyph unicode="&#xf061;" d="M321 161v-49h-196v221h49v-172h147zM1373 333v-221h-220v49h171v172h49zM1373 1116v-220h-49v171h-147v49h196zM174 1067v-171h-49v220h196v-49h-147zM1226 945v-661h-49v661h49zM1104 945v-661h-122v661h122zM835 945v-661h-25v661h25zM737 945v-661h-98v661h98z M933 945v-661h-25v661h25zM590 945v-661h-24v661h24zM517 945v-661h-123v661h123zM321 945v-661h-49v661h49z" />
<glyph unicode="&#xf062;" d="M668 171q-8 0 -16 8l-485 415q-12 10 -12 25t12 25l485 416q10 7 16 7q13 0 13 -21v-272h630q16 0 27.5 -11t11.5 -27v-233q0 -16 -11.5 -27.5t-27.5 -11.5h-630v-272q0 -21 -13 -21z" />
<glyph unicode="&#xf063;" d="M818 293v-64q0 -5 -4 -9t-9 -4h-113q-12 0 -12 13v64v45q0 13 12 13h113q13 0 13 -13v-45zM821 782v-45q0 -3 -0.5 -12t-0.5 -13l-35 -294q-2 -12 -14 -12h-43q-13 0 -15 12l-35 294q-2 14 -2 25v45v103q0 13 13 13h58h4h57q13 0 13 -13v-103zM1251 122q37 0 63.5 26 t26.5 64q0 32 -19 56l-497 819q-28 44 -77 44q-51 0 -77 -44l-503 -828q-28 -46 -2 -91q25 -46 79 -46h1006zM880 1121l495 -816q31 -42 31 -93q0 -61 -41.5 -105t-101.5 -49l-1 -1h-11h-2h-1h-1003q-42 0 -78.5 21t-56.5 58t-19.5 79t22.5 77l502 829q21 34 56.5 54 t76.5 20q40 0 75.5 -20t56.5 -54z" />
<glyph unicode="&#xf064;" d="M1119 1235q39 0 66.5 -27.5t27.5 -66.5v-1041q0 -39 -27.5 -66.5t-66.5 -27.5h-734q-39 0 -66.5 27.5t-27.5 66.5v1041q0 39 27.5 66.5t66.5 27.5h734zM750 58q10 0 17.5 7t7.5 18t-7.5 18.5t-17.5 7.5q-11 0 -18.5 -7.5t-7.5 -18.5t7.5 -18t18.5 -7zM1093 146v962h-675 v-962h675z" />
<glyph unicode="&#xf065;" horiz-adv-x="1528" d="M1192 909q14 0 24 -9.5t10 -23.5v-34q0 -14 -10 -23.5t-24 -9.5h-46q-80 -642 -94 -729q-6 -34 -40 -34h-528q-13 0 -22 9t-11 20q-3 14 -9 56l-88 678h-58q-14 0 -23.5 9.5t-9.5 23.5v34q0 14 9.5 23.5t23.5 9.5h896zM539 145h70l-45 664h-112zM707 145h82l45 664h-172z M961 145l87 664h-116l-45 -664h74zM1192 1042q14 0 24 -10t10 -24v-33q0 -14 -10 -23.5t-24 -9.5h-896q-14 0 -23.5 10t-9.5 23v33q0 14 9.5 24t23.5 10h266v66q0 32 17.5 49t48.5 17h232q27 0 47 -18t20 -48v-66h265zM628 1081v-39h232v43q0 14 -4 18.5t-17 4.5h-186 q-25 0 -25 -27z" />
<glyph unicode="&#xf066;" horiz-adv-x="1440" d="M666 886h-147q-20 0 -8 16l226 262q14 16 28 0l225 -262q12 -16 -8 -16h-140h-7v-485q0 -8 -6 -14.5t-15 -6.5h-127q-8 0 -14.5 6.5t-6.5 14.5v485zM1177 551h127q8 0 14.5 -6t6.5 -15v-464q0 -9 -6.5 -15t-14.5 -6h-124h-3h-842h-21h-106q-9 0 -15 6t-6 15v464q0 9 6 15 t15 6h127q8 0 14.5 -6t6.5 -15v-317h800v317q0 9 6 15t15 6z" />
<glyph unicode="&#xf067;" d="M750 47q114 0 218 44.5t179 119.5t119.5 179t44.5 218t-44.5 218t-119.5 179t-179 119.5t-218 44.5q-152 0 -281.5 -75.5t-204.5 -204.5t-75 -281t75 -281t204.5 -204.5t281.5 -75.5zM750 1238q128 0 244.5 -50t201 -134.5t134.5 -201t50 -244.5t-50 -244.5t-134.5 -201 t-201 -134.5t-244.5 -50q-171 0 -316 84.5t-229.5 229.5t-84.5 316t84.5 316t229.5 229.5t316 84.5zM1008 775l-163 -163l163 -160q10 -10 0 -19l-77 -78q-9 -9 -18 0l-163 162l-162 -162q-9 -9 -18 0l-79 78q-9 9 0 19l162 160l-162 163q-9 9 0 18l79 79q9 7 18 0l162 -163 l163 163q9 9 18 0l77 -79q8 -10 0 -18z" />
<glyph unicode="&#xf068;" horiz-adv-x="1720" d="M1164 609l183 -183q11 -10 0 -21l-88 -87q-4 -4 -10 -4t-10 4l-183 182l-182 -182q-10 -10 -21 0l-88 87q-9 11 0 21l183 183l-183 182q-9 11 0 21l88 87q11 11 21 0l182 -182l183 182q4 5 10 5t10 -5l88 -87q11 -10 0 -21zM1611 1119l-5 1h-987q-27 0 -48 -21l-470 -468 q-8 -8 -8 -20t8 -20l470 -471q27 -27 48 -27h982q11 0 21 15.5t10 28.5v954q0 28 -21 28zM1601 1197h-5q48 0 80.5 -30t32.5 -76v-954q0 -52 -31 -86.5t-77 -34.5h-982q-59 0 -109 48l-470 469q-33 33 -33 79t34 80l469 463q42 42 109 42h982z" />
<glyph unicode="&#xf070;" horiz-adv-x="1720" d="M1495 839q-94 0 -160 -66t-66 -160q0 -93 66 -159t160 -66t160 66t66 159q0 94 -66 160t-160 66zM864 839q-94 0 -160 -66t-66 -160q0 -93 66 -159t160 -66t160 66t66 159q0 94 -66 160t-160 66zM233 839q94 0 160 -66t66 -160q0 -93 -66 -159t-160 -66q-93 0 -159.5 66 t-66.5 159q0 94 66.5 160t159.5 66z" />
<glyph />
<glyph />
<glyph />
<glyph />
<glyph />
<glyph />
<glyph />
<glyph />
<glyph />
<glyph />
<glyph />
<glyph />
<glyph />
<glyph />
<glyph />
<glyph />
<glyph />
<glyph />
<glyph />
<glyph />
<glyph />
<glyph />
<glyph />
<glyph />
<glyph />
<glyph />
<glyph />
<glyph />
<glyph />
<glyph />
<glyph />
<glyph />
<glyph />
<glyph />
<glyph />
<glyph />
<glyph />
<glyph />
<glyph />
<glyph />
<glyph />
<glyph />
<glyph />
<glyph />
<glyph />
<glyph />
<glyph />
<glyph />
<glyph />
<glyph />
<glyph />
<glyph />
<glyph />
<glyph />
<glyph />
<glyph />
<glyph />
<glyph />
<glyph />
<glyph />
<glyph />
<glyph />
<glyph />
<glyph />
<glyph />
<glyph />
<glyph />
<glyph />
<glyph />
<glyph />
<glyph />
<glyph />
<glyph />
<glyph />
<glyph />
<glyph />
<glyph />
<glyph />
<glyph />
<glyph />
<glyph />
<glyph />
<glyph />
<glyph />
<glyph />
<glyph />
<glyph />
<glyph />
<glyph />
<glyph />
<glyph />
<glyph />
<glyph />
<glyph />
<glyph />
<glyph />
<glyph />
<glyph />
<glyph />
<glyph />
<glyph />
<glyph />
<glyph />
<glyph />
<glyph />
<glyph />
<glyph />
<glyph />
<glyph />
<glyph />
<glyph />
<glyph />
<glyph />
<glyph />
<glyph />
<glyph />
<glyph />
<glyph />
<glyph />
<glyph />
<glyph />
<glyph />
<glyph />
<glyph />
<glyph />
<glyph />
<glyph />
<glyph />
<glyph />
<glyph />
<glyph />
<glyph />
<glyph />
<glyph />
<glyph />
<glyph />
<glyph />
<glyph />
<glyph />
<glyph />
<glyph />
<glyph />
<glyph />
<glyph />
<glyph />
<glyph />
<glyph />
<glyph />
<glyph />
<glyph />
<glyph />
<glyph />
<glyph />
<glyph />
<glyph />
<glyph />
<glyph />
<glyph />
<glyph />
<glyph />
<glyph />
<glyph />
<glyph />
<glyph />
<glyph />
<glyph />
<glyph />
<glyph />
<glyph />
<glyph />
<glyph />
<glyph />
<glyph />
<glyph />
<glyph />
<glyph />
<glyph />
<glyph />
<glyph />
<glyph />
<glyph />
<glyph />
<glyph />
<glyph />
<glyph />
<glyph />
<glyph />
<glyph />
<glyph />
<glyph />
<glyph />
<glyph />
<glyph />
<glyph />
<glyph />
<glyph />
<glyph />
<glyph />
<glyph />
<glyph />
<glyph />
<glyph />
<glyph />
<glyph />
<glyph />
<glyph />
<glyph />
<glyph />
<glyph />
<glyph />
<glyph />
<glyph />
<glyph />
<glyph />
<glyph />
<glyph />
<glyph />
<glyph />
<glyph />
<glyph />
<glyph />
<glyph />
<glyph />
<glyph />
<glyph />
<glyph />
<glyph />
<glyph />
<glyph />
<glyph />
<glyph />
<glyph />
<glyph />
<glyph />
<glyph />
<glyph />
<glyph />
<glyph />
<glyph />
<glyph />
<glyph />
</font>
</defs>
</svg>
