<?xml version="1.0" standalone="no"?>
<!DOCTYPE svg PUBLIC "-//W3C//DTD SVG 1.1//EN" "http://www.w3.org/Graphics/SVG/1.1/DTD/svg11.dtd" >
<svg xmlns="http://www.w3.org/2000/svg" xmlns:xlink="http://www.w3.org/1999/xlink" version="1.1">
<metadata>
Created by FontForge 20141024 at Sun Jul 19 05:18:36 2015
 By Jimmy Warting
Copyright 1997-2013 Monotype GmbH. All rights reserved.
</metadata>
<defs>
<font id="UniversNextforHSBC-Regular" horiz-adv-x="580" >
  <font-face 
    font-family="Univers Next for HSBC"
    font-weight="400"
    font-stretch="normal"
    units-per-em="1000"
    panose-1="2 11 5 3 3 2 2 2 2 3"
    ascent="750"
    descent="-250"
    x-height="505"
    cap-height="723"
    bbox="-223 -222 1072 929"
    underline-thickness="50"
    underline-position="-50"
    stemh="62"
    stemv="88"
    unicode-range="U+000D-FB04"
  />
<missing-glyph horiz-adv-x="512" 
d="M278 117h-56v67h56v-67zM271 234h-48v17c0 72 15 98 59 140c43 42 50 61 50 89c0 48 -35 79 -76 79s-74 -27 -82 -95l-50 8c9 95 63 137 135 137c71 0 124 -49 124 -125c0 -46 -12 -79 -63 -126c-42 -38 -49 -55 -49 -100v-24zM50 50h412v617h-412v-617zM0 718h512v-718
h-512v718z" />
    <glyph glyph-name="napostrophe" unicode="&#x22;n" horiz-adv-x="593" 
d="M514 0h-88v280c0 88 -10 164 -117 164c-109 0 -139 -99 -139 -192v-252h-88v375c0 43 -2 101 -3 130h87l3 -81c41 58 92 87 165 87c132 0 180 -73 180 -197v-314zM65 723l-60 -225h-65l27 225h98z" />
    <glyph glyph-name="IJ" unicode="IJ" horiz-adv-x="809" 
d="M192 0h-94v723h94v-723zM725 217c0 -146 -71 -227 -221 -227c-111 0 -207 62 -207 196h96c0 -64 30 -122 114 -122c96 0 124 70 124 155v504h94v-506z" />
    <glyph glyph-name="fi" unicode="fi" horiz-adv-x="584" 
d="M326 662c-13 1 -26 2 -39 2c-49 0 -82 -12 -82 -67v-92h113v-61h-113v-444h-88v444h-101v61h101v48c0 102 14 176 136 176c24 0 48 -1 73 -3v-64zM512 634h-98v89h98v-89zM507 0h-88v505h88v-505z" />
    <glyph glyph-name="fl" unicode="fl" horiz-adv-x="589" 
d="M326 662c-13 1 -26 2 -39 2c-49 0 -82 -12 -82 -67v-92h113v-61h-113v-444h-88v444h-101v61h101v48c0 102 14 176 136 176c24 0 48 -1 73 -3v-64zM507 0h-88v723h88v-723z" />
    <glyph glyph-name="ij" unicode="ij" horiz-adv-x="504" 
d="M175 634h-98v89h98v-89zM170 0h-88v505h88v-505zM427 634h-98v89h98v-89zM422 -63c0 -101 -40 -123 -135 -123c-22 0 -39 1 -50 2v66c13 -2 26 -3 38 -3c57 0 59 32 59 80v546h88v-568z" />
    <glyph glyph-name="f_f_l" unicode="ffl" horiz-adv-x="930" 
d="M326 662c-13 1 -26 2 -39 2c-49 0 -82 -12 -82 -67v-92h113v-61h-113v-444h-88v444h-101v61h101v48c0 102 14 176 136 176c24 0 48 -1 73 -3v-64zM667 662c-13 1 -26 2 -39 2c-49 0 -82 -12 -82 -67v-92h113v-61h-113v-444h-88v444h-101v61h101v48c0 102 14 176 136 176
c24 0 48 -1 73 -3v-64zM848 0h-88v723h88v-723z" />
    <glyph glyph-name="f_f_i" unicode="ffi" horiz-adv-x="930" 
d="M326 662c-13 1 -26 2 -39 2c-49 0 -82 -12 -82 -67v-92h113v-61h-113v-444h-88v444h-101v61h101v48c0 102 14 176 136 176c24 0 48 -1 73 -3v-64zM667 662c-13 1 -26 2 -39 2c-49 0 -82 -12 -82 -67v-92h113v-61h-113v-444h-88v444h-101v61h101v48c0 102 14 176 136 176
c24 0 48 -1 73 -3v-64zM853 634h-98v89h98v-89zM848 0h-88v505h88v-505z" />
    <glyph glyph-name="f_f" unicode="ff" horiz-adv-x="682" 
d="M326 662c-13 1 -26 2 -39 2c-49 0 -82 -12 -82 -67v-92h113v-61h-113v-444h-88v444h-101v61h101v48c0 102 14 176 136 176c24 0 48 -1 73 -3v-64zM667 662c-13 1 -26 2 -39 2c-49 0 -82 -12 -82 -67v-92h113v-61h-113v-444h-88v444h-101v61h101v48c0 102 14 176 136 176
c24 0 48 -1 73 -3v-64z" />
    <glyph glyph-name=".notdef" horiz-adv-x="512" 
d="M278 117h-56v67h56v-67zM271 234h-48v17c0 72 15 98 59 140c43 42 50 61 50 89c0 48 -35 79 -76 79s-74 -27 -82 -95l-50 8c9 95 63 137 135 137c71 0 124 -49 124 -125c0 -46 -12 -79 -63 -126c-42 -38 -49 -55 -49 -100v-24zM50 50h412v617h-412v-617zM0 718h512v-718
h-512v718z" />
    <glyph glyph-name=".null" horiz-adv-x="567" 
 />
    <glyph glyph-name=".null" horiz-adv-x="567" 
 />
    <glyph glyph-name="CR" unicode="&#xd;" horiz-adv-x="0" 
 />
    <glyph glyph-name="space" unicode=" " horiz-adv-x="290" 
 />
    <glyph glyph-name="exclam" unicode="!" horiz-adv-x="298" 
d="M203 723l-16 -545h-76l-16 545h108zM199 0h-100v101h100v-101z" />
    <glyph glyph-name="quotedbl" unicode="&#x22;" horiz-adv-x="437" 
d="M342 723l-12 -230h-62l-12 230h86zM182 723l-13 -230h-61l-13 230h87z" />
    <glyph glyph-name="numbersign" unicode="#" 
d="M560 436h-116l-28 -157h105v-71h-117l-37 -208h-77l36 208h-123l-37 -208h-77l37 208h-105v71h118l28 157h-105v70h117l39 217h77l-39 -217h123l39 217h77l-39 -217h104v-70zM367 436h-123l-29 -157h124z" />
    <glyph glyph-name="dollar" unicode="$" 
d="M538 190c0 -131 -106 -188 -217 -198v-83h-49v82c-125 2 -229 52 -229 200h92c0 -93 58 -122 137 -127v256c-104 31 -216 70 -216 205c0 127 108 186 216 193v83h49v-84c109 -8 195 -51 203 -178h-92c-3 71 -51 95 -111 104v-249c106 -31 217 -65 217 -204zM272 409v235
c-64 -4 -123 -39 -123 -113s64 -105 123 -122zM445 186c0 77 -64 101 -124 120v-241c65 10 124 45 124 121z" />
    <glyph glyph-name="percent" unicode="%" horiz-adv-x="918" 
d="M887 187c0 -102 -47 -193 -162 -193c-112 0 -162 91 -162 192s51 194 163 194c114 0 161 -91 161 -193zM710 753l-431 -779h-71l433 779h69zM355 546c0 -102 -47 -194 -162 -194c-112 0 -162 93 -162 193c0 101 52 193 164 193c115 0 160 -90 160 -192zM814 186
c0 56 -16 138 -86 138c-75 0 -92 -81 -92 -141c0 -57 20 -134 90 -134c72 0 88 80 88 137zM282 545c0 56 -16 137 -86 137c-75 0 -91 -80 -91 -140c0 -57 20 -135 89 -135c72 0 88 81 88 138z" />
    <glyph glyph-name="ampersand" unicode="&#x26;" horiz-adv-x="729" 
d="M610 0l-60 65c-58 -51 -136 -79 -236 -79c-145 0 -264 63 -264 196c0 104 90 169 189 226c-50 54 -95 107 -95 177c0 91 74 152 179 152c104 0 179 -53 179 -149c0 -80 -59 -133 -142 -183c58 -62 128 -139 196 -213c25 56 37 127 37 210h84c0 -106 -23 -198 -68 -269
l121 -133h-120zM328 53c76 0 134 22 176 62l-222 245c-75 -45 -137 -94 -137 -169c0 -89 83 -138 183 -138zM235 591c0 -49 39 -94 82 -139c67 40 103 78 103 137c0 48 -37 85 -94 85c-55 0 -91 -35 -91 -83z" />
    <glyph glyph-name="quotesingle" unicode="'" horiz-adv-x="277" 
d="M182 723l-13 -230h-61l-13 230h87z" />
    <glyph glyph-name="parenleft" unicode="(" horiz-adv-x="299" 
d="M247 -148h-63c-55 138 -115 282 -115 434c0 153 61 297 116 437h62c-45 -144 -92 -290 -92 -442c0 -134 47 -301 92 -429z" />
    <glyph glyph-name="parenright" unicode=")" horiz-adv-x="300" 
d="M231 288c0 -149 -59 -299 -115 -436h-63c42 140 92 281 92 429c0 152 -47 299 -93 442h63c57 -138 116 -283 116 -435z" />
    <glyph glyph-name="asterisk" unicode="*" horiz-adv-x="568" 
d="M471 507l-147 16l86 -126l-65 -32l-60 134l-64 -137l-62 36l87 124l-149 -15v74l150 -15l-89 121l64 36l63 -135l62 135l63 -36l-88 -121l149 15v-74z" />
    <glyph glyph-name="plus" unicode="+" horiz-adv-x="673" 
d="M591 212h-215v-212h-79v212h-215v74h215v211h79v-211h215v-74z" />
    <glyph glyph-name="comma" unicode="," horiz-adv-x="290" 
d="M212 99l-87 -219h-72l54 219h105z" />
    <glyph glyph-name="hyphen" unicode="-" horiz-adv-x="341" 
d="M301 234h-261v66h261v-66z" />
    <glyph glyph-name="period" unicode="." horiz-adv-x="290" 
d="M196 0h-101v99h101v-99z" />
    <glyph glyph-name="slash" unicode="/" horiz-adv-x="290" 
d="M300 738l-233 -750h-77l234 750h76z" />
    <glyph glyph-name="zero" unicode="0" 
d="M534 371c0 -166 -47 -382 -246 -382c-203 0 -242 218 -242 385c0 163 54 364 247 364c196 0 241 -202 241 -367zM440 360c0 104 -12 307 -147 307c-140 0 -153 -198 -153 -306c0 -102 15 -299 147 -299c137 0 153 191 153 298z" />
    <glyph glyph-name="one" unicode="1" 
d="M369 0h-90v629c-46 -45 -100 -77 -159 -103v84c67 27 118 62 170 113h79v-723z" />
    <glyph glyph-name="two" unicode="2" 
d="M515 0h-463v87c94 84 288 258 340 368c12 27 19 53 19 83c0 78 -51 127 -124 127c-79 0 -132 -55 -132 -139h-95c2 140 105 212 230 212c114 0 217 -61 217 -192c0 -84 -60 -176 -133 -259c-37 -42 -76 -82 -114 -118c-37 -35 -102 -96 -102 -96h357v-73z" />
    <glyph glyph-name="three" unicode="3" 
d="M534 196c0 -144 -127 -207 -253 -207c-131 0 -234 62 -242 207h94c1 -88 73 -136 150 -136c82 0 154 50 154 142c0 98 -82 137 -165 137c-13 0 -25 0 -39 -2v75c14 -2 28 -3 41 -3c77 0 150 42 150 130c0 95 -66 129 -140 129c-81 0 -133 -45 -142 -131h-92
c5 135 117 201 235 201c123 0 231 -61 231 -196c0 -87 -58 -143 -135 -163c91 -26 153 -76 153 -183z" />
    <glyph glyph-name="four" unicode="4" 
d="M556 166h-111v-166h-90v166h-327v86l307 471h110v-488h111v-69zM356 235v398l-253 -398h253z" />
    <glyph glyph-name="five" unicode="5" 
d="M528 237c0 -151 -98 -250 -242 -250c-121 0 -225 57 -230 197h97c3 -80 60 -126 132 -126c99 0 148 84 148 180c0 90 -44 170 -138 170c-63 0 -119 -40 -133 -107h-93l16 422h406v-71h-320l-12 -248c39 48 92 73 153 73c137 0 216 -103 216 -240z" />
    <glyph glyph-name="six" unicode="6" 
d="M536 235c0 -140 -96 -246 -232 -246c-204 0 -254 180 -254 358c0 177 47 392 257 392c135 0 218 -73 218 -189h-95c-6 77 -42 116 -125 116c-148 0 -163 -184 -165 -302c37 76 101 110 181 110c136 0 215 -104 215 -239zM445 233c0 92 -44 171 -139 171
c-96 0 -152 -78 -152 -174c0 -91 54 -168 146 -168c96 0 145 77 145 171z" />
    <glyph glyph-name="seven" unicode="7" 
d="M515 642l-269 -642h-107l286 646h-375v77h465v-81z" />
    <glyph glyph-name="eight" unicode="8" 
d="M539 201c0 -145 -123 -214 -248 -214c-128 0 -250 58 -250 205c0 102 65 163 155 185c-81 24 -141 66 -141 163c0 137 126 198 237 198c115 0 234 -58 234 -191c0 -93 -59 -147 -140 -169c88 -24 153 -73 153 -177zM437 540c0 87 -68 132 -145 132
c-78 0 -148 -45 -148 -134c0 -90 71 -127 147 -127c74 0 146 44 146 129zM446 201c0 96 -74 141 -158 141c-83 0 -155 -49 -155 -142s70 -143 154 -143c83 0 159 50 159 144z" />
    <glyph glyph-name="nine" unicode="9" 
d="M527 393c0 -179 -37 -406 -255 -406c-121 0 -213 56 -221 191h94c3 -80 55 -118 127 -118c162 0 166 204 170 321c-37 -71 -101 -107 -179 -107c-127 0 -219 97 -219 231c0 138 106 233 240 233c200 0 243 -171 243 -345zM428 509c0 90 -57 157 -145 157
c-90 0 -149 -67 -149 -160c0 -90 51 -162 141 -162c100 0 153 69 153 165z" />
    <glyph glyph-name="colon" unicode=":" horiz-adv-x="290" 
d="M196 404h-101v100h101v-100zM196 0h-101v101h101v-101z" />
    <glyph glyph-name="semicolon" unicode=";" horiz-adv-x="290" 
d="M198 404h-101v100h101v-100zM212 100l-87 -220h-72l54 220h105z" />
    <glyph glyph-name="less" unicode="&#x3c;" horiz-adv-x="673" 
d="M591 9l-509 200v78l509 201v-79l-416 -162l416 -159v-79z" />
    <glyph glyph-name="equal" unicode="=" horiz-adv-x="673" 
d="M591 310h-509v72h509v-72zM591 114h-509v72h509v-72z" />
    <glyph glyph-name="greater" unicode="&#x3e;" horiz-adv-x="673" 
d="M591 209l-509 -200v79l416 159l-416 162v79l509 -201v-78z" />
    <glyph glyph-name="question" unicode="?" horiz-adv-x="522" 
d="M440 552c0 -90 -68 -148 -154 -226c-35 -32 -41 -45 -41 -76v-72h-77v72c0 70 14 86 81 147c50 45 97 82 97 151c0 87 -72 118 -149 118c-35 0 -69 -6 -104 -16v73c39 7 77 12 115 12c120 0 232 -45 232 -183zM257 0h-101v101h101v-101z" />
    <glyph glyph-name="at" unicode="@" horiz-adv-x="990" 
d="M941 371c0 -174 -107 -275 -224 -275c-61 0 -107 32 -110 95c-26 -52 -85 -95 -158 -95c-107 0 -157 71 -157 163c0 125 71 255 210 255c68 0 108 -33 126 -80l11 71h78l-43 -254c-3 -11 -3 -22 -3 -31c0 -35 13 -64 56 -64c67 0 146 78 146 215c0 180 -117 306 -351 306
c-233 0 -404 -181 -404 -405c0 -208 143 -344 357 -344c90 0 180 23 242 60l30 -51c-71 -45 -173 -71 -272 -71c-251 0 -425 155 -425 406c0 254 197 463 475 463c263 0 416 -144 416 -364zM610 352c0 57 -27 106 -94 106c-72 0 -118 -62 -136 -136c-5 -21 -7 -43 -7 -62
c0 -58 26 -105 94 -105c73 0 122 69 138 146c3 15 5 37 5 51z" />
    <glyph glyph-name="A" unicode="A" horiz-adv-x="712" 
d="M707 0h-108l-75 191h-350l-74 -191h-95l294 723h103zM495 262l-150 380l-145 -380h295z" />
    <glyph glyph-name="B" unicode="B" horiz-adv-x="670" 
d="M612 201c0 -163 -138 -201 -271 -201h-243v723h255c113 0 230 -50 230 -181c0 -90 -52 -142 -135 -164c99 -18 164 -69 164 -177zM486 534c0 84 -66 115 -142 115h-154v-241h140c84 0 156 31 156 126zM514 205c0 107 -77 134 -171 134h-153v-265h124c96 0 200 10 200 131
z" />
    <glyph glyph-name="C" unicode="C" horiz-adv-x="681" 
d="M632 194c-18 -151 -128 -205 -264 -205c-223 0 -317 162 -317 366c0 197 106 380 323 380c120 0 249 -61 253 -198h-99c-8 83 -78 121 -155 121c-163 0 -223 -160 -223 -299c0 -142 53 -293 220 -293c93 0 156 52 161 128h101z" />
    <glyph glyph-name="D" unicode="D" horiz-adv-x="744" 
d="M693 364c0 -198 -92 -339 -299 -360c-40 -4 -82 -4 -122 -4h-174v723h212c63 0 142 -6 200 -30c138 -57 183 -182 183 -329zM595 364c0 92 -24 187 -103 244c-54 39 -125 43 -188 43h-112v-578h130c197 0 273 102 273 291z" />
    <glyph glyph-name="E" unicode="E" horiz-adv-x="608" 
d="M560 0h-462v723h448v-73h-355v-240h340v-73h-340v-264h369v-73z" />
    <glyph glyph-name="F" unicode="F" horiz-adv-x="565" 
d="M530 650h-339v-242h323v-72h-323v-336h-93v723h432v-73z" />
    <glyph glyph-name="G" unicode="G" horiz-adv-x="731" 
d="M646 32c-81 -22 -164 -40 -248 -40c-227 0 -347 155 -347 372c0 205 114 374 334 374c132 0 243 -61 255 -204h-98c-14 88 -75 129 -161 129c-166 0 -229 -150 -229 -294c0 -158 72 -303 249 -303c52 0 104 7 154 22v215h-173v71h264v-342z" />
    <glyph glyph-name="H" unicode="H" horiz-adv-x="758" 
d="M660 0h-94v334h-374v-334h-94v723h94v-315h374v315h94v-723z" />
    <glyph glyph-name="I" unicode="I" horiz-adv-x="290" 
d="M192 0h-94v723h94v-723z" />
    <glyph glyph-name="J" unicode="J" horiz-adv-x="519" 
d="M435 217c0 -146 -71 -227 -221 -227c-111 0 -207 62 -207 196h96c0 -64 30 -122 114 -122c96 0 124 70 124 155v504h94v-506z" />
    <glyph glyph-name="K" unicode="K" horiz-adv-x="652" 
d="M652 0h-123l-335 393l304 330h120l-317 -324zM192 0h-94v723h94v-723z" />
    <glyph glyph-name="L" unicode="L" horiz-adv-x="568" 
d="M547 0h-449v723h94v-650h355v-73z" />
    <glyph glyph-name="M" unicode="M" horiz-adv-x="966" 
d="M868 0h-88v651l-255 -651h-86l-256 652v-652h-85v723h150l238 -611l232 611h150v-723z" />
    <glyph glyph-name="N" unicode="N" horiz-adv-x="766" 
d="M668 0h-126l-359 627v-627h-85v723h126l359 -629v629h85v-723z" />
    <glyph glyph-name="O" unicode="O" horiz-adv-x="755" 
d="M704 367c0 -208 -99 -379 -327 -379c-227 0 -326 166 -326 374c0 204 104 376 327 376c229 0 326 -160 326 -371zM605 364c0 149 -54 299 -228 299c-169 0 -227 -154 -227 -299c0 -146 56 -302 227 -302s228 155 228 302z" />
    <glyph glyph-name="P" unicode="P" horiz-adv-x="621" 
d="M588 515c0 -88 -49 -157 -132 -187c-38 -14 -84 -19 -131 -19h-133v-309h-94v723h223c62 0 126 -1 180 -36c59 -38 87 -104 87 -172zM490 522c0 109 -79 129 -172 129h-126v-269h99c101 0 199 16 199 140z" />
    <glyph glyph-name="Q" unicode="Q" horiz-adv-x="755" 
d="M732 0c-41 0 -80 1 -120 1c-83 0 -164 -12 -247 -12c-217 0 -314 178 -314 373c0 207 104 376 329 376c220 0 324 -156 324 -361c0 -125 -38 -240 -143 -315c56 8 113 10 171 10v-72zM605 364c0 149 -54 299 -228 299c-169 0 -227 -154 -227 -299
c0 -146 56 -301 227 -301s228 155 228 301z" />
    <glyph glyph-name="R" unicode="R" horiz-adv-x="674" 
d="M618 0h-106c-23 57 -24 118 -29 178c-10 106 -16 157 -137 157h-154v-335h-94v723h258c118 0 243 -36 243 -178c0 -96 -57 -147 -144 -171c92 -20 115 -72 123 -150c5 -48 6 -99 16 -154c5 -27 11 -51 24 -70zM503 534c0 101 -85 117 -168 117h-143v-245h117
c91 0 194 14 194 128z" />
    <glyph glyph-name="S" unicode="S" horiz-adv-x="635" 
d="M581 202c0 -152 -139 -212 -271 -212c-135 0 -246 56 -256 204h97c5 -92 77 -131 162 -131c80 0 172 36 172 128c0 74 -68 106 -143 129l-62 19c-103 32 -206 71 -206 196c0 143 129 199 254 199c119 0 236 -44 238 -183h-95c-8 84 -68 112 -144 112
c-75 0 -158 -34 -158 -120c0 -64 69 -96 123 -114l82 -27c103 -34 207 -70 207 -200z" />
    <glyph glyph-name="T" unicode="T" horiz-adv-x="568" 
d="M561 649h-231v-649h-93v649h-230v74h554v-74z" />
    <glyph glyph-name="U" unicode="U" horiz-adv-x="758" 
d="M669 276c0 -185 -104 -289 -290 -289c-192 0 -290 93 -290 291v445h98v-432c0 -52 1 -106 30 -151c35 -55 100 -78 163 -78c74 0 146 33 176 104c17 40 18 84 18 127v430h95v-447z" />
    <glyph glyph-name="V" unicode="V" horiz-adv-x="667" 
d="M661 723l-273 -723h-108l-274 723h102l230 -633l230 633h93z" />
    <glyph glyph-name="W" unicode="W" horiz-adv-x="1049" 
d="M1034 723l-192 -723h-119l-199 633l-194 -633h-122l-193 723h99l159 -640l196 640h114l201 -639l158 639h92z" />
    <glyph glyph-name="X" unicode="X" horiz-adv-x="668" 
d="M661 0h-111l-218 318l-216 -318h-109l266 376l-255 347h116l199 -292l196 292h108l-246 -347z" />
    <glyph glyph-name="Y" unicode="Y" horiz-adv-x="635" 
d="M644 723l-279 -424v-299h-94v303l-279 420h111l220 -344l217 344h104z" />
    <glyph glyph-name="Z" unicode="Z" horiz-adv-x="584" 
d="M563 0h-542v83l426 567h-399v73h503v-77l-429 -573h441v-73z" />
    <glyph glyph-name="bracketleft" unicode="[" horiz-adv-x="299" 
d="M251 -149h-174v872h174v-56h-99v-759h99v-57z" />
    <glyph glyph-name="backslash" unicode="\" horiz-adv-x="290" 
d="M300 -12h-77l-233 750h77z" />
    <glyph glyph-name="bracketright" unicode="]" horiz-adv-x="299" 
d="M222 -149h-174v57h99v759h-99v56h174v-872z" />
    <glyph glyph-name="asciicircum" unicode="^" horiz-adv-x="673" 
d="M576 303h-81l-159 333l-157 -333h-82l206 420h67z" />
    <glyph glyph-name="underscore" unicode="_" horiz-adv-x="500" 
d="M501 -125h-502v50h502v-50z" />
    <glyph glyph-name="grave" unicode="`" horiz-adv-x="300" 
d="M216 591h-63l-139 145h108z" />
    <glyph glyph-name="a" unicode="a" horiz-adv-x="549" 
d="M479 0h-77c-4 21 -8 50 -9 71c-42 -61 -98 -82 -171 -82c-94 0 -177 47 -177 150c0 151 166 169 289 169c18 0 36 -1 50 -2v30c0 78 -28 122 -111 122c-62 0 -99 -23 -105 -89h-86c5 110 94 146 189 146c129 0 192 -49 192 -181v-186c0 -66 9 -125 16 -148zM384 253
c-21 2 -31 2 -45 2c-78 0 -206 -9 -206 -112c0 -62 53 -95 111 -95c127 0 140 103 140 205z" />
    <glyph glyph-name="b" unicode="b" horiz-adv-x="598" 
d="M553 260c0 -137 -72 -269 -225 -269c-72 0 -117 29 -158 86l-5 -77h-86c3 49 3 98 3 147v576h88v-303c39 64 95 95 170 95c149 0 213 -122 213 -255zM461 254c0 90 -32 199 -140 199c-112 0 -152 -104 -152 -201c0 -91 32 -197 141 -197c114 0 151 101 151 199z" />
    <glyph glyph-name="c" unicode="c" horiz-adv-x="536" 
d="M503 169c-9 -121 -98 -180 -213 -180c-159 0 -245 105 -245 258c0 155 86 272 250 272c114 0 196 -58 206 -177h-86c-5 72 -48 115 -120 115c-119 0 -157 -104 -157 -206c0 -96 41 -202 153 -202c74 0 121 48 126 121h83z" />
    <glyph glyph-name="d" unicode="d" horiz-adv-x="598" 
d="M519 0h-86l-5 77c-43 -59 -87 -86 -162 -86c-153 0 -221 128 -221 265c0 132 69 259 218 259c76 0 126 -26 165 -90v298h88v-576c0 -48 0 -98 3 -147zM429 252c0 96 -40 201 -152 201c-109 0 -140 -108 -140 -199c0 -98 37 -199 151 -199c109 0 141 106 141 197z" />
    <glyph glyph-name="e" unicode="e" horiz-adv-x="547" 
d="M502 236h-369v-10c0 -93 50 -178 152 -178c72 0 119 44 130 115h84c-20 -119 -106 -174 -221 -174c-157 0 -233 105 -233 255c0 151 76 270 240 270c169 0 217 -131 217 -278zM415 294c1 83 -41 160 -133 160c-93 0 -139 -76 -147 -160h280z" />
    <glyph glyph-name="f" unicode="f" horiz-adv-x="341" 
d="M326 662c-13 1 -26 2 -39 2c-49 0 -82 -12 -82 -67v-92h113v-61h-113v-444h-88v444h-101v61h101v48c0 102 14 176 136 176c24 0 48 -1 73 -3v-64z" />
    <glyph glyph-name="g" unicode="g" horiz-adv-x="604" 
d="M526 505c-4 -58 -4 -117 -4 -175v-187c0 -194 -9 -344 -238 -344c-102 0 -209 31 -209 154h86c0 -72 60 -94 122 -94c106 0 141 59 149 152c2 27 2 55 2 83c-39 -60 -95 -89 -167 -89c-151 0 -222 115 -222 254c0 134 74 255 221 255c75 0 133 -30 171 -95v86h89z
M435 264c0 89 -45 189 -147 189c-111 0 -149 -102 -149 -197c0 -94 40 -192 148 -192c112 0 148 104 148 200z" />
    <glyph glyph-name="h" unicode="h" horiz-adv-x="593" 
d="M514 0h-88v280c0 88 -10 165 -117 165c-102 0 -139 -86 -139 -178v-267h-88v723h88v-297c40 57 92 86 163 86c133 0 181 -73 181 -198v-314z" />
    <glyph glyph-name="i" unicode="i" horiz-adv-x="252" 
d="M175 634h-98v89h98v-89zM170 0h-88v505h88v-505z" />
    <glyph glyph-name="j" unicode="j" horiz-adv-x="252" 
d="M175 634h-98v89h98v-89zM170 -63c0 -101 -40 -123 -135 -123c-22 0 -39 1 -50 2v66c13 -2 26 -3 38 -3c57 0 59 32 59 80v546h88v-568z" />
    <glyph glyph-name="k" unicode="k" horiz-adv-x="542" 
d="M532 0h-113l-246 285l227 221h112l-235 -218zM170 0h-88v723h88v-723z" />
    <glyph glyph-name="l" unicode="l" horiz-adv-x="252" 
d="M170 0h-88v723h88v-723z" />
    <glyph glyph-name="m" unicode="m" horiz-adv-x="919" 
d="M840 0h-88v298c0 82 -22 146 -116 146c-100 0 -131 -73 -131 -164v-280h-88v293c0 82 -18 151 -115 151c-93 0 -132 -80 -132 -164v-280h-88v332c0 57 -1 115 -3 173h87l3 -84c36 60 90 90 160 90c79 0 131 -30 161 -104c36 71 95 104 175 104c141 0 175 -92 175 -215
v-296z" />
    <glyph glyph-name="n" unicode="n" horiz-adv-x="593" 
d="M514 0h-88v280c0 88 -10 164 -117 164c-109 0 -139 -99 -139 -192v-252h-88v375c0 43 -2 101 -3 130h87l3 -81c41 58 92 87 165 87c132 0 180 -73 180 -197v-314z" />
    <glyph glyph-name="o" unicode="o" horiz-adv-x="587" 
d="M542 255c0 -149 -91 -266 -248 -266c-161 0 -249 113 -249 266c0 152 93 261 250 261c160 0 247 -107 247 -261zM450 255c0 99 -43 198 -156 198s-156 -99 -156 -198c0 -98 42 -206 156 -206c112 0 156 110 156 206z" />
    <glyph glyph-name="p" unicode="p" horiz-adv-x="598" 
d="M553 260c0 -136 -72 -269 -224 -269c-73 0 -117 28 -159 85v-266h-88v551c0 47 0 96 -3 144h87l3 -87c39 66 94 96 171 96c148 0 213 -121 213 -254zM461 254c0 90 -33 198 -141 198c-112 0 -151 -105 -151 -201c0 -91 32 -198 141 -198c114 0 151 104 151 201z" />
    <glyph glyph-name="q" unicode="q" horiz-adv-x="598" 
d="M519 505c-3 -48 -3 -97 -3 -144v-551h-88v266c-42 -57 -86 -85 -159 -85c-163 0 -224 127 -224 267c0 131 70 256 217 256c78 0 128 -25 167 -91l3 82h87zM429 251c0 96 -39 201 -151 201c-109 0 -141 -107 -141 -198c0 -97 37 -201 151 -201c109 0 141 107 141 198z" />
    <glyph glyph-name="r" unicode="r" horiz-adv-x="363" 
d="M351 423c-13 2 -29 4 -43 4c-104 0 -138 -59 -138 -155v-272h-88v357c0 49 -1 99 -3 148h86l4 -81c36 59 85 84 154 84c9 0 20 -1 28 -2v-83z" />
    <glyph glyph-name="s" unicode="s" horiz-adv-x="496" 
d="M449 146c0 -115 -106 -157 -205 -157c-107 0 -197 42 -197 164h88c4 -70 44 -103 113 -103c53 0 114 26 114 86c0 53 -50 74 -109 88l-41 10c-75 18 -152 49 -152 139c0 105 103 144 192 144c101 0 181 -42 185 -153h-87c-2 59 -41 93 -100 93c-46 0 -104 -21 -104 -75
c0 -47 48 -69 108 -84l40 -10c88 -22 155 -55 155 -142z" />
    <glyph glyph-name="t" unicode="t" horiz-adv-x="344" 
d="M318 1c-28 -4 -54 -6 -81 -6c-81 0 -123 33 -123 117v332h-99v61h99v98l88 37v-135h113v-61h-113v-297c0 -61 8 -84 69 -84c16 0 30 2 47 5v-67z" />
    <glyph glyph-name="u" unicode="u" horiz-adv-x="592" 
d="M513 0h-86l-4 80c-42 -58 -90 -86 -163 -86c-133 0 -181 72 -181 197v314h88v-280c0 -88 10 -164 117 -164c106 0 139 85 139 177v267h88v-245c0 -86 0 -173 2 -260z" />
    <glyph glyph-name="v" unicode="v" horiz-adv-x="530" 
d="M520 505l-210 -505h-92l-205 505h100l157 -420l160 420h90z" />
    <glyph glyph-name="w" unicode="w" horiz-adv-x="853" 
d="M837 505l-180 -505h-87l-141 418l-144 -418h-90l-179 505h98l130 -414l139 414h101l136 -409l129 409h88z" />
    <glyph glyph-name="x" unicode="x" horiz-adv-x="524" 
d="M511 0h-111l-145 208l-145 -208h-97l195 259l-184 246h110l132 -192l135 192h97l-183 -246z" />
    <glyph glyph-name="y" unicode="y" horiz-adv-x="529" 
d="M519 505l-286 -695h-88l83 191l-215 504h100l159 -413l158 413h89z" />
    <glyph glyph-name="z" unicode="z" horiz-adv-x="461" 
d="M424 0h-387v71l289 368h-281v66h371v-73l-284 -366h292v-66z" />
    <glyph glyph-name="braceleft" unicode="{" horiz-adv-x="371" 
d="M351 -149c-186 10 -202 96 -202 252c0 43 -1 98 -38 126c-26 20 -63 31 -96 33v51c36 1 72 13 99 36c24 21 32 53 34 91s-1 80 3 121c8 82 43 154 200 162v-50c-64 -4 -95 -28 -111 -62c-8 -17 -12 -36 -14 -57c-11 -104 26 -243 -127 -267c62 -10 93 -37 109 -74
c8 -19 12 -41 14 -65s2 -50 2 -77c0 -97 15 -164 127 -170v-50z" />
    <glyph glyph-name="bar" unicode="|" horiz-adv-x="246" 
d="M162 -213h-78v999h78v-999z" />
    <glyph glyph-name="braceright" unicode="}" horiz-adv-x="371" 
d="M356 262c-33 -2 -70 -13 -96 -33c-37 -28 -38 -83 -38 -126c0 -156 -16 -242 -202 -252v50c112 6 127 73 127 170c0 27 0 53 2 77s6 46 14 65c16 37 47 64 109 74c-153 24 -116 163 -127 267c-2 21 -6 40 -14 57c-16 34 -47 58 -111 62v50c157 -8 192 -80 200 -162
c4 -41 1 -83 3 -121s10 -70 34 -91c27 -23 63 -35 99 -36v-51z" />
    <glyph glyph-name="asciitilde" unicode="~" horiz-adv-x="673" 
d="M601 325c-7 -74 -44 -148 -127 -148c-43 0 -92 16 -141 35c-50 19 -98 36 -134 36c-44 0 -70 -35 -76 -76h-52c10 74 44 148 130 148c42 0 91 -17 140 -35c48 -18 96 -35 133 -35c46 0 68 33 76 75h51z" />
    <glyph glyph-name="uni00A0" unicode="&#xa0;" horiz-adv-x="290" 
 />
    <glyph glyph-name="Agrave" unicode="&#xc0;" horiz-adv-x="712" 
d="M707 0h-108l-75 191h-350l-74 -191h-95l294 723h103zM495 262l-150 380l-145 -380h295zM410 776h-63l-139 145h108z" />
    <glyph glyph-name="Aacute" unicode="&#xc1;" horiz-adv-x="712" 
d="M707 0h-108l-75 191h-350l-74 -191h-95l294 723h103zM495 262l-150 380l-145 -380h295zM483 921l-139 -145h-64l95 145h108z" />
    <glyph glyph-name="Acircumflex" unicode="&#xc2;" horiz-adv-x="712" 
d="M707 0h-108l-75 191h-350l-74 -191h-95l294 723h103zM495 262l-150 380l-145 -380h295zM496 775h-64l-86 99l-88 -99h-64l105 146h94z" />
    <glyph glyph-name="Atilde" unicode="&#xc3;" horiz-adv-x="712" 
d="M707 0h-108l-75 191h-350l-74 -191h-95l294 723h103zM495 262l-150 380l-145 -380h295zM500 901c-9 -48 -43 -96 -96 -96c-41 0 -77 24 -118 24c-23 0 -39 -8 -48 -30h-47c9 53 45 94 101 94c40 0 75 -24 115 -24c23 0 37 10 45 32h48z" />
    <glyph glyph-name="Adieresis" unicode="&#xc4;" horiz-adv-x="712" 
d="M707 0h-108l-75 191h-350l-74 -191h-95l294 723h103zM495 262l-150 380l-145 -380h295zM487 811h-93v88h93v-88zM296 811h-93v88h93v-88z" />
    <glyph glyph-name="Amacron" unicode="&#x100;" horiz-adv-x="712" 
d="M707 0h-108l-75 191h-350l-74 -191h-95l294 723h103zM495 262l-150 380l-145 -380h295zM482 811h-274v61h274v-61z" />
    <glyph glyph-name="Abreve" unicode="&#x102;" horiz-adv-x="712" 
d="M707 0h-108l-75 191h-350l-74 -191h-95l294 723h103zM495 262l-150 380l-145 -380h295zM496 904c-9 -79 -66 -123 -152 -123c-82 0 -149 43 -151 123h45c9 -48 63 -68 106 -68c48 0 92 18 109 68h43z" />
    <glyph glyph-name="Aring" unicode="&#xc5;" horiz-adv-x="712" 
d="M707 0h-108l-75 191h-350l-74 -191h-95l294 723h103zM495 262l-150 380l-145 -380h295zM439 836c0 -53 -41 -93 -94 -93s-94 40 -94 93s41 93 94 93s94 -40 94 -93zM398 836c0 33 -20 57 -53 57s-53 -24 -53 -57s20 -57 53 -57s53 24 53 57z" />
    <glyph glyph-name="Aogonek" unicode="&#x104;" horiz-adv-x="712" 
d="M402 723l305 -723c-12 0 -32 -4 -45 -10c-57 -25 -87 -50 -87 -87c0 -33 29 -48 60 -48c14 0 28 4 42 10l6 -32c-25 -12 -51 -19 -79 -19c-43 0 -95 19 -95 70c0 56 57 94 116 116h-26l-75 191h-350l-74 -191h-95l294 723h103zM495 262l-150 380l-145 -380h295z" />
    <glyph glyph-name="AE" unicode="&#xc6;" horiz-adv-x="981" 
d="M933 0h-381l-30 187h-325l-102 -187h-100l400 723h525v-76h-374l38 -237h320v-76h-310l41 -258h298v-76zM512 258l-62 392l-214 -392h276z" />
    <glyph glyph-name="Cacute" unicode="&#x106;" horiz-adv-x="681" 
d="M632 194c-18 -151 -128 -205 -264 -205c-223 0 -317 162 -317 366c0 197 106 380 323 380c120 0 249 -61 253 -198h-99c-8 83 -78 121 -155 121c-163 0 -223 -160 -223 -299c0 -142 53 -293 220 -293c93 0 156 52 161 128h101zM503 921l-139 -145h-64l95 145h108z" />
    <glyph glyph-name="Ccircumflex" unicode="&#x108;" horiz-adv-x="681" 
d="M632 194c-18 -151 -128 -205 -264 -205c-223 0 -317 162 -317 366c0 197 106 380 323 380c120 0 249 -61 253 -198h-99c-8 83 -78 121 -155 121c-163 0 -223 -160 -223 -299c0 -142 53 -293 220 -293c93 0 156 52 161 128h101zM516 775h-64l-86 99l-88 -99h-64l105 146
h94z" />
    <glyph glyph-name="Ccaron" unicode="&#x10c;" horiz-adv-x="681" 
d="M632 194c-18 -151 -128 -205 -264 -205c-223 0 -317 162 -317 366c0 197 106 380 323 380c120 0 249 -61 253 -198h-99c-8 83 -78 121 -155 121c-163 0 -223 -160 -223 -299c0 -142 53 -293 220 -293c93 0 156 52 161 128h101zM517 921l-102 -145h-99l-103 145h64l90 -99
l86 99h64z" />
    <glyph glyph-name="Cdotaccent" unicode="&#x10a;" horiz-adv-x="681" 
d="M632 194c-18 -151 -128 -205 -264 -205c-223 0 -317 162 -317 366c0 197 106 380 323 380c120 0 249 -61 253 -198h-99c-8 83 -78 121 -155 121c-163 0 -223 -160 -223 -299c0 -142 53 -293 220 -293c93 0 156 52 161 128h101zM412 821h-93v88h93v-88z" />
    <glyph glyph-name="Ccedilla" unicode="&#xc7;" horiz-adv-x="681" 
d="M458 -119c0 -58 -62 -73 -109 -73c-37 0 -73 9 -108 23l8 33c30 -14 62 -24 94 -24c26 0 50 8 50 37s-23 38 -49 38c-11 0 -21 -1 -33 -4v20l23 59c-199 16 -283 171 -283 365c0 197 106 380 323 380c120 0 249 -61 253 -198h-99c-8 83 -78 121 -155 121
c-163 0 -223 -160 -223 -299c0 -142 53 -293 220 -293c93 0 156 52 161 128h101c-18 -151 -128 -205 -264 -205h-4l-13 -41h13c44 0 94 -13 94 -67z" />
    <glyph glyph-name="Dcaron" unicode="&#x10e;" horiz-adv-x="744" 
d="M693 364c0 -198 -92 -339 -299 -360c-40 -4 -82 -4 -122 -4h-174v723h212c63 0 142 -6 200 -30c138 -57 183 -182 183 -329zM595 364c0 92 -24 187 -103 244c-54 39 -125 43 -188 43h-112v-578h130c197 0 273 102 273 291zM519 921l-102 -145h-99l-103 145h64l90 -99
l86 99h64z" />
    <glyph glyph-name="Dcroat" unicode="&#x110;" horiz-adv-x="744" 
d="M693 365c0 -197 -92 -340 -299 -361c-41 -4 -81 -4 -122 -4h-174v369h-69v61h69v293h212c240 0 383 -109 383 -358zM595 366c0 91 -23 190 -102 245c-54 37 -126 40 -189 40h-112v-221h194v-61h-194v-296h130c199 0 273 103 273 293z" />
    <glyph glyph-name="Eth" unicode="&#xd0;" horiz-adv-x="744" 
d="M693 365c0 -197 -92 -340 -299 -361c-41 -4 -81 -4 -122 -4h-174v369h-69v61h69v293h212c240 0 383 -109 383 -358zM595 366c0 91 -23 190 -102 245c-54 37 -126 40 -189 40h-112v-221h194v-61h-194v-296h130c199 0 273 103 273 293z" />
    <glyph glyph-name="Egrave" unicode="&#xc8;" horiz-adv-x="608" 
d="M560 0h-462v723h448v-73h-355v-240h340v-73h-340v-264h369v-73zM393 776h-63l-139 145h108z" />
    <glyph glyph-name="Eacute" unicode="&#xc9;" horiz-adv-x="608" 
d="M560 0h-462v723h448v-73h-355v-240h340v-73h-340v-264h369v-73zM466 921l-139 -145h-64l95 145h108z" />
    <glyph glyph-name="Ecircumflex" unicode="&#xca;" horiz-adv-x="608" 
d="M560 0h-462v723h448v-73h-355v-240h340v-73h-340v-264h369v-73zM479 775h-64l-86 99l-88 -99h-64l105 146h94z" />
    <glyph glyph-name="Ecaron" unicode="&#x11a;" horiz-adv-x="608" 
d="M560 0h-462v723h448v-73h-355v-240h340v-73h-340v-264h369v-73zM480 921l-102 -145h-99l-103 145h64l90 -99l86 99h64z" />
    <glyph glyph-name="Edieresis" unicode="&#xcb;" horiz-adv-x="608" 
d="M560 0h-462v723h448v-73h-355v-240h340v-73h-340v-264h369v-73zM470 811h-93v88h93v-88zM279 811h-93v88h93v-88z" />
    <glyph glyph-name="Emacron" unicode="&#x112;" horiz-adv-x="608" 
d="M560 0h-462v723h448v-73h-355v-240h340v-73h-340v-264h369v-73zM465 811h-274v61h274v-61z" />
    <glyph glyph-name="Ebreve" unicode="&#x114;" horiz-adv-x="608" 
d="M560 0h-462v723h448v-73h-355v-240h340v-73h-340v-264h369v-73zM479 904c-9 -79 -66 -123 -152 -123c-82 0 -149 43 -151 123h45c9 -48 63 -68 106 -68c48 0 92 18 109 68h43z" />
    <glyph glyph-name="Edotaccent" unicode="&#x116;" horiz-adv-x="608" 
d="M560 0h-462v723h448v-73h-355v-240h340v-73h-340v-264h369v-73zM375 821h-93v88h93v-88z" />
    <glyph glyph-name="Eogonek" unicode="&#x118;" horiz-adv-x="608" 
d="M560 0h-6c-75 -34 -109 -58 -109 -97c0 -33 29 -48 60 -48c14 0 28 4 42 10l6 -32c-25 -12 -51 -19 -79 -19c-43 0 -95 19 -95 70c0 55 55 92 115 116h-396v723h448v-73h-355v-240h340v-73h-340v-264h369v-73z" />
    <glyph glyph-name="Gcircumflex" unicode="&#x11c;" horiz-adv-x="731" 
d="M646 32c-81 -22 -164 -40 -248 -40c-227 0 -347 155 -347 372c0 205 114 374 334 374c132 0 243 -61 255 -204h-98c-14 88 -75 129 -161 129c-166 0 -229 -150 -229 -294c0 -158 72 -303 249 -303c52 0 104 7 154 22v215h-173v71h264v-342zM535 775h-64l-86 99l-88 -99
h-64l105 146h94z" />
    <glyph glyph-name="Gbreve" unicode="&#x11e;" horiz-adv-x="731" 
d="M646 32c-81 -22 -164 -40 -248 -40c-227 0 -347 155 -347 372c0 205 114 374 334 374c132 0 243 -61 255 -204h-98c-14 88 -75 129 -161 129c-166 0 -229 -150 -229 -294c0 -158 72 -303 249 -303c52 0 104 7 154 22v215h-173v71h264v-342zM535 904
c-9 -79 -66 -123 -152 -123c-82 0 -149 43 -151 123h45c9 -48 63 -68 106 -68c48 0 92 18 109 68h43z" />
    <glyph glyph-name="Gdotaccent" unicode="&#x120;" horiz-adv-x="731" 
d="M646 32c-81 -22 -164 -40 -248 -40c-227 0 -347 155 -347 372c0 205 114 374 334 374c132 0 243 -61 255 -204h-98c-14 88 -75 129 -161 129c-166 0 -229 -150 -229 -294c0 -158 72 -303 249 -303c52 0 104 7 154 22v215h-173v71h264v-342zM431 821h-93v88h93v-88z" />
    <glyph glyph-name="Gcommaaccent" unicode="&#x122;" horiz-adv-x="731" 
d="M646 32c-81 -22 -164 -40 -248 -40c-227 0 -347 155 -347 372c0 205 114 374 334 374c132 0 243 -61 255 -204h-98c-14 88 -75 129 -161 129c-166 0 -229 -150 -229 -294c0 -158 72 -303 249 -303c52 0 104 7 154 22v215h-173v71h264v-342zM429 -33l-64 -167h-63l39 167
h88z" />
    <glyph glyph-name="Hcircumflex" unicode="&#x124;" horiz-adv-x="758" 
d="M660 0h-94v334h-374v-334h-94v723h94v-315h374v315h94v-723zM530 775h-64l-86 99l-88 -99h-64l105 146h94z" />
    <glyph glyph-name="Hbar" unicode="&#x126;" horiz-adv-x="758" 
d="M192 480v-72h374v72h-374zM192 541h374v182h94v-723h-94v334h-374v-334h-94v723h94v-182z" />
    <glyph glyph-name="Igrave" unicode="&#xcc;" horiz-adv-x="290" 
d="M192 0h-94v723h94v-723zM210 776h-63l-139 145h108z" />
    <glyph glyph-name="Iacute" unicode="&#xcd;" horiz-adv-x="290" 
d="M192 0h-94v723h94v-723zM283 921l-139 -145h-64l95 145h108z" />
    <glyph glyph-name="Icircumflex" unicode="&#xce;" horiz-adv-x="290" 
d="M192 0h-94v723h94v-723zM296 775h-64l-86 99l-88 -99h-64l105 146h94z" />
    <glyph glyph-name="Itilde" unicode="&#x128;" horiz-adv-x="290" 
d="M192 0h-94v723h94v-723zM300 901c-9 -48 -43 -96 -96 -96c-41 0 -77 24 -118 24c-23 0 -39 -8 -48 -30h-47c9 53 45 94 101 94c40 0 75 -24 115 -24c23 0 37 10 45 32h48z" />
    <glyph glyph-name="Idieresis" unicode="&#xcf;" horiz-adv-x="290" 
d="M192 0h-94v723h94v-723zM287 811h-93v88h93v-88zM96 811h-93v88h93v-88z" />
    <glyph glyph-name="Imacron" unicode="&#x12a;" horiz-adv-x="290" 
d="M192 0h-94v723h94v-723zM282 811h-274v61h274v-61z" />
    <glyph glyph-name="Idotaccent" unicode="&#x130;" horiz-adv-x="290" 
d="M192 0h-94v723h94v-723zM192 821h-93v88h93v-88z" />
    <glyph glyph-name="Ibreve" unicode="&#x12c;" horiz-adv-x="290" 
d="M192 0h-94v723h94v-723zM296 904c-9 -79 -66 -123 -152 -123c-82 0 -149 43 -151 123h45c9 -48 63 -68 106 -68c48 0 92 18 109 68h43z" />
    <glyph glyph-name="Iogonek" unicode="&#x12e;" horiz-adv-x="290" 
d="M192 0c-74 -34 -108 -58 -108 -97c0 -33 29 -48 60 -48c14 0 28 4 42 10l6 -32c-25 -12 -51 -19 -79 -19c-43 0 -95 19 -95 70c0 55 56 93 116 116h-36v723h94v-723z" />
    <glyph glyph-name="Jcircumflex" unicode="&#x134;" horiz-adv-x="519" 
d="M435 217c0 -146 -71 -227 -221 -227c-111 0 -207 62 -207 196h96c0 -64 30 -122 114 -122c96 0 124 70 124 155v504h94v-506zM539 775h-64l-86 99l-88 -99h-64l105 146h94z" />
    <glyph glyph-name="Kcommaaccent" unicode="&#x136;" horiz-adv-x="652" 
d="M652 0h-123l-335 393l304 330h120l-317 -324zM192 0h-94v723h94v-723zM391 -33l-64 -167h-63l39 167h88z" />
    <glyph glyph-name="Lacute" unicode="&#x139;" horiz-adv-x="568" 
d="M547 0h-449v723h94v-650h355v-73zM304 921l-139 -145h-64l95 145h108z" />
    <glyph glyph-name="Lcaron" unicode="&#x13d;" horiz-adv-x="568" 
d="M547 0h-449v723h94v-650h355v-73zM421 723l-60 -225h-65l27 225h98z" />
    <glyph glyph-name="Lcommaaccent" unicode="&#x13b;" horiz-adv-x="568" 
d="M547 0h-449v723h94v-650h355v-73zM374 -33l-64 -167h-63l39 167h88z" />
    <glyph glyph-name="Lslash" unicode="&#x141;" horiz-adv-x="568" 
d="M547 0h-449v319l-77 -46v67l77 45v338h94v-286l193 115v-66l-193 -115v-298h355v-73z" />
    <glyph glyph-name="Ldot" unicode="&#x13f;" horiz-adv-x="568" 
d="M547 0h-449v723h94v-650h355v-73zM470 357h-93v88h93v-88z" />
    <glyph glyph-name="Nacute" unicode="&#x143;" horiz-adv-x="766" 
d="M668 0h-126l-359 627v-627h-85v723h126l359 -629v629h85v-723zM516 921l-139 -145h-64l95 145h108z" />
    <glyph glyph-name="Ncaron" unicode="&#x147;" horiz-adv-x="766" 
d="M668 0h-126l-359 627v-627h-85v723h126l359 -629v629h85v-723zM530 921l-102 -145h-99l-103 145h64l90 -99l86 99h64z" />
    <glyph glyph-name="Ntilde" unicode="&#xd1;" horiz-adv-x="766" 
d="M668 0h-126l-359 627v-627h-85v723h126l359 -629v629h85v-723zM533 901c-9 -48 -43 -96 -96 -96c-41 0 -77 24 -118 24c-23 0 -39 -8 -48 -30h-47c9 53 45 94 101 94c40 0 75 -24 115 -24c23 0 37 10 45 32h48z" />
    <glyph glyph-name="Ncommaaccent" unicode="&#x145;" horiz-adv-x="766" 
d="M668 0h-126l-359 627v-627h-85v723h126l359 -629v629h85v-723zM409 -33l-64 -167h-63l39 167h88z" />
    <glyph glyph-name="Eng" unicode="&#x14a;" horiz-adv-x="766" 
d="M583 -26v26l-400 628v-628h-85v723h126l359 -567v567h85v-694c0 -161 -40 -215 -160 -215c-16 0 -38 1 -53 3v72c13 -2 25 -3 40 -3c60 0 88 24 88 88z" />
    <glyph glyph-name="Ograve" unicode="&#xd2;" horiz-adv-x="755" 
d="M704 367c0 -208 -99 -379 -327 -379c-227 0 -326 166 -326 374c0 204 104 376 327 376c229 0 326 -160 326 -371zM605 364c0 149 -54 299 -228 299c-169 0 -227 -154 -227 -299c0 -146 56 -302 227 -302s228 155 228 302zM442 776h-63l-139 145h108z" />
    <glyph glyph-name="Oacute" unicode="&#xd3;" horiz-adv-x="755" 
d="M704 367c0 -208 -99 -379 -327 -379c-227 0 -326 166 -326 374c0 204 104 376 327 376c229 0 326 -160 326 -371zM605 364c0 149 -54 299 -228 299c-169 0 -227 -154 -227 -299c0 -146 56 -302 227 -302s228 155 228 302zM515 921l-139 -145h-64l95 145h108z" />
    <glyph glyph-name="Ocircumflex" unicode="&#xd4;" horiz-adv-x="755" 
d="M704 367c0 -208 -99 -379 -327 -379c-227 0 -326 166 -326 374c0 204 104 376 327 376c229 0 326 -160 326 -371zM605 364c0 149 -54 299 -228 299c-169 0 -227 -154 -227 -299c0 -146 56 -302 227 -302s228 155 228 302zM528 775h-64l-86 99l-88 -99h-64l105 146h94z
" />
    <glyph glyph-name="Otilde" unicode="&#xd5;" horiz-adv-x="755" 
d="M704 367c0 -208 -99 -379 -327 -379c-227 0 -326 166 -326 374c0 204 104 376 327 376c229 0 326 -160 326 -371zM605 364c0 149 -54 299 -228 299c-169 0 -227 -154 -227 -299c0 -146 56 -302 227 -302s228 155 228 302zM532 901c-9 -48 -43 -96 -96 -96
c-41 0 -77 24 -118 24c-23 0 -39 -8 -48 -30h-47c9 53 45 94 101 94c40 0 75 -24 115 -24c23 0 37 10 45 32h48z" />
    <glyph glyph-name="Odieresis" unicode="&#xd6;" horiz-adv-x="755" 
d="M704 367c0 -208 -99 -379 -327 -379c-227 0 -326 166 -326 374c0 204 104 376 327 376c229 0 326 -160 326 -371zM605 364c0 149 -54 299 -228 299c-169 0 -227 -154 -227 -299c0 -146 56 -302 227 -302s228 155 228 302zM519 811h-93v88h93v-88zM328 811h-93v88h93v-88z
" />
    <glyph glyph-name="Omacron" unicode="&#x14c;" horiz-adv-x="755" 
d="M704 367c0 -208 -99 -379 -327 -379c-227 0 -326 166 -326 374c0 204 104 376 327 376c229 0 326 -160 326 -371zM605 364c0 149 -54 299 -228 299c-169 0 -227 -154 -227 -299c0 -146 56 -302 227 -302s228 155 228 302zM514 811h-274v61h274v-61z" />
    <glyph glyph-name="Obreve" unicode="&#x14e;" horiz-adv-x="755" 
d="M704 367c0 -208 -99 -379 -327 -379c-227 0 -326 166 -326 374c0 204 104 376 327 376c229 0 326 -160 326 -371zM605 364c0 149 -54 299 -228 299c-169 0 -227 -154 -227 -299c0 -146 56 -302 227 -302s228 155 228 302zM528 904c-9 -79 -66 -123 -152 -123
c-82 0 -149 43 -151 123h45c9 -48 63 -68 106 -68c48 0 92 18 109 68h43z" />
    <glyph glyph-name="Ohungarumlaut" unicode="&#x150;" horiz-adv-x="755" 
d="M704 367c0 -208 -99 -379 -327 -379c-227 0 -326 166 -326 374c0 204 104 376 327 376c229 0 326 -160 326 -371zM605 364c0 149 -54 299 -228 299c-169 0 -227 -154 -227 -299c0 -146 56 -302 227 -302s228 155 228 302zM614 921l-142 -143h-66l100 143h108zM440 921
l-142 -143h-66l99 143h109z" />
    <glyph glyph-name="Oslash" unicode="&#xd8;" horiz-adv-x="755" 
d="M704 367c0 -208 -99 -379 -327 -379c-98 0 -172 31 -225 83l-87 -95l-40 39l91 100c-44 66 -65 152 -65 247c0 204 104 376 327 376c101 0 177 -31 230 -84l82 90l41 -38l-88 -96c42 -64 61 -149 61 -243zM545 585c-36 47 -89 78 -168 78c-169 0 -227 -154 -227 -299
c0 -61 9 -123 33 -175zM605 364c0 60 -8 121 -30 171l-362 -397c36 -46 89 -76 164 -76c171 0 228 155 228 302z" />
    <glyph glyph-name="OE" unicode="&#x152;" horiz-adv-x="984" 
d="M935 0h-315c-64 -1 -127 -7 -191 -7c-243 0 -378 121 -378 367c0 236 130 370 368 370c63 0 126 -7 189 -7h314v-76h-320v-237h304v-76h-304v-258h333v-76zM510 76v571c-29 5 -58 9 -87 9c-188 0 -276 -117 -276 -296s87 -294 274 -294c30 0 60 4 89 10z" />
    <glyph glyph-name="Racute" unicode="&#x154;" horiz-adv-x="674" 
d="M618 0h-106c-23 57 -24 118 -29 178c-10 106 -16 157 -137 157h-154v-335h-94v723h258c118 0 243 -36 243 -178c0 -96 -57 -147 -144 -171c92 -20 115 -72 123 -150c5 -48 6 -99 16 -154c5 -27 11 -51 24 -70zM503 534c0 101 -85 117 -168 117h-143v-245h117
c91 0 194 14 194 128zM471 921l-139 -145h-64l95 145h108z" />
    <glyph glyph-name="Rcaron" unicode="&#x158;" horiz-adv-x="674" 
d="M618 0h-106c-23 57 -24 118 -29 178c-10 106 -16 157 -137 157h-154v-335h-94v723h258c118 0 243 -36 243 -178c0 -96 -57 -147 -144 -171c92 -20 115 -72 123 -150c5 -48 6 -99 16 -154c5 -27 11 -51 24 -70zM503 534c0 101 -85 117 -168 117h-143v-245h117
c91 0 194 14 194 128zM485 921l-102 -145h-99l-103 145h64l90 -99l86 99h64z" />
    <glyph glyph-name="Rcommaaccent" unicode="&#x156;" horiz-adv-x="674" 
d="M618 0h-106c-23 57 -24 118 -29 178c-10 106 -16 157 -137 157h-154v-335h-94v723h258c118 0 243 -36 243 -178c0 -96 -57 -147 -144 -171c92 -20 115 -72 123 -150c5 -48 6 -99 16 -154c5 -27 11 -51 24 -70zM503 534c0 101 -85 117 -168 117h-143v-245h117
c91 0 194 14 194 128zM381 -33l-64 -167h-63l39 167h88z" />
    <glyph glyph-name="Sacute" unicode="&#x15a;" horiz-adv-x="635" 
d="M581 202c0 -152 -139 -212 -271 -212c-135 0 -246 56 -256 204h97c5 -92 77 -131 162 -131c80 0 172 36 172 128c0 74 -68 106 -143 129l-62 19c-103 32 -206 71 -206 196c0 143 129 199 254 199c119 0 236 -44 238 -183h-95c-8 84 -68 112 -144 112
c-75 0 -158 -34 -158 -120c0 -64 69 -96 123 -114l82 -27c103 -34 207 -70 207 -200zM466 921l-139 -145h-64l95 145h108z" />
    <glyph glyph-name="Scircumflex" unicode="&#x15c;" horiz-adv-x="635" 
d="M581 202c0 -152 -139 -212 -271 -212c-135 0 -246 56 -256 204h97c5 -92 77 -131 162 -131c80 0 172 36 172 128c0 74 -68 106 -143 129l-62 19c-103 32 -206 71 -206 196c0 143 129 199 254 199c119 0 236 -44 238 -183h-95c-8 84 -68 112 -144 112
c-75 0 -158 -34 -158 -120c0 -64 69 -96 123 -114l82 -27c103 -34 207 -70 207 -200zM479 775h-64l-86 99l-88 -99h-64l105 146h94z" />
    <glyph glyph-name="Scaron" unicode="&#x160;" horiz-adv-x="635" 
d="M581 202c0 -152 -139 -212 -271 -212c-135 0 -246 56 -256 204h97c5 -92 77 -131 162 -131c80 0 172 36 172 128c0 74 -68 106 -143 129l-62 19c-103 32 -206 71 -206 196c0 143 129 199 254 199c119 0 236 -44 238 -183h-95c-8 84 -68 112 -144 112
c-75 0 -158 -34 -158 -120c0 -64 69 -96 123 -114l82 -27c103 -34 207 -70 207 -200zM480 921l-102 -145h-99l-103 145h64l90 -99l86 99h64z" />
    <glyph glyph-name="Scedilla" unicode="&#x15e;" horiz-adv-x="635" 
d="M416 -119c0 -58 -62 -73 -109 -73c-37 0 -73 9 -108 23l8 33c30 -14 62 -24 94 -24c26 0 50 8 50 37s-23 38 -49 38c-11 0 -21 -1 -33 -4v20l23 60c-127 5 -229 61 -238 203h97c5 -92 77 -131 162 -131c80 0 172 36 172 128c0 74 -68 106 -143 129l-62 19
c-103 32 -206 71 -206 196c0 143 129 199 254 199c119 0 236 -44 238 -183h-95c-8 84 -68 112 -144 112c-75 0 -158 -34 -158 -120c0 -64 69 -96 123 -114l82 -27c103 -34 207 -70 207 -200c0 -147 -130 -208 -258 -212l-14 -42h13c44 0 94 -13 94 -67z" />
    <glyph glyph-name="Scommaaccent" unicode="&#x218;" horiz-adv-x="635" 
d="M581 202c0 -152 -139 -212 -271 -212c-135 0 -246 56 -256 204h97c5 -92 77 -131 162 -131c80 0 172 36 172 128c0 74 -68 106 -143 129l-62 19c-103 32 -206 71 -206 196c0 143 129 199 254 199c119 0 236 -44 238 -183h-95c-8 84 -68 112 -144 112
c-75 0 -158 -34 -158 -120c0 -64 69 -96 123 -114l82 -27c103 -34 207 -70 207 -200zM358 -33l-64 -167h-63l39 167h88z" />
    <glyph glyph-name="Tcaron" unicode="&#x164;" horiz-adv-x="568" 
d="M561 649h-231v-649h-93v649h-230v74h554v-74zM436 921l-102 -145h-99l-103 145h64l90 -99l86 99h64z" />
    <glyph glyph-name="uni0162" unicode="&#x162;" horiz-adv-x="568" 
d="M561 649h-231v-649h-93v649h-230v74h554v-74zM330 -33l-64 -167h-63l39 167h88z" />
    <glyph glyph-name="uni021A" unicode="&#x21a;" horiz-adv-x="568" 
d="M561 649h-231v-649h-93v649h-230v74h554v-74zM330 -33l-64 -167h-63l39 167h88z" />
    <glyph glyph-name="Tbar" unicode="&#x166;" horiz-adv-x="568" 
d="M482 367h-152v-367h-93v367h-152v61h152v221h-230v74h554v-74h-231v-221h152v-61z" />
    <glyph glyph-name="Thorn" unicode="&#xde;" horiz-adv-x="621" 
d="M588 384c0 -88 -49 -157 -132 -187c-38 -14 -84 -20 -131 -20c0 0 -93 1 -133 1v-178h-94v723h94v-131h110c62 0 145 -2 199 -37c59 -38 87 -102 87 -171zM490 390c0 109 -78 130 -172 130h-126v-270h99c101 0 199 16 199 140z" />
    <glyph glyph-name="Ugrave" unicode="&#xd9;" horiz-adv-x="758" 
d="M669 276c0 -185 -104 -289 -290 -289c-192 0 -290 93 -290 291v445h98v-432c0 -52 1 -106 30 -151c35 -55 100 -78 163 -78c74 0 146 33 176 104c17 40 18 84 18 127v430h95v-447zM444 776h-63l-139 145h108z" />
    <glyph glyph-name="Uacute" unicode="&#xda;" horiz-adv-x="758" 
d="M669 276c0 -185 -104 -289 -290 -289c-192 0 -290 93 -290 291v445h98v-432c0 -52 1 -106 30 -151c35 -55 100 -78 163 -78c74 0 146 33 176 104c17 40 18 84 18 127v430h95v-447zM517 921l-139 -145h-64l95 145h108z" />
    <glyph glyph-name="Ucircumflex" unicode="&#xdb;" horiz-adv-x="758" 
d="M669 276c0 -185 -104 -289 -290 -289c-192 0 -290 93 -290 291v445h98v-432c0 -52 1 -106 30 -151c35 -55 100 -78 163 -78c74 0 146 33 176 104c17 40 18 84 18 127v430h95v-447zM530 775h-64l-86 99l-88 -99h-64l105 146h94z" />
    <glyph glyph-name="Utilde" unicode="&#x168;" horiz-adv-x="758" 
d="M669 276c0 -185 -104 -289 -290 -289c-192 0 -290 93 -290 291v445h98v-432c0 -52 1 -106 30 -151c35 -55 100 -78 163 -78c74 0 146 33 176 104c17 40 18 84 18 127v430h95v-447zM534 901c-9 -48 -43 -96 -96 -96c-41 0 -77 24 -118 24c-23 0 -39 -8 -48 -30h-47
c9 53 45 94 101 94c40 0 75 -24 115 -24c23 0 37 10 45 32h48z" />
    <glyph glyph-name="Udieresis" unicode="&#xdc;" horiz-adv-x="758" 
d="M669 276c0 -185 -104 -289 -290 -289c-192 0 -290 93 -290 291v445h98v-432c0 -52 1 -106 30 -151c35 -55 100 -78 163 -78c74 0 146 33 176 104c17 40 18 84 18 127v430h95v-447zM521 811h-93v88h93v-88zM330 811h-93v88h93v-88z" />
    <glyph glyph-name="Umacron" unicode="&#x16a;" horiz-adv-x="758" 
d="M669 276c0 -185 -104 -289 -290 -289c-192 0 -290 93 -290 291v445h98v-432c0 -52 1 -106 30 -151c35 -55 100 -78 163 -78c74 0 146 33 176 104c17 40 18 84 18 127v430h95v-447zM516 811h-274v61h274v-61z" />
    <glyph glyph-name="Ubreve" unicode="&#x16c;" horiz-adv-x="758" 
d="M669 276c0 -185 -104 -289 -290 -289c-192 0 -290 93 -290 291v445h98v-432c0 -52 1 -106 30 -151c35 -55 100 -78 163 -78c74 0 146 33 176 104c17 40 18 84 18 127v430h95v-447zM530 904c-9 -79 -66 -123 -152 -123c-82 0 -149 43 -151 123h45c9 -48 63 -68 106 -68
c48 0 92 18 109 68h43z" />
    <glyph glyph-name="Uring" unicode="&#x16e;" horiz-adv-x="758" 
d="M669 276c0 -185 -104 -289 -290 -289c-192 0 -290 93 -290 291v445h98v-432c0 -52 1 -106 30 -151c35 -55 100 -78 163 -78c74 0 146 33 176 104c17 40 18 84 18 127v430h95v-447zM473 836c0 -53 -41 -93 -94 -93s-94 40 -94 93s41 93 94 93s94 -40 94 -93zM432 836
c0 33 -20 57 -53 57s-53 -24 -53 -57s20 -57 53 -57s53 24 53 57z" />
    <glyph glyph-name="Uhungarumlaut" unicode="&#x170;" horiz-adv-x="758" 
d="M669 276c0 -185 -104 -289 -290 -289c-192 0 -290 93 -290 291v445h98v-432c0 -52 1 -106 30 -151c35 -55 100 -78 163 -78c74 0 146 33 176 104c17 40 18 84 18 127v430h95v-447zM606 921l-142 -143h-66l100 143h108zM432 921l-142 -143h-66l99 143h109z" />
    <glyph glyph-name="Uogonek" unicode="&#x172;" horiz-adv-x="758" 
d="M669 276c0 -163 -80 -263 -226 -284c-63 -30 -91 -53 -91 -89c0 -33 29 -48 60 -48c14 0 28 4 42 10l6 -32c-25 -12 -51 -19 -79 -19c-43 0 -95 19 -95 70c0 46 40 80 87 103c-188 2 -284 95 -284 291v445h98v-432c0 -52 1 -106 30 -151c35 -55 100 -78 163 -78
c74 0 146 33 176 104c17 40 18 84 18 127v430h95v-447z" />
    <glyph glyph-name="Wcircumflex" unicode="&#x174;" horiz-adv-x="1049" 
d="M1034 723l-192 -723h-119l-199 633l-194 -633h-122l-193 723h99l159 -640l196 640h114l201 -639l158 639h92zM675 775h-64l-86 99l-88 -99h-64l105 146h94z" />
    <glyph glyph-name="Wacute" unicode="&#x1e82;" horiz-adv-x="1049" 
d="M1034 723l-192 -723h-119l-199 633l-194 -633h-122l-193 723h99l159 -640l196 640h114l201 -639l158 639h92zM667 921l-139 -145h-64l95 145h108z" />
    <glyph glyph-name="Wdieresis" unicode="&#x1e84;" horiz-adv-x="1049" 
d="M1034 723l-192 -723h-119l-199 633l-194 -633h-122l-193 723h99l159 -640l196 640h114l201 -639l158 639h92zM666 811h-93v88h93v-88zM475 811h-93v88h93v-88z" />
    <glyph glyph-name="Wgrave" unicode="&#x1e80;" horiz-adv-x="1049" 
d="M1034 723l-192 -723h-119l-199 633l-194 -633h-122l-193 723h99l159 -640l196 640h114l201 -639l158 639h92zM594 776h-63l-139 145h108z" />
    <glyph glyph-name="Yacute" unicode="&#xdd;" horiz-adv-x="635" 
d="M644 723l-279 -424v-299h-94v303l-279 420h111l220 -344l217 344h104zM458 921l-139 -145h-64l95 145h108z" />
    <glyph glyph-name="Ycircumflex" unicode="&#x176;" horiz-adv-x="635" 
d="M644 723l-279 -424v-299h-94v303l-279 420h111l220 -344l217 344h104zM471 775h-64l-86 99l-88 -99h-64l105 146h94z" />
    <glyph glyph-name="Ydieresis" unicode="&#x178;" horiz-adv-x="635" 
d="M644 723l-279 -424v-299h-94v303l-279 420h111l220 -344l217 344h104zM462 811h-93v88h93v-88zM271 811h-93v88h93v-88z" />
    <glyph glyph-name="Ygrave" unicode="&#x1ef2;" horiz-adv-x="635" 
d="M644 723l-279 -424v-299h-94v303l-279 420h111l220 -344l217 344h104zM385 776h-63l-139 145h108z" />
    <glyph glyph-name="Zacute" unicode="&#x179;" horiz-adv-x="584" 
d="M563 0h-542v83l426 567h-399v73h503v-77l-429 -573h441v-73zM439 921l-139 -145h-64l95 145h108z" />
    <glyph glyph-name="Zcaron" unicode="&#x17d;" horiz-adv-x="584" 
d="M563 0h-542v83l426 567h-399v73h503v-77l-429 -573h441v-73zM453 921l-102 -145h-99l-103 145h64l90 -99l86 99h64z" />
    <glyph glyph-name="Zdotaccent" unicode="&#x17b;" horiz-adv-x="584" 
d="M563 0h-542v83l426 567h-399v73h503v-77l-429 -573h441v-73zM348 821h-93v88h93v-88z" />
    <glyph glyph-name="agrave" unicode="&#xe0;" horiz-adv-x="549" 
d="M479 0h-77c-4 21 -8 50 -9 71c-42 -61 -98 -82 -171 -82c-94 0 -177 47 -177 150c0 151 166 169 289 169c18 0 36 -1 50 -2v30c0 78 -28 122 -111 122c-62 0 -99 -23 -105 -89h-86c5 110 94 146 189 146c129 0 192 -49 192 -181v-186c0 -66 9 -125 16 -148zM384 253
c-21 2 -31 2 -45 2c-78 0 -206 -9 -206 -112c0 -62 53 -95 111 -95c127 0 140 103 140 205zM343 591h-63l-139 145h108z" />
    <glyph glyph-name="aacute" unicode="&#xe1;" horiz-adv-x="549" 
d="M479 0h-77c-4 21 -8 50 -9 71c-42 -61 -98 -82 -171 -82c-94 0 -177 47 -177 150c0 151 166 169 289 169c18 0 36 -1 50 -2v30c0 78 -28 122 -111 122c-62 0 -99 -23 -105 -89h-86c5 110 94 146 189 146c129 0 192 -49 192 -181v-186c0 -66 9 -125 16 -148zM384 253
c-21 2 -31 2 -45 2c-78 0 -206 -9 -206 -112c0 -62 53 -95 111 -95c127 0 140 103 140 205zM415 736l-139 -145h-64l95 145h108z" />
    <glyph glyph-name="acircumflex" unicode="&#xe2;" horiz-adv-x="549" 
d="M479 0h-77c-4 21 -8 50 -9 71c-42 -61 -98 -82 -171 -82c-94 0 -177 47 -177 150c0 151 166 169 289 169c18 0 36 -1 50 -2v30c0 78 -28 122 -111 122c-62 0 -99 -23 -105 -89h-86c5 110 94 146 189 146c129 0 192 -49 192 -181v-186c0 -66 9 -125 16 -148zM384 253
c-21 2 -31 2 -45 2c-78 0 -206 -9 -206 -112c0 -62 53 -95 111 -95c127 0 140 103 140 205zM429 591h-64l-86 99l-88 -99h-64l105 146h94z" />
    <glyph glyph-name="atilde" unicode="&#xe3;" horiz-adv-x="549" 
d="M479 0h-77c-4 21 -8 50 -9 71c-42 -61 -98 -82 -171 -82c-94 0 -177 47 -177 150c0 151 166 169 289 169c18 0 36 -1 50 -2v30c0 78 -28 122 -111 122c-62 0 -99 -23 -105 -89h-86c5 110 94 146 189 146c129 0 192 -49 192 -181v-186c0 -66 9 -125 16 -148zM384 253
c-21 2 -31 2 -45 2c-78 0 -206 -9 -206 -112c0 -62 53 -95 111 -95c127 0 140 103 140 205zM433 716c-9 -48 -43 -96 -96 -96c-41 0 -77 24 -118 24c-23 0 -39 -8 -48 -30h-47c9 53 45 94 101 94c40 0 75 -24 115 -24c23 0 37 10 45 32h48z" />
    <glyph glyph-name="adieresis" unicode="&#xe4;" horiz-adv-x="549" 
d="M479 0h-77c-4 21 -8 50 -9 71c-42 -61 -98 -82 -171 -82c-94 0 -177 47 -177 150c0 151 166 169 289 169c18 0 36 -1 50 -2v30c0 78 -28 122 -111 122c-62 0 -99 -23 -105 -89h-86c5 110 94 146 189 146c129 0 192 -49 192 -181v-186c0 -66 9 -125 16 -148zM384 253
c-21 2 -31 2 -45 2c-78 0 -206 -9 -206 -112c0 -62 53 -95 111 -95c127 0 140 103 140 205zM419 636h-93v88h93v-88zM228 636h-93v88h93v-88z" />
    <glyph glyph-name="amacron" unicode="&#x101;" horiz-adv-x="549" 
d="M479 0h-77c-4 21 -8 50 -9 71c-42 -61 -98 -82 -171 -82c-94 0 -177 47 -177 150c0 151 166 169 289 169c18 0 36 -1 50 -2v30c0 78 -28 122 -111 122c-62 0 -99 -23 -105 -89h-86c5 110 94 146 189 146c129 0 192 -49 192 -181v-186c0 -66 9 -125 16 -148zM384 253
c-21 2 -31 2 -45 2c-78 0 -206 -9 -206 -112c0 -62 53 -95 111 -95c127 0 140 103 140 205zM414 636h-274v61h274v-61z" />
    <glyph glyph-name="abreve" unicode="&#x103;" horiz-adv-x="549" 
d="M479 0h-77c-4 21 -8 50 -9 71c-42 -61 -98 -82 -171 -82c-94 0 -177 47 -177 150c0 151 166 169 289 169c18 0 36 -1 50 -2v30c0 78 -28 122 -111 122c-62 0 -99 -23 -105 -89h-86c5 110 94 146 189 146c129 0 192 -49 192 -181v-186c0 -66 9 -125 16 -148zM384 253
c-21 2 -31 2 -45 2c-78 0 -206 -9 -206 -112c0 -62 53 -95 111 -95c127 0 140 103 140 205zM428 714c-9 -79 -66 -123 -152 -123c-82 0 -149 43 -151 123h45c9 -48 63 -68 106 -68c48 0 92 18 109 68h43z" />
    <glyph glyph-name="aring" unicode="&#xe5;" horiz-adv-x="549" 
d="M479 0h-77c-4 21 -8 50 -9 71c-42 -61 -98 -82 -171 -82c-94 0 -177 47 -177 150c0 151 166 169 289 169c18 0 36 -1 50 -2v30c0 78 -28 122 -111 122c-62 0 -99 -23 -105 -89h-86c5 110 94 146 189 146c129 0 192 -49 192 -181v-186c0 -66 9 -125 16 -148zM384 253
c-21 2 -31 2 -45 2c-78 0 -206 -9 -206 -112c0 -62 53 -95 111 -95c127 0 140 103 140 205zM371 666c0 -53 -41 -93 -94 -93s-94 40 -94 93s41 93 94 93s94 -40 94 -93zM330 666c0 33 -20 57 -53 57s-53 -24 -53 -57s20 -57 53 -57s53 24 53 57z" />
    <glyph glyph-name="aogonek" unicode="&#x105;" horiz-adv-x="549" 
d="M479 0c-46 -8 -119 -47 -119 -97c0 -33 29 -48 60 -48c14 0 28 4 42 10l6 -32c-25 -12 -51 -19 -79 -19c-43 0 -95 19 -95 70c0 55 56 94 114 116h-6c-4 21 -8 50 -9 71c-42 -61 -98 -82 -171 -82c-94 0 -177 47 -177 150c0 151 166 169 289 169c18 0 36 -1 50 -2v30
c0 78 -28 122 -111 122c-62 0 -99 -23 -105 -89h-86c5 110 94 146 189 146c129 0 192 -49 192 -181v-186c0 -66 9 -125 16 -148zM384 253c-21 2 -31 2 -45 2c-78 0 -206 -9 -206 -112c0 -62 53 -95 111 -95c127 0 140 103 140 205z" />
    <glyph glyph-name="ae" unicode="&#xe6;" horiz-adv-x="844" 
d="M800 237h-351c0 -89 27 -184 133 -184c63 0 121 40 123 107h90c-16 -114 -95 -170 -206 -170c-82 0 -149 33 -183 110c-36 -78 -106 -111 -189 -111c-90 0 -186 46 -186 148c0 59 33 107 84 134c48 25 117 26 179 26h70c-1 83 -10 157 -112 157c-59 0 -95 -23 -107 -83
h-87c10 106 94 143 189 143c76 0 136 -19 169 -93c38 67 98 95 174 95c173 0 209 -134 210 -279zM365 212c0 9 0 17 -1 26h-94c-67 0 -150 -16 -150 -98c0 -60 48 -92 104 -92c101 0 141 71 141 164zM714 297c-2 82 -36 156 -128 156c-96 0 -130 -71 -137 -156h265z" />
    <glyph glyph-name="cacute" unicode="&#x107;" horiz-adv-x="536" 
d="M503 169c-9 -121 -98 -180 -213 -180c-159 0 -245 105 -245 258c0 155 86 272 250 272c114 0 196 -58 206 -177h-86c-5 72 -48 115 -120 115c-119 0 -157 -104 -157 -206c0 -96 41 -202 153 -202c74 0 121 48 126 121h83zM425 736l-139 -145h-64l95 145h108z" />
    <glyph glyph-name="ccircumflex" unicode="&#x109;" horiz-adv-x="536" 
d="M503 169c-9 -121 -98 -180 -213 -180c-159 0 -245 105 -245 258c0 155 86 272 250 272c114 0 196 -58 206 -177h-86c-5 72 -48 115 -120 115c-119 0 -157 -104 -157 -206c0 -96 41 -202 153 -202c74 0 121 48 126 121h83zM439 591h-64l-86 99l-88 -99h-64l105 146h94z
" />
    <glyph glyph-name="ccaron" unicode="&#x10d;" horiz-adv-x="536" 
d="M503 169c-9 -121 -98 -180 -213 -180c-159 0 -245 105 -245 258c0 155 86 272 250 272c114 0 196 -58 206 -177h-86c-5 72 -48 115 -120 115c-119 0 -157 -104 -157 -206c0 -96 41 -202 153 -202c74 0 121 48 126 121h83zM439 736l-102 -145h-99l-103 145h64l90 -99
l86 99h64z" />
    <glyph glyph-name="cdotaccent" unicode="&#x10b;" horiz-adv-x="536" 
d="M503 169c-9 -121 -98 -180 -213 -180c-159 0 -245 105 -245 258c0 155 86 272 250 272c114 0 196 -58 206 -177h-86c-5 72 -48 115 -120 115c-119 0 -157 -104 -157 -206c0 -96 41 -202 153 -202c74 0 121 48 126 121h83zM334 636h-93v88h93v-88z" />
    <glyph glyph-name="ccedilla" unicode="&#xe7;" horiz-adv-x="536" 
d="M503 169c-9 -120 -96 -178 -209 -180l-13 -41h13c44 0 94 -13 94 -67c0 -58 -62 -73 -109 -73c-37 0 -73 9 -108 23l8 33c30 -14 62 -24 94 -24c26 0 50 8 50 37s-23 38 -49 38c-11 0 -21 -1 -33 -4v20l23 59c-143 11 -219 112 -219 257c0 155 86 272 250 272
c114 0 196 -58 206 -177h-86c-5 72 -48 115 -120 115c-119 0 -157 -104 -157 -206c0 -96 41 -202 153 -202c74 0 121 48 126 121h83z" />
    <glyph glyph-name="dcaron" unicode="&#x10f;" horiz-adv-x="598" 
d="M519 0h-86l-5 77c-43 -59 -87 -86 -162 -86c-153 0 -221 128 -221 265c0 132 69 259 218 259c76 0 126 -26 165 -90v298h88v-576c0 -48 0 -98 3 -147zM429 252c0 96 -40 201 -152 201c-109 0 -140 -108 -140 -199c0 -98 37 -199 151 -199c109 0 141 106 141 197zM693 723
l-60 -225h-65l27 225h98z" />
    <glyph glyph-name="dcroat" unicode="&#x111;" horiz-adv-x="598" 
d="M519 0h-86l-5 77c-43 -59 -87 -86 -162 -86c-153 0 -221 128 -221 265c0 132 69 259 218 259c76 0 126 -26 165 -90v146h-167v56h167v96h88v-96h55v-56h-55v-424c0 -48 0 -98 3 -147zM429 252c0 96 -40 201 -152 201c-109 0 -140 -108 -140 -199c0 -98 37 -199 151 -199
c109 0 141 106 141 197z" />
    <glyph glyph-name="eth" unicode="&#xf0;" 
d="M536 304c0 -159 -66 -315 -249 -315c-155 0 -243 108 -243 257c0 136 84 250 228 250c79 0 138 -37 172 -107c-21 106 -68 188 -162 247l-87 -57l-36 28l80 52c-30 14 -61 25 -94 34l29 58c46 -10 90 -25 131 -47l86 55l37 -27l-80 -50c135 -80 188 -228 188 -378z
M440 255c0 96 -47 180 -152 180c-112 0 -151 -95 -151 -192c0 -94 42 -190 150 -190c113 0 153 105 153 202z" />
    <glyph glyph-name="egrave" unicode="&#xe8;" horiz-adv-x="547" 
d="M502 236h-369v-10c0 -93 50 -178 152 -178c72 0 119 44 130 115h84c-20 -119 -106 -174 -221 -174c-157 0 -233 105 -233 255c0 151 76 270 240 270c169 0 217 -131 217 -278zM415 294c1 83 -41 160 -133 160c-93 0 -139 -76 -147 -160h280zM345 591h-63l-139 145h108z
" />
    <glyph glyph-name="eacute" unicode="&#xe9;" horiz-adv-x="547" 
d="M502 236h-369v-10c0 -93 50 -178 152 -178c72 0 119 44 130 115h84c-20 -119 -106 -174 -221 -174c-157 0 -233 105 -233 255c0 151 76 270 240 270c169 0 217 -131 217 -278zM415 294c1 83 -41 160 -133 160c-93 0 -139 -76 -147 -160h280zM417 736l-139 -145h-64
l95 145h108z" />
    <glyph glyph-name="ecircumflex" unicode="&#xea;" horiz-adv-x="547" 
d="M502 236h-369v-10c0 -93 50 -178 152 -178c72 0 119 44 130 115h84c-20 -119 -106 -174 -221 -174c-157 0 -233 105 -233 255c0 151 76 270 240 270c169 0 217 -131 217 -278zM415 294c1 83 -41 160 -133 160c-93 0 -139 -76 -147 -160h280zM431 591h-64l-86 99l-88 -99
h-64l105 146h94z" />
    <glyph glyph-name="ecaron" unicode="&#x11b;" horiz-adv-x="547" 
d="M502 236h-369v-10c0 -93 50 -178 152 -178c72 0 119 44 130 115h84c-20 -119 -106 -174 -221 -174c-157 0 -233 105 -233 255c0 151 76 270 240 270c169 0 217 -131 217 -278zM415 294c1 83 -41 160 -133 160c-93 0 -139 -76 -147 -160h280zM431 736l-102 -145h-99
l-103 145h64l90 -99l86 99h64z" />
    <glyph glyph-name="edieresis" unicode="&#xeb;" horiz-adv-x="547" 
d="M502 236h-369v-10c0 -93 50 -178 152 -178c72 0 119 44 130 115h84c-20 -119 -106 -174 -221 -174c-157 0 -233 105 -233 255c0 151 76 270 240 270c169 0 217 -131 217 -278zM415 294c1 83 -41 160 -133 160c-93 0 -139 -76 -147 -160h280zM421 636h-93v88h93v-88z
M230 636h-93v88h93v-88z" />
    <glyph glyph-name="emacron" unicode="&#x113;" horiz-adv-x="547" 
d="M502 236h-369v-10c0 -93 50 -178 152 -178c72 0 119 44 130 115h84c-20 -119 -106 -174 -221 -174c-157 0 -233 105 -233 255c0 151 76 270 240 270c169 0 217 -131 217 -278zM415 294c1 83 -41 160 -133 160c-93 0 -139 -76 -147 -160h280zM416 636h-274v61h274v-61z
" />
    <glyph glyph-name="ebreve" unicode="&#x115;" horiz-adv-x="547" 
d="M502 236h-369v-10c0 -93 50 -178 152 -178c72 0 119 44 130 115h84c-20 -119 -106 -174 -221 -174c-157 0 -233 105 -233 255c0 151 76 270 240 270c169 0 217 -131 217 -278zM415 294c1 83 -41 160 -133 160c-93 0 -139 -76 -147 -160h280zM430 714
c-9 -79 -66 -123 -152 -123c-82 0 -149 43 -151 123h45c9 -48 63 -68 106 -68c48 0 92 18 109 68h43z" />
    <glyph glyph-name="edotaccent" unicode="&#x117;" horiz-adv-x="547" 
d="M502 236h-369v-10c0 -93 50 -178 152 -178c72 0 119 44 130 115h84c-20 -119 -106 -174 -221 -174c-157 0 -233 105 -233 255c0 151 76 270 240 270c169 0 217 -131 217 -278zM415 294c1 83 -41 160 -133 160c-93 0 -139 -76 -147 -160h280zM326 636h-93v88h93v-88z" />
    <glyph glyph-name="eogonek" unicode="&#x119;" horiz-adv-x="547" 
d="M344 -4c-69 -32 -101 -55 -101 -93c0 -33 29 -48 60 -48c14 0 28 4 42 10l6 -32c-25 -12 -51 -19 -79 -19c-43 0 -95 19 -95 70c0 48 42 82 91 105c-150 4 -223 108 -223 255c0 151 76 270 240 270c169 0 217 -131 217 -278h-369v-10c0 -93 50 -178 152 -178
c72 0 119 44 130 115h84c-16 -94 -73 -149 -155 -167zM415 294c1 83 -41 160 -133 160c-93 0 -139 -76 -147 -160h280z" />
    <glyph glyph-name="gcircumflex" unicode="&#x11d;" horiz-adv-x="604" 
d="M526 505c-4 -58 -4 -117 -4 -175v-187c0 -194 -9 -344 -238 -344c-102 0 -209 31 -209 154h86c0 -72 60 -94 122 -94c106 0 141 59 149 152c2 27 2 55 2 83c-39 -60 -95 -89 -167 -89c-151 0 -222 115 -222 254c0 134 74 255 221 255c75 0 133 -30 171 -95v86h89z
M435 264c0 89 -45 189 -147 189c-111 0 -149 -102 -149 -197c0 -94 40 -192 148 -192c112 0 148 104 148 200zM444 591h-64l-86 99l-88 -99h-64l105 146h94z" />
    <glyph glyph-name="gbreve" unicode="&#x11f;" horiz-adv-x="604" 
d="M526 505c-4 -58 -4 -117 -4 -175v-187c0 -194 -9 -344 -238 -344c-102 0 -209 31 -209 154h86c0 -72 60 -94 122 -94c106 0 141 59 149 152c2 27 2 55 2 83c-39 -60 -95 -89 -167 -89c-151 0 -222 115 -222 254c0 134 74 255 221 255c75 0 133 -30 171 -95v86h89z
M435 264c0 89 -45 189 -147 189c-111 0 -149 -102 -149 -197c0 -94 40 -192 148 -192c112 0 148 104 148 200zM443 714c-9 -79 -66 -123 -152 -123c-82 0 -149 43 -151 123h45c9 -48 63 -68 106 -68c48 0 92 18 109 68h43z" />
    <glyph glyph-name="gdotaccent" unicode="&#x121;" horiz-adv-x="604" 
d="M526 505c-4 -58 -4 -117 -4 -175v-187c0 -194 -9 -344 -238 -344c-102 0 -209 31 -209 154h86c0 -72 60 -94 122 -94c106 0 141 59 149 152c2 27 2 55 2 83c-39 -60 -95 -89 -167 -89c-151 0 -222 115 -222 254c0 134 74 255 221 255c75 0 133 -30 171 -95v86h89z
M435 264c0 89 -45 189 -147 189c-111 0 -149 -102 -149 -197c0 -94 40 -192 148 -192c112 0 148 104 148 200zM339 636h-93v88h93v-88z" />
    <glyph glyph-name="gcommaaccent" unicode="&#x123;" horiz-adv-x="604" 
d="M526 505c-4 -58 -4 -117 -4 -175v-187c0 -194 -9 -344 -238 -344c-102 0 -209 31 -209 154h86c0 -72 60 -94 122 -94c106 0 141 59 149 152c2 27 2 55 2 83c-39 -60 -95 -89 -167 -89c-151 0 -222 115 -222 254c0 134 74 255 221 255c75 0 133 -30 171 -95v86h89z
M435 264c0 89 -45 189 -147 189c-111 0 -149 -102 -149 -197c0 -94 40 -192 148 -192c112 0 148 104 148 200zM233 591l60 145h63l-35 -145h-88z" />
    <glyph glyph-name="hcircumflex" unicode="&#x125;" horiz-adv-x="593" 
d="M514 0h-88v280c0 88 -10 165 -117 165c-102 0 -139 -86 -139 -178v-267h-88v723h88v-297c40 57 92 86 163 86c133 0 181 -73 181 -198v-314zM277 775h-64l-86 99l-88 -99h-64l105 146h94z" />
    <glyph glyph-name="hbar" unicode="&#x127;" horiz-adv-x="593" 
d="M514 0h-88v280c0 88 -10 165 -117 165c-102 0 -139 -86 -139 -178v-267h-88v571h-58v56h58v96h88v-96h164v-56h-164v-145c40 57 92 86 163 86c133 0 181 -73 181 -198v-314z" />
    <glyph glyph-name="dotlessi" unicode="&#x131;" horiz-adv-x="252" 
d="M170 0h-88v505h88v-505z" />
    <glyph glyph-name="igrave" unicode="&#xec;" horiz-adv-x="252" 
d="M170 0h-88v505h88v-505zM193 591h-63l-139 145h108z" />
    <glyph glyph-name="iacute" unicode="&#xed;" horiz-adv-x="252" 
d="M170 0h-88v505h88v-505zM265 736l-139 -145h-64l95 145h108z" />
    <glyph glyph-name="icircumflex" unicode="&#xee;" horiz-adv-x="252" 
d="M170 0h-88v505h88v-505zM277 591h-64l-86 99l-88 -99h-64l105 146h94z" />
    <glyph glyph-name="itilde" unicode="&#x129;" horiz-adv-x="252" 
d="M170 0h-88v505h88v-505zM281 716c-9 -48 -43 -96 -96 -96c-41 0 -77 24 -118 24c-23 0 -39 -8 -48 -30h-47c9 53 45 94 101 94c40 0 75 -24 115 -24c23 0 37 10 45 32h48z" />
    <glyph glyph-name="idieresis" unicode="&#xef;" horiz-adv-x="252" 
d="M170 0h-88v505h88v-505zM268 636h-93v88h93v-88zM77 636h-93v88h93v-88z" />
    <glyph glyph-name="imacron" unicode="&#x12b;" horiz-adv-x="252" 
d="M170 0h-88v505h88v-505zM264 636h-274v61h274v-61z" />
    <glyph glyph-name="ibreve" unicode="&#x12d;" horiz-adv-x="252" 
d="M170 0h-88v505h88v-505zM278 714c-9 -79 -66 -123 -152 -123c-82 0 -149 43 -151 123h45c9 -48 63 -68 106 -68c48 0 92 18 109 68h43z" />
    <glyph glyph-name="iogonek" unicode="&#x12f;" horiz-adv-x="252" 
d="M170 0c-75 -34 -109 -58 -109 -97c0 -33 29 -48 60 -48c14 0 28 4 42 10l6 -32c-25 -12 -51 -19 -79 -19c-43 0 -95 19 -95 70c0 56 59 94 118 116h-31v505h88v-505zM175 634h-98v89h98v-89z" />
    <glyph glyph-name="dotlessj" unicode="&#x237;" horiz-adv-x="252" 
d="M170 -63c0 -101 -40 -123 -135 -123c-22 0 -39 1 -50 2v66c13 -2 26 -3 38 -3c57 0 59 32 59 80v546h88v-568z" />
    <glyph glyph-name="jcircumflex" unicode="&#x135;" horiz-adv-x="252" 
d="M170 -63c0 -101 -40 -123 -135 -123c-22 0 -39 1 -50 2v66c13 -2 26 -3 38 -3c57 0 59 32 59 80v546h88v-568zM276 591h-64l-86 99l-88 -99h-64l105 146h94z" />
    <glyph glyph-name="kcommaaccent" unicode="&#x137;" horiz-adv-x="542" 
d="M532 0h-113l-246 285l227 221h112l-235 -218zM170 0h-88v723h88v-723zM324 -33l-64 -167h-63l39 167h88z" />
    <glyph glyph-name="kgreenlandic" unicode="&#x138;" horiz-adv-x="542" 
d="M532 0h-113l-246 285l227 221h112l-235 -218zM170 0h-88v506h88v-506z" />
    <glyph glyph-name="lacute" unicode="&#x13a;" horiz-adv-x="252" 
d="M170 0h-88v723h88v-723zM265 911l-139 -145h-64l95 145h108z" />
    <glyph glyph-name="lcaron" unicode="&#x13e;" horiz-adv-x="252" 
d="M170 0h-88v723h88v-723zM348 723l-60 -225h-65l27 225h98z" />
    <glyph glyph-name="lcommaaccent" unicode="&#x13c;" horiz-adv-x="252" 
d="M170 0h-88v723h88v-723zM175 -33l-64 -167h-63l39 167h88z" />
    <glyph glyph-name="lslash" unicode="&#x142;" horiz-adv-x="252" 
d="M261 438l-91 -59v-379h-88v323l-91 -57v67l91 58v332h88v-275l91 56v-66z" />
    <glyph glyph-name="ldot" unicode="&#x140;" horiz-adv-x="315" 
d="M170 0h-88v723h88v-723zM330 337h-93v88h93v-88z" />
    <glyph glyph-name="nacute" unicode="&#x144;" horiz-adv-x="593" 
d="M514 0h-88v280c0 88 -10 164 -117 164c-109 0 -139 -99 -139 -192v-252h-88v375c0 43 -2 101 -3 130h87l3 -81c41 58 92 87 165 87c132 0 180 -73 180 -197v-314zM446 736l-139 -145h-64l95 145h108z" />
    <glyph glyph-name="ncaron" unicode="&#x148;" horiz-adv-x="593" 
d="M514 0h-88v280c0 88 -10 164 -117 164c-109 0 -139 -99 -139 -192v-252h-88v375c0 43 -2 101 -3 130h87l3 -81c41 58 92 87 165 87c132 0 180 -73 180 -197v-314zM460 736l-102 -145h-99l-103 145h64l90 -99l86 99h64z" />
    <glyph glyph-name="ntilde" unicode="&#xf1;" horiz-adv-x="593" 
d="M514 0h-88v280c0 88 -10 164 -117 164c-109 0 -139 -99 -139 -192v-252h-88v375c0 43 -2 101 -3 130h87l3 -81c41 58 92 87 165 87c132 0 180 -73 180 -197v-314zM464 716c-9 -48 -43 -96 -96 -96c-41 0 -77 24 -118 24c-23 0 -39 -8 -48 -30h-47c9 53 45 94 101 94
c40 0 75 -24 115 -24c23 0 37 10 45 32h48z" />
    <glyph glyph-name="ncommaaccent" unicode="&#x146;" horiz-adv-x="593" 
d="M514 0h-88v280c0 88 -10 164 -117 164c-109 0 -139 -99 -139 -192v-252h-88v375c0 43 -2 101 -3 130h87l3 -81c41 58 92 87 165 87c132 0 180 -73 180 -197v-314zM348 -33l-64 -167h-63l39 167h88z" />
    <glyph glyph-name="eng" unicode="&#x14b;" horiz-adv-x="593" 
d="M514 314v-354c0 -104 -37 -146 -135 -146c-16 0 -38 1 -56 3v66c16 -3 29 -4 41 -4c44 0 62 20 62 85v316c0 88 -10 164 -117 164c-109 0 -139 -99 -139 -192v-252h-88v375c0 43 -2 101 -3 130h87l3 -81c41 58 92 87 165 87c132 0 180 -73 180 -197z" />
    <glyph glyph-name="ograve" unicode="&#xf2;" horiz-adv-x="587" 
d="M542 255c0 -149 -91 -266 -248 -266c-161 0 -249 113 -249 266c0 152 93 261 250 261c160 0 247 -107 247 -261zM450 255c0 99 -43 198 -156 198s-156 -99 -156 -198c0 -98 42 -206 156 -206c112 0 156 110 156 206zM362 591h-63l-139 145h108z" />
    <glyph glyph-name="oacute" unicode="&#xf3;" horiz-adv-x="587" 
d="M542 255c0 -149 -91 -266 -248 -266c-161 0 -249 113 -249 266c0 152 93 261 250 261c160 0 247 -107 247 -261zM450 255c0 99 -43 198 -156 198s-156 -99 -156 -198c0 -98 42 -206 156 -206c112 0 156 110 156 206zM434 736l-139 -145h-64l95 145h108z" />
    <glyph glyph-name="ocircumflex" unicode="&#xf4;" horiz-adv-x="587" 
d="M542 255c0 -149 -91 -266 -248 -266c-161 0 -249 113 -249 266c0 152 93 261 250 261c160 0 247 -107 247 -261zM450 255c0 99 -43 198 -156 198s-156 -99 -156 -198c0 -98 42 -206 156 -206c112 0 156 110 156 206zM448 591h-64l-86 99l-88 -99h-64l105 146h94z" />
    <glyph glyph-name="otilde" unicode="&#xf5;" horiz-adv-x="587" 
d="M542 255c0 -149 -91 -266 -248 -266c-161 0 -249 113 -249 266c0 152 93 261 250 261c160 0 247 -107 247 -261zM450 255c0 99 -43 198 -156 198s-156 -99 -156 -198c0 -98 42 -206 156 -206c112 0 156 110 156 206zM452 716c-9 -48 -43 -96 -96 -96
c-41 0 -77 24 -118 24c-23 0 -39 -8 -48 -30h-47c9 53 45 94 101 94c40 0 75 -24 115 -24c23 0 37 10 45 32h48z" />
    <glyph glyph-name="odieresis" unicode="&#xf6;" horiz-adv-x="587" 
d="M542 255c0 -149 -91 -266 -248 -266c-161 0 -249 113 -249 266c0 152 93 261 250 261c160 0 247 -107 247 -261zM450 255c0 99 -43 198 -156 198s-156 -99 -156 -198c0 -98 42 -206 156 -206c112 0 156 110 156 206zM438 636h-93v88h93v-88zM247 636h-93v88h93v-88z" />
    <glyph glyph-name="omacron" unicode="&#x14d;" horiz-adv-x="587" 
d="M542 255c0 -149 -91 -266 -248 -266c-161 0 -249 113 -249 266c0 152 93 261 250 261c160 0 247 -107 247 -261zM450 255c0 99 -43 198 -156 198s-156 -99 -156 -198c0 -98 42 -206 156 -206c112 0 156 110 156 206zM433 636h-274v61h274v-61z" />
    <glyph glyph-name="obreve" unicode="&#x14f;" horiz-adv-x="587" 
d="M542 255c0 -149 -91 -266 -248 -266c-161 0 -249 113 -249 266c0 152 93 261 250 261c160 0 247 -107 247 -261zM450 255c0 99 -43 198 -156 198s-156 -99 -156 -198c0 -98 42 -206 156 -206c112 0 156 110 156 206zM447 714c-9 -79 -66 -123 -152 -123
c-82 0 -149 43 -151 123h45c9 -48 63 -68 106 -68c48 0 92 18 109 68h43z" />
    <glyph glyph-name="ohungarumlaut" unicode="&#x151;" horiz-adv-x="587" 
d="M542 255c0 -149 -91 -266 -248 -266c-161 0 -249 113 -249 266c0 152 93 261 250 261c160 0 247 -107 247 -261zM450 255c0 99 -43 198 -156 198s-156 -99 -156 -198c0 -98 42 -206 156 -206c112 0 156 110 156 206zM533 736l-142 -143h-66l100 143h108zM359 736
l-142 -143h-66l99 143h109z" />
    <glyph glyph-name="oslash" unicode="&#xf8;" horiz-adv-x="587" 
d="M542 255c0 -149 -91 -266 -248 -266c-67 0 -122 20 -163 54l-70 -75l-38 34l73 78c-34 46 -51 106 -51 175c0 152 93 261 250 261c67 0 121 -19 161 -52l70 75l40 -31l-75 -80c34 -45 51 -104 51 -173zM402 407c-25 28 -60 46 -108 46c-113 0 -156 -99 -156 -198
c0 -37 6 -75 20 -109zM450 255c0 38 -6 75 -20 107l-246 -262c25 -31 61 -51 110 -51c112 0 156 110 156 206z" />
    <glyph glyph-name="oe" unicode="&#x153;" horiz-adv-x="909" 
d="M865 235h-352c0 -89 28 -182 134 -182c64 0 114 42 123 106h89c-16 -114 -101 -169 -211 -169c-77 0 -151 37 -180 111c-38 -75 -102 -110 -186 -110c-158 0 -238 115 -238 263c0 147 90 263 237 263c87 0 149 -37 190 -113c30 75 101 110 179 110
c178 0 214 -127 215 -279zM777 298c-1 84 -39 153 -132 153c-90 0 -126 -73 -130 -153h262zM425 248c0 94 -30 201 -143 201s-143 -108 -143 -202s35 -192 145 -192c108 0 141 102 141 193z" />
    <glyph glyph-name="racute" unicode="&#x155;" horiz-adv-x="363" 
d="M351 423c-13 2 -29 4 -43 4c-104 0 -138 -59 -138 -155v-272h-88v357c0 49 -1 99 -3 148h86l4 -81c36 59 85 84 154 84c9 0 20 -1 28 -2v-83zM346 736l-139 -145h-64l95 145h108z" />
    <glyph glyph-name="rcaron" unicode="&#x159;" horiz-adv-x="363" 
d="M351 423c-13 2 -29 4 -43 4c-104 0 -138 -59 -138 -155v-272h-88v357c0 49 -1 99 -3 148h86l4 -81c36 59 85 84 154 84c9 0 20 -1 28 -2v-83zM360 736l-102 -145h-99l-103 145h64l90 -99l86 99h64z" />
    <glyph glyph-name="rcommaaccent" unicode="&#x157;" horiz-adv-x="363" 
d="M351 423c-13 2 -29 4 -43 4c-104 0 -138 -59 -138 -155v-272h-88v357c0 49 -1 99 -3 148h86l4 -81c36 59 85 84 154 84c9 0 20 -1 28 -2v-83zM173 -33l-64 -167h-63l39 167h88z" />
    <glyph glyph-name="sacute" unicode="&#x15b;" horiz-adv-x="496" 
d="M449 146c0 -115 -106 -157 -205 -157c-107 0 -197 42 -197 164h88c4 -70 44 -103 113 -103c53 0 114 26 114 86c0 53 -50 74 -109 88l-41 10c-75 18 -152 49 -152 139c0 105 103 144 192 144c101 0 181 -42 185 -153h-87c-2 59 -41 93 -100 93c-46 0 -104 -21 -104 -75
c0 -47 48 -69 108 -84l40 -10c88 -22 155 -55 155 -142zM388 736l-139 -145h-64l95 145h108z" />
    <glyph glyph-name="scircumflex" unicode="&#x15d;" horiz-adv-x="496" 
d="M449 146c0 -115 -106 -157 -205 -157c-107 0 -197 42 -197 164h88c4 -70 44 -103 113 -103c53 0 114 26 114 86c0 53 -50 74 -109 88l-41 10c-75 18 -152 49 -152 139c0 105 103 144 192 144c101 0 181 -42 185 -153h-87c-2 59 -41 93 -100 93c-46 0 -104 -21 -104 -75
c0 -47 48 -69 108 -84l40 -10c88 -22 155 -55 155 -142zM402 591h-64l-86 99l-88 -99h-64l105 146h94z" />
    <glyph glyph-name="scaron" unicode="&#x161;" horiz-adv-x="496" 
d="M449 146c0 -115 -106 -157 -205 -157c-107 0 -197 42 -197 164h88c4 -70 44 -103 113 -103c53 0 114 26 114 86c0 53 -50 74 -109 88l-41 10c-75 18 -152 49 -152 139c0 105 103 144 192 144c101 0 181 -42 185 -153h-87c-2 59 -41 93 -100 93c-46 0 -104 -21 -104 -75
c0 -47 48 -69 108 -84l40 -10c88 -22 155 -55 155 -142zM402 736l-102 -145h-99l-103 145h64l90 -99l86 99h64z" />
    <glyph glyph-name="scedilla" unicode="&#x15f;" horiz-adv-x="496" 
d="M352 -119c0 -58 -62 -73 -109 -73c-37 0 -73 9 -108 23l8 33c30 -14 62 -24 94 -24c26 0 50 8 50 37s-23 38 -49 38c-11 0 -21 -1 -33 -4v20l22 59c-99 4 -180 47 -180 163h88c4 -70 44 -103 113 -103c53 0 114 26 114 86c0 53 -50 74 -109 88l-41 10
c-75 18 -152 49 -152 139c0 105 103 144 192 144c101 0 181 -42 185 -153h-87c-2 59 -41 93 -100 93c-46 0 -104 -21 -104 -75c0 -47 48 -69 108 -84l40 -10c88 -22 155 -55 155 -142c0 -110 -96 -153 -191 -157l-13 -41h13c44 0 94 -13 94 -67z" />
    <glyph glyph-name="scommaaccent" unicode="&#x219;" horiz-adv-x="496" 
d="M449 146c0 -115 -106 -157 -205 -157c-107 0 -197 42 -197 164h88c4 -70 44 -103 113 -103c53 0 114 26 114 86c0 53 -50 74 -109 88l-41 10c-75 18 -152 49 -152 139c0 105 103 144 192 144c101 0 181 -42 185 -153h-87c-2 59 -41 93 -100 93c-46 0 -104 -21 -104 -75
c0 -47 48 -69 108 -84l40 -10c88 -22 155 -55 155 -142zM296 -33l-64 -167h-63l39 167h88z" />
    <glyph glyph-name="germandbls" unicode="&#xdf;" horiz-adv-x="638" 
d="M606 157c0 -108 -89 -165 -189 -165c-95 0 -169 50 -171 152h84c0 -57 34 -91 90 -91c55 0 98 41 98 96c0 47 -33 73 -69 94c-13 8 -26 15 -40 22c-55 29 -111 61 -111 131c0 54 47 85 82 118c18 17 38 38 38 65c0 69 -57 92 -111 92c-49 0 -98 -23 -121 -68
c-18 -35 -18 -89 -18 -136v-467h-88v452c0 58 2 122 29 175c39 74 118 106 198 106c94 0 195 -35 195 -153c0 -47 -30 -76 -60 -101c-14 -12 -29 -24 -41 -37c-11 -13 -18 -26 -18 -42c0 -22 13 -38 34 -53c10 -7 23 -14 36 -21l41 -22c56 -30 112 -69 112 -147z" />
    <glyph glyph-name="tcaron" unicode="&#x165;" horiz-adv-x="344" 
d="M318 1c-28 -4 -54 -6 -81 -6c-81 0 -123 33 -123 117v332h-99v61h99v98l88 37v-135h113v-61h-113v-297c0 -61 8 -84 69 -84c16 0 30 2 47 5v-67zM467 723l-60 -225h-65l27 225h98z" />
    <glyph glyph-name="uni0163" unicode="&#x163;" horiz-adv-x="344" 
d="M318 1c-28 -4 -54 -6 -81 -6c-81 0 -123 33 -123 117v332h-99v61h99v98l88 37v-135h113v-61h-113v-297c0 -61 8 -84 69 -84c16 0 30 2 47 5v-67zM235 -33l-64 -167h-63l39 167h88z" />
    <glyph glyph-name="uni021B" unicode="&#x21b;" horiz-adv-x="344" 
d="M318 1c-28 -4 -54 -6 -81 -6c-81 0 -123 33 -123 117v332h-99v61h99v98l88 37v-135h113v-61h-113v-297c0 -61 8 -84 69 -84c16 0 30 2 47 5v-67zM235 -33l-64 -167h-63l39 167h88z" />
    <glyph glyph-name="tbar" unicode="&#x167;" horiz-adv-x="344" 
d="M318 1c-28 -4 -54 -6 -81 -6c-81 0 -123 33 -123 117v163h-69v56h69v113h-99v61h99v98l88 37v-135h113v-61h-113v-113h83v-56h-83v-128c0 -57 5 -84 69 -84c16 0 30 4 47 5v-67z" />
    <glyph glyph-name="thorn" unicode="&#xfe;" horiz-adv-x="599" 
d="M554 260c0 -136 -72 -268 -224 -268c-74 0 -118 27 -160 85v-267h-88v913h88v-304c41 65 92 95 171 95c148 0 213 -122 213 -254zM462 255c0 90 -32 199 -140 199c-112 0 -152 -106 -152 -202c0 -91 32 -198 141 -198c114 0 151 104 151 201z" />
    <glyph glyph-name="ugrave" unicode="&#xf9;" horiz-adv-x="592" 
d="M513 0h-86l-4 80c-42 -58 -90 -86 -163 -86c-133 0 -181 72 -181 197v314h88v-280c0 -88 10 -164 117 -164c106 0 139 85 139 177v267h88v-245c0 -86 0 -173 2 -260zM360 591h-63l-139 145h108z" />
    <glyph glyph-name="uacute" unicode="&#xfa;" horiz-adv-x="592" 
d="M513 0h-86l-4 80c-42 -58 -90 -86 -163 -86c-133 0 -181 72 -181 197v314h88v-280c0 -88 10 -164 117 -164c106 0 139 85 139 177v267h88v-245c0 -86 0 -173 2 -260zM432 736l-139 -145h-64l95 145h108z" />
    <glyph glyph-name="ucircumflex" unicode="&#xfb;" horiz-adv-x="592" 
d="M513 0h-86l-4 80c-42 -58 -90 -86 -163 -86c-133 0 -181 72 -181 197v314h88v-280c0 -88 10 -164 117 -164c106 0 139 85 139 177v267h88v-245c0 -86 0 -173 2 -260zM446 591h-64l-86 99l-88 -99h-64l105 146h94z" />
    <glyph glyph-name="utilde" unicode="&#x169;" horiz-adv-x="592" 
d="M513 0h-86l-4 80c-42 -58 -90 -86 -163 -86c-133 0 -181 72 -181 197v314h88v-280c0 -88 10 -164 117 -164c106 0 139 85 139 177v267h88v-245c0 -86 0 -173 2 -260zM450 716c-9 -48 -43 -96 -96 -96c-41 0 -77 24 -118 24c-23 0 -39 -8 -48 -30h-47c9 53 45 94 101 94
c40 0 75 -24 115 -24c23 0 37 10 45 32h48z" />
    <glyph glyph-name="udieresis" unicode="&#xfc;" horiz-adv-x="592" 
d="M513 0h-86l-4 80c-42 -58 -90 -86 -163 -86c-133 0 -181 72 -181 197v314h88v-280c0 -88 10 -164 117 -164c106 0 139 85 139 177v267h88v-245c0 -86 0 -173 2 -260zM436 636h-93v88h93v-88zM245 636h-93v88h93v-88z" />
    <glyph glyph-name="umacron" unicode="&#x16b;" horiz-adv-x="592" 
d="M513 0h-86l-4 80c-42 -58 -90 -86 -163 -86c-133 0 -181 72 -181 197v314h88v-280c0 -88 10 -164 117 -164c106 0 139 85 139 177v267h88v-245c0 -86 0 -173 2 -260zM431 636h-274v61h274v-61z" />
    <glyph glyph-name="ubreve" unicode="&#x16d;" horiz-adv-x="592" 
d="M513 0h-86l-4 80c-42 -58 -90 -86 -163 -86c-133 0 -181 72 -181 197v314h88v-280c0 -88 10 -164 117 -164c106 0 139 85 139 177v267h88v-245c0 -86 0 -173 2 -260zM445 714c-9 -79 -66 -123 -152 -123c-82 0 -149 43 -151 123h45c9 -48 63 -68 106 -68
c48 0 92 18 109 68h43z" />
    <glyph glyph-name="uring" unicode="&#x16f;" horiz-adv-x="592" 
d="M513 0h-86l-4 80c-42 -58 -90 -86 -163 -86c-133 0 -181 72 -181 197v314h88v-280c0 -88 10 -164 117 -164c106 0 139 85 139 177v267h88v-245c0 -86 0 -173 2 -260zM388 666c0 -53 -41 -93 -94 -93s-94 40 -94 93s41 93 94 93s94 -40 94 -93zM347 666
c0 33 -20 57 -53 57s-53 -24 -53 -57s20 -57 53 -57s53 24 53 57z" />
    <glyph glyph-name="uhungarumlaut" unicode="&#x171;" horiz-adv-x="592" 
d="M513 0h-86l-4 80c-42 -58 -90 -86 -163 -86c-133 0 -181 72 -181 197v314h88v-280c0 -88 10 -164 117 -164c106 0 139 85 139 177v267h88v-245c0 -86 0 -173 2 -260zM521 736l-142 -143h-66l100 143h108zM347 736l-142 -143h-66l99 143h109z" />
    <glyph glyph-name="uogonek" unicode="&#x173;" horiz-adv-x="592" 
d="M513 0c-75 -34 -109 -58 -109 -97c0 -33 29 -48 60 -48c14 0 28 4 42 10l6 -32c-25 -12 -51 -19 -79 -19c-43 0 -95 19 -95 70c0 56 59 94 118 116h-29l-4 80c-42 -58 -90 -86 -163 -86c-133 0 -181 72 -181 197v314h88v-280c0 -88 10 -164 117 -164
c106 0 139 85 139 177v267h88v-245c0 -86 0 -173 2 -260z" />
    <glyph glyph-name="wcircumflex" unicode="&#x175;" horiz-adv-x="853" 
d="M837 505l-180 -505h-87l-141 418l-144 -418h-90l-179 505h98l130 -414l139 414h101l136 -409l129 409h88zM581 591h-64l-86 99l-88 -99h-64l105 146h94z" />
    <glyph glyph-name="wacute" unicode="&#x1e83;" horiz-adv-x="853" 
d="M837 505l-180 -505h-87l-141 418l-144 -418h-90l-179 505h98l130 -414l139 414h101l136 -409l129 409h88zM569 736l-139 -145h-64l95 145h108z" />
    <glyph glyph-name="wdieresis" unicode="&#x1e85;" horiz-adv-x="853" 
d="M837 505l-180 -505h-87l-141 418l-144 -418h-90l-179 505h98l130 -414l139 414h101l136 -409l129 409h88zM571 636h-93v88h93v-88zM380 636h-93v88h93v-88z" />
    <glyph glyph-name="wgrave" unicode="&#x1e81;" horiz-adv-x="853" 
d="M837 505l-180 -505h-87l-141 418l-144 -418h-90l-179 505h98l130 -414l139 414h101l136 -409l129 409h88zM498 591h-63l-139 145h108z" />
    <glyph glyph-name="yacute" unicode="&#xfd;" horiz-adv-x="529" 
d="M519 505l-286 -695h-88l83 191l-215 504h100l159 -413l158 413h89zM411 736l-139 -145h-64l95 145h108z" />
    <glyph glyph-name="ycircumflex" unicode="&#x177;" horiz-adv-x="529" 
d="M519 505l-286 -695h-88l83 191l-215 504h100l159 -413l158 413h89zM425 591h-64l-86 99l-88 -99h-64l105 146h94z" />
    <glyph glyph-name="ydieresis" unicode="&#xff;" horiz-adv-x="529" 
d="M519 505l-286 -695h-88l83 191l-215 504h100l159 -413l158 413h89zM415 636h-93v88h93v-88zM224 636h-93v88h93v-88z" />
    <glyph glyph-name="ygrave" unicode="&#x1ef3;" horiz-adv-x="529" 
d="M519 505l-286 -695h-88l83 191l-215 504h100l159 -413l158 413h89zM339 591h-63l-139 145h108z" />
    <glyph glyph-name="zacute" unicode="&#x17a;" horiz-adv-x="461" 
d="M424 0h-387v71l289 368h-281v66h371v-73l-284 -366h292v-66zM361 736l-139 -145h-64l95 145h108z" />
    <glyph glyph-name="zcaron" unicode="&#x17e;" horiz-adv-x="461" 
d="M424 0h-387v71l289 368h-281v66h371v-73l-284 -366h292v-66zM375 736l-102 -145h-99l-103 145h64l90 -99l86 99h64z" />
    <glyph glyph-name="zdotaccent" unicode="&#x17c;" horiz-adv-x="461" 
d="M424 0h-387v71l289 368h-281v66h371v-73l-284 -366h292v-66zM270 636h-93v88h93v-88z" />
    <glyph glyph-name="f_i" unicode="&#xf001;" horiz-adv-x="584" 
d="M326 662c-13 1 -26 2 -39 2c-49 0 -82 -12 -82 -67v-92h113v-61h-113v-444h-88v444h-101v61h101v48c0 102 14 176 136 176c24 0 48 -1 73 -3v-64zM512 634h-98v89h98v-89zM507 0h-88v505h88v-505z" />
    <glyph glyph-name="f_l" unicode="&#xf002;" horiz-adv-x="589" 
d="M326 662c-13 1 -26 2 -39 2c-49 0 -82 -12 -82 -67v-92h113v-61h-113v-444h-88v444h-101v61h101v48c0 102 14 176 136 176c24 0 48 -1 73 -3v-64zM507 0h-88v723h88v-723z" />
    <glyph glyph-name="grave.cap" horiz-adv-x="300" 
d="M216 776h-63l-139 145h108z" />
    <glyph glyph-name="acute" unicode="&#xb4;" horiz-adv-x="301" 
d="M287 736l-139 -145h-64l95 145h108z" />
    <glyph glyph-name="acute.cap" horiz-adv-x="301" 
d="M287 921l-139 -145h-64l95 145h108z" />
    <glyph glyph-name="circumflex" unicode="&#x2c6;" horiz-adv-x="300" 
d="M301 591h-64l-86 99l-88 -99h-64l105 146h94z" />
    <glyph glyph-name="circumflex.cap" horiz-adv-x="300" 
d="M301 775h-64l-86 99l-88 -99h-64l105 146h94z" />
    <glyph glyph-name="caron" unicode="&#x2c7;" horiz-adv-x="300" 
d="M302 736l-102 -145h-99l-103 145h64l90 -99l86 99h64z" />
    <glyph glyph-name="caron.cap" horiz-adv-x="300" 
d="M302 921l-102 -145h-99l-103 145h64l90 -99l86 99h64z" />
    <glyph glyph-name="caron.alt" horiz-adv-x="248" 
d="M214 723l-60 -225h-65l27 225h98z" />
    <glyph glyph-name="tilde" unicode="&#x2dc;" horiz-adv-x="301" 
d="M305 716c-9 -48 -43 -96 -96 -96c-41 0 -77 24 -118 24c-23 0 -39 -8 -48 -30h-47c9 53 45 94 101 94c40 0 75 -24 115 -24c23 0 37 10 45 32h48z" />
    <glyph glyph-name="tilde.cap" horiz-adv-x="301" 
d="M305 901c-9 -48 -43 -96 -96 -96c-41 0 -77 24 -118 24c-23 0 -39 -8 -48 -30h-47c9 53 45 94 101 94c40 0 75 -24 115 -24c23 0 37 10 45 32h48z" />
    <glyph glyph-name="dieresis" unicode="&#xa8;" horiz-adv-x="300" 
d="M292 636h-93v88h93v-88zM101 636h-93v88h93v-88z" />
    <glyph glyph-name="dieresis.cap" horiz-adv-x="300" 
d="M292 811h-93v88h93v-88zM101 811h-93v88h93v-88z" />
    <glyph glyph-name="macron" unicode="&#xaf;" horiz-adv-x="300" 
d="M287 636h-274v61h274v-61z" />
    <glyph glyph-name="macron.cap" horiz-adv-x="300" 
d="M287 811h-274v61h274v-61z" />
    <glyph glyph-name="uni02C9" unicode="&#x2c9;" horiz-adv-x="300" 
d="M287 811h-274v61h274v-61z" />
    <glyph glyph-name="breve" unicode="&#x2d8;" horiz-adv-x="301" 
d="M301 714c-9 -79 -66 -123 -152 -123c-82 0 -149 43 -151 123h45c9 -48 63 -68 106 -68c48 0 92 18 109 68h43z" />
    <glyph glyph-name="breve.cap" horiz-adv-x="301" 
d="M301 904c-9 -79 -66 -123 -152 -123c-82 0 -149 43 -151 123h45c9 -48 63 -68 106 -68c48 0 92 18 109 68h43z" />
    <glyph glyph-name="ring" unicode="&#x2da;" horiz-adv-x="300" 
d="M244 666c0 -53 -41 -93 -94 -93s-94 40 -94 93s41 93 94 93s94 -40 94 -93zM203 666c0 33 -20 57 -53 57s-53 -24 -53 -57s20 -57 53 -57s53 24 53 57z" />
    <glyph glyph-name="ring.cap" horiz-adv-x="300" 
d="M244 836c0 -53 -41 -93 -94 -93s-94 40 -94 93s41 93 94 93s94 -40 94 -93zM203 836c0 33 -20 57 -53 57s-53 -24 -53 -57s20 -57 53 -57s53 24 53 57z" />
    <glyph glyph-name="hungarumlaut" unicode="&#x2dd;" horiz-adv-x="300" 
d="M377 736l-142 -143h-66l100 143h108zM203 736l-142 -143h-66l99 143h109z" />
    <glyph glyph-name="hungarumlaut.cap" horiz-adv-x="300" 
d="M377 921l-142 -143h-66l100 143h108zM203 921l-142 -143h-66l99 143h109z" />
    <glyph glyph-name="dotaccent" unicode="&#x2d9;" horiz-adv-x="301" 
d="M197 636h-93v88h93v-88z" />
    <glyph glyph-name="dotaccent.cap" horiz-adv-x="301" 
d="M197 821h-93v88h93v-88z" />
    <glyph glyph-name="cedilla" unicode="&#xb8;" horiz-adv-x="300" 
d="M256 -119c0 -58 -62 -73 -109 -73c-37 0 -73 9 -108 23l8 33c30 -14 62 -24 94 -24c26 0 50 8 50 37s-23 38 -49 38c-11 0 -21 -1 -33 -4v20l29 75h30l-19 -58h13c44 0 94 -13 94 -67z" />
    <glyph glyph-name="ogonek" unicode="&#x2db;" horiz-adv-x="301" 
d="M230 0c-75 -34 -109 -58 -109 -97c0 -33 29 -48 60 -48c14 0 28 4 42 10l6 -32c-25 -12 -51 -19 -79 -19c-43 0 -95 19 -95 70c0 56 59 94 118 116h57z" />
    <glyph glyph-name="commaaccent" horiz-adv-x="248" 
d="M171 -33l-64 -167h-63l39 167h88z" />
    <glyph glyph-name="commaaccent.alt" horiz-adv-x="602" 
d="M244 591l60 145h63l-35 -145h-88z" />
    <glyph glyph-name="ellipsis" unicode="&#x2026;" horiz-adv-x="1011" 
d="M889 0h-101v99h101v-99zM556 0h-101v99h101v-99zM223 0h-101v99h101v-99z" />
    <glyph glyph-name="uni00AD" unicode="&#xad;" horiz-adv-x="341" 
d="M301 234h-261v66h261v-66z" />
    <glyph glyph-name="exclamdown" unicode="&#xa1;" horiz-adv-x="298" 
d="M199 413h-100v100h100v-100zM203 -210h-108l16 545h76z" />
    <glyph glyph-name="questiondown" unicode="&#xbf;" horiz-adv-x="521" 
d="M82 -39c0 90 68 148 154 226c35 32 41 45 41 76v72h77v-72c0 -70 -14 -86 -81 -147c-50 -45 -97 -82 -97 -151c0 -87 72 -118 149 -118c35 0 69 6 104 16v-73c-39 -7 -77 -12 -115 -12c-120 0 -232 45 -232 183zM265 513h101v-101h-101v101z" />
    <glyph glyph-name="quoteleft" unicode="&#x2018;" horiz-adv-x="302" 
d="M226 723l-48 -212h-102l79 212h71z" />
    <glyph glyph-name="quoteright" unicode="&#x2019;" horiz-adv-x="302" 
d="M226 723l-79 -212h-71l49 212h101z" />
    <glyph glyph-name="quotedblleft" unicode="&#x201c;" horiz-adv-x="510" 
d="M434 723l-55 -212h-104l90 212h69zM236 723l-56 -212h-104l90 212h70z" />
    <glyph glyph-name="quotedblright" unicode="&#x201d;" horiz-adv-x="510" 
d="M434 723l-90 -212h-69l56 212h103zM236 723l-90 -212h-70l55 212h105z" />
    <glyph glyph-name="quotesinglbase" unicode="&#x201a;" horiz-adv-x="308" 
d="M232 99l-85 -213h-71l53 213h103z" />
    <glyph glyph-name="quotedblbase" unicode="&#x201e;" horiz-adv-x="506" 
d="M430 99l-84 -213h-71l52 213h103zM231 99l-84 -213h-71l53 213h102z" />
    <glyph glyph-name="guilsinglleft" unicode="&#x2039;" horiz-adv-x="301" 
d="M241 64h-75l-106 197l106 192h74l-96 -197z" />
    <glyph glyph-name="guilsinglright" unicode="&#x203a;" horiz-adv-x="301" 
d="M241 256l-106 -192h-74l96 197l-97 192h75z" />
    <glyph glyph-name="guillemotleft" unicode="&#xab;" horiz-adv-x="499" 
d="M439 64h-75l-107 197l106 192h75l-97 -197zM242 64h-75l-107 197l107 192h74l-97 -197z" />
    <glyph glyph-name="guillemotright" unicode="&#xbb;" horiz-adv-x="499" 
d="M439 256l-106 -192h-74l96 197l-98 192h76zM242 256l-106 -192h-75l97 197l-98 192h75z" />
    <glyph glyph-name="endash" unicode="&#x2013;" horiz-adv-x="512" 
d="M507 233h-502v59h502v-59z" />
    <glyph glyph-name="emdash" unicode="&#x2014;" horiz-adv-x="1013" 
d="M878 233h-743v59h743v-59z" />
    <glyph glyph-name="bullet" unicode="&#x2022;" horiz-adv-x="513" 
d="M438 362c0 -99 -81 -181 -181 -181s-182 81 -182 181c0 99 82 180 182 180c99 0 181 -81 181 -180z" />
    <glyph glyph-name="periodcentered" unicode="&#xb7;" horiz-adv-x="290" 
d="M196 269h-101v99h101v-99z" />
    <glyph glyph-name="uni2219" unicode="&#x2219;" horiz-adv-x="290" 
d="M196 269h-101v99h101v-99z" />
    <glyph glyph-name="dagger" unicode="&#x2020;" horiz-adv-x="590" 
d="M507 480h-174v-480h-76v480h-174v63h174v179h76v-179h174v-63z" />
    <glyph glyph-name="daggerdbl" unicode="&#x2021;" horiz-adv-x="590" 
d="M507 174h-172v-174h-79v174h-173v62h173v251h-173v62h173v173h79v-173h171v-62h-171v-251h172v-62z" />
    <glyph glyph-name="section" unicode="&#xa7;" horiz-adv-x="589" 
d="M474 140c0 -109 -109 -150 -201 -150c-51 0 -97 7 -146 23v68c43 -17 80 -25 125 -25c53 0 126 15 126 81c0 26 -16 43 -41 57c-12 7 -27 12 -43 18l-48 17c-66 22 -134 50 -134 125c0 68 51 104 106 131c-52 23 -91 59 -91 120c0 99 93 132 177 132c42 0 85 -7 127 -16
v-68c-38 12 -76 19 -114 19c-43 0 -98 -17 -98 -68c0 -23 15 -39 39 -53c12 -7 25 -14 40 -20l46 -18c63 -25 127 -55 127 -123c0 -61 -49 -103 -100 -126c58 -24 103 -55 103 -124zM381 373c0 25 -16 42 -37 56c-20 13 -43 23 -65 32c-35 -17 -80 -44 -80 -88
c0 -52 62 -72 101 -87c34 17 81 45 81 87z" />
    <glyph glyph-name="paragraph" unicode="&#xb6;" horiz-adv-x="588" 
d="M490 0h-76v661h-115v-661h-76v328c-124 10 -195 71 -195 195c0 147 104 200 250 200h212v-723z" />
    <glyph glyph-name="brokenbar" unicode="&#xa6;" horiz-adv-x="246" 
d="M162 410h-78v251h78v-251zM162 -89h-78v251h78v-251z" />
    <glyph glyph-name="copyright" unicode="&#xa9;" horiz-adv-x="844" 
d="M797 362c0 -214 -160 -373 -375 -373s-375 158 -375 373c0 214 160 373 375 373s375 -159 375 -373zM743 362c0 190 -135 324 -321 324c-187 0 -321 -134 -321 -324s135 -325 321 -325s321 135 321 325zM595 272c-13 -80 -87 -120 -166 -120c-128 0 -188 82 -188 207
c0 122 66 213 194 213c72 0 151 -38 157 -119h-78c-10 44 -36 62 -79 62c-87 0 -115 -72 -115 -158s27 -149 111 -149c42 0 73 19 85 64h79z" />
    <glyph glyph-name="registered" unicode="&#xae;" horiz-adv-x="478" 
d="M427 550c0 -103 -84 -188 -188 -188c-103 0 -188 85 -188 188s85 187 188 187c104 0 188 -84 188 -187zM394 550c0 85 -69 155 -155 155s-156 -70 -156 -155s70 -155 156 -155s155 70 155 155zM315 455h-37c-3 7 -4 15 -5 24l-2 28c-3 18 -9 32 -29 32h-40v-84h-33v194
h74c34 0 66 -6 66 -48c0 -25 -13 -39 -35 -46c23 -6 28 -23 30 -42l2 -30c1 -10 3 -19 9 -28zM275 596c0 25 -19 29 -41 29h-32v-62h28c23 0 45 6 45 33z" />
    <glyph glyph-name="trademark" unicode="&#x2122;" horiz-adv-x="954" 
d="M824 361h-59v309l-114 -309h-46l-116 309v-309h-58v361h91l107 -281l108 281h87v-361zM391 676h-126v-315h-61v315h-129v46h316v-46z" />
    <glyph glyph-name="currency" unicode="&#xa4;" 
d="M485 602l53 -53l-68 -68c24 -35 39 -78 39 -125c0 -48 -14 -91 -39 -127l68 -67l-53 -53l-68 68c-35 -25 -79 -39 -127 -39s-92 14 -128 39l-67 -68l-53 53l68 67c-25 36 -39 79 -39 127c0 47 14 90 39 125l-68 68l53 53l68 -68c35 24 79 39 127 39s91 -15 127 -39z
M429 356c0 82 -60 144 -139 144c-78 0 -139 -62 -139 -144c0 -83 61 -145 139 -145c79 0 139 62 139 145z" />
    <glyph glyph-name="Euro" unicode="&#x20ac;" 
d="M557 690l-21 -79c-23 25 -67 52 -143 52c-117 0 -168 -84 -180 -189h282l-16 -62h-268c-1 -9 -1 -13 -1 -33c0 -15 0 -27 1 -44h245l-16 -62h-228c7 -132 58 -209 182 -209c65 0 109 19 142 50v-89c-33 -21 -75 -36 -146 -36c-188 0 -255 111 -270 284h-90l16 62h71
c-1 17 -1 29 -1 44c0 17 0 21 1 33h-86l16 62h72c24 150 98 264 272 264c93 0 141 -32 166 -48z" />
    <glyph glyph-name="cent" unicode="&#xa2;" 
d="M338 455c-8 1 -16 2 -24 2c-119 0 -157 -104 -157 -206c0 -69 21 -142 74 -179zM522 169c-9 -121 -98 -180 -213 -180c-17 0 -33 1 -48 3l-28 -102l-49 11l28 103c-97 35 -148 124 -148 243c0 155 86 272 250 272c14 0 28 -1 40 -3l29 103l49 -11l-29 -103
c66 -24 110 -78 117 -163h-86c-3 44 -20 77 -49 96l-107 -386c10 -2 20 -3 32 -3c74 0 121 48 126 121h83z" />
    <glyph glyph-name="sterling" unicode="&#xa3;" 
d="M553 564h-95c-2 70 -43 107 -111 107c-103 0 -137 -76 -137 -197v-39h159v-68h-159v-295h319v-72h-473v72h61v295h-76v68h76v13c1 85 2 185 75 243c43 35 101 47 155 47c115 0 202 -48 206 -174z" />
    <glyph glyph-name="florin" unicode="&#x192;" 
d="M358 558l-19 -99h105l-11 -66h-106l-70 -378c-25 -133 -67 -189 -160 -189c-19 0 -39 3 -57 6l13 73c9 -2 18 -3 28 -3c45 0 67 28 80 98l73 393h-94l12 66h94l18 93c18 97 45 188 153 188c25 0 51 -4 74 -9l-11 -72c-14 3 -28 6 -42 6c-52 0 -68 -39 -80 -107z" />
    <glyph glyph-name="yen" unicode="&#xa5;" 
d="M579 723l-216 -372h152v-62h-182v-77h182v-62h-182v-150h-89v150h-181v62h181v77h-181v62h153l-215 372h104l189 -347l191 347h94z" />
    <glyph glyph-name="ordfeminine" unicode="&#xaa;" horiz-adv-x="330" 
d="M289 432h-61c0 13 -1 26 -2 38c-27 -30 -54 -44 -96 -44c-55 0 -106 31 -106 91c0 87 97 102 170 102h29c0 49 -6 75 -62 75c-35 0 -57 -11 -61 -48h-62c8 70 60 92 123 92c74 0 104 -25 116 -63c6 -19 7 -41 7 -65s-2 -50 -2 -77c0 -33 2 -67 7 -101zM223 578h-21
c-42 0 -116 -3 -116 -59c0 -32 27 -48 57 -48c68 0 80 50 80 107z" />
    <glyph glyph-name="ordmasculine" unicode="&#xba;" horiz-adv-x="362" 
d="M333 583c0 -94 -54 -158 -152 -158c-95 0 -152 63 -152 156c0 94 55 157 152 157c95 0 152 -62 152 -155zM269 583c0 56 -25 109 -88 109s-87 -53 -87 -109c0 -55 24 -111 87 -111s88 56 88 111z" />
    <glyph glyph-name="fraction" unicode="&#x2044;" horiz-adv-x="179" 
d="M341 753l-432 -779h-71l434 779h69z" />
    <glyph glyph-name="uni2215" unicode="&#x2215;" horiz-adv-x="179" 
d="M341 753l-432 -779h-71l434 779h69z" />
    <glyph glyph-name="onequarter" unicode="&#xbc;" horiz-adv-x="915" 
d="M708 753l-431 -779h-71l433 779h69zM887 92h-67v-92h-63v92h-199v58l188 270h74v-278h67v-50zM758 142v210l-143 -210h143zM242 303h-66v351c-31 -24 -59 -40 -96 -55v58c47 18 67 32 105 66h57v-420z" />
    <glyph glyph-name="onehalf" unicode="&#xbd;" horiz-adv-x="915" 
d="M701 753l-431 -779h-71l433 779h69zM242 303h-66v351c-31 -24 -59 -40 -96 -55v58c47 18 67 32 105 66h57v-420zM864 0h-290v56l67 60c89 79 149 137 149 193c0 41 -26 65 -69 65c-48 0 -73 -29 -74 -76h-68c1 86 64 129 143 129c76 0 137 -38 137 -115
c0 -73 -59 -137 -151 -215l-50 -42h206v-55z" />
    <glyph glyph-name="threequarters" unicode="&#xbe;" horiz-adv-x="915" 
d="M736 753l-431 -779h-71l433 779h69zM334 419c0 -82 -72 -122 -155 -122c-82 0 -146 37 -150 126h65c1 -51 41 -75 87 -75c51 0 87 26 87 76s-42 72 -92 72c-9 0 -20 -1 -29 -3v54c9 -1 19 -2 29 -2c47 0 86 19 86 69c0 46 -34 66 -80 66c-43 0 -77 -21 -81 -71h-66
c2 81 74 121 148 121c73 0 144 -34 144 -115c0 -48 -29 -77 -73 -94c49 -14 80 -47 80 -102zM887 92h-67v-92h-63v92h-199v58l188 270h74v-278h67v-50zM758 142v210l-143 -210h143z" />
    <glyph glyph-name="perthousand" unicode="&#x2030;" horiz-adv-x="1012" 
d="M981 156c0 -88 -49 -169 -146 -169c-93 0 -143 72 -143 159c0 93 44 169 146 169c97 0 143 -69 143 -159zM320 578c0 -88 -48 -168 -145 -168c-93 0 -144 71 -144 158c0 93 45 170 147 170c97 0 142 -70 142 -160zM587 753l-432 -779h-71l433 779h70zM637 156
c0 -88 -49 -169 -145 -169c-93 0 -143 72 -143 159c0 93 44 169 146 169c97 0 142 -70 142 -159zM910 159c0 48 -16 98 -72 98c-59 0 -76 -56 -76 -106c0 -48 16 -105 73 -105c61 0 75 64 75 113zM249 581c0 48 -16 100 -72 100c-59 0 -76 -57 -76 -107
c0 -48 17 -105 74 -105c61 0 74 63 74 112zM566 159c0 48 -16 98 -72 98c-59 0 -75 -57 -75 -106c0 -48 15 -105 73 -105c60 0 74 64 74 113z" />
    <glyph glyph-name="minus" unicode="&#x2212;" horiz-adv-x="673" 
d="M591 213h-509v71h509v-71z" />
    <glyph glyph-name="plusminus" unicode="&#xb1;" horiz-adv-x="673" 
d="M591 283h-215v-169h-79v169h-215v73h215v170h79v-170h215v-73zM591 0h-509v73h509v-73z" />
    <glyph glyph-name="multiply" unicode="&#xd7;" horiz-adv-x="673" 
d="M579 436l-189 -188l188 -188l-53 -53l-188 188l-189 -187l-54 52l189 188l-189 188l54 53l189 -188l188 188z" />
    <glyph glyph-name="divide" unicode="&#xf7;" horiz-adv-x="673" 
d="M384 370h-95v115h95v-115zM591 212h-509v73h509v-73zM384 11h-95v114h95v-114z" />
    <glyph glyph-name="notequal" unicode="&#x2260;" horiz-adv-x="673" 
d="M591 113h-288l-77 -145l-62 32l58 113h-140v73h178l65 124h-243v73h282l78 147l63 -32l-61 -115h147v-73h-184l-66 -124h250v-73z" />
    <glyph glyph-name="approxequal" unicode="&#x2248;" horiz-adv-x="673" 
d="M601 416c-7 -74 -44 -149 -128 -149c-42 0 -93 16 -141 35c-50 20 -98 37 -133 37c-44 0 -70 -36 -76 -76h-52c9 73 44 148 129 148c43 0 92 -17 140 -35c49 -18 97 -35 133 -35c47 0 69 33 77 75h51zM601 234c-7 -73 -44 -148 -128 -148c-42 0 -93 17 -141 35
c-50 19 -98 37 -133 37c-44 0 -70 -36 -76 -76h-52c9 73 44 148 129 148c43 0 92 -17 140 -35c49 -18 97 -35 133 -35c47 0 69 33 77 74h51z" />
    <glyph glyph-name="lessequal" unicode="&#x2264;" horiz-adv-x="673" 
d="M591 110l-509 186v76l509 184v-77l-406 -144l406 -147v-78zM591 0h-509v73h509v-73z" />
    <glyph glyph-name="greaterequal" unicode="&#x2265;" horiz-adv-x="673" 
d="M591 296l-509 -186v78l406 147l-406 144v77l509 -184v-76zM591 0h-509v73h509v-73z" />
    <glyph glyph-name="logicalnot" unicode="&#xac;" horiz-adv-x="673" 
d="M591 114h-75v196h-434v72h509v-268z" />
    <glyph glyph-name="Delta" unicode="&#x2206;" horiz-adv-x="683" 
d="M690 0h-693l294 723h100zM567 73l-225 569l-225 -569h450z" />
    <glyph glyph-name="Omega" unicode="&#x2126;" horiz-adv-x="753" 
d="M701 0h-249v75c87 58 151 166 151 301c0 158 -68 287 -227 287c-152 0 -224 -131 -224 -287c0 -135 64 -243 150 -301v-75h-248v75h157c-92 59 -158 168 -158 310c0 198 120 353 323 353c206 0 326 -139 326 -353c0 -142 -67 -251 -159 -310h158v-75z" />
    <glyph glyph-name="mu" unicode="&#xb5;" horiz-adv-x="596" 
d="M517 0h-89l-1 78c-21 -44 -67 -84 -135 -84c-54 0 -96 21 -122 63v-247h-88v695h88v-280c0 -91 24 -165 121 -165c100 0 135 76 135 176v269h88v-338c0 -50 1 -109 3 -167z" />
    <glyph glyph-name="degree" unicode="&#xb0;" horiz-adv-x="386" 
d="M347 582c0 -85 -68 -153 -154 -153s-154 68 -154 153c0 86 68 153 154 153s154 -67 154 -153zM286 582c0 56 -40 97 -93 97s-92 -41 -92 -97c0 -55 39 -96 92 -96s93 41 93 96z" />
    <glyph glyph-name="afii61289" unicode="&#x2113;" horiz-adv-x="494" 
d="M427 584c0 -99 -63 -211 -213 -346v-89c0 -64 32 -91 79 -91c41 0 74 22 104 57l45 -43c-42 -53 -97 -83 -161 -83c-96 0 -145 55 -145 165v17l-51 -44l-38 50l89 78v281c0 135 63 199 153 199c85 0 138 -58 138 -151zM214 553v-228c103 102 142 187 142 262
c0 56 -26 86 -66 86c-41 0 -76 -32 -76 -120z" />
    <glyph glyph-name="estimated" unicode="&#x212e;" horiz-adv-x="602" 
d="M561 259h-404v-181c39 -39 88 -59 145 -59c84 0 142 36 193 120l35 -21c-61 -96 -123 -135 -228 -135c-157 0 -258 122 -258 276c0 155 101 276 258 276c154 0 259 -114 259 -276zM157 295h291v145c-42 40 -91 60 -147 60s-104 -20 -144 -60v-145z" />
    <glyph glyph-name="infinity" unicode="&#x221e;" horiz-adv-x="784" 
d="M574 96c-62 0 -109 34 -182 108c-62 -64 -119 -108 -188 -108c-89 0 -153 65 -153 156c0 83 66 156 160 156c62 0 111 -35 181 -109c61 61 119 109 190 109c89 0 152 -67 152 -156c0 -85 -65 -156 -160 -156zM572 161c51 0 89 40 89 90c0 54 -35 90 -84 90
s-94 -40 -140 -89c59 -61 94 -91 135 -91zM209 161c45 0 88 36 138 90c-63 65 -94 90 -135 90c-50 0 -87 -40 -87 -90c0 -53 35 -90 84 -90z" />
    <glyph glyph-name="partialdiff" unicode="&#x2202;" horiz-adv-x="557" 
d="M508 361c0 -249 -116 -374 -265 -374c-138 0 -204 102 -204 212c0 140 92 236 219 236c71 0 125 -29 163 -78v7c0 151 -64 298 -182 298c-50 0 -92 -16 -138 -44l-29 64c50 31 106 53 174 53c174 0 262 -189 262 -374zM248 59c79 0 150 65 168 218c-30 50 -81 87 -142 87
c-79 0 -147 -65 -147 -165c0 -78 44 -140 121 -140z" />
    <glyph glyph-name="integral" unicode="&#x222b;" horiz-adv-x="485" 
d="M288 561v-543c0 -151 -50 -219 -150 -219c-20 0 -47 4 -57 8l9 64c9 -3 21 -5 32 -5c57 0 75 44 75 156v542c0 152 50 219 150 219c20 0 47 -3 57 -7l-9 -64c-9 3 -21 5 -32 5c-57 0 -75 -45 -75 -156z" />
    <glyph glyph-name="radical" unicode="&#x221a;" horiz-adv-x="610" 
d="M608 783l-259 -988h-93l-148 364l-55 -23l-24 53l131 55l137 -346l223 885h88z" />
    <glyph glyph-name="summation" unicode="&#x2211;" horiz-adv-x="633" 
d="M596 -205h-555v69l309 426l-296 423v70h531v-74h-424l294 -418l-310 -422h451v-74z" />
    <glyph glyph-name="product" unicode="&#x220f;" horiz-adv-x="747" 
d="M662 -205h-89v914h-399v-914h-89v988h577v-988z" />
    <glyph glyph-name="lozenge" unicode="&#x25ca;" horiz-adv-x="563" 
d="M523 362l-200 -392h-84l-199 392l200 391h84zM431 362l-150 307l-148 -307l149 -308z" />
    <glyph glyph-name="uniF8FF" unicode="&#xf8ff;" horiz-adv-x="512" 
d="M278 117h-56v67h56v-67zM271 234h-48v17c0 72 15 98 59 140c43 42 50 61 50 89c0 48 -35 79 -76 79s-74 -27 -82 -95l-50 8c9 95 63 137 135 137c71 0 124 -49 124 -125c0 -46 -12 -79 -63 -126c-42 -38 -49 -55 -49 -100v-24zM50 50h412v617h-412v-617zM0 718h512v-718
h-512v718z" />
    <glyph glyph-name="uni03A9" unicode="&#x3a9;" horiz-adv-x="753" 
d="M701 0h-249v75c87 58 151 166 151 301c0 158 -68 287 -227 287c-152 0 -224 -131 -224 -287c0 -135 64 -243 150 -301v-75h-248v75h157c-92 59 -158 168 -158 310c0 198 120 353 323 353c206 0 326 -139 326 -353c0 -142 -67 -251 -159 -310h158v-75z" />
    <glyph glyph-name="uni03BC" unicode="&#x3bc;" horiz-adv-x="596" 
d="M517 0h-89l-1 78c-21 -44 -67 -84 -135 -84c-54 0 -96 21 -122 63v-247h-88v695h88v-280c0 -91 24 -165 121 -165c100 0 135 76 135 176v269h88v-338c0 -50 1 -109 3 -167z" />
    <glyph glyph-name="pi" unicode="&#x3c0;" horiz-adv-x="659" 
d="M608 12c-24 -11 -48 -19 -79 -19c-67 0 -94 38 -94 113v327h-226v-433h-89v433h-77v72h561v-72h-81v-323c0 -33 12 -48 40 -48c16 0 31 5 45 11v-61z" />
    <glyph glyph-name="uni0394" unicode="&#x394;" horiz-adv-x="683" 
d="M690 0h-693l294 723h100zM567 73l-225 569l-225 -569h450z" />
    <glyph glyph-name="zero.denominator" horiz-adv-x="369" 
d="M339 214c0 -117 -42 -221 -156 -221c-116 0 -154 105 -154 222c0 108 44 211 157 211c115 0 153 -103 153 -212zM273 208c0 87 -20 167 -87 167c-70 0 -91 -80 -91 -167c0 -85 23 -163 87 -163c69 0 91 78 91 163z" />
    <glyph glyph-name="one.denominator" horiz-adv-x="369" 
d="M237 0h-66v351c-31 -24 -59 -40 -96 -55v58c47 18 67 32 105 66h57v-420z" />
    <glyph glyph-name="two.denominator" horiz-adv-x="369" 
d="M328 0h-290v56l67 60c89 79 149 137 149 193c0 41 -26 65 -69 65c-48 0 -73 -29 -74 -76h-68c1 86 64 129 143 129c76 0 137 -38 137 -115c0 -73 -59 -137 -151 -215l-50 -42h206v-55z" />
    <glyph glyph-name="three.denominator" horiz-adv-x="369" 
d="M336 115c0 -82 -72 -122 -155 -122c-82 0 -146 37 -150 126h65c1 -51 41 -75 87 -75c51 0 87 26 87 76s-42 72 -92 72c-9 0 -20 -1 -29 -3v54c9 -1 19 -2 29 -2c47 0 86 19 86 69c0 46 -34 66 -80 66c-43 0 -77 -21 -81 -71h-66c2 81 74 121 148 121
c73 0 144 -34 144 -115c0 -48 -29 -77 -73 -94c49 -14 80 -47 80 -102z" />
    <glyph glyph-name="four.denominator" horiz-adv-x="369" 
d="M351 92h-67v-92h-63v92h-199v58l188 270h74v-278h67v-50zM222 142v210l-143 -210h143z" />
    <glyph glyph-name="five.denominator" horiz-adv-x="369" 
d="M340 140c0 -90 -61 -147 -151 -147c-76 0 -141 32 -143 118h67c1 -45 34 -67 76 -67c58 0 85 43 85 96c0 48 -25 90 -79 90c-37 0 -68 -19 -78 -57h-64l10 247h255v-52h-194l-7 -130c17 25 47 42 89 42c86 0 134 -60 134 -140z" />
    <glyph glyph-name="six.denominator" horiz-adv-x="369" 
d="M337 137c0 -82 -59 -144 -144 -144c-126 0 -157 101 -157 208c0 117 36 225 159 225c84 0 132 -46 135 -110h-65c-6 40 -26 60 -71 60c-75 0 -94 -80 -96 -156c20 34 55 56 106 56c82 0 133 -59 133 -139zM274 137c0 50 -25 91 -80 91c-58 0 -87 -40 -87 -93
c0 -50 31 -90 84 -90c56 0 83 40 83 92z" />
    <glyph glyph-name="seven.denominator" horiz-adv-x="369" 
d="M326 366l-165 -366h-73l174 366h-226v54h290v-54z" />
    <glyph glyph-name="eight.denominator" horiz-adv-x="369" 
d="M341 119c0 -84 -75 -126 -155 -126c-82 0 -158 36 -158 121c0 54 34 88 82 104c-41 14 -73 42 -73 91c0 79 72 117 150 117c74 0 147 -37 147 -113c0 -49 -29 -78 -73 -94c45 -13 80 -48 80 -100zM271 310c0 46 -39 68 -84 68c-47 0 -87 -23 -87 -70c0 -48 40 -66 86 -66
c44 0 85 22 85 68zM276 119c0 51 -42 75 -92 75s-90 -26 -90 -75c0 -51 39 -77 89 -77s93 26 93 77z" />
    <glyph glyph-name="nine.denominator" horiz-adv-x="369" 
d="M335 227c0 -131 -36 -234 -158 -234c-82 0 -135 40 -140 114h65c4 -40 27 -61 74 -61c78 0 96 74 98 168c-19 -39 -58 -58 -104 -58c-81 0 -137 55 -137 134c0 82 64 136 149 136c116 0 153 -86 153 -199zM264 291c0 50 -30 85 -81 85c-54 0 -86 -36 -86 -85
c0 -50 28 -85 81 -85c54 0 86 33 86 85z" />
    <glyph glyph-name="zero.inferior" unicode="&#x2080;" horiz-adv-x="369" 
d="M339 50c0 -117 -42 -221 -156 -221c-116 0 -154 105 -154 222c0 108 44 211 157 211c115 0 153 -103 153 -212zM273 44c0 87 -20 167 -87 167c-70 0 -91 -80 -91 -167c0 -85 23 -163 87 -163c69 0 91 78 91 163z" />
    <glyph glyph-name="one.inferior" unicode="&#x2081;" horiz-adv-x="369" 
d="M237 -164h-66v351c-31 -24 -59 -40 -96 -55v58c47 18 67 32 105 66h57v-420z" />
    <glyph glyph-name="two.inferior" unicode="&#x2082;" horiz-adv-x="369" 
d="M328 -164h-290v56l67 60c89 79 149 137 149 193c0 41 -26 65 -69 65c-48 0 -73 -29 -74 -76h-68c1 86 64 129 143 129c76 0 137 -38 137 -115c0 -73 -59 -137 -151 -215l-50 -42h206v-55z" />
    <glyph glyph-name="three.inferior" unicode="&#x2083;" horiz-adv-x="369" 
d="M336 -49c0 -82 -72 -122 -155 -122c-82 0 -146 37 -150 126h65c1 -51 41 -75 87 -75c51 0 87 26 87 76s-42 72 -92 72c-9 0 -20 -1 -29 -3v54c9 -1 19 -2 29 -2c47 0 86 19 86 69c0 46 -34 66 -80 66c-43 0 -77 -21 -81 -71h-66c2 81 74 121 148 121
c73 0 144 -34 144 -115c0 -48 -29 -77 -73 -94c49 -14 80 -47 80 -102z" />
    <glyph glyph-name="four.inferior" unicode="&#x2084;" horiz-adv-x="369" 
d="M351 -72h-67v-92h-63v92h-199v58l188 270h74v-278h67v-50zM222 -22v210l-143 -210h143z" />
    <glyph glyph-name="five.inferior" unicode="&#x2085;" horiz-adv-x="369" 
d="M340 -24c0 -90 -61 -147 -151 -147c-76 0 -141 32 -143 118h67c1 -45 34 -67 76 -67c58 0 85 43 85 96c0 48 -25 90 -79 90c-37 0 -68 -19 -78 -57h-64l10 247h255v-52h-194l-7 -130c17 25 47 42 89 42c86 0 134 -60 134 -140z" />
    <glyph glyph-name="six.inferior" unicode="&#x2086;" horiz-adv-x="369" 
d="M337 -27c0 -82 -59 -144 -144 -144c-126 0 -157 101 -157 208c0 117 36 225 159 225c84 0 132 -46 135 -110h-65c-6 40 -26 60 -71 60c-75 0 -94 -80 -96 -156c20 34 55 56 106 56c82 0 133 -59 133 -139zM274 -27c0 50 -25 91 -80 91c-58 0 -87 -40 -87 -93
c0 -50 31 -90 84 -90c56 0 83 40 83 92z" />
    <glyph glyph-name="seven.inferior" unicode="&#x2087;" horiz-adv-x="369" 
d="M326 202l-165 -366h-73l174 366h-226v54h290v-54z" />
    <glyph glyph-name="eight.inferior" unicode="&#x2088;" horiz-adv-x="369" 
d="M341 -45c0 -84 -75 -126 -155 -126c-82 0 -158 36 -158 121c0 54 34 88 82 104c-41 14 -73 42 -73 91c0 79 72 117 150 117c74 0 147 -37 147 -113c0 -49 -29 -78 -73 -94c45 -13 80 -48 80 -100zM271 146c0 46 -39 68 -84 68c-47 0 -87 -23 -87 -70c0 -48 40 -66 86 -66
c44 0 85 22 85 68zM276 -45c0 51 -42 75 -92 75s-90 -26 -90 -75c0 -51 39 -77 89 -77s93 26 93 77z" />
    <glyph glyph-name="nine.inferior" unicode="&#x2089;" horiz-adv-x="369" 
d="M335 63c0 -131 -36 -234 -158 -234c-82 0 -135 40 -140 114h65c4 -40 27 -61 74 -61c78 0 96 74 98 168c-19 -39 -58 -58 -104 -58c-81 0 -137 55 -137 134c0 82 64 136 149 136c116 0 153 -86 153 -199zM264 127c0 50 -30 85 -81 85c-54 0 -86 -36 -86 -85
c0 -50 28 -85 81 -85c54 0 86 33 86 85z" />
    <glyph glyph-name="zero.numerator" horiz-adv-x="369" 
d="M339 517c0 -117 -42 -221 -156 -221c-116 0 -154 105 -154 222c0 108 44 211 157 211c115 0 153 -103 153 -212zM273 511c0 87 -20 167 -87 167c-70 0 -91 -80 -91 -167c0 -85 23 -163 87 -163c69 0 91 78 91 163z" />
    <glyph glyph-name="one.numerator" horiz-adv-x="369" 
d="M237 303h-66v351c-31 -24 -59 -40 -96 -55v58c47 18 67 32 105 66h57v-420z" />
    <glyph glyph-name="two.numerator" horiz-adv-x="369" 
d="M328 303h-290v56l67 60c89 79 149 137 149 193c0 41 -26 65 -69 65c-48 0 -73 -29 -74 -76h-68c1 86 64 129 143 129c76 0 137 -38 137 -115c0 -73 -59 -137 -151 -215l-50 -42h206v-55z" />
    <glyph glyph-name="three.numerator" horiz-adv-x="369" 
d="M336 418c0 -82 -72 -122 -155 -122c-82 0 -146 37 -150 126h65c1 -51 41 -75 87 -75c51 0 87 26 87 76s-42 72 -92 72c-9 0 -20 -1 -29 -3v54c9 -1 19 -2 29 -2c47 0 86 19 86 69c0 46 -34 66 -80 66c-43 0 -77 -21 -81 -71h-66c2 81 74 121 148 121
c73 0 144 -34 144 -115c0 -48 -29 -77 -73 -94c49 -14 80 -47 80 -102z" />
    <glyph glyph-name="four.numerator" horiz-adv-x="369" 
d="M351 395h-67v-92h-63v92h-199v58l188 270h74v-278h67v-50zM222 445v210l-143 -210h143z" />
    <glyph glyph-name="five.numerator" horiz-adv-x="369" 
d="M340 443c0 -90 -61 -147 -151 -147c-76 0 -141 32 -143 118h67c1 -45 34 -67 76 -67c58 0 85 43 85 96c0 48 -25 90 -79 90c-37 0 -68 -19 -78 -57h-64l10 247h255v-52h-194l-7 -130c17 25 47 42 89 42c86 0 134 -60 134 -140z" />
    <glyph glyph-name="six.numerator" horiz-adv-x="369" 
d="M337 440c0 -82 -59 -144 -144 -144c-126 0 -157 101 -157 208c0 117 36 225 159 225c84 0 132 -46 135 -110h-65c-6 40 -26 60 -71 60c-75 0 -94 -80 -96 -156c20 34 55 56 106 56c82 0 133 -59 133 -139zM274 440c0 50 -25 91 -80 91c-58 0 -87 -40 -87 -93
c0 -50 31 -90 84 -90c56 0 83 40 83 92z" />
    <glyph glyph-name="seven.numerator" horiz-adv-x="369" 
d="M326 669l-165 -366h-73l174 366h-226v54h290v-54z" />
    <glyph glyph-name="eight.numerator" horiz-adv-x="369" 
d="M341 422c0 -84 -75 -126 -155 -126c-82 0 -158 36 -158 121c0 54 34 88 82 104c-41 14 -73 42 -73 91c0 79 72 117 150 117c74 0 147 -37 147 -113c0 -49 -29 -78 -73 -94c45 -13 80 -48 80 -100zM271 613c0 46 -39 68 -84 68c-47 0 -87 -23 -87 -70c0 -48 40 -66 86 -66
c44 0 85 22 85 68zM276 422c0 51 -42 75 -92 75s-90 -26 -90 -75c0 -51 39 -77 89 -77s93 26 93 77z" />
    <glyph glyph-name="nine.numerator" horiz-adv-x="369" 
d="M335 530c0 -131 -36 -234 -158 -234c-82 0 -135 40 -140 114h65c4 -40 27 -61 74 -61c78 0 96 74 98 168c-19 -39 -58 -58 -104 -58c-81 0 -137 55 -137 134c0 82 64 136 149 136c116 0 153 -86 153 -199zM264 594c0 50 -30 85 -81 85c-54 0 -86 -36 -86 -85
c0 -50 28 -85 81 -85c54 0 86 33 86 85z" />
    <glyph glyph-name="zero.superior" unicode="&#x2070;" horiz-adv-x="369" 
d="M339 683c0 -117 -42 -221 -156 -221c-116 0 -154 105 -154 222c0 108 44 211 157 211c115 0 153 -103 153 -212zM273 677c0 87 -20 167 -87 167c-70 0 -91 -80 -91 -167c0 -85 23 -163 87 -163c69 0 91 78 91 163z" />
    <glyph glyph-name="onesuperior" unicode="&#xb9;" horiz-adv-x="369" 
d="M237 469h-66v351c-31 -24 -59 -40 -96 -55v58c47 18 67 32 105 66h57v-420z" />
    <glyph glyph-name="twosuperior" unicode="&#xb2;" horiz-adv-x="369" 
d="M328 469h-290v56l67 60c89 79 149 137 149 193c0 41 -26 65 -69 65c-48 0 -73 -29 -74 -76h-68c1 86 64 129 143 129c76 0 137 -38 137 -115c0 -73 -59 -137 -151 -215l-50 -42h206v-55z" />
    <glyph glyph-name="threesuperior" unicode="&#xb3;" horiz-adv-x="369" 
d="M336 584c0 -82 -72 -122 -155 -122c-82 0 -146 37 -150 126h65c1 -51 41 -75 87 -75c51 0 87 26 87 76s-42 72 -92 72c-9 0 -20 -1 -29 -3v54c9 -1 19 -2 29 -2c47 0 86 19 86 69c0 46 -34 66 -80 66c-43 0 -77 -21 -81 -71h-66c2 81 74 121 148 121
c73 0 144 -34 144 -115c0 -48 -29 -77 -73 -94c49 -14 80 -47 80 -102z" />
    <glyph glyph-name="four.superior" unicode="&#x2074;" horiz-adv-x="369" 
d="M351 561h-67v-92h-63v92h-199v58l188 270h74v-278h67v-50zM222 611v210l-143 -210h143z" />
    <glyph glyph-name="five.superior" unicode="&#x2075;" horiz-adv-x="369" 
d="M340 609c0 -90 -61 -147 -151 -147c-76 0 -141 32 -143 118h67c1 -45 34 -67 76 -67c58 0 85 43 85 96c0 48 -25 90 -79 90c-37 0 -68 -19 -78 -57h-64l10 247h255v-52h-194l-7 -130c17 25 47 42 89 42c86 0 134 -60 134 -140z" />
    <glyph glyph-name="six.superior" unicode="&#x2076;" horiz-adv-x="369" 
d="M337 606c0 -82 -59 -144 -144 -144c-126 0 -157 101 -157 208c0 117 36 225 159 225c84 0 132 -46 135 -110h-65c-6 40 -26 60 -71 60c-75 0 -94 -80 -96 -156c20 34 55 56 106 56c82 0 133 -59 133 -139zM274 606c0 50 -25 91 -80 91c-58 0 -87 -40 -87 -93
c0 -50 31 -90 84 -90c56 0 83 40 83 92z" />
    <glyph glyph-name="seven.superior" unicode="&#x2077;" horiz-adv-x="369" 
d="M326 835l-165 -366h-73l174 366h-226v54h290v-54z" />
    <glyph glyph-name="eight.superior" unicode="&#x2078;" horiz-adv-x="369" 
d="M341 588c0 -84 -75 -126 -155 -126c-82 0 -158 36 -158 121c0 54 34 88 82 104c-41 14 -73 42 -73 91c0 79 72 117 150 117c74 0 147 -37 147 -113c0 -49 -29 -78 -73 -94c45 -13 80 -48 80 -100zM271 779c0 46 -39 68 -84 68c-47 0 -87 -23 -87 -70c0 -48 40 -66 86 -66
c44 0 85 22 85 68zM276 588c0 51 -42 75 -92 75s-90 -26 -90 -75c0 -51 39 -77 89 -77s93 26 93 77z" />
    <glyph glyph-name="nine.superior" unicode="&#x2079;" horiz-adv-x="369" 
d="M335 696c0 -131 -36 -234 -158 -234c-82 0 -135 40 -140 114h65c4 -40 27 -61 74 -61c78 0 96 74 98 168c-19 -39 -58 -58 -104 -58c-81 0 -137 55 -137 134c0 82 64 136 149 136c116 0 153 -86 153 -199zM264 760c0 50 -30 85 -81 85c-54 0 -86 -36 -86 -85
c0 -50 28 -85 81 -85c54 0 86 33 86 85z" />
    <glyph glyph-name="interrobang" unicode="&#x203d;" horiz-adv-x="522" 
d="M243 536l-6 -166c57 52 112 100 112 178c0 84 -65 119 -151 119c-35 0 -74 -6 -113 -16v72c44 8 81 13 121 13c130 0 237 -48 237 -184c0 -96 -75 -161 -148 -227c-34 -31 -48 -47 -48 -85v-63h-84l-15 359h95zM257 0h-101v101h101v-101z" />
    <glyph glyph-name="afii61248" unicode="&#x2105;" horiz-adv-x="957" 
d="M924 188c0 -106 -51 -194 -169 -194c-115 0 -168 89 -168 193c0 107 55 198 169 198c118 0 168 -88 168 -197zM844 191c0 65 -18 138 -86 138c-71 0 -90 -70 -90 -141s21 -140 89 -140c69 0 87 72 87 143zM369 599h-79c-3 53 -29 84 -76 84c-74 0 -97 -69 -97 -143
c0 -70 24 -141 95 -141c48 0 76 33 79 86h79c-6 -82 -58 -140 -161 -140c-118 0 -177 76 -177 192c0 115 60 199 180 199c88 0 149 -42 157 -137zM734 753l-431 -779h-71l433 779h69z" />
    <glyph glyph-name="published" unicode="&#x2117;" horiz-adv-x="844" 
d="M797 362c0 -214 -161 -374 -376 -374s-375 159 -375 374c0 214 160 373 375 373s376 -159 376 -373zM741 362c0 189 -134 323 -320 323s-319 -134 -319 -323s133 -324 319 -324s320 134 320 324zM605 443c0 -53 -28 -94 -77 -112c-22 -8 -48 -11 -78 -11h-75v-170h-72
v415h143c40 0 77 -1 109 -22c34 -22 50 -60 50 -100zM532 445c0 59 -41 70 -93 70h-64v-144h51c56 0 106 10 106 74z" />
    <glyph glyph-name="uni0406" unicode="&#x406;" horiz-adv-x="290" 
d="M98 0v723h94v-723h-94z" />
    <glyph glyph-name="uni0456" unicode="&#x456;" horiz-adv-x="252" 
d="M82 0v505h88v-505h-88zM77 634v89h98v-89h-98z" />
    <glyph glyph-name="uni0408" unicode="&#x408;" horiz-adv-x="519" 
d="M214 -10c-111 0 -207 62 -207 196h96c0 -64 30 -122 114 -122c96 0 124 70 124 155v504h94v-506c0 -146 -71 -227 -221 -227z" />
    <glyph glyph-name="uni0458" unicode="&#x458;" horiz-adv-x="252" 
d="M35 -186c-22 0 -39 1 -50 2v66c13 -2 26 -3 38 -3c57 0 59 32 59 80v546h88v-568c0 -101 -40 -123 -135 -123zM77 634v89h98v-89h-98z" />
    <glyph glyph-name="uni0410" unicode="&#x410;" horiz-adv-x="712" 
d="M5 0l294 723h103l305 -723h-108l-75 191h-350l-74 -191h-95zM200 262h295l-150 380z" />
    <glyph glyph-name="uni0411" unicode="&#x411;" horiz-adv-x="667" 
d="M98 0v723h455v-73h-361v-234h163c166 0 257 -74 257 -207c0 -144 -104 -209 -241 -209h-273zM192 73h150c93 0 171 21 171 130c0 124 -97 140 -178 140h-143v-270z" />
    <glyph glyph-name="uni0412" unicode="&#x412;" horiz-adv-x="670" 
d="M98 0v723h255c113 0 230 -50 230 -181c0 -90 -52 -142 -135 -164c99 -18 164 -69 164 -177c0 -163 -138 -201 -271 -201h-243zM190 74h124c96 0 200 10 200 131c0 107 -77 134 -171 134h-153v-265zM190 408h140c84 0 156 31 156 126c0 84 -66 115 -142 115h-154v-241z
" />
    <glyph glyph-name="uni0413" unicode="&#x413;" horiz-adv-x="536" 
d="M98 0v723h431v-73h-338v-650h-93z" />
    <glyph glyph-name="uni0414" unicode="&#x414;" horiz-adv-x="750" 
d="M168 73h372v577h-261c-2 -289 -32 -461 -111 -577zM8 -159v232h58c99 139 124 310 125 650h443v-650h84v-232h-88v159h-534v-159h-88z" />
    <glyph glyph-name="uni0415" unicode="&#x415;" horiz-adv-x="608" 
d="M98 0v723h448v-73h-355v-240h340v-73h-340v-264h369v-73h-462z" />
    <glyph glyph-name="uni0416" unicode="&#x416;" horiz-adv-x="983" 
d="M0 0l332 386l-304 337h115l299 -344l-320 -379h-122zM445 0v723h94v-723h-94zM861 0l-320 379l300 344h114l-303 -337l331 -386h-122z" />
    <glyph glyph-name="uni0417" unicode="&#x417;" horiz-adv-x="627" 
d="M301 -11c-132 0 -257 58 -261 208h98c5 -90 66 -134 164 -134c96 0 168 56 168 143c0 85 -70 133 -161 133c-12 0 -45 -1 -62 -3v75c13 -1 51 -1 61 -1c85 0 148 50 148 131c0 73 -57 123 -141 123c-81 0 -153 -36 -156 -122h-95c0 131 113 193 250 193
c151 0 241 -67 241 -190c0 -73 -51 -143 -135 -162v-2c91 -15 149 -88 149 -182c0 -131 -113 -210 -268 -210z" />
    <glyph glyph-name="uni0418" unicode="&#x418;" horiz-adv-x="770" 
d="M98 0v723h94v-619l355 619h125v-723h-94v617l-355 -617h-125z" />
    <glyph glyph-name="uni0419" unicode="&#x419;" horiz-adv-x="770" 
d="M98 0v723h94v-619l355 619h125v-723h-94v617l-355 -617h-125zM383 774c-84 0 -133 50 -138 138h48c10 -46 42 -71 91 -71c51 0 81 23 94 71h49c-5 -88 -57 -138 -144 -138z" />
    <glyph glyph-name="uni041A" unicode="&#x41a;" horiz-adv-x="652" 
d="M98 0v723h94v-723h-94zM529 0l-335 376l308 347h116l-314 -341l348 -382h-123z" />
    <glyph glyph-name="uni041B" unicode="&#x41b;" horiz-adv-x="730" 
d="M62 -5c-17 0 -49 4 -59 9v72c6 -2 30 -3 37 -3c115 0 141 133 141 650h451v-723h-94v649h-266c0 -435 -14 -654 -210 -654z" />
    <glyph glyph-name="uni041C" unicode="&#x41c;" horiz-adv-x="966" 
d="M98 0v723h150l238 -611l232 611h150v-723h-88v651l-255 -651h-86l-256 652v-652h-85z" />
    <glyph glyph-name="uni041D" unicode="&#x41d;" horiz-adv-x="758" 
d="M98 0v723h94v-315h374v315h94v-723h-94v334h-374v-334h-94z" />
    <glyph glyph-name="uni041E" unicode="&#x41e;" horiz-adv-x="755" 
d="M377 -12c-227 0 -326 166 -326 374c0 204 104 376 327 376c229 0 326 -160 326 -371c0 -208 -99 -379 -327 -379zM377 62c171 0 228 155 228 302c0 149 -54 299 -228 299c-169 0 -227 -154 -227 -299c0 -146 56 -302 227 -302z" />
    <glyph glyph-name="uni041F" unicode="&#x41f;" horiz-adv-x="750" 
d="M98 0v723h554v-723h-94v649h-366v-649h-94z" />
    <glyph glyph-name="uni0420" unicode="&#x420;" horiz-adv-x="621" 
d="M98 0v723h223c62 0 126 -1 180 -36c59 -38 87 -104 87 -172c0 -88 -49 -157 -132 -187c-38 -14 -84 -19 -131 -19h-133v-309h-94zM192 382h99c101 0 199 16 199 140c0 109 -79 129 -172 129h-126v-269z" />
    <glyph glyph-name="uni0421" unicode="&#x421;" horiz-adv-x="681" 
d="M368 -11c-223 0 -317 162 -317 366c0 197 106 380 323 380c120 0 249 -61 253 -198h-99c-8 83 -78 121 -155 121c-163 0 -223 -160 -223 -299c0 -142 53 -293 220 -293c93 0 156 52 161 128h101c-18 -151 -128 -205 -264 -205z" />
    <glyph glyph-name="uni0422" unicode="&#x422;" horiz-adv-x="568" 
d="M237 0v649h-230v74h554v-74h-231v-649h-93z" />
    <glyph glyph-name="uni0423" unicode="&#x423;" horiz-adv-x="634" 
d="M162 0l109 203l-267 520h108l209 -424l217 424h96l-371 -723h-101z" />
    <glyph glyph-name="uni0424" unicode="&#x424;" horiz-adv-x="831" 
d="M369 -9v75c-189 1 -328 123 -328 305c0 191 146 295 328 296v63h93v-63c182 -1 328 -105 328 -296c0 -182 -139 -304 -328 -305v-75h-93zM369 138v457c-142 -1 -227 -87 -227 -225c0 -141 91 -231 227 -232zM462 138c135 1 227 91 227 232c0 138 -85 224 -227 225v-457z
" />
    <glyph glyph-name="uni0425" unicode="&#x425;" horiz-adv-x="668" 
d="M7 0l266 376l-255 347h116l199 -292l196 292h108l-246 -347l270 -376h-111l-218 318l-216 -318h-109z" />
    <glyph glyph-name="uni0426" unicode="&#x426;" horiz-adv-x="763" 
d="M643 -159v159h-545v723h94v-649h366v649h94v-649h79v-233h-88z" />
    <glyph glyph-name="uni0427" unicode="&#x427;" horiz-adv-x="685" 
d="M492 0v308c-67 -15 -129 -26 -185 -26c-165 0 -238 62 -238 254v187h93v-191c0 -134 46 -177 159 -177c49 0 107 10 171 25v343h95v-723h-95z" />
    <glyph glyph-name="uni0428" unicode="&#x428;" horiz-adv-x="1090" 
d="M98 0v723h94v-649h306v649h94v-649h306v649h94v-723h-894z" />
    <glyph glyph-name="uni0429" unicode="&#x429;" horiz-adv-x="1103" 
d="M983 -159v159h-885v723h94v-649h306v649h94v-649h306v649h94v-649h79v-233h-88z" />
    <glyph glyph-name="uni042A" unicode="&#x42a;" horiz-adv-x="715" 
d="M173 0v650h-166v73h260v-296h158c162 0 257 -77 257 -213c0 -147 -104 -214 -241 -214h-268zM267 73h145c93 0 172 21 172 135c0 130 -98 146 -179 146h-138v-281z" />
    <glyph glyph-name="uni042B" unicode="&#x42b;" horiz-adv-x="888" 
d="M98 0v723h94v-296h158c162 0 257 -77 257 -213c0 -147 -104 -214 -241 -214h-268zM192 73h145c93 0 172 21 172 135c0 130 -98 146 -179 146h-138v-281zM696 0v723h94v-723h-94z" />
    <glyph glyph-name="uni042C" unicode="&#x42c;" horiz-adv-x="640" 
d="M98 0v723h94v-296h158c162 0 257 -77 257 -213c0 -147 -104 -214 -241 -214h-268zM192 73h145c93 0 172 21 172 135c0 130 -98 146 -179 146h-138v-281z" />
    <glyph glyph-name="uni042D" unicode="&#x42d;" horiz-adv-x="681" 
d="M310 -11c-142 0 -251 72 -263 205h98c14 -84 78 -133 164 -133c148 0 215 137 222 273h-303v74h302c-11 133 -71 254 -218 254c-89 0 -153 -49 -161 -122h-97c11 141 138 195 264 195c200 0 312 -139 312 -375c0 -206 -105 -371 -320 -371z" />
    <glyph glyph-name="uni042E" unicode="&#x42e;" horiz-adv-x="990" 
d="M631 -11c-189 0 -305 129 -315 344h-124v-333h-94v723h94v-315h125c16 202 138 330 315 330c200 0 316 -136 316 -371c0 -234 -119 -378 -317 -378zM631 62c135 0 218 117 218 302c0 188 -80 299 -218 299c-132 0 -216 -117 -216 -299c0 -185 82 -302 216 -302z" />
    <glyph glyph-name="uni042F" unicode="&#x42f;" horiz-adv-x="667" 
d="M19 0l221 308c-109 25 -170 90 -170 202c0 132 77 213 262 213h237v-723h-94v295h-134l-206 -295h-116zM367 368h108v282h-134c-119 0 -172 -42 -172 -137c0 -122 94 -145 198 -145z" />
    <glyph glyph-name="uni0430" unicode="&#x430;" horiz-adv-x="549" 
d="M222 -11c-94 0 -177 47 -177 150c0 151 166 169 289 169c18 0 36 -1 50 -2v30c0 78 -28 122 -111 122c-62 0 -99 -23 -105 -89h-86c5 110 94 146 189 146c129 0 192 -49 192 -181v-186c0 -66 9 -125 16 -148h-77c-4 21 -8 50 -9 71c-42 -61 -98 -82 -171 -82zM244 48
c127 0 140 103 140 205c-21 2 -31 2 -45 2c-78 0 -206 -9 -206 -112c0 -62 53 -95 111 -95z" />
    <glyph glyph-name="uni0431" unicode="&#x431;" horiz-adv-x="593" 
d="M302 -10c-89 0 -162 36 -205 106c-31 49 -44 113 -44 195c0 142 17 247 74 315c57 67 145 78 220 88c71 9 106 12 110 32h79c-9 -72 -41 -88 -141 -102c-78 -10 -158 -14 -210 -63c-41 -40 -62 -113 -65 -165c44 78 110 117 198 117c142 0 231 -108 231 -257
c0 -160 -101 -266 -247 -266zM302 49c94 0 155 83 155 207c0 121 -60 197 -154 197c-97 0 -157 -75 -157 -199c0 -127 58 -205 156 -205z" />
    <glyph glyph-name="uni0432" unicode="&#x432;" horiz-adv-x="556" 
d="M82 0v505h244c97 0 157 -47 157 -122c0 -56 -36 -103 -91 -117v-2c68 -10 113 -60 113 -123c0 -89 -70 -141 -158 -141h-265zM169 65h145c62 0 100 30 100 82c0 53 -39 83 -106 83h-139v-165zM169 289h126c64 0 97 28 97 78c0 48 -33 75 -91 75h-132v-153z" />
    <glyph glyph-name="uni0433" unicode="&#x433;" horiz-adv-x="437" 
d="M85 0v505h342v-66h-254v-439h-88z" />
    <glyph glyph-name="uni0434" unicode="&#x434;" horiz-adv-x="590" 
d="M5 -139v205h51c77 106 86 216 87 439h360v-439h70v-205h-83v139h-402v-139h-83zM147 66h268v374h-192c-1 -146 -12 -284 -76 -374z" />
    <glyph glyph-name="uni0435" unicode="&#x435;" horiz-adv-x="547" 
d="M278 -11c-157 0 -233 105 -233 255c0 151 76 270 240 270c169 0 217 -131 217 -278h-369v-10c0 -93 50 -178 152 -178c72 0 119 44 130 115h84c-20 -119 -106 -174 -221 -174zM135 294h280c1 83 -41 160 -133 160c-93 0 -139 -76 -147 -160z" />
    <glyph glyph-name="uni0436" unicode="&#x436;" horiz-adv-x="787" 
d="M5 0l242 262l-221 243h106l215 -246l-231 -259h-111zM350 0v505h87v-505h-87zM671 0l-231 259l215 246h106l-221 -243l242 -262h-111z" />
    <glyph glyph-name="uni0437" unicode="&#x437;" horiz-adv-x="500" 
d="M239 -11c-140 0 -209 57 -211 175h89c3 -68 39 -114 124 -114c73 0 117 36 117 93c0 62 -40 88 -120 88c-13 0 -37 -1 -45 -2v63c7 -1 36 -2 41 -2c72 0 112 35 112 88c0 46 -33 79 -98 79c-70 0 -112 -34 -122 -94h-83c11 108 87 154 204 154c115 0 184 -46 184 -131
c0 -59 -36 -106 -92 -118v-2c61 -8 110 -49 110 -117c0 -103 -86 -160 -210 -160z" />
    <glyph glyph-name="uni0438" unicode="&#x438;" horiz-adv-x="604" 
d="M82 0v505h88v-395l253 395h99v-505h-88v389l-255 -389h-97z" />
    <glyph glyph-name="uni0439" unicode="&#x439;" horiz-adv-x="604" 
d="M82 0v505h88v-395l253 395h99v-505h-88v389l-255 -389h-97zM302 597c-88 0 -131 45 -132 119h50c9 -37 24 -59 82 -59c57 0 72 22 82 59h50c-3 -74 -46 -119 -132 -119z" />
    <glyph glyph-name="uni043A" unicode="&#x43a;" horiz-adv-x="534" 
d="M82 0v505h88v-505h-88zM421 0l-250 259l234 246h105l-234 -242l253 -263h-108z" />
    <glyph glyph-name="uni043B" unicode="&#x43b;" horiz-adv-x="583" 
d="M47 -6c-14 0 -41 4 -48 6v70c8 -2 25 -3 34 -3c63 0 110 102 110 438h358v-505h-88v440h-188c0 -419 -101 -446 -178 -446z" />
    <glyph glyph-name="uni043C" unicode="&#x43c;" horiz-adv-x="726" 
d="M82 0v505h135l146 -429l149 429h132v-505h-84v430l-153 -430h-88l-153 430v-430h-84z" />
    <glyph glyph-name="uni043D" unicode="&#x43d;" horiz-adv-x="596" 
d="M82 0v505h88v-214h256v214h88v-505h-88v227h-256v-227h-88z" />
    <glyph glyph-name="uni043E" unicode="&#x43e;" horiz-adv-x="587" 
d="M294 -11c-161 0 -249 113 -249 266c0 152 93 261 250 261c160 0 247 -107 247 -261c0 -149 -91 -266 -248 -266zM294 49c112 0 156 110 156 206c0 99 -43 198 -156 198s-156 -99 -156 -198c0 -98 42 -206 156 -206z" />
    <glyph glyph-name="uni043F" unicode="&#x43f;" horiz-adv-x="588" 
d="M82 0v505h424v-505h-88v440h-248v-440h-88z" />
    <glyph glyph-name="uni0440" unicode="&#x440;" horiz-adv-x="598" 
d="M82 -190v551c0 47 0 96 -3 144h87l3 -87c39 66 94 96 171 96c148 0 213 -121 213 -254c0 -136 -72 -269 -224 -269c-73 0 -117 28 -159 85v-266h-88zM310 53c114 0 151 104 151 201c0 90 -33 198 -141 198c-112 0 -151 -105 -151 -201c0 -91 32 -198 141 -198z" />
    <glyph glyph-name="uni0441" unicode="&#x441;" horiz-adv-x="536" 
d="M290 -11c-159 0 -245 105 -245 258c0 155 86 272 250 272c114 0 196 -58 206 -177h-86c-5 72 -48 115 -120 115c-119 0 -157 -104 -157 -206c0 -96 41 -202 153 -202c74 0 121 48 126 121h83l3 -1c-9 -121 -98 -180 -213 -180z" />
    <glyph glyph-name="uni0442" unicode="&#x442;" horiz-adv-x="482" 
d="M197 0v439h-182v66h452v-66h-182v-439h-88z" />
    <glyph glyph-name="uni0443" unicode="&#x443;" horiz-adv-x="529" 
d="M145 -190l83 191l-215 504h100l159 -413l158 413h89l-286 -695h-88z" />
    <glyph glyph-name="uni0444" unicode="&#x444;" horiz-adv-x="795" 
d="M353 -189v225c-22 -22 -67 -46 -115 -46c-122 0 -191 107 -191 262c0 158 64 262 189 262c47 0 94 -22 117 -46v255h88v-255c23 24 71 46 118 46c125 0 189 -104 189 -262c0 -155 -70 -262 -192 -262c-49 0 -92 24 -115 46v-225h-88zM261 53c32 0 76 23 92 44v313
c-18 25 -56 41 -88 41c-91 0 -126 -77 -126 -198s36 -200 122 -200zM533 53c86 0 122 79 122 200s-35 198 -126 198c-32 0 -70 -16 -88 -41v-313c17 -21 61 -44 92 -44z" />
    <glyph glyph-name="uni0445" unicode="&#x445;" horiz-adv-x="524" 
d="M13 0l195 259l-184 246h110l132 -192l135 192h97l-183 -246l196 -259h-111l-145 208l-145 -208h-97z" />
    <glyph glyph-name="uni0446" unicode="&#x446;" horiz-adv-x="597" 
d="M497 -139v139h-415v505h88v-439h248v439h88v-439h74v-205h-83z" />
    <glyph glyph-name="uni0447" unicode="&#x447;" horiz-adv-x="540" 
d="M370 0v203c-33 -15 -94 -24 -139 -24c-114 0 -177 45 -177 161v165h88v-163c0 -75 37 -98 112 -98c36 0 88 9 116 22v239h88v-505h-88z" />
    <glyph glyph-name="uni0448" unicode="&#x448;" horiz-adv-x="853" 
d="M82 0v505h88v-439h212v439h89v-439h212v439h88v-505h-689z" />
    <glyph glyph-name="uni0449" unicode="&#x449;" horiz-adv-x="859" 
d="M760 -139v139h-678v505h88v-439h212v439h89v-439h212v439h88v-439h71v-205h-82z" />
    <glyph glyph-name="uni044A" unicode="&#x44a;" horiz-adv-x="591" 
d="M142 0v440h-127v65h215v-189h155c105 0 173 -53 173 -154c0 -102 -66 -162 -170 -162h-246zM230 66h134c63 0 104 37 104 93c0 62 -40 91 -110 91h-128v-184z" />
    <glyph glyph-name="uni044B" unicode="&#x44b;" horiz-adv-x="738" 
d="M82 0v505h88v-189h148c104 0 173 -53 173 -154c0 -102 -66 -162 -170 -162h-239zM170 66h127c63 0 104 37 104 93c0 62 -40 91 -110 91h-121v-184zM568 0v505h88v-505h-88z" />
    <glyph glyph-name="uni044C" unicode="&#x44c;" horiz-adv-x="531" 
d="M82 0v505h88v-189h155c104 0 173 -53 173 -154c0 -102 -66 -162 -170 -162h-246zM170 66h134c63 0 104 37 104 93c0 62 -40 91 -110 91h-128v-184z" />
    <glyph glyph-name="uni044D" unicode="&#x44d;" horiz-adv-x="535" 
d="M247 -11c-119 0 -203 54 -214 173h87c5 -66 59 -111 128 -111c85 0 146 67 150 177h-204v62h202c-8 101 -63 167 -151 167c-67 0 -120 -38 -127 -110h-84c11 116 95 171 215 171c146 0 241 -104 241 -270c0 -160 -101 -259 -243 -259z" />
    <glyph glyph-name="uni044E" unicode="&#x44e;" horiz-adv-x="780" 
d="M495 -10c-136 0 -227 91 -238 237h-87v-227h-88v505h88v-214h89c14 138 108 225 238 225c141 0 237 -98 237 -261c0 -156 -98 -265 -239 -265zM495 48c87 0 146 87 146 207c0 123 -58 199 -146 199s-145 -76 -145 -199c0 -126 58 -207 145 -207z" />
    <glyph glyph-name="uni044F" unicode="&#x44f;" horiz-adv-x="547" 
d="M28 0l152 204c-75 14 -126 64 -126 151c0 92 69 150 170 150h241v-505h-88v201h-101l-141 -201h-107zM250 263h127v177h-133c-61 0 -101 -38 -101 -88c0 -58 39 -89 107 -89z" />
    <glyph glyph-name="uni0490" unicode="&#x490;" horiz-adv-x="536" 
d="M98 0v723h349v130h82v-203h-338v-650h-93z" />
    <glyph glyph-name="uni0491" unicode="&#x491;" horiz-adv-x="437" 
d="M85 0v505h265v124h77v-189h-254v-440h-88z" />
    <glyph glyph-name="uni0403" unicode="&#x403;" horiz-adv-x="536" 
d="M98 0v723h431v-73h-338v-650h-93zM466 921l-139 -145h-64l95 145h108z" />
    <glyph glyph-name="uni0453" unicode="&#x453;" horiz-adv-x="437" 
d="M85 0v505h342v-66h-254v-439h-88zM380 736l-139 -145h-64l95 145h108z" />
    <glyph glyph-name="uni0405" unicode="&#x405;" horiz-adv-x="635" 
d="M310 -10c-135 0 -246 56 -256 204h97c5 -92 77 -131 162 -131c80 0 172 36 172 128c0 74 -68 106 -143 129l-62 19c-103 32 -206 71 -206 196c0 143 129 199 254 199c119 0 236 -44 238 -183h-95c-8 84 -68 112 -144 112c-75 0 -158 -34 -158 -120c0 -64 69 -96 123 -114
l82 -27c103 -34 207 -70 207 -200c0 -152 -139 -212 -271 -212z" />
    <glyph glyph-name="uni0455" unicode="&#x455;" horiz-adv-x="496" 
d="M244 -11c-107 0 -197 42 -197 164h88c4 -70 44 -103 113 -103c53 0 114 26 114 86c0 53 -50 74 -109 88l-41 10c-75 18 -152 49 -152 139c0 105 103 144 192 144c101 0 181 -42 185 -153h-87c-2 59 -41 93 -100 93c-46 0 -104 -21 -104 -75c0 -47 48 -69 108 -84l40 -10
c88 -22 155 -55 155 -142c0 -115 -106 -157 -205 -157z" />
    <glyph glyph-name="uni040C" unicode="&#x40c;" horiz-adv-x="652" 
d="M98 0v723h94v-723h-94zM529 0l-335 376l308 347h116l-314 -341l348 -382h-123zM496 921l-139 -145h-64l95 145h108z" />
    <glyph glyph-name="uni045C" unicode="&#x45c;" horiz-adv-x="534" 
d="M82 0v505h88v-505h-88zM421 0l-250 259l234 246h105l-234 -242l253 -263h-108zM418 736l-139 -145h-64l95 145h108z" />
    <glyph glyph-name="uni0407" unicode="&#x407;" horiz-adv-x="290" 
d="M98 0v723h94v-723h-94zM287 811h-93v88h93v-88zM96 811h-93v88h93v-88z" />
    <glyph glyph-name="uni0457" unicode="&#x457;" horiz-adv-x="252" 
d="M170 0h-88v505h88v-505zM268 636h-93v88h93v-88zM77 636h-93v88h93v-88z" />
    <glyph glyph-name="uni040E" unicode="&#x40e;" horiz-adv-x="634" 
d="M162 0l109 203l-267 520h108l209 -424l217 424h96l-371 -723h-101zM323 774c-84 0 -133 50 -138 138h48c10 -46 42 -71 91 -71c51 0 81 23 94 71h49c-5 -88 -57 -138 -144 -138z" />
    <glyph glyph-name="uni045E" unicode="&#x45e;" horiz-adv-x="529" 
d="M145 -190l83 191l-215 504h100l159 -413l158 413h89l-286 -695h-88zM274 597c-88 0 -131 45 -132 119h50c9 -37 24 -59 82 -59c57 0 72 22 82 59h50c-3 -74 -46 -119 -132 -119z" />
    <glyph glyph-name="uni040F" unicode="&#x40f;" horiz-adv-x="750" 
d="M338 -159v159h-240v723h94v-649h366v649h94v-723h-225v-159h-89z" />
    <glyph glyph-name="uni045F" unicode="&#x45f;" horiz-adv-x="588" 
d="M255 -139v139h-173v505h88v-440h248v440h88v-505h-169v-139h-82z" />
    <glyph glyph-name="uni0409" unicode="&#x409;" horiz-adv-x="1080" 
d="M62 -5c-17 0 -49 4 -59 9v72c6 -2 30 -3 37 -3c115 0 141 133 141 650h451v-296h158c162 0 257 -77 257 -213c0 -147 -104 -214 -241 -214h-268v649h-266c0 -435 -14 -654 -210 -654zM632 73h145c93 0 172 21 172 135c0 130 -98 146 -179 146h-138v-281z" />
    <glyph glyph-name="uni0459" unicode="&#x459;" horiz-adv-x="862" 
d="M47 -6c-14 0 -41 4 -48 6v70c8 -2 25 -3 34 -3c63 0 110 102 110 438h358v-189h155c104 0 173 -53 173 -154c0 -102 -66 -162 -170 -162h-246v440h-188c0 -427 -101 -446 -178 -446zM501 66h134c63 0 104 37 104 93c0 62 -40 94 -110 94h-128v-187z" />
    <glyph glyph-name="uni040A" unicode="&#x40a;" horiz-adv-x="1105" 
d="M98 0v723h94v-306h374v306h94v-306h168c147 0 244 -74 244 -209s-95 -208 -244 -208h-262v343h-374v-343h-94zM660 73h138c118 0 176 45 176 135c0 88 -58 136 -172 136h-142v-271z" />
    <glyph glyph-name="uni045A" unicode="&#x45a;" horiz-adv-x="874" 
d="M82 0v505h88v-201h254v201h89v-201h155c104 0 173 -52 173 -149c0 -96 -66 -155 -170 -155h-247v239h-254v-239h-88zM513 64h134c62 0 104 36 104 89c0 58 -40 88 -110 88h-128v-177z" />
    <glyph glyph-name="uni0404" unicode="&#x404;" horiz-adv-x="681" 
d="M371 -10c-207 0 -320 143 -320 366c0 229 123 379 323 379c142 0 246 -75 253 -195h-97c-10 73 -71 119 -157 119c-126 0 -209 -104 -220 -251h302v-74h-304c7 -164 84 -271 220 -271c82 0 148 50 161 123h99c-22 -129 -125 -196 -260 -196z" />
    <glyph glyph-name="uni0454" unicode="&#x454;" horiz-adv-x="535" 
d="M282 -11c-142 0 -237 98 -237 259c0 165 99 271 252 271c118 0 190 -59 204 -167h-84c-9 71 -49 107 -119 107c-95 0 -151 -65 -160 -167h201v-63h-202c4 -107 66 -178 154 -178c70 0 118 42 126 110h85c-12 -111 -88 -172 -220 -172z" />
    <glyph glyph-name="uni2116" unicode="&#x2116;" horiz-adv-x="1055" 
d="M658 175v60h317v-60h-317zM81 0v723h112l308 -606v606h87v-723h-118l-302 598v-598h-87zM817 294c-94 0 -161 62 -161 160c0 97 68 159 158 159c96 0 163 -60 163 -159c0 -98 -67 -160 -160 -160zM817 346c53 0 87 47 87 108s-34 108 -87 108s-88 -47 -88 -106
c0 -64 34 -110 88 -110z" />
    <glyph glyph-name="uni040B" unicode="&#x40b;" horiz-adv-x="798" 
d="M236 0v650h-228v73h550v-73h-228v-232c22 7 97 25 167 25c141 0 232 -50 232 -245v-198h-94v203c0 135 -71 170 -151 170c-52 0 -116 -14 -154 -23v-350h-94z" />
    <glyph glyph-name="uni0402" unicode="&#x402;" horiz-adv-x="780" 
d="M491 -13c-3 0 -48 2 -49 3v71c1 0 41 -2 42 -2c104 0 169 72 169 172c0 96 -60 143 -163 143c-64 0 -134 -20 -160 -29v-345h-94v650h-228v73h550v-73h-228v-232c28 10 101 29 173 29c170 0 244 -88 244 -214c0 -156 -102 -246 -256 -246z" />
    <glyph glyph-name="uni045B" unicode="&#x45b;" horiz-adv-x="593" 
d="M81 0v589h-90v54h90v80h88v-80h172v-54h-172v-173c41 57 96 86 163 86c121 0 181 -66 181 -198v-304h-88v270c0 53 -6 92 -18 115c-17 33 -50 50 -99 50c-47 0 -83 -18 -108 -54c-21 -31 -31 -72 -31 -124v-257h-88z" />
    <glyph glyph-name="uni0452" unicode="&#x452;" horiz-adv-x="593" 
d="M324 -196c-11 0 -33 1 -64 3v60c10 -1 21 -2 32 -2c98 0 133 72 133 188v217c0 53 -6 92 -18 115c-17 33 -50 50 -99 50c-47 0 -83 -18 -108 -54c-21 -31 -31 -72 -31 -124v-257h-88v589h-90v54h90v80h88v-80h172v-54h-172v-173c41 57 96 86 163 86
c121 0 181 -66 181 -198v-252c0 -109 -37 -248 -189 -248z" />
    <glyph glyph-name="uni0401" unicode="&#x401;" horiz-adv-x="608" 
d="M98 0v723h448v-73h-355v-240h340v-73h-340v-264h369v-73h-462zM470 811h-93v88h93v-88zM279 811h-93v88h93v-88z" />
    <glyph glyph-name="uni0451" unicode="&#x451;" horiz-adv-x="547" 
d="M278 -11c-157 0 -233 105 -233 255c0 151 76 270 240 270c169 0 217 -131 217 -278h-369v-10c0 -93 50 -178 152 -178c72 0 119 44 130 115h84c-20 -119 -106 -174 -221 -174zM135 294h280c1 83 -41 160 -133 160c-93 0 -139 -76 -147 -160zM421 636h-93v88h93v-88z
M230 636h-93v88h93v-88z" />
    <glyph glyph-name="uni0400" unicode="&#x400;" horiz-adv-x="608" 
d="M98 0v723h448v-73h-355v-240h340v-73h-340v-264h369v-73h-462zM393 776h-63l-139 145h108z" />
    <glyph glyph-name="uni0450" unicode="&#x450;" horiz-adv-x="547" 
d="M278 -11c-157 0 -233 105 -233 255c0 151 76 270 240 270c169 0 217 -131 217 -278h-369v-10c0 -93 50 -178 152 -178c72 0 119 44 130 115h84c-20 -119 -106 -174 -221 -174zM135 294h280c1 83 -41 160 -133 160c-93 0 -139 -76 -147 -160zM345 591h-63l-139 145h108z
" />
    <glyph glyph-name="uni040D" unicode="&#x40d;" horiz-adv-x="770" 
d="M98 0v723h94v-619l355 619h125v-723h-94v617l-355 -617h-125zM444 776h-63l-139 145h108z" />
    <glyph glyph-name="uni045D" unicode="&#x45d;" horiz-adv-x="604" 
d="M82 0v505h88v-395l253 395h99v-505h-88v389l-255 -389h-97zM363 591h-63l-139 145h108z" />
    <glyph glyph-name="uni2010" unicode="&#x2010;" horiz-adv-x="341" 
d="M301 234h-261v66h261v-66z" />
    <glyph glyph-name="tonos" unicode="&#x384;" horiz-adv-x="264" 
d="M84 591l58 145h108l-102 -145h-64z" />
    <glyph glyph-name="dieresistonos" unicode="&#x385;" horiz-adv-x="377" 
d="M8 611v88h93v-88h-93zM132 591l33 145h99l-71 -145h-61zM276 611v88h93v-88h-93z" />
    <glyph glyph-name="Alphatonos" unicode="&#x386;" horiz-adv-x="712" 
d="M5 0l294 723h103l305 -723h-108l-75 191h-350l-74 -191h-95zM200 262h295l-150 380zM185 723l-102 -145h-64l58 145h108z" />
    <glyph glyph-name="anoteleia" unicode="&#x387;" horiz-adv-x="290" 
d="M196 269h-101v99h101v-99z" />
    <glyph glyph-name="Epsilontonos" unicode="&#x388;" horiz-adv-x="608" 
d="M98 0v723h448v-73h-355v-240h340v-73h-340v-264h369v-73h-462zM0 723l-102 -145h-64l58 145h108z" />
    <glyph glyph-name="Etatonos" unicode="&#x389;" horiz-adv-x="758" 
d="M98 0v723h94v-315h374v315h94v-723h-94v334h-374v-334h-94zM-1 723l-102 -145h-64l58 145h108z" />
    <glyph glyph-name="Iotatonos" unicode="&#x38a;" horiz-adv-x="290" 
d="M98 0v723h94v-723h-94zM0 723l-102 -145h-64l58 145h108z" />
    <glyph glyph-name="Omicrontonos" unicode="&#x38c;" horiz-adv-x="755" 
d="M377 -12c-227 0 -326 166 -326 374c0 204 104 376 327 376c229 0 326 -160 326 -371c0 -208 -99 -379 -327 -379zM377 62c171 0 228 155 228 302c0 149 -54 299 -228 299c-169 0 -227 -154 -227 -299c0 -146 56 -302 227 -302zM83 723l-102 -145h-64l58 145h108z" />
    <glyph glyph-name="Upsilontonos" unicode="&#x38e;" horiz-adv-x="635" 
d="M271 0v303l-279 420h111l220 -344l217 344h104l-279 -424v-299h-94zM-57 723l-102 -145h-64l58 145h108z" />
    <glyph glyph-name="Omegatonos" unicode="&#x38f;" horiz-adv-x="769" 
d="M701 0h-249v75c87 58 151 166 151 301c0 158 -68 287 -227 287c-152 0 -224 -131 -224 -287c0 -135 64 -243 150 -301v-75h-248v75h157c-92 59 -158 168 -158 310c0 198 120 353 323 353c206 0 326 -139 326 -353c0 -142 -67 -251 -159 -310h158v-75zM73 723l-102 -145
h-64l58 145h108z" />
    <glyph glyph-name="iotadieresistonos" unicode="&#x390;" horiz-adv-x="303" 
d="M192 -5c-68 0 -113 33 -113 117v393h88v-371c0 -48 15 -71 53 -71c12 0 26 2 43 5v-67c-28 -4 -44 -6 -71 -6zM-31 611v88h93v-88h-93zM93 591l33 145h99l-71 -145h-61zM237 611v88h93v-88h-93z" />
    <glyph glyph-name="Alpha" unicode="&#x391;" horiz-adv-x="712" 
d="M5 0l294 723h103l305 -723h-108l-75 191h-350l-74 -191h-95zM200 262h295l-150 380z" />
    <glyph glyph-name="Beta" unicode="&#x392;" horiz-adv-x="670" 
d="M98 0v723h255c113 0 230 -50 230 -181c0 -90 -52 -142 -135 -164c99 -18 164 -69 164 -177c0 -163 -138 -201 -271 -201h-243zM190 408h140c84 0 156 31 156 126c0 84 -66 115 -142 115h-154v-241zM190 74h124c96 0 200 10 200 131c0 107 -77 134 -171 134h-153v-265z
" />
    <glyph glyph-name="Gamma" unicode="&#x393;" horiz-adv-x="565" 
d="M98 0v723h432v-73h-339v-650h-93z" />
    <glyph glyph-name="Epsilon" unicode="&#x395;" horiz-adv-x="608" 
d="M98 0v723h448v-73h-355v-240h340v-73h-340v-264h369v-73h-462z" />
    <glyph glyph-name="Zeta" unicode="&#x396;" horiz-adv-x="584" 
d="M21 0v83l426 567h-399v73h503v-77l-429 -573h441v-73h-542z" />
    <glyph glyph-name="Eta" unicode="&#x397;" horiz-adv-x="758" 
d="M98 0v723h94v-315h374v315h94v-723h-94v334h-374v-334h-94z" />
    <glyph glyph-name="Theta" unicode="&#x398;" horiz-adv-x="755" 
d="M377 -12c-227 0 -326 166 -326 374c0 204 104 376 327 376c229 0 326 -160 326 -371c0 -208 -99 -379 -327 -379zM377 63c171 0 228 154 228 301c0 149 -54 299 -228 299c-169 0 -227 -154 -227 -299c0 -146 56 -301 227 -301zM241 336v74h273v-74h-273z" />
    <glyph glyph-name="Iota" unicode="&#x399;" horiz-adv-x="290" 
d="M98 0v723h94v-723h-94z" />
    <glyph glyph-name="Kappa" unicode="&#x39a;" horiz-adv-x="652" 
d="M98 0v723h94v-723h-94zM529 0l-335 393l304 330h120l-317 -324l351 -399h-123z" />
    <glyph glyph-name="Lambda" unicode="&#x39b;" horiz-adv-x="702" 
d="M10 0l284 723h103l295 -723h-108l-244 642l-235 -642h-95z" />
    <glyph glyph-name="Mu" unicode="&#x39c;" horiz-adv-x="966" 
d="M98 0v723h150l238 -611l232 611h150v-723h-88v651l-255 -651h-86l-256 652v-652h-85z" />
    <glyph glyph-name="Nu" unicode="&#x39d;" horiz-adv-x="766" 
d="M98 0v723h126l359 -629v629h85v-723h-126l-359 627v-627h-85z" />
    <glyph glyph-name="Xi" unicode="&#x39e;" horiz-adv-x="599" 
d="M48 0v76h503v-76h-503zM79 335v76h441v-76h-441zM48 647v76h503v-76h-503z" />
    <glyph glyph-name="Omicron" unicode="&#x39f;" horiz-adv-x="755" 
d="M377 -12c-227 0 -326 166 -326 374c0 204 104 376 327 376c229 0 326 -160 326 -371c0 -208 -99 -379 -327 -379zM377 62c171 0 228 155 228 302c0 149 -54 299 -228 299c-169 0 -227 -154 -227 -299c0 -146 56 -302 227 -302z" />
    <glyph glyph-name="Pi" unicode="&#x3a0;" horiz-adv-x="748" 
d="M98 0v723h552v-723h-94v649h-364v-649h-94z" />
    <glyph glyph-name="Rho" unicode="&#x3a1;" horiz-adv-x="621" 
d="M98 0v723h223c62 0 126 -1 180 -36c59 -38 87 -104 87 -172c0 -88 -49 -157 -132 -187c-38 -14 -84 -19 -131 -19h-133v-309h-94zM192 382h99c101 0 199 16 199 140c0 109 -79 129 -172 129h-126v-269z" />
    <glyph glyph-name="Sigma" unicode="&#x3a3;" horiz-adv-x="614" 
d="M45 0v76l213 287l-199 276v84h503v-73h-398l204 -272l-220 -302h436v-76h-539z" />
    <glyph glyph-name="Tau" unicode="&#x3a4;" horiz-adv-x="568" 
d="M237 0v649h-230v74h554v-74h-231v-649h-93z" />
    <glyph glyph-name="Upsilon" unicode="&#x3a5;" horiz-adv-x="635" 
d="M271 0v303l-279 420h111l220 -344l217 344h104l-279 -424v-299h-94z" />
    <glyph glyph-name="Phi" unicode="&#x3a6;" horiz-adv-x="804" 
d="M358 -19v76c-202 11 -318 120 -318 310c0 167 92 299 318 310v63h88v-63c226 -11 318 -143 318 -310c0 -190 -116 -299 -318 -310v-76h-88zM358 133v468c-155 -11 -217 -89 -217 -236c0 -137 62 -222 217 -232zM446 133c155 10 217 95 217 232c0 147 -62 225 -217 236
v-468z" />
    <glyph glyph-name="Chi" unicode="&#x3a7;" horiz-adv-x="668" 
d="M7 0l266 376l-255 347h116l199 -292l196 292h108l-246 -347l270 -376h-111l-218 318l-216 -318h-109z" />
    <glyph glyph-name="Psi" unicode="&#x3a8;" horiz-adv-x="767" 
d="M340 0v122c-173 8 -280 85 -280 267v334h95v-325c0 -116 47 -189 185 -200v525h87v-525c130 10 186 76 186 201v324h94v-334c0 -172 -98 -260 -280 -267v-122h-87z" />
    <glyph glyph-name="Iotadieresis" unicode="&#x3aa;" horiz-adv-x="290" 
d="M98 0v723h94v-723h-94zM292 811h-93v88h93v-88zM101 811h-93v88h93v-88z" />
    <glyph glyph-name="Upsilondieresis" unicode="&#x3ab;" horiz-adv-x="635" 
d="M271 0v303l-279 420h111l220 -344l217 344h104l-279 -424v-299h-94zM459 811h-93v88h93v-88zM268 811h-93v88h93v-88z" />
    <glyph glyph-name="alphatonos" unicode="&#x3ac;" horiz-adv-x="618" 
d="M270 -11c-163 0 -225 125 -225 269c0 131 71 258 218 258c88 0 138 -30 167 -88l3 77h87c-2 -26 -4 -84 -4 -170v-224c0 -29 7 -48 31 -48c7 0 19 2 26 4v-67c-18 -4 -26 -5 -36 -5c-59 0 -95 15 -106 82c-38 -63 -91 -88 -161 -88zM288 53c109 0 141 107 141 198
c0 106 -44 201 -151 201c-91 0 -141 -77 -141 -198c0 -97 37 -201 151 -201zM255 591l58 145h108l-102 -145h-64z" />
    <glyph glyph-name="epsilontonos" unicode="&#x3ad;" horiz-adv-x="514" 
d="M254 -11c-104 0 -204 39 -204 149c0 65 39 114 102 126c-52 10 -87 42 -87 104c0 78 59 148 198 148c128 0 203 -58 205 -140h-85c-6 51 -49 77 -122 77c-70 0 -109 -31 -109 -78c0 -46 25 -76 103 -76h82v-67h-78c-97 0 -118 -43 -118 -90c0 -48 26 -93 122 -93
c75 0 121 33 130 92h86c-23 -119 -123 -152 -225 -152zM239 591l58 145h108l-102 -145h-64z" />
    <glyph glyph-name="etatonos" unicode="&#x3ae;" horiz-adv-x="607" 
d="M96 0v375c0 40 0 66 -26 66c-4 0 -15 -1 -15 -1v61c12 4 34 6 43 6c59 0 79 -38 85 -83c41 58 92 87 165 87c129 0 180 -71 180 -197v-504h-88v470c0 121 -35 164 -117 164c-109 0 -139 -99 -139 -192v-252h-88zM264 591l58 145h108l-102 -145h-64z" />
    <glyph glyph-name="iotatonos" unicode="&#x3af;" horiz-adv-x="303" 
d="M192 -5c-68 0 -113 33 -113 117v393h88v-371c0 -48 15 -71 53 -71c12 0 26 2 43 5v-67c-28 -4 -44 -6 -71 -6zM98 591l58 145h108l-102 -145h-64z" />
    <glyph glyph-name="upsilondieresistonos" unicode="&#x3b0;" horiz-adv-x="546" 
d="M273 -11c-128 0 -208 64 -208 197v319h88v-318c0 -84 41 -131 124 -131c92 0 131 69 131 245c0 64 -15 148 -32 204h83c25 -53 37 -149 37 -203c0 -206 -61 -313 -223 -313zM85 611v88h93v-88h-93zM209 591l33 145h99l-71 -145h-61zM353 611v88h93v-88h-93z" />
    <glyph glyph-name="alpha" unicode="&#x3b1;" horiz-adv-x="618" 
d="M270 -11c-163 0 -225 125 -225 269c0 131 71 258 218 258c88 0 138 -30 167 -88l3 77h87c-2 -26 -4 -84 -4 -170v-224c0 -29 7 -48 31 -48c7 0 19 2 26 4v-67c-18 -4 -26 -5 -36 -5c-59 0 -95 15 -106 82c-38 -63 -91 -88 -161 -88zM288 53c109 0 141 107 141 198
c0 106 -44 201 -151 201c-91 0 -141 -77 -141 -198c0 -97 37 -201 151 -201z" />
    <glyph glyph-name="beta" unicode="&#x3b2;" horiz-adv-x="597" 
d="M80 -190v682c0 150 74 241 222 241c120 0 203 -61 203 -177c0 -57 -34 -130 -96 -150c80 -18 143 -81 143 -196c0 -118 -75 -221 -223 -221c-66 0 -129 13 -161 72v-251h-88zM316 49c86 0 144 63 144 166c0 93 -49 150 -161 150h-44v64h28c105 0 140 51 140 124
c0 81 -52 117 -122 117c-95 0 -134 -64 -134 -159v-273c0 -115 60 -189 149 -189z" />
    <glyph glyph-name="gamma" unicode="&#x3b3;" horiz-adv-x="528" 
d="M221 -190c0 0 1 60 1 123c0 35 -10 94 -33 163c-47 142 -112 306 -169 409h95c66 -123 121 -278 162 -421c78 171 119 298 113 421h87c9 -142 -70 -360 -176 -519c5 -57 6 -116 2 -176h-82z" />
    <glyph glyph-name="delta" unicode="&#x3b4;" horiz-adv-x="570" 
d="M279 -11c-141 0 -234 99 -234 239c0 106 48 215 179 265c-76 41 -86 79 -86 111c0 83 61 129 176 129c49 0 107 -4 156 -18v-76c-61 16 -105 24 -161 24c-60 0 -82 -18 -82 -50c0 -28 19 -42 95 -88l18 -11c119 -74 185 -143 185 -262c0 -138 -84 -263 -246 -263zM283 49
c116 0 158 97 158 190c0 83 -39 154 -133 207l-16 9c-106 -35 -159 -119 -159 -227c0 -99 52 -179 150 -179z" />
    <glyph glyph-name="epsilon" unicode="&#x3b5;" horiz-adv-x="514" 
d="M254 -11c-104 0 -204 39 -204 149c0 65 39 114 102 126c-52 10 -87 42 -87 104c0 78 59 148 198 148c128 0 203 -58 205 -140h-85c-6 51 -49 77 -122 77c-70 0 -109 -31 -109 -78c0 -46 25 -76 103 -76h82v-67h-78c-97 0 -118 -43 -118 -90c0 -48 26 -93 122 -93
c75 0 121 33 130 92h86c-23 -119 -123 -152 -225 -152z" />
    <glyph glyph-name="zeta" unicode="&#x3b6;" horiz-adv-x="473" 
d="M349 -150c9 25 23 66 23 89c0 37 -16 40 -71 52l-26 6c-148 33 -220 118 -220 260c0 141 69 288 240 394h-204v72h353v-57c-216 -102 -301 -253 -301 -409c0 -99 48 -161 162 -187l17 -4c91 -21 130 -29 130 -98c0 -39 -23 -93 -35 -118h-68z" />
    <glyph glyph-name="eta" unicode="&#x3b7;" horiz-adv-x="607" 
d="M96 0v375c0 40 0 66 -26 66c-4 0 -15 -1 -15 -1v61c12 4 34 6 43 6c59 0 79 -38 85 -83c41 58 92 87 165 87c129 0 180 -71 180 -197v-504h-88v470c0 121 -35 164 -117 164c-109 0 -139 -99 -139 -192v-252h-88z" />
    <glyph glyph-name="theta" unicode="&#x3b8;" horiz-adv-x="576" 
d="M285 -11c-157 0 -235 114 -235 372c0 244 77 372 237 372c157 0 239 -118 239 -372c0 -246 -81 -372 -241 -372zM144 326c0 -171 36 -277 140 -277c103 0 148 106 148 277h-288zM144 396h288c0 159 -26 274 -146 274c-121 0 -142 -114 -142 -274z" />
    <glyph glyph-name="iota" unicode="&#x3b9;" horiz-adv-x="303" 
d="M192 -5c-68 0 -113 33 -113 117v393h88v-371c0 -48 15 -71 53 -71c12 0 26 2 43 5v-67c-28 -4 -44 -6 -71 -6z" />
    <glyph glyph-name="kappa" unicode="&#x3ba;" horiz-adv-x="558" 
d="M82 0v505h88v-281l163 200c59 72 79 83 142 83c20 0 32 -3 44 -6v-65c-9 1 -14 1 -35 1c-35 0 -48 -7 -77 -43l-75 -92l211 -302h-96l-169 239l-108 -127v-112h-88z" />
    <glyph glyph-name="lambda" unicode="&#x3bb;" horiz-adv-x="591" 
d="M48 0l225 505l-41 97c-24 56 -31 65 -76 65c-4 0 -14 0 -23 -1v61c14 4 44 6 55 6c74 0 104 -42 128 -106l204 -542c6 -15 13 -22 30 -22c4 0 16 2 21 3v-66c-15 -3 -31 -5 -41 -5c-48 0 -78 21 -103 94l-111 323l-176 -412h-92z" />
    <glyph glyph-name="nu" unicode="&#x3bd;" horiz-adv-x="511" 
d="M214 0l-206 505h99l155 -418c82 176 116 303 113 418h90c5 -161 -64 -337 -166 -505h-85z" />
    <glyph glyph-name="xi" unicode="&#x3be;" horiz-adv-x="472" 
d="M337 -150c9 26 23 63 23 89c0 34 -13 40 -75 53l-24 5c-142 30 -216 80 -216 200c0 103 52 175 136 194c-75 26 -94 77 -94 129c0 68 31 118 92 131h-117v72h369v-65l-76 -4c-89 -5 -194 -21 -194 -121c0 -63 39 -102 138 -102h94v-69h-66c-152 0 -200 -73 -200 -157
c0 -94 72 -115 165 -135l28 -6c88 -18 120 -35 120 -96c0 -38 -24 -91 -35 -118h-68z" />
    <glyph glyph-name="omicron" unicode="&#x3bf;" horiz-adv-x="587" 
d="M294 -11c-161 0 -249 113 -249 266c0 152 93 261 250 261c160 0 247 -107 247 -261c0 -149 -91 -266 -248 -266zM294 49c112 0 156 110 156 206c0 99 -43 198 -156 198s-156 -99 -156 -198c0 -98 42 -206 156 -206z" />
    <glyph glyph-name="rho" unicode="&#x3c1;" horiz-adv-x="576" 
d="M55 -190v442c0 177 92 264 240 264c181 0 236 -121 236 -259c0 -146 -88 -268 -234 -268c-67 0 -120 23 -154 77v-256h-88zM294 52c98 0 145 92 145 199c0 125 -49 201 -148 201c-93 0 -149 -67 -149 -201c0 -112 55 -199 152 -199z" />
    <glyph glyph-name="sigma1" unicode="&#x3c2;" horiz-adv-x="483" 
d="M330 -150c13 37 23 67 23 89c0 37 -14 40 -82 54c-164 34 -221 136 -221 273c0 159 86 250 227 250c128 0 191 -68 193 -163h-87c0 64 -48 100 -109 100c-72 0 -132 -42 -132 -178c0 -127 43 -184 149 -206c117 -25 142 -41 142 -101c0 -38 -22 -92 -35 -118h-68z" />
    <glyph glyph-name="sigma" unicode="&#x3c3;" horiz-adv-x="597" 
d="M282 -11c-141 0 -237 101 -237 251c0 173 101 265 263 265h249v-72h-117c50 -47 79 -108 79 -187c0 -138 -81 -257 -237 -257zM284 49c114 0 144 108 144 205c0 80 -22 135 -63 176c-4 4 -24 5 -59 5c-98 0 -168 -45 -168 -195c0 -74 31 -191 146 -191z" />
    <glyph glyph-name="tau" unicode="&#x3c4;" horiz-adv-x="493" 
d="M298 -5c-76 0 -113 41 -113 117v321h-165v72h433v-72h-180v-301c0 -43 13 -69 56 -69c26 0 43 2 50 3v-66c-21 -4 -66 -5 -81 -5z" />
    <glyph glyph-name="upsilon" unicode="&#x3c5;" horiz-adv-x="546" 
d="M273 -11c-128 0 -208 64 -208 197v319h88v-318c0 -84 41 -131 124 -131c92 0 131 69 131 245c0 64 -15 148 -32 204h83c25 -53 37 -149 37 -203c0 -206 -61 -313 -223 -313z" />
    <glyph glyph-name="phi" unicode="&#x3c6;" horiz-adv-x="707" 
d="M314 -190v179c-159 8 -274 91 -274 263c0 152 93 255 274 264v124h79v-124c201 -10 274 -135 274 -264c0 -165 -109 -255 -274 -263v-179h-79zM314 52v405c-125 -5 -182 -87 -182 -203c0 -142 74 -197 182 -202zM393 52c106 5 182 59 182 202c0 147 -89 199 -182 203
v-405z" />
    <glyph glyph-name="chi" unicode="&#x3c7;" horiz-adv-x="551" 
d="M15 -190l212 353l-117 214c-31 57 -37 64 -71 64c-4 0 -12 0 -22 -1v61c13 4 48 6 59 6c61 0 75 -15 117 -94l91 -171l147 263h94l-198 -338l149 -273c7 -13 21 -22 38 -22c4 0 12 1 17 2v-66c-15 -3 -38 -4 -48 -4c-48 0 -70 25 -97 74l-118 211l-161 -279h-92z" />
    <glyph glyph-name="psi" unicode="&#x3c8;" horiz-adv-x="683" 
d="M299 -190v179c-122 5 -234 54 -234 213v303h88v-291c0 -99 42 -159 146 -165v591h84v-591c109 1 152 63 152 247c0 71 -15 152 -32 209h83c24 -54 37 -135 37 -208c0 -208 -69 -305 -240 -307v-180h-84z" />
    <glyph glyph-name="omega" unicode="&#x3c9;" horiz-adv-x="754" 
d="M241 -11c-136 0 -189 97 -189 238c0 96 26 206 82 278h90c-48 -72 -82 -175 -82 -278c0 -113 35 -171 101 -171c59 0 94 32 94 143v181h80v-181c0 -115 37 -143 95 -143c73 0 100 70 100 171c0 104 -34 208 -82 278h90c48 -61 82 -159 82 -278c0 -156 -63 -238 -188 -238
c-65 0 -113 25 -137 92c-25 -72 -78 -92 -136 -92z" />
    <glyph glyph-name="iotadieresis" unicode="&#x3ca;" horiz-adv-x="303" 
d="M192 -5c-68 0 -113 33 -113 117v393h88v-371c0 -48 15 -71 53 -71c12 0 26 2 43 5v-67c-28 -4 -44 -6 -71 -6zM276 636h-93v88h93v-88zM85 636h-93v88h93v-88z" />
    <glyph glyph-name="upsilondieresis" unicode="&#x3cb;" horiz-adv-x="546" 
d="M273 -11c-128 0 -208 64 -208 197v319h88v-318c0 -84 41 -131 124 -131c92 0 131 69 131 245c0 64 -15 148 -32 204h83c25 -53 37 -149 37 -203c0 -206 -61 -313 -223 -313zM415 636h-93v88h93v-88zM224 636h-93v88h93v-88z" />
    <glyph glyph-name="omicrontonos" unicode="&#x3cc;" horiz-adv-x="587" 
d="M294 -11c-161 0 -249 113 -249 266c0 152 93 261 250 261c160 0 247 -107 247 -261c0 -149 -91 -266 -248 -266zM294 49c112 0 156 110 156 206c0 99 -43 198 -156 198s-156 -99 -156 -198c0 -98 42 -206 156 -206zM271 591l58 145h108l-102 -145h-64z" />
    <glyph glyph-name="upsilontonos" unicode="&#x3cd;" horiz-adv-x="546" 
d="M273 -11c-128 0 -208 64 -208 197v319h88v-318c0 -84 41 -131 124 -131c92 0 131 69 131 245c0 64 -15 148 -32 204h83c25 -53 37 -149 37 -203c0 -206 -61 -313 -223 -313zM235 591l58 145h108l-102 -145h-64z" />
    <glyph glyph-name="omegatonos" unicode="&#x3ce;" horiz-adv-x="754" 
d="M241 -11c-136 0 -189 97 -189 238c0 96 26 206 82 278h90c-48 -72 -82 -175 -82 -278c0 -113 35 -171 101 -171c59 0 94 32 94 143v181h80v-181c0 -115 37 -143 95 -143c73 0 100 70 100 171c0 104 -34 208 -82 278h90c48 -61 82 -159 82 -278c0 -156 -63 -238 -188 -238
c-65 0 -113 25 -137 92c-25 -72 -78 -92 -136 -92zM340 591l58 145h108l-102 -145h-64z" />
    <glyph glyph-name="tonos.cap" horiz-adv-x="264" 
d="M250 723l-102 -145h-64l58 145h108z" />
    <glyph glyph-name="afii00208" unicode="&#x2015;" horiz-adv-x="1013" 
d="M878 233h-743v59h743v-59z" />
    <glyph glyph-name="uni037E" unicode="&#x37e;" horiz-adv-x="290" 
d="M198 404h-101v100h101v-100zM212 100l-87 -220h-72l54 220h105z" />
    <glyph glyph-name="uni0374" unicode="&#x374;" horiz-adv-x="334" 
d="M250 723l-102 -190h-64l58 190h108z" />
    <glyph glyph-name="uni0375" unicode="&#x375;" horiz-adv-x="334" 
d="M84 -190l102 190h64l-58 -190h-108z" />
    <glyph glyph-name="exclam.sc" horiz-adv-x="262" 
d="M180 546l-15 -401h-68l-14 401h97zM178 0h-95v96h95v-96z" />
    <glyph glyph-name="dollar.sc" horiz-adv-x="487" 
d="M267 -73h-45v66c-117 5 -179 56 -182 158h83c2 -57 27 -93 99 -99v189l-4 1c-88 23 -171 53 -171 152c0 88 68 141 175 147v67h45v-67c103 -6 164 -48 167 -138h-81c-3 50 -35 74 -86 80v-182l4 -1c97 -27 176 -55 176 -154c0 -95 -70 -146 -180 -153v-66zM366 142
c0 48 -36 69 -99 87v-177c62 6 99 38 99 90zM128 399c0 -46 33 -69 94 -87v171c-58 -5 -94 -31 -94 -84z" />
    <glyph glyph-name="percent.sc" horiz-adv-x="746" 
d="M576 568l-350 -587h-65l351 587h64zM293 408c0 -78 -41 -147 -132 -147s-132 69 -132 147s41 149 132 149c93 0 132 -69 132 -149zM228 409c0 50 -16 99 -65 99c-52 0 -69 -47 -69 -100c0 -52 18 -99 67 -99c51 0 67 49 67 100zM716 142c0 -79 -41 -147 -132 -147
s-132 68 -132 147c0 78 42 148 133 148c93 0 131 -68 131 -148zM652 143c0 50 -16 98 -66 98c-52 0 -69 -47 -69 -100c0 -52 19 -98 68 -98c51 0 67 48 67 100z" />
    <glyph glyph-name="ampersand.sc" horiz-adv-x="600" 
d="M497 0l-50 50c-48 -39 -110 -61 -190 -61c-120 0 -218 47 -218 150c0 77 66 129 152 171c-45 44 -76 77 -76 130c0 70 63 117 148 117c87 0 151 -40 151 -114c0 -59 -45 -100 -114 -140l149 -151c23 43 31 97 31 149h72c0 -72 -16 -139 -53 -199l102 -102h-104zM265 49
c62 0 108 17 139 45l-172 174c-70 -36 -108 -71 -108 -124c0 -64 61 -95 141 -95zM196 443c0 -29 14 -48 63 -98c53 30 80 58 80 98c0 34 -26 58 -72 58c-45 0 -71 -24 -71 -58z" />
    <glyph glyph-name="zero.sc" horiz-adv-x="492" 
d="M448 276c0 -126 -44 -287 -201 -287c-160 0 -203 160 -203 287c0 126 43 281 203 281c157 0 201 -156 201 -281zM362 276c0 113 -28 219 -114 219c-94 0 -116 -104 -116 -219c0 -117 23 -225 116 -225c87 0 114 110 114 225z" />
    <glyph glyph-name="one.sc" horiz-adv-x="492" 
d="M311 0h-84v460c-37 -30 -80 -51 -127 -70v70c57 22 94 46 138 86h73v-546z" />
    <glyph glyph-name="two.sc" horiz-adv-x="492" 
d="M431 0h-382v67l144 128c99 88 146 141 146 210c0 58 -35 90 -96 90c-60 0 -101 -38 -101 -103h-86c2 109 87 165 190 165c101 0 180 -53 180 -150c0 -88 -62 -156 -161 -242l-114 -100h280v-65z" />
    <glyph glyph-name="three.sc" horiz-adv-x="492" 
d="M447 149c0 -110 -101 -160 -205 -160c-112 0 -193 50 -202 160h88c4 -64 55 -98 114 -98c75 0 118 42 118 103c0 67 -57 99 -123 99c-11 0 -24 0 -42 -2v64c18 -2 29 -2 38 -2c65 0 117 29 117 91c0 57 -43 91 -106 91c-57 0 -104 -29 -106 -92h-89c1 48 24 85 56 110
c38 30 91 44 140 44c96 0 190 -45 190 -148c0 -61 -39 -107 -102 -124c62 -14 114 -56 114 -136z" />
    <glyph glyph-name="four.sc" horiz-adv-x="492" 
d="M464 120h-88v-120h-81v120h-263v72l245 354h99v-366h88v-60zM297 179v289l-197 -289h197z" />
    <glyph glyph-name="five.sc" horiz-adv-x="492" 
d="M445 182c0 -118 -81 -193 -199 -193c-101 0 -185 42 -187 149h88c2 -59 41 -87 98 -87c74 0 113 56 113 129c0 67 -31 122 -106 122c-48 0 -89 -25 -100 -75h-84l13 319h336v-63h-258l-10 -172c29 37 75 53 122 53c114 0 174 -79 174 -182z" />
    <glyph glyph-name="six.sc" horiz-adv-x="492" 
d="M446 177c0 -106 -80 -188 -192 -188s-168 58 -194 142c-10 33 -14 72 -14 125c0 136 37 301 212 301c95 0 172 -44 174 -145h-87c-3 53 -32 86 -89 86c-97 0 -124 -108 -127 -216c29 52 81 75 141 75c109 0 176 -76 176 -180zM362 175c0 67 -35 122 -107 122
c-73 0 -117 -57 -117 -124c0 -64 42 -122 116 -122c68 0 108 56 108 124z" />
    <glyph glyph-name="seven.sc" horiz-adv-x="492" 
d="M435 481l-217 -481h-96l229 481h-299v65h383v-65z" />
    <glyph glyph-name="eight.sc" horiz-adv-x="492" 
d="M449 148c0 -112 -99 -159 -200 -159c-100 0 -207 43 -207 156c0 70 44 119 114 139c-50 13 -101 53 -101 123c0 105 96 150 192 150c94 0 191 -44 191 -148c0 -63 -40 -107 -101 -125c58 -15 112 -59 112 -136zM353 403c0 63 -46 96 -106 96s-108 -32 -108 -95
c0 -60 49 -90 107 -90s107 32 107 89zM365 152c0 68 -57 103 -120 103s-118 -35 -118 -103c0 -65 53 -102 118 -102c69 0 120 37 120 102z" />
    <glyph glyph-name="nine.sc" horiz-adv-x="492" 
d="M444 292c0 -138 -31 -303 -212 -303c-109 0 -184 52 -186 146h89c2 -53 38 -85 97 -85c108 0 127 115 129 219c-25 -47 -76 -71 -138 -71c-111 0 -179 75 -179 177c0 104 82 182 195 182c103 0 159 -51 185 -119c13 -36 20 -83 20 -146zM353 377c0 58 -35 119 -113 119
c-74 0 -115 -56 -115 -119c0 -62 36 -119 112 -119c71 0 116 53 116 119z" />
    <glyph glyph-name="question.sc" horiz-adv-x="436" 
d="M367 422c0 -57 -30 -100 -118 -171c-31 -25 -37 -35 -37 -69v-37h-76v43c0 49 14 67 59 106c63 53 84 81 84 122c0 52 -50 80 -114 80c-28 0 -54 -3 -86 -12v63c34 6 67 10 98 10c99 0 190 -32 190 -135zM222 0h-94v96h94v-96z" />
    <glyph glyph-name="a.sc" horiz-adv-x="587" 
d="M484 0l-59 140h-272l-57 -140h-90l238 546h92l245 -546h-97zM288 469l-109 -265h219z" />
    <glyph glyph-name="b.sc" horiz-adv-x="557" 
d="M508 154c0 -122 -105 -154 -214 -154h-209v546h212c104 0 188 -42 188 -138c0 -64 -38 -105 -96 -122c56 -12 119 -43 119 -132zM418 159c0 76 -54 93 -129 93h-117v-189h106c102 0 140 26 140 96zM398 401c0 60 -45 83 -117 83h-109v-172h101c73 0 125 22 125 89z" />
    <glyph glyph-name="c.sc" horiz-adv-x="564" 
d="M523 146c-17 -106 -105 -157 -223 -157c-182 0 -253 127 -253 281c0 151 79 287 261 287c103 0 203 -43 211 -155h-92c-11 66 -58 90 -119 90c-120 0 -171 -107 -171 -220c0 -122 50 -217 166 -217c63 0 111 26 127 91h93z" />
    <glyph glyph-name="d.sc" horiz-adv-x="619" 
d="M573 276c0 -104 -33 -172 -87 -215c-56 -44 -137 -61 -229 -61h-172v546h185c80 0 149 -16 200 -48c64 -42 103 -113 103 -222zM483 275c0 79 -21 133 -64 166c-35 28 -85 40 -150 40h-96v-416h83c76 0 129 12 166 45c41 36 61 90 61 165z" />
    <glyph glyph-name="e.sc" horiz-adv-x="509" 
d="M466 0h-381v546h371v-64h-283v-168h270v-64h-270v-185h293v-65z" />
    <glyph glyph-name="f.sc" horiz-adv-x="473" 
d="M443 481h-270v-168h257v-64h-257v-249h-88v546h358v-65z" />
    <glyph glyph-name="g.sc" horiz-adv-x="598" 
d="M534 23c-59 -20 -142 -32 -211 -32c-191 0 -276 120 -276 283c0 159 92 283 272 283c111 0 197 -48 210 -157h-88c-11 62 -58 92 -127 92c-125 0 -177 -105 -177 -217c0 -117 48 -219 191 -219c39 0 83 5 121 17v152h-135v62h220v-264z" />
    <glyph glyph-name="h.sc" horiz-adv-x="633" 
d="M548 0h-88v249h-287v-249h-88v546h88v-231h287v231h88v-546z" />
    <glyph glyph-name="i.sc" horiz-adv-x="258" 
d="M173 0h-88v546h88v-546z" />
    <glyph glyph-name="j.sc" horiz-adv-x="442" 
d="M368 163c0 -108 -60 -174 -183 -174c-91 0 -172 45 -172 135c0 9 0 13 1 21h91c-1 -9 -1 -12 -1 -19c0 -47 33 -70 82 -70c71 0 94 46 94 108v382h88v-383z" />
    <glyph glyph-name="k.sc" horiz-adv-x="548" 
d="M173 546v-546h-88v546h88zM175 296l233 250h109l-245 -246l271 -300h-113z" />
    <glyph glyph-name="l.sc" horiz-adv-x="472" 
d="M456 0h-371v546h88v-481h283v-65z" />
    <glyph glyph-name="m.sc" horiz-adv-x="791" 
d="M706 0h-80v473l-192 -473h-78l-193 473v-473h-78v546h129l184 -461l182 461h126v-546z" />
    <glyph glyph-name="n.sc" horiz-adv-x="637" 
d="M552 0h-112l-277 454v-454h-78v546h111l277 -454v454h79v-546z" />
    <glyph glyph-name="o.sc" horiz-adv-x="625" 
d="M578 274c0 -152 -87 -285 -265 -285s-266 131 -266 285c0 153 87 283 268 283c183 0 263 -128 263 -283zM488 275c0 108 -44 217 -175 217c-128 0 -176 -112 -176 -217s46 -220 176 -220c129 0 175 116 175 220z" />
    <glyph glyph-name="p.sc" horiz-adv-x="520" 
d="M489 383c0 -62 -30 -113 -81 -138c-36 -18 -90 -27 -142 -27h-93v-218h-88v546h190c51 0 103 -6 144 -30c45 -26 70 -70 70 -133zM400 386c0 38 -11 60 -36 77c-22 15 -53 20 -99 20h-92v-201h73c39 0 80 3 108 19c30 17 46 44 46 85z" />
    <glyph glyph-name="q.sc" horiz-adv-x="625" 
d="M598 0h-97c-39 0 -81 0 -116 -4c-26 -2 -51 -3 -76 -3c-177 0 -262 131 -262 279c0 156 87 285 267 285c176 0 263 -121 263 -274c0 -91 -31 -181 -115 -230c34 3 75 4 104 4h32v-57zM487 275c0 110 -43 217 -174 217c-129 0 -176 -111 -176 -217
c0 -101 45 -216 176 -216c130 0 174 113 174 216z" />
    <glyph glyph-name="r.sc" horiz-adv-x="562" 
d="M517 0h-94c-15 32 -22 65 -26 117c-8 96 -22 126 -104 126h-120v-243h-88v546h221c116 0 193 -43 193 -137c0 -70 -37 -112 -108 -133c64 -12 85 -48 92 -137c4 -55 11 -99 34 -139zM413 398c0 62 -48 85 -122 85h-118v-178h120c73 0 120 28 120 93z" />
    <glyph glyph-name="s.sc" horiz-adv-x="523" 
d="M475 149c0 -110 -97 -160 -219 -160c-120 0 -210 55 -213 166h89c2 -56 45 -102 128 -102c71 0 127 28 127 91c0 45 -26 67 -118 92l-51 14c-100 27 -160 69 -160 156c0 100 91 151 204 151c110 0 199 -42 201 -143h-88c-3 58 -54 81 -114 81c-68 0 -116 -30 -116 -84
c0 -45 41 -70 111 -89l51 -14c130 -36 168 -83 168 -159z" />
    <glyph glyph-name="t.sc" horiz-adv-x="475" 
d="M465 481h-184v-481h-88v481h-183v65h455v-65z" />
    <glyph glyph-name="u.sc" horiz-adv-x="623" 
d="M549 214c0 -146 -77 -225 -239 -225c-150 0 -236 64 -236 225v332h90v-331c0 -92 32 -160 148 -160c114 0 149 66 149 162v329h88v-332z" />
    <glyph glyph-name="v.sc" horiz-adv-x="549" 
d="M544 546l-219 -546h-99l-221 546h94l179 -468l177 468h89z" />
    <glyph glyph-name="w.sc" horiz-adv-x="854" 
d="M839 546l-158 -546h-100l-154 461l-153 -461h-101l-157 546h91l122 -464l150 464h98l153 -464l121 464h88z" />
    <glyph glyph-name="x.sc" horiz-adv-x="563" 
d="M551 0h-108l-167 228l-161 -228h-103l214 283l-206 263h109l153 -210l148 210h101l-199 -263z" />
    <glyph glyph-name="y.sc" horiz-adv-x="518" 
d="M527 546l-223 -318v-228h-88v228l-225 318h104l167 -253l168 253h97z" />
    <glyph glyph-name="z.sc" horiz-adv-x="487" 
d="M466 0h-445v67l329 415h-307v64h413v-63l-336 -419h346v-64z" />
    <glyph glyph-name="agrave.sc" horiz-adv-x="587" 
d="M484 0l-59 140h-272l-57 -140h-90l238 546h92l245 -546h-97zM288 469l-109 -265h219zM343 631h-63l-139 145h108z" />
    <glyph glyph-name="aacute.sc" horiz-adv-x="587" 
d="M484 0l-59 140h-272l-57 -140h-90l238 546h92l245 -546h-97zM288 469l-109 -265h219zM441 776l-139 -145h-64l95 145h108z" />
    <glyph glyph-name="acircumflex.sc" horiz-adv-x="587" 
d="M484 0l-59 140h-272l-57 -140h-90l238 546h92l245 -546h-97zM288 469l-109 -265h219zM438 631h-64l-86 99l-88 -99h-64l105 146h94z" />
    <glyph glyph-name="atilde.sc" horiz-adv-x="587" 
d="M484 0l-59 140h-272l-57 -140h-90l238 546h92l245 -546h-97zM288 469l-109 -265h219zM443 756c-9 -48 -43 -96 -96 -96c-41 0 -77 24 -118 24c-23 0 -39 -8 -48 -30h-47c9 53 45 94 101 94c40 0 75 -24 115 -24c23 0 37 10 45 32h48z" />
    <glyph glyph-name="adieresis.sc" horiz-adv-x="587" 
d="M484 0l-59 140h-272l-57 -140h-90l238 546h92l245 -546h-97zM288 469l-109 -265h219zM430 676h-93v88h93v-88zM239 676h-93v88h93v-88z" />
    <glyph glyph-name="amacron.sc" horiz-adv-x="587" 
d="M484 0l-59 140h-272l-57 -140h-90l238 546h92l245 -546h-97zM288 469l-109 -265h219zM425 676h-274v61h274v-61z" />
    <glyph glyph-name="abreve.sc" horiz-adv-x="587" 
d="M484 0l-59 140h-272l-57 -140h-90l238 546h92l245 -546h-97zM288 469l-109 -265h219zM440 754c-9 -79 -66 -123 -152 -123c-82 0 -149 43 -151 123h45c9 -48 63 -68 106 -68c48 0 92 18 109 68h43z" />
    <glyph glyph-name="aring.sc" horiz-adv-x="587" 
d="M484 0l-59 140h-272l-57 -140h-90l238 546h92l245 -546h-97zM288 469l-109 -265h219zM381 706c0 -53 -41 -93 -94 -93s-94 40 -94 93s41 93 94 93s94 -40 94 -93zM340 706c0 33 -20 57 -53 57s-53 -24 -53 -57s20 -57 53 -57s53 24 53 57z" />
    <glyph glyph-name="aogonek.sc" horiz-adv-x="587" 
d="M484 0l-59 140h-272l-57 -140h-90l238 546h92l245 -546c-75 -34 -109 -58 -109 -97c0 -33 29 -48 60 -48c14 0 28 4 42 10l6 -32c-25 -12 -51 -19 -79 -19c-43 0 -95 19 -95 70c0 56 59 94 118 116h-40zM288 469l-109 -265h219z" />
    <glyph glyph-name="ae.sc" horiz-adv-x="798" 
d="M732 250h-246l33 -185h236v-65h-313l-24 137h-254l-80 -137h-90l323 546h428v-64h-300l30 -168h257v-64zM360 473l-160 -273h207z" />
    <glyph glyph-name="cacute.sc" horiz-adv-x="564" 
d="M523 146c-17 -106 -105 -157 -223 -157c-182 0 -253 127 -253 281c0 151 79 287 261 287c103 0 203 -43 211 -155h-92c-11 66 -58 90 -119 90c-120 0 -171 -107 -171 -220c0 -122 50 -217 166 -217c63 0 111 26 127 91h93zM429 776l-139 -145h-64l95 145h108z" />
    <glyph glyph-name="ccircumflex.sc" horiz-adv-x="564" 
d="M523 146c-17 -106 -105 -157 -223 -157c-182 0 -253 127 -253 281c0 151 79 287 261 287c103 0 203 -43 211 -155h-92c-11 66 -58 90 -119 90c-120 0 -171 -107 -171 -220c0 -122 50 -217 166 -217c63 0 111 26 127 91h93zM447 631h-64l-86 99l-88 -99h-64l105 146h94z
" />
    <glyph glyph-name="ccaron.sc" horiz-adv-x="564" 
d="M523 146c-17 -106 -105 -157 -223 -157c-182 0 -253 127 -253 281c0 151 79 287 261 287c103 0 203 -43 211 -155h-92c-11 66 -58 90 -119 90c-120 0 -171 -107 -171 -220c0 -122 50 -217 166 -217c63 0 111 26 127 91h93zM447 776l-102 -145h-99l-103 145h64l90 -99
l86 99h64z" />
    <glyph glyph-name="cdotaccent.sc" horiz-adv-x="564" 
d="M523 146c-17 -106 -105 -157 -223 -157c-182 0 -253 127 -253 281c0 151 79 287 261 287c103 0 203 -43 211 -155h-92c-11 66 -58 90 -119 90c-120 0 -171 -107 -171 -220c0 -122 50 -217 166 -217c63 0 111 26 127 91h93zM343 676h-93v88h93v-88z" />
    <glyph glyph-name="ccedilla.sc" horiz-adv-x="564" 
d="M396 -119c0 -58 -62 -73 -109 -73c-37 0 -73 9 -108 23l8 33c30 -14 62 -24 94 -24c26 0 50 8 50 37s-23 38 -49 38c-11 0 -21 -1 -33 -4v20l23 59c-162 12 -225 134 -225 280c0 151 79 287 261 287c103 0 203 -43 211 -155h-92c-11 66 -58 90 -119 90
c-120 0 -171 -107 -171 -220c0 -122 50 -217 166 -217c63 0 111 26 127 91h93c-17 -106 -104 -156 -221 -157l-13 -41h13c44 0 94 -13 94 -67z" />
    <glyph glyph-name="dcaron.sc" horiz-adv-x="619" 
d="M573 276c0 -104 -33 -172 -87 -215c-56 -44 -137 -61 -229 -61h-172v546h185c80 0 149 -16 200 -48c64 -42 103 -113 103 -222zM483 275c0 79 -21 133 -64 166c-35 28 -85 40 -150 40h-96v-416h83c76 0 129 12 166 45c41 36 61 90 61 165zM460 776l-102 -145h-99
l-103 145h64l90 -99l86 99h64z" />
    <glyph glyph-name="dcroat.sc" horiz-adv-x="619" 
d="M573 276c0 -104 -33 -172 -87 -215c-56 -44 -137 -61 -229 -61h-172v265h-56v56h56v225h185c80 0 149 -15 200 -48c64 -41 103 -113 103 -222zM483 275c0 79 -21 133 -64 166c-35 28 -85 40 -150 40h-96v-160h153v-56h-153v-200h83c76 0 129 12 166 45
c41 36 61 90 61 165z" />
    <glyph glyph-name="eth.sc" horiz-adv-x="619" 
d="M573 276c0 -104 -33 -172 -87 -215c-56 -44 -137 -61 -229 -61h-172v265h-56v56h56v225h185c80 0 149 -15 200 -48c64 -41 103 -113 103 -222zM483 275c0 79 -21 133 -64 166c-35 28 -85 40 -150 40h-96v-160h153v-56h-153v-200h83c76 0 129 12 166 45
c41 36 61 90 61 165z" />
    <glyph glyph-name="egrave.sc" horiz-adv-x="509" 
d="M466 0h-381v546h371v-64h-283v-168h270v-64h-270v-185h293v-65zM340 631h-63l-139 145h108z" />
    <glyph glyph-name="eacute.sc" horiz-adv-x="509" 
d="M466 0h-381v546h371v-64h-283v-168h270v-64h-270v-185h293v-65zM390 776l-139 -145h-64l95 145h108z" />
    <glyph glyph-name="ecircumflex.sc" horiz-adv-x="509" 
d="M466 0h-381v546h371v-64h-283v-168h270v-64h-270v-185h293v-65zM422 631h-64l-86 99l-88 -99h-64l105 146h94z" />
    <glyph glyph-name="ecaron.sc" horiz-adv-x="509" 
d="M466 0h-381v546h371v-64h-283v-168h270v-64h-270v-185h293v-65zM421 776l-102 -145h-99l-103 145h64l90 -99l86 99h64z" />
    <glyph glyph-name="edieresis.sc" horiz-adv-x="509" 
d="M466 0h-381v546h371v-64h-283v-168h270v-64h-270v-185h293v-65zM414 676h-93v88h93v-88zM223 676h-93v88h93v-88z" />
    <glyph glyph-name="emacron.sc" horiz-adv-x="509" 
d="M466 0h-381v546h371v-64h-283v-168h270v-64h-270v-185h293v-65zM408 676h-274v61h274v-61z" />
    <glyph glyph-name="ebreve.sc" horiz-adv-x="509" 
d="M466 0h-381v546h371v-64h-283v-168h270v-64h-270v-185h293v-65zM423 754c-9 -79 -66 -123 -152 -123c-82 0 -149 43 -151 123h45c9 -48 63 -68 106 -68c48 0 92 18 109 68h43z" />
    <glyph glyph-name="edotaccent.sc" horiz-adv-x="509" 
d="M466 0h-381v546h371v-64h-283v-168h270v-64h-270v-185h293v-65zM319 676h-93v88h93v-88z" />
    <glyph glyph-name="eogonek.sc" horiz-adv-x="509" 
d="M466 0c-75 -34 -109 -58 -109 -97c0 -33 29 -48 60 -48c14 0 28 4 42 10l6 -32c-25 -12 -51 -19 -79 -19c-43 0 -95 19 -95 70c0 56 59 94 118 116h-324v546h371v-64h-283v-168h270v-64h-270v-185h293v-65z" />
    <glyph glyph-name="gcircumflex.sc" horiz-adv-x="598" 
d="M534 23c-59 -20 -142 -32 -211 -32c-191 0 -276 120 -276 283c0 159 92 283 272 283c111 0 197 -48 210 -157h-88c-11 62 -58 92 -127 92c-125 0 -177 -105 -177 -217c0 -117 48 -219 191 -219c39 0 83 5 121 17v152h-135v62h220v-264zM461 631h-64l-86 99l-88 -99h-64
l105 146h94z" />
    <glyph glyph-name="gbreve.sc" horiz-adv-x="598" 
d="M534 23c-59 -20 -142 -32 -211 -32c-191 0 -276 120 -276 283c0 159 92 283 272 283c111 0 197 -48 210 -157h-88c-11 62 -58 92 -127 92c-125 0 -177 -105 -177 -217c0 -117 48 -219 191 -219c39 0 83 5 121 17v152h-135v62h220v-264zM460 754
c-9 -79 -66 -123 -152 -123c-82 0 -149 43 -151 123h45c9 -48 63 -68 106 -68c48 0 92 18 109 68h43z" />
    <glyph glyph-name="gdotaccent.sc" horiz-adv-x="598" 
d="M534 23c-59 -20 -142 -32 -211 -32c-191 0 -276 120 -276 283c0 159 92 283 272 283c111 0 197 -48 210 -157h-88c-11 62 -58 92 -127 92c-125 0 -177 -105 -177 -217c0 -117 48 -219 191 -219c39 0 83 5 121 17v152h-135v62h220v-264zM356 676h-93v88h93v-88z" />
    <glyph glyph-name="gcommaaccent.sc" horiz-adv-x="598" 
d="M534 23c-59 -20 -142 -32 -211 -32c-191 0 -276 120 -276 283c0 159 92 283 272 283c111 0 197 -48 210 -157h-88c-11 62 -58 92 -127 92c-125 0 -177 -105 -177 -217c0 -117 48 -219 191 -219c39 0 83 5 121 17v152h-135v62h220v-264zM351 -33l-64 -167h-63l39 167h88z
" />
    <glyph glyph-name="hcircumflex.sc" horiz-adv-x="633" 
d="M548 0h-88v249h-287v-249h-88v546h88v-231h287v231h88v-546zM467 631h-64l-86 99l-88 -99h-64l105 146h94z" />
    <glyph glyph-name="hbar.sc" horiz-adv-x="631" 
d="M548 0h-88v249h-287v-249h-88v546h88v-111h287v111h88v-546zM173 315h287v58h-287v-58z" />
    <glyph glyph-name="igrave.sc" horiz-adv-x="258" 
d="M173 0h-88v546h88v-546zM188 631h-63l-139 145h108z" />
    <glyph glyph-name="iacute.sc" horiz-adv-x="258" 
d="M173 0h-88v546h88v-546zM281 776l-139 -145h-64l95 145h108z" />
    <glyph glyph-name="ibreve.sc" horiz-adv-x="258" 
d="M173 0h-88v546h88v-546zM280 754c-9 -79 -66 -123 -152 -123c-82 0 -149 43 -151 123h45c9 -48 63 -68 106 -68c48 0 92 18 109 68h43z" />
    <glyph glyph-name="icircumflex.sc" horiz-adv-x="258" 
d="M173 0h-88v546h88v-546zM280 631h-64l-86 99l-88 -99h-64l105 146h94z" />
    <glyph glyph-name="itilde.sc" horiz-adv-x="258" 
d="M173 0h-88v546h88v-546zM284 756c-9 -48 -43 -96 -96 -96c-41 0 -77 24 -118 24c-23 0 -39 -8 -48 -30h-47c9 53 45 94 101 94c40 0 75 -24 115 -24c23 0 37 10 45 32h48z" />
    <glyph glyph-name="idieresis.sc" horiz-adv-x="258" 
d="M173 0h-88v546h88v-546zM271 676h-93v88h93v-88zM80 676h-93v88h93v-88z" />
    <glyph glyph-name="imacron.sc" horiz-adv-x="258" 
d="M173 0h-88v546h88v-546zM267 676h-274v61h274v-61z" />
    <glyph glyph-name="idotaccent.sc" horiz-adv-x="258" 
d="M173 0h-88v546h88v-546zM176 676h-93v88h93v-88z" />
    <glyph glyph-name="iogonek.sc" horiz-adv-x="258" 
d="M173 0c-75 -34 -109 -58 -109 -97c0 -33 29 -48 60 -48c14 0 28 4 42 10l6 -32c-25 -12 -51 -19 -79 -19c-43 0 -95 19 -95 70c0 56 59 94 118 116h-31v546h88v-546z" />
    <glyph glyph-name="jcircumflex.sc" horiz-adv-x="442" 
d="M368 163c0 -108 -60 -174 -183 -174c-91 0 -172 45 -172 135c0 9 0 13 1 21h91c-1 -9 -1 -12 -1 -19c0 -47 33 -70 82 -70c71 0 94 46 94 108v382h88v-383zM475 631h-64l-86 99l-88 -99h-64l105 146h94z" />
    <glyph glyph-name="kcommaaccent.sc" horiz-adv-x="548" 
d="M173 546v-546h-88v546h88zM175 296l233 250h109l-245 -246l271 -300h-113zM345 -33l-64 -167h-63l39 167h88z" />
    <glyph glyph-name="lacute.sc" horiz-adv-x="472" 
d="M456 0h-371v546h88v-481h283v-65zM297 776l-139 -145h-64l95 145h108z" />
    <glyph glyph-name="lcaron.sc" horiz-adv-x="472" 
d="M456 0h-371v546h88v-481h283v-65zM409 546l-60 -225h-65l27 225h98z" />
    <glyph glyph-name="lcommaaccent.sc" horiz-adv-x="472" 
d="M456 0h-371v546h88v-481h283v-65zM325 -33l-64 -167h-63l39 167h88z" />
    <glyph glyph-name="lslash.sc" horiz-adv-x="472" 
d="M335 358l-162 -89v-204h283v-65h-371v223l-54 -29v60l54 29v263h88v-217l162 89v-60z" />
    <glyph glyph-name="ldot.sc" horiz-adv-x="472" 
d="M456 0h-371v546h88v-481h283v-65zM409 243h-93v88h93v-88z" />
    <glyph glyph-name="nacute.sc" horiz-adv-x="637" 
d="M552 0h-112l-277 454v-454h-78v546h111l277 -454v454h79v-546zM452 776l-139 -145h-64l95 145h108z" />
    <glyph glyph-name="ncaron.sc" horiz-adv-x="637" 
d="M552 0h-112l-277 454v-454h-78v546h111l277 -454v454h79v-546zM469 776l-102 -145h-99l-103 145h64l90 -99l86 99h64z" />
    <glyph glyph-name="ntilde.sc" horiz-adv-x="637" 
d="M552 0h-112l-277 454v-454h-78v546h111l277 -454v454h79v-546zM472 756c-9 -48 -43 -96 -96 -96c-41 0 -77 24 -118 24c-23 0 -39 -8 -48 -30h-47c9 53 45 94 101 94c40 0 75 -24 115 -24c23 0 37 10 45 32h48z" />
    <glyph glyph-name="ncommaaccent.sc" horiz-adv-x="637" 
d="M552 0h-112l-277 454v-454h-78v546h111l277 -454v454h79v-546zM380 -33l-64 -167h-63l39 167h88z" />
    <glyph glyph-name="ograve.sc" horiz-adv-x="625" 
d="M578 274c0 -152 -87 -285 -265 -285s-266 131 -266 285c0 153 87 283 268 283c183 0 263 -128 263 -283zM488 275c0 108 -44 217 -175 217c-128 0 -176 -112 -176 -217s46 -220 176 -220c129 0 175 116 175 220zM380 631h-63l-139 145h108z" />
    <glyph glyph-name="oacute.sc" horiz-adv-x="625" 
d="M578 274c0 -152 -87 -285 -265 -285s-266 131 -266 285c0 153 87 283 268 283c183 0 263 -128 263 -283zM488 275c0 108 -44 217 -175 217c-128 0 -176 -112 -176 -217s46 -220 176 -220c129 0 175 116 175 220zM445 776l-139 -145h-64l95 145h108z" />
    <glyph glyph-name="ocircumflex.sc" horiz-adv-x="625" 
d="M578 274c0 -152 -87 -285 -265 -285s-266 131 -266 285c0 153 87 283 268 283c183 0 263 -128 263 -283zM488 275c0 108 -44 217 -175 217c-128 0 -176 -112 -176 -217s46 -220 176 -220c129 0 175 116 175 220zM463 631h-64l-86 99l-88 -99h-64l105 146h94z" />
    <glyph glyph-name="otilde.sc" horiz-adv-x="625" 
d="M578 274c0 -152 -87 -285 -265 -285s-266 131 -266 285c0 153 87 283 268 283c183 0 263 -128 263 -283zM488 275c0 108 -44 217 -175 217c-128 0 -176 -112 -176 -217s46 -220 176 -220c129 0 175 116 175 220zM467 756c-9 -48 -43 -96 -96 -96c-41 0 -77 24 -118 24
c-23 0 -39 -8 -48 -30h-47c9 53 45 94 101 94c40 0 75 -24 115 -24c23 0 37 10 45 32h48z" />
    <glyph glyph-name="odieresis.sc" horiz-adv-x="625" 
d="M578 274c0 -152 -87 -285 -265 -285s-266 131 -266 285c0 153 87 283 268 283c183 0 263 -128 263 -283zM488 275c0 108 -44 217 -175 217c-128 0 -176 -112 -176 -217s46 -220 176 -220c129 0 175 116 175 220zM454 676h-93v88h93v-88zM263 676h-93v88h93v-88z" />
    <glyph glyph-name="omacron.sc" horiz-adv-x="625" 
d="M578 274c0 -152 -87 -285 -265 -285s-266 131 -266 285c0 153 87 283 268 283c183 0 263 -128 263 -283zM488 275c0 108 -44 217 -175 217c-128 0 -176 -112 -176 -217s46 -220 176 -220c129 0 175 116 175 220zM450 676h-274v61h274v-61z" />
    <glyph glyph-name="obreve.sc" horiz-adv-x="625" 
d="M578 274c0 -152 -87 -285 -265 -285s-266 131 -266 285c0 153 87 283 268 283c183 0 263 -128 263 -283zM488 275c0 108 -44 217 -175 217c-128 0 -176 -112 -176 -217s46 -220 176 -220c129 0 175 116 175 220zM464 754c-9 -79 -66 -123 -152 -123
c-82 0 -149 43 -151 123h45c9 -48 63 -68 106 -68c48 0 92 18 109 68h43z" />
    <glyph glyph-name="ohungarumlaut.sc" horiz-adv-x="625" 
d="M578 274c0 -152 -87 -285 -265 -285s-266 131 -266 285c0 153 87 283 268 283c183 0 263 -128 263 -283zM488 275c0 108 -44 217 -175 217c-128 0 -176 -112 -176 -217s46 -220 176 -220c129 0 175 116 175 220zM557 776l-142 -143h-66l100 143h108zM383 776l-142 -143
h-66l99 143h109z" />
    <glyph glyph-name="oslash.sc" horiz-adv-x="625" 
d="M70 -28l-36 33l72 77c-39 51 -59 119 -59 192c0 153 87 283 268 283c77 0 136 -23 179 -61l65 69l36 -32l-69 -74c35 -50 52 -115 52 -185c0 -152 -87 -285 -265 -285c-73 0 -130 22 -173 58zM137 275c0 -45 8 -92 28 -130l274 292c-27 33 -68 55 -126 55
c-128 0 -176 -112 -176 -217zM488 275c0 42 -7 84 -23 119l-272 -290c28 -30 67 -49 120 -49c129 0 175 116 175 220z" />
    <glyph glyph-name="oe.sc" horiz-adv-x="808" 
d="M764 0h-255c-26 0 -64 -1 -83 -2c-17 -1 -51 -3 -78 -3c-197 0 -301 88 -301 277c0 185 114 279 299 279c27 0 54 -1 82 -3c22 -2 45 -2 70 -2h256v-64h-253v-168h240v-64h-240v-185h263v-65zM414 62v422c-21 2 -48 4 -68 4c-137 0 -209 -79 -209 -218
c0 -135 62 -211 209 -211c21 0 50 1 68 3z" />
    <glyph glyph-name="racute.sc" horiz-adv-x="562" 
d="M517 0h-94c-15 32 -22 65 -26 117c-8 96 -22 126 -104 126h-120v-243h-88v546h221c116 0 193 -43 193 -137c0 -70 -37 -112 -108 -133c64 -12 85 -48 92 -137c4 -55 11 -99 34 -139zM413 398c0 62 -48 85 -122 85h-118v-178h120c73 0 120 28 120 93zM416 776l-139 -145
h-64l95 145h108z" />
    <glyph glyph-name="rcaron.sc" horiz-adv-x="562" 
d="M517 0h-94c-15 32 -22 65 -26 117c-8 96 -22 126 -104 126h-120v-243h-88v546h221c116 0 193 -43 193 -137c0 -70 -37 -112 -108 -133c64 -12 85 -48 92 -137c4 -55 11 -99 34 -139zM413 398c0 62 -48 85 -122 85h-118v-178h120c73 0 120 28 120 93zM431 776l-102 -145
h-99l-103 145h64l90 -99l86 99h64z" />
    <glyph glyph-name="rcommaaccent.sc" horiz-adv-x="562" 
d="M517 0h-94c-15 32 -22 65 -26 117c-8 96 -22 126 -104 126h-120v-243h-88v546h221c116 0 193 -43 193 -137c0 -70 -37 -112 -108 -133c64 -12 85 -48 92 -137c4 -55 11 -99 34 -139zM413 398c0 62 -48 85 -122 85h-118v-178h120c73 0 120 28 120 93zM344 -33l-64 -167
h-63l39 167h88z" />
    <glyph glyph-name="sacute.sc" horiz-adv-x="523" 
d="M475 149c0 -110 -97 -160 -219 -160c-120 0 -210 55 -213 166h89c2 -56 45 -102 128 -102c71 0 127 28 127 91c0 45 -26 67 -118 92l-51 14c-100 27 -160 69 -160 156c0 100 91 151 204 151c110 0 199 -42 201 -143h-88c-3 58 -54 81 -114 81c-68 0 -116 -30 -116 -84
c0 -45 41 -70 111 -89l51 -14c130 -36 168 -83 168 -159zM396 776l-139 -145h-64l95 145h108z" />
    <glyph glyph-name="scircumflex.sc" horiz-adv-x="523" 
d="M475 149c0 -110 -97 -160 -219 -160c-120 0 -210 55 -213 166h89c2 -56 45 -102 128 -102c71 0 127 28 127 91c0 45 -26 67 -118 92l-51 14c-100 27 -160 69 -160 156c0 100 91 151 204 151c110 0 199 -42 201 -143h-88c-3 58 -54 81 -114 81c-68 0 -116 -30 -116 -84
c0 -45 41 -70 111 -89l51 -14c130 -36 168 -83 168 -159zM414 631h-64l-86 99l-88 -99h-64l105 146h94z" />
    <glyph glyph-name="scaron.sc" horiz-adv-x="523" 
d="M475 149c0 -110 -97 -160 -219 -160c-120 0 -210 55 -213 166h89c2 -56 45 -102 128 -102c71 0 127 28 127 91c0 45 -26 67 -118 92l-51 14c-100 27 -160 69 -160 156c0 100 91 151 204 151c110 0 199 -42 201 -143h-88c-3 58 -54 81 -114 81c-68 0 -116 -30 -116 -84
c0 -45 41 -70 111 -89l51 -14c130 -36 168 -83 168 -159zM413 776l-102 -145h-99l-103 145h64l90 -99l86 99h64z" />
    <glyph glyph-name="scedilla.sc" horiz-adv-x="523" 
d="M361 -119c0 -58 -62 -73 -109 -73c-37 0 -73 9 -108 23l8 33c30 -14 62 -24 94 -24c26 0 50 8 50 37s-23 38 -49 38c-11 0 -21 -1 -33 -4v20l22 59c-110 5 -190 60 -193 165h89c2 -56 45 -102 128 -102c71 0 127 28 127 91c0 45 -26 67 -118 92l-51 14
c-100 27 -160 69 -160 156c0 100 91 151 204 151c110 0 199 -42 201 -143h-88c-3 58 -54 81 -114 81c-68 0 -116 -30 -116 -84c0 -45 41 -70 111 -89l51 -14c130 -36 168 -83 168 -159c0 -107 -91 -157 -208 -160l-13 -41h13c44 0 94 -13 94 -67z" />
    <glyph glyph-name="scommaaccent.sc" horiz-adv-x="523" 
d="M475 149c0 -110 -97 -160 -219 -160c-120 0 -210 55 -213 166h89c2 -56 45 -102 128 -102c71 0 127 28 127 91c0 45 -26 67 -118 92l-51 14c-100 27 -160 69 -160 156c0 100 91 151 204 151c110 0 199 -42 201 -143h-88c-3 58 -54 81 -114 81c-68 0 -116 -30 -116 -84
c0 -45 41 -70 111 -89l51 -14c130 -36 168 -83 168 -159zM315 -33l-64 -167h-63l39 167h88z" />
    <glyph glyph-name="tcaron.sc" horiz-adv-x="475" 
d="M465 481h-184v-481h-88v481h-183v65h455v-65zM389 776l-102 -145h-99l-103 145h64l90 -99l86 99h64z" />
    <glyph glyph-name="tcommaaccent.sc" horiz-adv-x="475" 
d="M465 481h-184v-481h-88v481h-183v65h455v-65zM283 -33l-64 -167h-63l39 167h88z" />
    <glyph glyph-name="tbar.sc" horiz-adv-x="475" 
d="M193 0v250h-159v62h159v169h-183v65h455v-65h-184v-169h159v-62h-159v-250h-88z" />
    <glyph glyph-name="thorn.sc" horiz-adv-x="520" 
d="M173 442h102c51 0 103 -6 144 -30c45 -26 70 -70 70 -133s-30 -113 -81 -138c-36 -18 -90 -27 -142 -27h-93v-114h-88v546h88v-104zM400 282c0 38 -11 60 -36 77c-22 15 -57 20 -99 20h-92v-201h73c39 0 80 3 108 19c29 16 46 44 46 85z" />
    <glyph glyph-name="ugrave.sc" horiz-adv-x="623" 
d="M549 214c0 -146 -77 -225 -239 -225c-150 0 -236 64 -236 225v332h90v-331c0 -92 32 -160 148 -160c114 0 149 66 149 162v329h88v-332zM383 631h-63l-139 145h108z" />
    <glyph glyph-name="uacute.sc" horiz-adv-x="623" 
d="M549 214c0 -146 -77 -225 -239 -225c-150 0 -236 64 -236 225v332h90v-331c0 -92 32 -160 148 -160c114 0 149 66 149 162v329h88v-332zM453 776l-139 -145h-64l95 145h108z" />
    <glyph glyph-name="ucircumflex.sc" horiz-adv-x="623" 
d="M549 214c0 -146 -77 -225 -239 -225c-150 0 -236 64 -236 225v332h90v-331c0 -92 32 -160 148 -160c114 0 149 66 149 162v329h88v-332zM462 631h-64l-86 99l-88 -99h-64l105 146h94z" />
    <glyph glyph-name="utilde.sc" horiz-adv-x="623" 
d="M549 214c0 -146 -77 -225 -239 -225c-150 0 -236 64 -236 225v332h90v-331c0 -92 32 -160 148 -160c114 0 149 66 149 162v329h88v-332zM466 756c-9 -48 -43 -96 -96 -96c-41 0 -77 24 -118 24c-23 0 -39 -8 -48 -30h-47c9 53 45 94 101 94c40 0 75 -24 115 -24
c23 0 37 10 45 32h48z" />
    <glyph glyph-name="udieresis.sc" horiz-adv-x="623" 
d="M549 214c0 -146 -77 -225 -239 -225c-150 0 -236 64 -236 225v332h90v-331c0 -92 32 -160 148 -160c114 0 149 66 149 162v329h88v-332zM453 676h-93v88h93v-88zM262 676h-93v88h93v-88z" />
    <glyph glyph-name="umacron.sc" horiz-adv-x="623" 
d="M549 214c0 -146 -77 -225 -239 -225c-150 0 -236 64 -236 225v332h90v-331c0 -92 32 -160 148 -160c114 0 149 66 149 162v329h88v-332zM449 676h-274v61h274v-61z" />
    <glyph glyph-name="ubreve.sc" horiz-adv-x="623" 
d="M549 214c0 -146 -77 -225 -239 -225c-150 0 -236 64 -236 225v332h90v-331c0 -92 32 -160 148 -160c114 0 149 66 149 162v329h88v-332zM463 754c-9 -79 -66 -123 -152 -123c-82 0 -149 43 -151 123h45c9 -48 63 -68 106 -68c48 0 92 18 109 68h43z" />
    <glyph glyph-name="uring.sc" horiz-adv-x="623" 
d="M549 214c0 -146 -77 -225 -239 -225c-150 0 -236 64 -236 225v332h90v-331c0 -92 32 -160 148 -160c114 0 149 66 149 162v329h88v-332zM405 706c0 -53 -41 -93 -94 -93s-94 40 -94 93s41 93 94 93s94 -40 94 -93zM364 706c0 33 -20 57 -53 57s-53 -24 -53 -57
s20 -57 53 -57s53 24 53 57z" />
    <glyph glyph-name="uhungarumlaut.sc" horiz-adv-x="623" 
d="M549 214c0 -146 -77 -225 -239 -225c-150 0 -236 64 -236 225v332h90v-331c0 -92 32 -160 148 -160c114 0 149 66 149 162v329h88v-332zM536 776l-142 -143h-66l100 143h108zM362 776l-142 -143h-66l99 143h109z" />
    <glyph glyph-name="uogonek.sc" horiz-adv-x="623" 
d="M549 214c0 -125 -57 -201 -175 -220c-65 -31 -95 -54 -95 -91c0 -33 29 -48 60 -48c14 0 28 4 42 10l6 -32c-25 -12 -51 -19 -79 -19c-43 0 -95 19 -95 70c0 48 42 82 91 105c-146 2 -230 66 -230 225v332h90v-331c0 -92 32 -160 148 -160c114 0 149 66 149 162v329h88
v-332z" />
    <glyph glyph-name="wacute.sc" horiz-adv-x="854" 
d="M839 546l-158 -546h-100l-154 461l-153 -461h-101l-157 546h91l122 -464l150 464h98l153 -464l121 464h88zM587 776l-139 -145h-64l95 145h108z" />
    <glyph glyph-name="wcircumflex.sc" horiz-adv-x="854" 
d="M839 546l-158 -546h-100l-154 461l-153 -461h-101l-157 546h91l122 -464l150 464h98l153 -464l121 464h88zM578 631h-64l-86 99l-88 -99h-64l105 146h94z" />
    <glyph glyph-name="wdieresis.sc" horiz-adv-x="854" 
d="M839 546l-158 -546h-100l-154 461l-153 -461h-101l-157 546h91l122 -464l150 464h98l153 -464l121 464h88zM570 676h-93v88h93v-88zM379 676h-93v88h93v-88z" />
    <glyph glyph-name="wgrave.sc" horiz-adv-x="854" 
d="M839 546l-158 -546h-100l-154 461l-153 -461h-101l-157 546h91l122 -464l150 464h98l153 -464l121 464h88zM475 631h-63l-139 145h108z" />
    <glyph glyph-name="yacute.sc" horiz-adv-x="518" 
d="M527 546l-223 -318v-228h-88v228l-225 318h104l167 -253l168 253h97zM403 776l-139 -145h-64l95 145h108z" />
    <glyph glyph-name="ycircumflex.sc" horiz-adv-x="518" 
d="M527 546l-223 -318v-228h-88v228l-225 318h104l167 -253l168 253h97zM413 631h-64l-86 99l-88 -99h-64l105 146h94z" />
    <glyph glyph-name="ydieresis.sc" horiz-adv-x="518" 
d="M527 546l-223 -318v-228h-88v228l-225 318h104l167 -253l168 253h97zM404 676h-93v88h93v-88zM213 676h-93v88h93v-88z" />
    <glyph glyph-name="ygrave.sc" horiz-adv-x="518" 
d="M527 546l-223 -318v-228h-88v228l-225 318h104l167 -253l168 253h97zM324 631h-63l-139 145h108z" />
    <glyph glyph-name="zacute.sc" horiz-adv-x="487" 
d="M466 0h-445v67l329 415h-307v64h413v-63l-336 -419h346v-64zM386 776l-139 -145h-64l95 145h108z" />
    <glyph glyph-name="zcaron.sc" horiz-adv-x="487" 
d="M466 0h-445v67l329 415h-307v64h413v-63l-336 -419h346v-64zM413 776l-102 -145h-99l-103 145h64l90 -99l86 99h64z" />
    <glyph glyph-name="zdotaccent.sc" horiz-adv-x="487" 
d="M466 0h-445v67l329 415h-307v64h413v-63l-336 -419h346v-64zM308 676h-93v88h93v-88z" />
    <glyph glyph-name="ij.sc" horiz-adv-x="700" 
d="M173 0h-88v546h88v-546zM626 163c0 -108 -60 -174 -183 -174c-91 0 -172 45 -172 135c0 9 0 13 1 21h91c-1 -9 -1 -12 -1 -19c0 -47 33 -70 82 -70c71 0 94 46 94 108v382h88v-383z" />
    <glyph glyph-name="germandbls.sc" horiz-adv-x="1046" 
d="M998 149c0 -110 -97 -160 -219 -160c-120 0 -210 55 -213 166h89c2 -56 45 -102 128 -102c71 0 127 28 127 91c0 45 -26 67 -118 92l-51 14c-100 27 -160 69 -160 156c0 100 91 151 204 151c110 0 199 -42 201 -143h-88c-3 58 -54 81 -114 81c-68 0 -116 -30 -116 -84
c0 -45 41 -70 111 -89l51 -14c130 -36 168 -83 168 -159zM475 149c0 -110 -97 -160 -219 -160c-120 0 -210 55 -213 166h89c2 -56 45 -102 128 -102c71 0 127 28 127 91c0 45 -26 67 -118 92l-51 14c-100 27 -160 69 -160 156c0 100 91 151 204 151c110 0 199 -42 201 -143
h-88c-3 58 -54 81 -114 81c-68 0 -116 -30 -116 -84c0 -45 41 -70 111 -89l51 -14c130 -36 168 -83 168 -159z" />
    <glyph glyph-name="eng.sc" horiz-adv-x="637" 
d="M474 -40v32l-311 465v-457h-78v546h109l280 -421v421h78v-584c0 -113 -50 -148 -144 -148c-14 0 -35 1 -49 3v65c13 -2 24 -3 34 -3c55 0 81 20 81 81z" />
    <glyph glyph-name="grave.sc" horiz-adv-x="300" 
d="M216 631h-63l-139 145h108z" />
    <glyph glyph-name="acute.sc" horiz-adv-x="301" 
d="M287 776l-139 -145h-64l95 145h108z" />
    <glyph glyph-name="circumflex.sc" horiz-adv-x="300" 
d="M301 631h-64l-86 99l-88 -99h-64l105 146h94z" />
    <glyph glyph-name="caron.sc" horiz-adv-x="300" 
d="M302 776l-102 -145h-99l-103 145h64l90 -99l86 99h64z" />
    <glyph glyph-name="tilde.sc" horiz-adv-x="301" 
d="M305 756c-9 -48 -43 -96 -96 -96c-41 0 -77 24 -118 24c-23 0 -39 -8 -48 -30h-47c9 53 45 94 101 94c40 0 75 -24 115 -24c23 0 37 10 45 32h48z" />
    <glyph glyph-name="dieresis.sc" horiz-adv-x="300" 
d="M292 676h-93v88h93v-88zM101 676h-93v88h93v-88z" />
    <glyph glyph-name="macron.sc" horiz-adv-x="300" 
d="M287 676h-274v61h274v-61z" />
    <glyph glyph-name="breve.sc" horiz-adv-x="301" 
d="M301 754c-9 -79 -66 -123 -152 -123c-82 0 -149 43 -151 123h45c9 -48 63 -68 106 -68c48 0 92 18 109 68h43z" />
    <glyph glyph-name="ring.sc" horiz-adv-x="300" 
d="M244 706c0 -53 -41 -93 -94 -93s-94 40 -94 93s41 93 94 93s94 -40 94 -93zM203 706c0 33 -20 57 -53 57s-53 -24 -53 -57s20 -57 53 -57s53 24 53 57z" />
    <glyph glyph-name="hungarumlaut.sc" horiz-adv-x="300" 
d="M377 776l-142 -143h-66l100 143h108zM203 776l-142 -143h-66l99 143h109z" />
    <glyph glyph-name="dotaccent.sc" horiz-adv-x="301" 
d="M197 676h-93v88h93v-88z" />
    <glyph glyph-name="exclamdown.sc" horiz-adv-x="262" 
d="M82 0l15 401h68l14 -401h-97zM84 546h95v-96h-95v96z" />
    <glyph glyph-name="questiondown.sc" horiz-adv-x="436" 
d="M69 124c0 57 30 100 118 171c31 25 37 35 37 69v37h76v-43c0 -49 -14 -67 -59 -106c-63 -53 -84 -81 -84 -122c0 -52 50 -80 114 -80c28 0 54 3 86 12v-63c-34 -6 -67 -10 -98 -10c-99 0 -190 32 -190 135zM214 546h94v-96h-94v96z" />
    <glyph glyph-name="Euro.sc" horiz-adv-x="491" 
d="M373 203h-188c7 -83 37 -151 141 -151c50 0 88 19 120 46v-79c-30 -19 -67 -30 -123 -30c-152 0 -209 85 -222 214h-72l15 51h54v52h-65l14 51h56c19 123 97 200 221 200c75 0 118 -26 138 -39l-19 -69c-22 21 -60 45 -117 45c-81 0 -128 -48 -140 -137h227l-13 -51h-217
v-52h204z" />
    <glyph glyph-name="cent.sc" horiz-adv-x="491" 
d="M363 541l-25 -80c60 -20 94 -66 99 -127h-84c-2 32 -13 55 -33 68l-84 -275c7 -2 15 -2 24 -2c66 0 89 40 95 89h84c-4 -94 -81 -144 -180 -144c-14 0 -27 0 -40 2l-25 -81l-41 11l25 81c-73 25 -119 88 -119 185c0 117 70 204 204 204c12 0 23 -1 34 -2l24 82zM146 270
c0 -61 16 -105 50 -128l83 274c-6 0 -12 1 -18 1c-88 0 -115 -73 -115 -147z" />
    <glyph glyph-name="sterling.sc" horiz-adv-x="491" 
d="M460 419h-84c-3 56 -35 79 -85 79c-83 0 -104 -53 -104 -140v-32h128v-57h-128v-208h254v-61h-388v61h49v208h-61v57h61v33c0 105 45 199 190 199c97 0 165 -40 168 -139z" />
    <glyph glyph-name="florin.sc" horiz-adv-x="491" 
d="M152 -8l59 298h-78l13 57h77l12 60c19 95 45 150 129 150c20 0 43 -3 65 -8l-11 -62c-12 4 -25 6 -37 6c-31 0 -51 -18 -62 -76l-14 -70h86l-11 -57h-86l-53 -274c-20 -102 -50 -148 -134 -148c-16 0 -34 2 -53 7l13 60c11 -2 21 -3 28 -3c32 0 48 17 57 60z" />
    <glyph glyph-name="yen.sc" horiz-adv-x="491" 
d="M486 546l-175 -281h118v-51h-143v-52h143v-51h-143v-111h-82v111h-143v51h143v52h-143v51h120l-176 281h97l147 -258l150 258h87z" />
    <glyph glyph-name="perthousand.sc" horiz-adv-x="833" 
d="M487 568l-349 -587h-66l352 587h63zM263 430c0 -70 -39 -126 -116 -126c-78 0 -117 56 -117 126c0 69 39 126 117 126c77 0 116 -57 116 -126zM206 430c0 48 -22 79 -59 79s-59 -31 -59 -79s22 -80 59 -80s59 32 59 80zM531 119c0 -69 -38 -126 -116 -126
s-117 57 -117 126s39 127 117 127s116 -58 116 -127zM474 119c0 49 -22 80 -59 80s-59 -31 -59 -80c0 -48 22 -80 59 -80s59 32 59 80zM805 119c0 -69 -38 -126 -116 -126s-117 57 -117 126s39 127 117 127s116 -58 116 -127zM748 119c0 49 -22 80 -59 80s-59 -31 -59 -80
c0 -48 22 -80 59 -80s59 32 59 80z" />
    <glyph glyph-name="zero.onum" 
d="M548 276c0 -160 -94 -287 -258 -287c-165 0 -259 127 -259 287s94 286 259 286c164 0 258 -126 258 -286zM453 276c0 121 -52 217 -163 217c-112 0 -164 -96 -164 -217s52 -218 164 -218c111 0 163 97 163 218z" />
    <glyph glyph-name="one.onum" 
d="M383 0h-89v464c-48 -36 -125 -72 -187 -90v75c64 21 133 53 196 103h80v-552z" />
    <glyph glyph-name="two.onum" 
d="M513 0h-459v74l180 117c142 92 177 147 177 201c0 60 -40 103 -119 103c-80 0 -133 -47 -133 -123h-94c2 126 101 191 229 191c119 0 210 -58 210 -167c0 -92 -72 -167 -212 -254l-109 -68h330v-74z" />
    <glyph glyph-name="three.onum" 
d="M523 45c0 -130 -111 -203 -240 -203c-128 0 -222 60 -230 201h92c2 -88 63 -132 138 -132c84 0 147 44 147 140c0 85 -59 131 -152 131c-14 0 -28 -1 -42 -3v72c13 -2 26 -3 39 -3c81 0 140 44 140 126c0 76 -48 120 -127 120s-128 -41 -133 -125h-92
c3 125 106 194 224 194c117 0 220 -55 220 -185c0 -77 -47 -138 -126 -160c85 -18 142 -75 142 -173z" />
    <glyph glyph-name="four.onum" 
d="M551 0h-110v-147h-87v147h-319v88l297 464h109v-483h110v-69zM355 68v397l-248 -397h248z" />
    <glyph glyph-name="five.onum" 
d="M523 85c0 -149 -93 -243 -232 -243c-122 0 -220 48 -223 184h94c3 -79 56 -116 129 -116c96 0 140 78 140 175c0 93 -35 165 -128 165c-64 0 -118 -39 -133 -105h-91l16 407h397v-71h-314l-12 -240c39 53 86 77 153 77c136 0 204 -97 204 -233z" />
    <glyph glyph-name="six.onum" 
d="M531 231c0 -136 -93 -242 -228 -242c-204 0 -249 177 -249 350c0 195 56 384 254 384c141 0 208 -80 211 -182h-93c-6 76 -46 115 -120 115c-136 0 -165 -172 -165 -304c37 77 99 112 181 112c133 0 209 -99 209 -233zM443 231c0 89 -40 168 -137 168
c-101 0 -150 -79 -150 -172c0 -88 52 -167 145 -167c96 0 142 79 142 171z" />
    <glyph glyph-name="seven.onum" 
d="M511 471l-262 -618h-102l280 624h-372v75h456v-81z" />
    <glyph glyph-name="eight.onum" 
d="M531 198c0 -139 -115 -209 -240 -209c-122 0 -243 56 -243 200c0 100 65 161 151 183c-65 14 -137 60 -137 159c0 135 115 192 230 192c111 0 226 -54 226 -185c0 -89 -53 -144 -137 -165c64 -16 150 -68 150 -175zM430 532c0 83 -61 126 -138 126
c-78 0 -142 -43 -142 -129c0 -85 64 -124 141 -124c74 0 139 46 139 127zM442 198c0 93 -71 140 -154 140s-150 -51 -150 -140s65 -143 149 -143c83 0 155 54 155 143z" />
    <glyph glyph-name="nine.onum" 
d="M523 231c0 -183 -39 -389 -249 -389c-130 0 -212 60 -218 182h96c4 -71 43 -111 123 -111c146 0 159 158 163 310c-38 -72 -90 -109 -173 -109c-130 0 -211 91 -211 222c0 129 91 227 231 227c184 0 238 -142 238 -332zM423 341c0 88 -48 152 -137 152
c-92 0 -143 -68 -143 -155s42 -155 134 -155c95 0 146 66 146 158z" />
    <glyph glyph-name="onethird" unicode="&#x2153;" horiz-adv-x="915" 
d="M693 753l-431 -779h-71l433 779h69zM882 116c0 -82 -72 -122 -155 -122c-82 0 -146 37 -150 126h65c1 -51 41 -75 87 -75c51 0 87 26 87 76s-42 72 -92 72c-9 0 -20 -1 -29 -3v54c9 -1 19 -2 29 -2c47 0 86 19 86 69c0 46 -34 66 -80 66c-43 0 -77 -21 -81 -71h-66
c2 81 74 121 148 121c73 0 144 -34 144 -115c0 -48 -29 -77 -73 -94c49 -14 80 -47 80 -102zM242 303h-66v351c-31 -24 -59 -40 -96 -55v58c47 18 67 32 105 66h57v-420z" />
    <glyph glyph-name="oneeighth" unicode="&#x215b;" horiz-adv-x="915" 
d="M693 753l-431 -779h-71l433 779h69zM882 119c0 -84 -75 -126 -155 -126c-82 0 -158 36 -158 121c0 54 34 88 82 104c-41 14 -73 42 -73 91c0 79 72 117 150 117c74 0 147 -37 147 -113c0 -49 -29 -78 -73 -94c45 -13 80 -48 80 -100zM812 310c0 46 -39 68 -84 68
c-47 0 -87 -23 -87 -70c0 -48 40 -66 86 -66c44 0 85 22 85 68zM817 119c0 51 -42 75 -92 75s-90 -26 -90 -75c0 -51 39 -77 89 -77s93 26 93 77zM242 303h-66v351c-31 -24 -59 -40 -96 -55v58c47 18 67 32 105 66h57v-420z" />
    <glyph glyph-name="twothirds" unicode="&#x2154;" horiz-adv-x="915" 
d="M728 753l-431 -779h-71l433 779h69zM338 303h-290v56l67 60c89 79 149 137 149 193c0 41 -26 65 -69 65c-48 0 -73 -29 -74 -76h-68c1 86 64 129 143 129c76 0 137 -38 137 -115c0 -73 -59 -137 -151 -215l-50 -42h206v-55zM882 116c0 -82 -72 -122 -155 -122
c-82 0 -146 37 -150 126h65c1 -51 41 -75 87 -75c51 0 87 26 87 76s-42 72 -92 72c-9 0 -20 -1 -29 -3v54c9 -1 19 -2 29 -2c47 0 86 19 86 69c0 46 -34 66 -80 66c-43 0 -77 -21 -81 -71h-66c2 81 74 121 148 121c73 0 144 -34 144 -115c0 -48 -29 -77 -73 -94
c49 -14 80 -47 80 -102z" />
    <glyph glyph-name="threeeighths" unicode="&#x215c;" horiz-adv-x="915" 
d="M712 753l-431 -779h-71l433 779h69zM334 419c0 -82 -72 -122 -155 -122c-82 0 -146 37 -150 126h65c1 -51 41 -75 87 -75c51 0 87 26 87 76s-42 72 -92 72c-9 0 -20 -1 -29 -3v54c9 -1 19 -2 29 -2c47 0 86 19 86 69c0 46 -34 66 -80 66c-43 0 -77 -21 -81 -71h-66
c2 81 74 121 148 121c73 0 144 -34 144 -115c0 -48 -29 -77 -73 -94c49 -14 80 -47 80 -102zM882 119c0 -84 -75 -126 -155 -126c-82 0 -158 36 -158 121c0 54 34 88 82 104c-41 14 -73 42 -73 91c0 79 72 117 150 117c74 0 147 -37 147 -113c0 -49 -29 -78 -73 -94
c45 -13 80 -48 80 -100zM812 310c0 46 -39 68 -84 68c-47 0 -87 -23 -87 -70c0 -48 40 -66 86 -66c44 0 85 22 85 68zM817 119c0 51 -42 75 -92 75s-90 -26 -90 -75c0 -51 39 -77 89 -77s93 26 93 77z" />
    <glyph glyph-name="fiveeighths" unicode="&#x215d;" horiz-adv-x="915" 
d="M712 753l-431 -779h-71l433 779h69zM345 443c0 -90 -61 -147 -151 -147c-76 0 -141 32 -143 118h67c1 -45 34 -67 76 -67c58 0 85 43 85 96c0 48 -25 90 -79 90c-37 0 -68 -19 -78 -57h-64l10 247h255v-52h-194l-7 -130c17 25 47 42 89 42c86 0 134 -60 134 -140z
M882 119c0 -84 -75 -126 -155 -126c-82 0 -158 36 -158 121c0 54 34 88 82 104c-41 14 -73 42 -73 91c0 79 72 117 150 117c74 0 147 -37 147 -113c0 -49 -29 -78 -73 -94c45 -13 80 -48 80 -100zM812 310c0 46 -39 68 -84 68c-47 0 -87 -23 -87 -70c0 -48 40 -66 86 -66
c44 0 85 22 85 68zM817 119c0 51 -42 75 -92 75s-90 -26 -90 -75c0 -51 39 -77 89 -77s93 26 93 77z" />
    <glyph glyph-name="seveneighths" unicode="&#x215e;" horiz-adv-x="915" 
d="M692 753l-431 -779h-71l433 779h69zM373 669l-165 -366h-73l174 366h-226v54h290v-54zM882 119c0 -84 -75 -126 -155 -126c-82 0 -158 36 -158 121c0 54 34 88 82 104c-41 14 -73 42 -73 91c0 79 72 117 150 117c74 0 147 -37 147 -113c0 -49 -29 -78 -73 -94
c45 -13 80 -48 80 -100zM812 310c0 46 -39 68 -84 68c-47 0 -87 -23 -87 -70c0 -48 40 -66 86 -66c44 0 85 22 85 68zM817 119c0 51 -42 75 -92 75s-90 -26 -90 -75c0 -51 39 -77 89 -77s93 26 93 77z" />
    <glyph glyph-name="parenleft.sc" horiz-adv-x="278" 
d="M73 272c0 111 47 225 94 330h62c-42 -115 -77 -226 -77 -330c0 -105 35 -217 77 -332h-62c-47 105 -94 219 -94 332z" />
    <glyph glyph-name="parenright.sc" horiz-adv-x="278" 
d="M205 272c0 -113 -47 -227 -94 -332h-62c43 115 77 227 77 332c0 104 -34 215 -77 330h62c47 -105 94 -219 94 -330z" />
    <glyph glyph-name="bracketleft.sc" horiz-adv-x="288" 
d="M78 602h151v-50h-80v-562h80v-50h-151v662z" />
    <glyph glyph-name="bracketright.sc" horiz-adv-x="288" 
d="M210 -60h-151v50h80v562h-80v50h151v-662z" />
    <glyph glyph-name="braceleft.sc" horiz-adv-x="319" 
d="M291 -60c-137 2 -171 57 -171 156v42c0 76 -19 102 -106 110v46c88 9 106 35 106 107v41c0 99 34 158 171 160v-47c-83 -2 -99 -43 -99 -116v-36c0 -71 -18 -117 -95 -132c80 -17 95 -63 95 -136v-36c0 -77 19 -110 99 -112v-47z" />
    <glyph glyph-name="braceright.sc" horiz-adv-x="319" 
d="M29 -60v47c80 2 99 35 99 112v36c0 73 15 119 95 136c-77 15 -95 61 -95 132v36c0 73 -16 114 -99 116v47c137 -2 171 -61 171 -160v-41c0 -72 18 -98 106 -107v-46c-87 -8 -106 -34 -106 -110v-42c0 -99 -34 -154 -171 -156z" />
    <glyph glyph-name="zero.scprop" horiz-adv-x="492" 
d="M448 276c0 -126 -44 -287 -201 -287c-160 0 -203 160 -203 287c0 126 43 281 203 281c157 0 201 -156 201 -281zM362 276c0 113 -28 219 -114 219c-94 0 -116 -104 -116 -219c0 -117 23 -225 116 -225c87 0 114 110 114 225z" />
    <glyph glyph-name="one.scprop" horiz-adv-x="384" 
d="M260 0h-84v460c-37 -30 -80 -51 -127 -70v70c57 22 94 46 138 86h73v-546z" />
    <glyph glyph-name="two.scprop" horiz-adv-x="492" 
d="M431 0h-382v67l144 128c99 88 146 141 146 210c0 58 -35 90 -96 90c-60 0 -101 -38 -101 -103h-86c2 109 87 165 190 165c101 0 180 -53 180 -150c0 -88 -62 -156 -161 -242l-114 -100h280v-65z" />
    <glyph glyph-name="three.scprop" horiz-adv-x="492" 
d="M447 149c0 -110 -101 -160 -205 -160c-112 0 -193 50 -202 160h88c4 -64 55 -98 114 -98c75 0 118 42 118 103c0 67 -57 99 -123 99c-11 0 -24 0 -42 -2v64c18 -2 29 -2 38 -2c65 0 117 29 117 91c0 57 -43 91 -106 91c-57 0 -104 -29 -106 -92h-89c1 48 24 85 56 110
c38 30 91 44 140 44c96 0 190 -45 190 -148c0 -61 -39 -107 -102 -124c62 -14 114 -56 114 -136z" />
    <glyph glyph-name="four.scprop" horiz-adv-x="492" 
d="M464 120h-88v-120h-81v120h-263v72l245 354h99v-366h88v-60zM297 179v289l-197 -289h197z" />
    <glyph glyph-name="five.scprop" horiz-adv-x="492" 
d="M445 182c0 -118 -81 -193 -199 -193c-101 0 -185 42 -187 149h88c2 -59 41 -87 98 -87c74 0 113 56 113 129c0 67 -31 122 -106 122c-48 0 -89 -25 -100 -75h-84l13 319h336v-63h-258l-10 -172c29 37 75 53 122 53c114 0 174 -79 174 -182z" />
    <glyph glyph-name="six.scprop" horiz-adv-x="492" 
d="M446 177c0 -106 -80 -188 -192 -188s-168 58 -194 142c-10 33 -14 72 -14 125c0 136 37 301 212 301c95 0 172 -44 174 -145h-87c-3 53 -32 86 -89 86c-97 0 -124 -108 -127 -216c29 52 81 75 141 75c109 0 176 -76 176 -180zM362 175c0 67 -35 122 -107 122
c-73 0 -117 -57 -117 -124c0 -64 42 -122 116 -122c68 0 108 56 108 124z" />
    <glyph glyph-name="seven.scprop" horiz-adv-x="452" 
d="M415 481l-217 -481h-96l229 481h-299v65h383v-65z" />
    <glyph glyph-name="eight.scprop" horiz-adv-x="492" 
d="M449 148c0 -112 -99 -159 -200 -159c-100 0 -207 43 -207 156c0 70 44 119 114 139c-50 13 -101 53 -101 123c0 105 96 150 192 150c94 0 191 -44 191 -148c0 -63 -40 -107 -101 -125c58 -15 112 -59 112 -136zM353 403c0 63 -46 96 -106 96s-108 -32 -108 -95
c0 -60 49 -90 107 -90s107 32 107 89zM365 152c0 68 -57 103 -120 103s-118 -35 -118 -103c0 -65 53 -102 118 -102c69 0 120 37 120 102z" />
    <glyph glyph-name="nine.scprop" horiz-adv-x="492" 
d="M444 292c0 -138 -31 -303 -212 -303c-109 0 -184 52 -186 146h89c2 -53 38 -85 97 -85c108 0 127 115 129 219c-25 -47 -76 -71 -138 -71c-111 0 -179 75 -179 177c0 104 82 182 195 182c103 0 159 -51 185 -119c13 -36 20 -83 20 -146zM353 377c0 58 -35 119 -113 119
c-74 0 -115 -56 -115 -119c0 -62 36 -119 112 -119c71 0 116 53 116 119z" />
    <glyph glyph-name="zero.prop" 
d="M534 371c0 -166 -47 -382 -246 -382c-203 0 -242 218 -242 385c0 163 54 364 247 364c196 0 241 -202 241 -367zM440 360c0 104 -12 307 -147 307c-140 0 -153 -198 -153 -306c0 -102 15 -299 147 -299c137 0 153 191 153 298z" />
    <glyph glyph-name="one.prop" horiz-adv-x="451" 
d="M306 0h-90v629c-46 -45 -100 -77 -159 -103v84c67 27 118 62 170 113h79v-723z" />
    <glyph glyph-name="two.prop" 
d="M515 0h-463v87c94 84 288 258 340 368c12 27 19 53 19 83c0 78 -51 127 -124 127c-79 0 -132 -55 -132 -139h-95c2 140 105 212 230 212c114 0 217 -61 217 -192c0 -84 -60 -176 -133 -259c-37 -42 -76 -82 -114 -118c-37 -35 -102 -96 -102 -96h357v-73z" />
    <glyph glyph-name="three.prop" horiz-adv-x="578" 
d="M532 196c0 -144 -127 -207 -253 -207c-131 0 -234 62 -242 207h94c1 -88 73 -136 150 -136c82 0 154 50 154 142c0 98 -82 137 -165 137c-13 0 -25 0 -39 -2v75c14 -2 28 -3 41 -3c77 0 150 42 150 130c0 95 -66 129 -140 129c-81 0 -133 -45 -142 -131h-92
c5 135 117 201 235 201c123 0 231 -61 231 -196c0 -87 -58 -143 -135 -163c91 -26 153 -76 153 -183z" />
    </font>
</defs>
</svg>
