<?xml version="1.0" standalone="no"?>
<!DOCTYPE svg PUBLIC "-//W3C//DTD SVG 1.1//EN" "http://www.w3.org/Graphics/SVG/1.1/DTD/svg11.dtd" >
<svg xmlns="http://www.w3.org/2000/svg" xmlns:xlink="http://www.w3.org/1999/xlink" version="1.1">
<metadata>
Created by FontForge 20141024 at Sun Jul 19 05:18:35 2015
 By System Administrator
Copyright 1997-2013 Monotype GmbH. All rights reserved.
</metadata>
<defs>
<font id="UniversNextforHSBC-UltLt" horiz-adv-x="540" >
  <font-face 
    font-family="Univers Next for HSBC UltLt"
    font-weight="250"
    font-stretch="normal"
    units-per-em="1000"
    panose-1="2 11 2 3 3 2 2 2 2 3"
    ascent="750"
    descent="-250"
    x-height="506"
    cap-height="723"
    bbox="-143 -214 977 921"
    underline-thickness="50"
    underline-position="-50"
    stemh="15"
    stemv="16"
    unicode-range="U+000D-FB04"
  />
<missing-glyph horiz-adv-x="512" 
d="M278 117h-56v67h56v-67zM271 234h-48v17c0 72 15 98 59 140c43 42 50 61 50 89c0 48 -35 79 -76 79s-74 -27 -82 -95l-50 8c9 95 63 137 135 137c71 0 124 -49 124 -125c0 -46 -12 -79 -63 -126c-42 -38 -49 -55 -49 -100v-24zM50 50h412v617h-412v-617zM0 718h512v-718
h-512v718z" />
    <glyph glyph-name="napostrophe" unicode="&#x22;n" horiz-adv-x="545" 
d="M454 0h-20v296c0 105 -18 195 -142 195c-94 0 -153 -64 -172 -157c-5 -23 -5 -50 -5 -76v-258h-20v361c0 36 0 91 -2 145h20v-142c19 90 94 148 175 148c99 0 166 -49 166 -191v-321zM1 723h32l-37 -181h-16z" />
    <glyph glyph-name="IJ" unicode="IJ" horiz-adv-x="717" 
d="M138 0h-20v723h20v-723zM617 199c0 -111 -51 -204 -182 -204c-94 0 -163 56 -163 152v11h21v-11c0 -85 57 -132 143 -132c116 0 161 80 161 191v517h20v-524z" />
    <glyph glyph-name="ij" unicode="ij" horiz-adv-x="420" 
d="M115 666h-20v57h20v-57zM115 0h-20v506h20v-506zM325 666h-20v57h20v-57zM325 -83c0 -76 -28 -96 -82 -96c-10 0 -36 3 -46 5v20c11 -2 29 -5 43 -5c58 0 65 30 65 83v582h20v-589z" />
    <glyph glyph-name="fi" unicode="fi" horiz-adv-x="491" 
d="M262 708c-14 2 -35 3 -45 3c-57 0 -75 -30 -75 -99v-106h110v-20h-110v-486h-20v486h-104v20h104v107c0 77 24 118 92 118c16 0 30 -1 48 -3v-20zM397 666h-20v57h20v-57zM397 0h-20v506h20v-506z" />
    <glyph glyph-name="fl" unicode="fl" horiz-adv-x="491" 
d="M262 708c-14 2 -35 3 -45 3c-57 0 -75 -30 -75 -99v-106h110v-20h-110v-486h-20v486h-104v20h104v107c0 77 24 118 92 118c16 0 30 -1 48 -3v-20zM397 0h-20v723h20v-723z" />
    <glyph glyph-name="f_f" unicode="ff" horiz-adv-x="560" 
d="M262 708c-14 2 -35 3 -45 3c-57 0 -75 -30 -75 -99v-106h110v-20h-110v-486h-20v486h-104v20h104v107c0 77 24 118 92 118c16 0 30 -1 48 -3v-20zM542 708c-14 2 -35 3 -45 3c-57 0 -75 -30 -75 -99v-106h110v-20h-110v-486h-20v486h-104v20h104v107c0 77 24 118 92 118
c16 0 30 -1 48 -3v-20z" />
    <glyph glyph-name="f_f_i" unicode="ffi" horiz-adv-x="771" 
d="M262 708c-14 2 -35 3 -45 3c-57 0 -75 -30 -75 -99v-106h110v-20h-110v-486h-20v486h-104v20h104v107c0 77 24 118 92 118c16 0 30 -1 48 -3v-20zM542 708c-14 2 -35 3 -45 3c-57 0 -75 -30 -75 -99v-106h110v-20h-110v-486h-20v486h-104v20h104v107c0 77 24 118 92 118
c16 0 30 -1 48 -3v-20zM677 666h-20v57h20v-57zM677 0h-20v506h20v-506z" />
    <glyph glyph-name="f_f_l" unicode="ffl" horiz-adv-x="771" 
d="M262 708c-14 2 -35 3 -45 3c-57 0 -75 -30 -75 -99v-106h110v-20h-110v-486h-20v486h-104v20h104v107c0 77 24 118 92 118c16 0 30 -1 48 -3v-20zM542 708c-14 2 -35 3 -45 3c-57 0 -75 -30 -75 -99v-106h110v-20h-110v-486h-20v486h-104v20h104v107c0 77 24 118 92 118
c16 0 30 -1 48 -3v-20zM677 0h-20v723h20v-723z" />
    <glyph glyph-name=".notdef" horiz-adv-x="512" 
d="M278 117h-56v67h56v-67zM271 234h-48v17c0 72 15 98 59 140c43 42 50 61 50 89c0 48 -35 79 -76 79s-74 -27 -82 -95l-50 8c9 95 63 137 135 137c71 0 124 -49 124 -125c0 -46 -12 -79 -63 -126c-42 -38 -49 -55 -49 -100v-24zM50 50h412v617h-412v-617zM0 718h512v-718
h-512v718z" />
    <glyph glyph-name=".null" horiz-adv-x="567" 
 />
    <glyph glyph-name="CR" unicode="&#xd;" horiz-adv-x="0" 
 />
    <glyph glyph-name="space" unicode=" " horiz-adv-x="270" 
 />
    <glyph glyph-name="exclam" unicode="!" horiz-adv-x="270" 
d="M146 723l-3 -569h-16l-3 569h22zM147 0h-24v45h24v-45z" />
    <glyph glyph-name="quotedbl" unicode="&#x22;" horiz-adv-x="370" 
d="M266 723l-3 -230h-22l-4 230h29zM133 723l-3 -230h-22l-4 230h29z" />
    <glyph glyph-name="numbersign" unicode="#" 
d="M81 462v18h130l44 243h20l-44 -243h175l44 243h20l-44 -243h128v-18h-131l-37 -201h127v-18h-130l-44 -243h-20l44 243h-175l-44 -243h-20l44 243h-128v18h131l37 201h-127zM228 462l-37 -201h175l37 201h-175z" />
    <glyph glyph-name="dollar" unicode="$" 
d="M278 -84h-20v76c-119 3 -197 73 -204 188h20c7 -100 73 -167 184 -170v355c-120 42 -197 79 -197 186c0 116 90 178 197 182v76h20v-76c107 -3 194 -47 199 -150h-20c-6 90 -82 129 -179 132v-336c126 -44 210 -80 210 -194c0 -126 -95 -189 -210 -193v-76zM468 184
c0 103 -74 133 -190 174v-348c103 4 190 57 190 174zM81 552c0 -96 70 -129 177 -166v329c-95 -4 -177 -59 -177 -163z" />
    <glyph glyph-name="percent" unicode="%" horiz-adv-x="913" 
d="M870 178c0 -94 -50 -184 -153 -184c-101 0 -154 92 -154 184c0 88 54 187 154 187c106 0 153 -92 153 -187zM685 748l-456 -772h-24l458 772h22zM350 546c0 -94 -50 -184 -153 -184c-101 0 -154 92 -154 184c0 88 54 187 154 187c106 0 153 -92 153 -187zM850 178
c0 84 -34 168 -133 168c-92 0 -135 -89 -135 -168c0 -78 44 -165 135 -165c95 0 133 86 133 165zM330 546c0 84 -34 168 -133 168c-92 0 -135 -89 -135 -168c0 -78 44 -165 135 -165c95 0 133 86 133 165z" />
    <glyph glyph-name="ampersand" unicode="&#x26;" horiz-adv-x="704" 
d="M644 7h-25l-117 125c-60 -94 -135 -143 -227 -143c-111 0 -199 75 -199 196c0 104 71 160 174 215c-73 81 -95 125 -95 182c0 90 67 151 154 151c84 0 148 -62 148 -139c0 -96 -75 -143 -178 -199l218 -234c38 70 77 145 115 214h23l-123 -226c43 -47 89 -95 132 -142z
M437 590c0 77 -58 127 -130 127c-73 0 -132 -55 -132 -134c0 -66 35 -112 92 -176c98 52 170 98 170 183zM488 147l-225 239c-88 -44 -167 -103 -167 -201c0 -110 83 -179 184 -179c86 0 160 56 208 141z" />
    <glyph glyph-name="quotesingle" unicode="'" horiz-adv-x="236" 
d="M132 723l-3 -230h-22l-3 230h28z" />
    <glyph glyph-name="parenleft" unicode="(" horiz-adv-x="281" 
d="M220 -144h-20c-50 139 -107 278 -107 427c0 154 55 299 107 440h15c-47 -146 -102 -285 -102 -440c0 -120 65 -313 107 -427z" />
    <glyph glyph-name="parenright" unicode=")" horiz-adv-x="281" 
d="M81 -144h-20c42 114 107 307 107 427c0 155 -55 294 -102 440h15c52 -141 107 -286 107 -440c0 -149 -57 -288 -107 -427z" />
    <glyph glyph-name="asterisk" unicode="*" horiz-adv-x="399" 
d="M379 561l-166 2l85 -141l-18 -10l-80 143l-80 -143l-18 10l84 141l-166 -3v21l166 -3l-86 144l18 11l82 -148l82 148l17 -10l-86 -145l166 3v-20z" />
    <glyph glyph-name="plus" unicode="+" horiz-adv-x="593" 
d="M539 232h-233v-230h-20v230h-232v18h232v230h20v-230h233v-18z" />
    <glyph glyph-name="comma" unicode="," horiz-adv-x="270" 
d="M154 46l-59 -166h-15l40 166h34z" />
    <glyph glyph-name="hyphen" unicode="-" horiz-adv-x="299" 
d="M271 259h-243v20h243v-20z" />
    <glyph glyph-name="period" unicode="." horiz-adv-x="270" 
d="M147 0h-24v45h24v-45z" />
    <glyph glyph-name="slash" unicode="/" horiz-adv-x="298" 
d="M281 733l-241 -742h-23l243 742h21z" />
    <glyph glyph-name="zero" unicode="0" 
d="M477 369c0 -146 -42 -379 -208 -379c-176 0 -206 233 -206 379c0 144 30 364 206 364c164 0 208 -221 208 -364zM457 369c0 117 -43 346 -188 346c-160 0 -186 -229 -186 -346c0 -120 28 -361 186 -361c147 0 188 241 188 361z" />
    <glyph glyph-name="one" unicode="1" 
d="M317 0h-20v702c-48 -52 -92 -78 -153 -113v21c55 28 105 69 148 113h25v-723z" />
    <glyph glyph-name="two" unicode="2" 
d="M457 0h-391v23l203 239c76 89 157 186 157 285c0 100 -69 168 -163 168c-98 0 -172 -74 -172 -185h-20c1 118 75 203 191 203c106 0 184 -72 184 -186c0 -96 -69 -187 -142 -273l-217 -256h370v-18z" />
    <glyph glyph-name="three" unicode="3" 
d="M477 190c0 -129 -96 -200 -215 -200c-127 0 -200 80 -209 193h20c8 -98 72 -176 189 -176c109 0 195 65 195 183c0 112 -71 177 -175 177h-40v18h40c84 0 156 69 156 158c0 113 -84 172 -183 172c-97 0 -170 -64 -176 -165h-20c5 113 92 183 196 183
c114 0 203 -65 203 -190c0 -84 -58 -148 -132 -167c73 -8 151 -63 151 -186z" />
    <glyph glyph-name="four" unicode="4" 
d="M498 181h-111v-181h-20v181h-329v20l332 522h17v-524h111v-18zM367 199v485l-309 -485h309z" />
    <glyph glyph-name="five" unicode="5" 
d="M479 230c0 -135 -75 -240 -211 -240c-108 0 -186 58 -191 175h20c4 -106 76 -158 171 -158c129 0 191 102 191 222c0 123 -56 219 -182 219c-81 0 -148 -54 -169 -140h-20l17 415h342v-18h-321l-17 -348c33 81 110 109 168 109c137 0 202 -99 202 -236z" />
    <glyph glyph-name="six" unicode="6" 
d="M477 224c0 -121 -72 -234 -198 -234c-107 0 -167 61 -195 141c-15 43 -21 97 -21 192c0 159 15 410 220 410c103 0 180 -54 184 -171h-20c-8 95 -64 153 -164 153c-172 0 -196 -204 -200 -379v-46c21 110 110 164 196 164c137 0 198 -104 198 -230zM457 224
c0 107 -53 212 -178 212c-113 0 -189 -102 -189 -214c0 -98 55 -214 189 -214c114 0 178 105 178 216z" />
    <glyph glyph-name="seven" unicode="7" 
d="M462 699l-277 -699h-23l280 704h-385v19h405v-24z" />
    <glyph glyph-name="eight" unicode="8" 
d="M483 188c0 -131 -97 -198 -213 -198s-212 67 -212 198c0 93 52 163 151 186c-81 16 -142 75 -142 163c0 126 90 196 203 196s204 -70 204 -196c0 -88 -61 -147 -142 -163c99 -23 151 -93 151 -186zM453 537c0 116 -86 178 -183 178s-183 -62 -183 -178
c0 -110 91 -153 183 -153s183 43 183 153zM462 189c0 112 -94 177 -192 177s-192 -65 -192 -177c0 -119 93 -181 192 -181s192 62 192 181z" />
    <glyph glyph-name="nine" unicode="9" 
d="M476 402c0 -158 -15 -412 -222 -412c-103 0 -184 60 -188 177h20c8 -95 68 -159 168 -159c170 0 202 209 202 396v28c-21 -110 -110 -164 -196 -164c-137 0 -198 104 -198 230c0 121 76 235 202 235c113 0 168 -68 193 -146c12 -37 19 -85 19 -185zM449 500
c0 98 -51 215 -185 215c-114 0 -182 -106 -182 -217c0 -107 53 -212 178 -212c113 0 189 102 189 214z" />
    <glyph glyph-name="colon" unicode=":" horiz-adv-x="270" 
d="M147 461h-24v45h24v-45zM147 0h-24v45h24v-45z" />
    <glyph glyph-name="semicolon" unicode=";" horiz-adv-x="270" 
d="M145 461h-24v45h24v-45zM154 46l-59 -166h-15l40 166h34z" />
    <glyph glyph-name="less" unicode="&#x3c;" horiz-adv-x="593" 
d="M539 27l-485 204v18l485 204v-20l-460 -193l460 -193v-20z" />
    <glyph glyph-name="equal" unicode="=" horiz-adv-x="593" 
d="M539 324h-485v18h485v-18zM539 141h-485v18h485v-18z" />
    <glyph glyph-name="greater" unicode="&#x3e;" horiz-adv-x="593" 
d="M539 231l-485 -204v20l460 193l-460 193v20l485 -204v-18z" />
    <glyph glyph-name="question" unicode="?" horiz-adv-x="502" 
d="M390 563c0 -70 -47 -136 -143 -224c-40 -37 -47 -60 -47 -102v-83h-20v75c0 52 6 79 58 127c92 85 132 143 132 207c0 98 -66 150 -160 150c-36 0 -64 -2 -98 -11v22c28 5 56 9 85 9c113 0 193 -53 193 -170zM202 0h-23v45h23v-45z" />
    <glyph glyph-name="at" unicode="@" horiz-adv-x="972" 
d="M622 298c3 15 6 38 6 54c0 79 -34 146 -123 146c-113 0 -175 -137 -175 -238c0 -76 41 -142 128 -142c94 0 148 91 164 180zM705 103c-72 0 -93 42 -94 88c0 11 0 17 2 28c-24 -61 -71 -119 -158 -119c-98 0 -145 75 -145 160c0 113 65 256 198 256
c73 0 124 -45 131 -119l19 109h20l-48 -274c-3 -18 -3 -25 -3 -34c0 -49 29 -77 79 -77c82 0 181 88 181 252c0 200 -124 342 -373 342c-247 0 -430 -194 -430 -438c0 -235 158 -392 391 -392c86 0 182 23 246 65l9 -15c-68 -45 -164 -67 -255 -67c-244 0 -411 161 -411 409
c0 255 194 456 450 456c258 0 393 -148 393 -360c0 -171 -106 -270 -202 -270z" />
    <glyph glyph-name="A" unicode="A" horiz-adv-x="643" 
d="M633 0h-24l-97 227h-387l-92 -227h-24l296 723h16zM502 248l-189 444l-180 -444h369z" />
    <glyph glyph-name="B" unicode="B" horiz-adv-x="629" 
d="M561 201c0 -172 -120 -201 -259 -201h-184v723h174c39 0 83 -1 121 -13c74 -24 118 -89 118 -164c0 -88 -59 -152 -137 -167h2c24 0 165 -13 165 -178zM511 546c0 96 -71 158 -184 158h-189v-317h180c105 0 193 45 193 159zM541 201c0 134 -94 167 -209 167h-194v-348
h159c119 0 244 14 244 181z" />
    <glyph glyph-name="C" unicode="C" horiz-adv-x="632" 
d="M576 160c-26 -105 -102 -170 -222 -170c-212 0 -290 181 -290 367c0 178 76 376 295 376c105 0 198 -48 212 -163h-21c-21 105 -99 143 -191 143c-204 0 -275 -196 -275 -356c0 -171 71 -347 273 -347c96 0 165 47 198 150h21z" />
    <glyph glyph-name="D" unicode="D" horiz-adv-x="709" 
d="M645 366c0 -291 -184 -366 -372 -366h-155v723h166c68 0 109 -3 168 -24c103 -36 193 -132 193 -333zM625 365c0 246 -134 338 -336 338h-151v-683h128c258 0 359 134 359 345z" />
    <glyph glyph-name="E" unicode="E" horiz-adv-x="586" 
d="M536 0h-418v723h401v-20h-381v-312h369v-21h-369v-350h398v-20z" />
    <glyph glyph-name="F" unicode="F" horiz-adv-x="533" 
d="M497 703h-359v-310h347v-20h-347v-373h-20v723h379v-20z" />
    <glyph glyph-name="G" unicode="G" horiz-adv-x="662" 
d="M590 35c-47 -18 -139 -40 -215 -40c-216 0 -311 177 -311 373c0 182 86 366 294 366c78 0 143 -28 181 -78c18 -23 33 -58 39 -99h-20c-13 99 -91 158 -202 158c-188 0 -272 -178 -272 -347c0 -180 87 -353 289 -353c66 0 136 12 197 35v278h-199v20h219v-313z" />
    <glyph glyph-name="H" unicode="H" horiz-adv-x="722" 
d="M604 0h-20v366h-446v-366h-20v723h20v-337h446v337h20v-723z" />
    <glyph glyph-name="I" unicode="I" horiz-adv-x="256" 
d="M138 0h-20v723h20v-723z" />
    <glyph glyph-name="J" unicode="J" horiz-adv-x="461" 
d="M361 199c0 -111 -51 -204 -182 -204c-94 0 -163 56 -163 152v11h21v-11c0 -85 57 -132 143 -132c116 0 161 80 161 191v517h20v-524z" />
    <glyph glyph-name="K" unicode="K" horiz-adv-x="575" 
d="M565 0h-27l-397 390l362 333h26l-362 -333zM138 0h-20v723h20v-723z" />
    <glyph glyph-name="L" unicode="L" horiz-adv-x="526" 
d="M514 0h-396v723h20v-703h376v-20z" />
    <glyph glyph-name="M" unicode="M" horiz-adv-x="913" 
d="M795 0h-20v699h-4l-292 -699h-29l-308 703h-4v-703h-20v723h37l310 -708l294 708h36v-723z" />
    <glyph glyph-name="N" unicode="N" horiz-adv-x="732" 
d="M614 0h-21l-451 684h-4v-684h-20v723h21l451 -684h4v684h20v-723z" />
    <glyph glyph-name="O" unicode="O" horiz-adv-x="736" 
d="M672 365c0 -189 -89 -376 -300 -376s-308 187 -308 375c0 196 93 369 309 369c221 0 299 -170 299 -368zM652 364c0 188 -72 349 -279 349c-204 0 -288 -166 -288 -349c0 -172 86 -355 288 -355c198 0 279 185 279 355z" />
    <glyph glyph-name="P" unicode="P" horiz-adv-x="571" 
d="M531 536c0 -88 -43 -150 -117 -177c-43 -16 -118 -17 -173 -17h-103v-342h-20v723h171c57 0 118 -2 168 -33c54 -33 74 -92 74 -154zM511 536c0 136 -97 167 -208 167h-165v-341h123c43 0 98 0 141 13c70 21 109 86 109 161z" />
    <glyph glyph-name="Q" unicode="Q" horiz-adv-x="736" 
d="M679 0c-34 0 -71 1 -118 2c-40 0 -79 0 -109 -3c-26 -3 -51 -6 -80 -6c-209 0 -308 185 -308 371c0 196 93 369 309 369c221 0 299 -170 299 -368c0 -140 -57 -305 -194 -351c56 7 146 5 201 6v-20zM652 364c0 187 -72 349 -279 349c-206 0 -288 -169 -288 -349
c0 -168 88 -351 288 -351c197 0 279 181 279 351z" />
    <glyph glyph-name="R" unicode="R" horiz-adv-x="629" 
d="M561 0h-24c-19 36 -28 66 -35 150c-17 191 -30 224 -171 224h-193v-374h-20v723h221c63 0 114 -13 153 -47c28 -25 51 -66 51 -122c0 -90 -57 -153 -137 -168c79 -13 105 -64 116 -232c5 -79 17 -123 39 -154zM523 553c0 117 -92 150 -191 150h-194v-309h166
c104 0 219 24 219 159z" />
    <glyph glyph-name="S" unicode="S" horiz-adv-x="555" 
d="M497 184c0 -136 -108 -192 -228 -192c-125 0 -204 69 -211 187h21c3 -81 55 -167 191 -167c98 0 207 43 207 171c0 99 -82 135 -174 166l-73 25c-92 31 -167 75 -167 174c0 124 104 181 216 181c103 0 203 -41 208 -149h-21c-8 97 -102 129 -187 129
c-95 0 -196 -47 -196 -160c0 -89 71 -126 155 -155l75 -25c95 -33 184 -73 184 -185z" />
    <glyph glyph-name="T" unicode="T" horiz-adv-x="501" 
d="M495 703h-235v-703h-20v703h-234v20h489v-20z" />
    <glyph glyph-name="U" unicode="U" horiz-adv-x="714" 
d="M614 268c0 -175 -76 -276 -257 -276c-169 0 -257 91 -257 276v455h20v-450c0 -157 58 -261 237 -261c176 0 237 96 237 261v450h20v-455z" />
    <glyph glyph-name="V" unicode="V" horiz-adv-x="606" 
d="M596 723l-276 -723h-26l-284 723h21l273 -698h6l265 698h21z" />
    <glyph glyph-name="W" unicode="W" horiz-adv-x="971" 
d="M947 723l-195 -723h-27l-242 683h-7l-233 -683h-31l-188 723h21l182 -699h6l234 699h23l245 -700h6l184 700h22z" />
    <glyph glyph-name="X" unicode="X" horiz-adv-x="591" 
d="M569 0h-25l-253 353l-244 -353h-25l260 376l-254 347h24l241 -330l231 330h24l-246 -350z" />
    <glyph glyph-name="Y" unicode="Y" horiz-adv-x="569" 
d="M575 723l-280 -395v-328h-20v328l-281 395h24l267 -378l266 378h24z" />
    <glyph glyph-name="Z" unicode="Z" horiz-adv-x="525" 
d="M505 0h-485v19l453 684h-421v20h443v-21l-450 -682h460v-20z" />
    <glyph glyph-name="bracketleft" unicode="[" horiz-adv-x="280" 
d="M195 -144h-103v867h103v-20h-83v-827h83v-20z" />
    <glyph glyph-name="backslash" unicode="\" horiz-adv-x="298" 
d="M281 -9h-21l-243 742h23z" />
    <glyph glyph-name="bracketright" unicode="]" horiz-adv-x="280" 
d="M188 -144h-103v20h83v827h-83v20h103v-867z" />
    <glyph glyph-name="asciicircum" unicode="^" horiz-adv-x="593" 
d="M499 315h-22l-181 385l-181 -385h-22l193 408h20z" />
    <glyph glyph-name="underscore" unicode="_" horiz-adv-x="500" 
d="M500 -125h-500v50h500v-50z" />
    <glyph glyph-name="grave" unicode="`" horiz-adv-x="210" 
d="M152 593h-16l-102 143h29z" />
    <glyph glyph-name="a" unicode="a" horiz-adv-x="513" 
d="M428 0h-18c-1 26 -1 81 -1 134c-17 -98 -103 -145 -179 -145c-72 0 -172 27 -172 145c0 143 151 165 271 165c24 0 57 -1 77 -2v33c0 107 -41 162 -149 162c-70 0 -127 -27 -138 -109h-20c5 89 79 129 158 129c122 0 169 -61 169 -181v-184c0 -49 1 -99 2 -147zM406 212
v65c-17 1 -44 2 -63 2c-98 0 -265 -6 -265 -146c0 -91 70 -124 150 -124c119 0 178 92 178 203z" />
    <glyph glyph-name="b" unicode="b" horiz-adv-x="552" 
d="M501 256c0 -133 -62 -263 -209 -263c-107 0 -163 85 -179 161v-154h-20c2 53 2 90 2 143v580h20v-371c23 111 101 161 187 161c142 0 199 -130 199 -257zM481 256c0 110 -50 237 -179 237c-135 0 -189 -132 -189 -243c0 -105 47 -237 179 -237c133 0 189 125 189 243z
" />
    <glyph glyph-name="c" unicode="c" horiz-adv-x="505" 
d="M459 152c-4 -78 -72 -163 -186 -163c-148 0 -222 117 -222 258c0 143 68 268 227 268c103 0 170 -63 178 -159h-20c-9 89 -72 139 -159 139c-146 0 -206 -114 -206 -247c0 -127 68 -239 203 -239c124 0 161 103 165 143h20z" />
    <glyph glyph-name="d" unicode="d" horiz-adv-x="552" 
d="M459 0h-20v154c-16 -76 -72 -161 -179 -161c-147 0 -209 130 -209 263c0 127 57 257 199 257c86 0 164 -50 187 -161v371h20v-580c0 -53 0 -89 2 -143zM439 250c0 111 -54 243 -189 243c-129 0 -179 -127 -179 -237c0 -118 56 -243 189 -243c132 0 179 132 179 237z" />
    <glyph glyph-name="e" unicode="e" horiz-adv-x="500" 
d="M449 256h-378v-17c0 -119 58 -230 189 -230c87 0 136 43 163 137h20c-24 -98 -78 -157 -183 -157c-151 0 -209 123 -209 255c0 134 60 269 212 269c147 0 186 -135 186 -229v-28zM429 276c0 0 -1 14 -1 15c-4 102 -44 202 -165 202c-130 0 -181 -107 -192 -217h358z" />
    <glyph glyph-name="f" unicode="f" horiz-adv-x="280" 
d="M262 708c-14 2 -35 3 -45 3c-57 0 -75 -30 -75 -99v-106h110v-20h-110v-486h-20v486h-104v20h104v107c0 77 24 118 92 118c16 0 30 -1 48 -3v-20z" />
    <glyph glyph-name="g" unicode="g" horiz-adv-x="552" 
d="M459 506c-2 -83 -2 -166 -2 -248v-185c0 -118 -14 -275 -201 -275c-68 0 -167 20 -173 129h20c6 -84 76 -109 157 -109c156 0 177 126 177 257v72c-24 -104 -97 -148 -177 -148c-133 0 -209 111 -209 251c0 137 60 263 203 263c90 0 171 -65 185 -166v159h20zM439 259
c0 114 -63 234 -184 234c-132 0 -184 -121 -184 -242c0 -115 64 -232 189 -232c132 0 179 123 179 240z" />
    <glyph glyph-name="h" unicode="h" horiz-adv-x="545" 
d="M454 0h-20v296c0 105 -18 195 -142 195c-94 0 -153 -64 -172 -157c-5 -23 -5 -50 -5 -76v-258h-20v723h20v-355c19 90 92 144 173 144c99 0 166 -49 166 -191v-321z" />
    <glyph glyph-name="i" unicode="i" horiz-adv-x="210" 
d="M115 666h-20v57h20v-57zM115 0h-20v506h20v-506z" />
    <glyph glyph-name="j" unicode="j" horiz-adv-x="210" 
d="M115 666h-20v57h20v-57zM115 -83c0 -76 -28 -96 -82 -96c-10 0 -36 3 -46 5v20c11 -2 29 -5 43 -5c58 0 65 30 65 83v582h20v-589z" />
    <glyph glyph-name="k" unicode="k" horiz-adv-x="460" 
d="M444 0h-27l-298 288l277 218h29l-279 -218zM115 0h-20v723h20v-723z" />
    <glyph glyph-name="l" unicode="l" horiz-adv-x="210" 
d="M115 0h-20v723h20v-723z" />
    <glyph glyph-name="m" unicode="m" horiz-adv-x="855" 
d="M764 0h-20v317c0 96 -34 173 -142 173c-91 0 -137 -56 -154 -126c-6 -25 -8 -54 -8 -81v-283h-20v307c0 90 -31 183 -140 183c-90 0 -139 -64 -157 -138c-7 -27 -8 -56 -8 -82v-270h-20v361c0 43 -2 103 -2 145h20v-136c12 56 59 140 167 140c98 0 148 -72 153 -148
c8 63 56 148 169 148c140 0 162 -105 162 -202v-308z" />
    <glyph glyph-name="n" unicode="n" horiz-adv-x="545" 
d="M454 0h-20v296c0 105 -18 195 -142 195c-94 0 -153 -64 -172 -157c-5 -23 -5 -50 -5 -76v-258h-20v361c0 36 0 91 -2 145h20v-142c19 90 94 148 175 148c99 0 166 -49 166 -191v-321z" />
    <glyph glyph-name="o" unicode="o" horiz-adv-x="538" 
d="M487 257c0 -130 -71 -268 -217 -268c-154 0 -219 131 -219 268c0 136 70 257 219 257c152 0 217 -118 217 -257zM467 256c0 127 -64 238 -197 238s-199 -113 -199 -238c0 -124 64 -247 199 -247c131 0 197 124 197 247z" />
    <glyph glyph-name="p" unicode="p" horiz-adv-x="552" 
d="M501 250c0 -127 -57 -257 -199 -257c-86 0 -160 49 -187 156v-339h-20v537c0 53 -1 106 -2 159h20v-147c23 80 71 154 179 154c147 0 209 -130 209 -263zM481 250c0 118 -56 243 -189 243c-128 0 -175 -124 -175 -237c0 -117 50 -243 185 -243c129 0 179 127 179 237z
" />
    <glyph glyph-name="q" unicode="q" horiz-adv-x="552" 
d="M459 506c-1 -53 -2 -106 -2 -159v-537h-20v339c-27 -107 -101 -156 -187 -156c-142 0 -199 130 -199 257c0 133 62 263 209 263c108 0 156 -74 179 -154v147h20zM435 256c0 113 -47 237 -175 237c-133 0 -189 -125 -189 -243c0 -110 50 -237 179 -237
c135 0 185 126 185 243z" />
    <glyph glyph-name="r" unicode="r" horiz-adv-x="315" 
d="M301 487c-10 2 -26 3 -40 3c-79 0 -123 -56 -140 -127c-6 -26 -6 -54 -6 -76v-287h-20v357c0 62 0 95 -2 149h20v-117c13 60 61 121 158 121c10 0 23 -1 30 -2v-21z" />
    <glyph glyph-name="s" unicode="s" horiz-adv-x="439" 
d="M385 137c0 -98 -77 -146 -168 -146c-96 0 -161 52 -161 151h20c2 -83 48 -131 141 -131c67 0 148 29 148 126c0 54 -36 81 -120 104l-36 10c-77 21 -141 51 -141 133c0 88 75 133 157 133c91 0 151 -45 151 -141h-20c0 80 -48 121 -131 121c-66 0 -137 -33 -137 -113
c0 -63 47 -90 125 -112l32 -9c82 -23 140 -50 140 -126z" />
    <glyph glyph-name="t" unicode="t" horiz-adv-x="288" 
d="M257 2c-15 -3 -34 -5 -55 -5c-60 0 -81 40 -81 96v393h-103v20h103v113l20 12v-125h110v-20h-110v-379c0 -62 15 -90 68 -90c16 0 33 2 48 4v-19z" />
    <glyph glyph-name="u" unicode="u" horiz-adv-x="545" 
d="M452 0h-20v132c-19 -90 -92 -138 -173 -138c-99 0 -168 49 -168 191v321h20v-296c0 -105 21 -195 145 -195c94 0 150 54 169 147c5 23 5 50 5 76v268h20v-361c0 -36 1 -94 2 -145z" />
    <glyph glyph-name="v" unicode="v" horiz-adv-x="480" 
d="M456 506l-206 -506h-19l-207 506h21l196 -478l194 478h21z" />
    <glyph glyph-name="w" unicode="w" horiz-adv-x="763" 
d="M739 506l-180 -506h-19l-157 476l-165 -476h-19l-175 506h22l163 -475l163 475h22l156 -478l167 478h22z" />
    <glyph glyph-name="x" unicode="x" horiz-adv-x="449" 
d="M437 0h-22l-189 244l-192 -244h-22l200 257l-188 249h21l181 -237l186 237h22l-195 -249z" />
    <glyph glyph-name="y" unicode="y" horiz-adv-x="469" 
d="M445 506l-273 -696h-22l79 200l-205 496h22l194 -468l183 468h22z" />
    <glyph glyph-name="z" unicode="z" horiz-adv-x="420" 
d="M376 0h-332v21l309 465h-302v20h319v-28l-304 -458h310v-20z" />
    <glyph glyph-name="braceleft" unicode="{" horiz-adv-x="364" 
d="M25 279v20c116 10 143 45 143 154v60c0 133 38 210 166 210v-18c-112 0 -146 -66 -146 -192v-60c0 -113 -33 -153 -124 -164c91 -11 124 -51 124 -164v-60c0 -126 34 -192 146 -192v-18c-128 0 -166 77 -166 210v60c0 109 -27 144 -143 154z" />
    <glyph glyph-name="bar" unicode="|" horiz-adv-x="222" 
d="M123 -214h-24v1000h24v-1000z" />
    <glyph glyph-name="braceright" unicode="}" horiz-adv-x="364" 
d="M339 279c-113 -10 -143 -46 -143 -163v-64c0 -118 -30 -196 -166 -196v20c117 0 143 70 143 180v60c0 95 10 159 127 173c-107 10 -127 72 -127 164v58c0 99 -17 192 -143 192v20c137 0 166 -90 166 -210v-60c0 -105 25 -144 143 -154v-20z" />
    <glyph glyph-name="asciitilde" unicode="~" horiz-adv-x="593" 
d="M429 209c57 0 79 37 90 88h20c-10 -55 -40 -106 -110 -106c-32 0 -75 17 -134 41c-49 20 -101 41 -131 41c-57 0 -79 -37 -90 -88h-20c10 55 40 106 110 106c32 0 76 -17 135 -41c49 -20 100 -41 130 -41z" />
    <glyph glyph-name="uni00A0" unicode="&#xa0;" horiz-adv-x="270" 
 />
    <glyph glyph-name="Agrave" unicode="&#xc0;" horiz-adv-x="643" 
d="M633 0h-24l-97 227h-387l-92 -227h-24l296 723h16zM502 248l-189 444l-180 -444h369zM362 778h-16l-102 143h29z" />
    <glyph glyph-name="Aacute" unicode="&#xc1;" horiz-adv-x="643" 
d="M633 0h-24l-97 227h-387l-92 -227h-24l296 723h16zM502 248l-189 444l-180 -444h369zM384 921l-102 -143h-16l89 143h29z" />
    <glyph glyph-name="Acircumflex" unicode="&#xc2;" horiz-adv-x="643" 
d="M633 0h-24l-97 227h-387l-92 -227h-24l296 723h16zM502 248l-189 444l-180 -444h369zM427 778h-17l-95 123l-99 -123h-17l102 143h28z" />
    <glyph glyph-name="Atilde" unicode="&#xc3;" horiz-adv-x="643" 
d="M633 0h-24l-97 227h-387l-92 -227h-24l296 723h16zM502 248l-189 444l-180 -444h369zM422 883c-10 -31 -29 -52 -65 -52c-15 0 -31 5 -47 10c-15 5 -29 10 -41 10c-26 0 -34 -7 -45 -29h-20c9 32 33 48 67 48c15 0 30 -5 45 -10c16 -5 29 -9 41 -9c24 0 34 9 45 32h20z
" />
    <glyph glyph-name="Adieresis" unicode="&#xc4;" horiz-adv-x="643" 
d="M633 0h-24l-97 227h-387l-92 -227h-24l296 723h16zM502 248l-189 444l-180 -444h369zM394 831h-19v55h19v-55zM256 831h-20v55h20v-55z" />
    <glyph glyph-name="Amacron" unicode="&#x100;" horiz-adv-x="643" 
d="M633 0h-24l-97 227h-387l-92 -227h-24l296 723h16zM502 248l-189 444l-180 -444h369zM415 835h-200v20h200v-20z" />
    <glyph glyph-name="Abreve" unicode="&#x102;" horiz-adv-x="643" 
d="M633 0h-24l-97 227h-387l-92 -227h-24l296 723h16zM502 248l-189 444l-180 -444h369zM426 875c-4 -38 -46 -79 -112 -79c-57 0 -107 32 -110 79h20c8 -38 47 -59 90 -59c41 0 77 14 92 59h20z" />
    <glyph glyph-name="Aring" unicode="&#xc5;" horiz-adv-x="643" 
d="M633 0h-24l-97 227h-387l-92 -227h-24l296 723h16zM502 248l-189 444l-180 -444h369zM235 823c0 45 35 80 80 80s80 -35 80 -80s-35 -80 -80 -80s-80 35 -80 80zM254 823c0 -36 26 -63 61 -63s61 27 61 63s-26 63 -61 63s-61 -27 -61 -63z" />
    <glyph glyph-name="Aogonek" unicode="&#x104;" horiz-adv-x="643" 
d="M502 248l-189 444l-180 -444h369zM498 -99c0 53 48 79 111 99l-97 227h-387l-92 -227h-24l296 723h16l312 -723c-72 -30 -111 -58 -111 -96s33 -52 65 -52c20 0 37 5 56 12l7 -14c-21 -10 -41 -16 -70 -16c-39 0 -82 19 -82 67z" />
    <glyph glyph-name="AE" unicode="&#xc6;" horiz-adv-x="969" 
d="M479 703l60 -315h350v-20h-346l66 -348h310v-20h-328l-42 219h-394l-137 -219h-24l452 723h457v-20h-424zM458 702l-290 -463h377z" />
    <glyph glyph-name="Cacute" unicode="&#x106;" horiz-adv-x="632" 
d="M576 160c-26 -105 -102 -170 -222 -170c-212 0 -290 181 -290 367c0 178 76 376 295 376c105 0 198 -48 212 -163h-21c-21 105 -99 143 -191 143c-204 0 -275 -196 -275 -356c0 -171 71 -347 273 -347c96 0 165 47 198 150h21zM397 921l-102 -143h-16l89 143h29z" />
    <glyph glyph-name="Ccircumflex" unicode="&#x108;" horiz-adv-x="632" 
d="M576 160c-26 -105 -102 -170 -222 -170c-212 0 -290 181 -290 367c0 178 76 376 295 376c105 0 198 -48 212 -163h-21c-21 105 -99 143 -191 143c-204 0 -275 -196 -275 -356c0 -171 71 -347 273 -347c96 0 165 47 198 150h21zM440 778h-17l-95 123l-99 -123h-17l102 143
h28z" />
    <glyph glyph-name="Ccaron" unicode="&#x10c;" horiz-adv-x="632" 
d="M576 160c-26 -105 -102 -170 -222 -170c-212 0 -290 181 -290 367c0 178 76 376 295 376c105 0 198 -48 212 -163h-21c-21 105 -99 143 -191 143c-204 0 -275 -196 -275 -356c0 -171 71 -347 273 -347c96 0 165 47 198 150h21zM442 921l-102 -143h-28l-98 143h17l95 -123
l99 123h17z" />
    <glyph glyph-name="Cdotaccent" unicode="&#x10a;" horiz-adv-x="632" 
d="M576 160c-26 -105 -102 -170 -222 -170c-212 0 -290 181 -290 367c0 178 76 376 295 376c105 0 198 -48 212 -163h-21c-21 105 -99 143 -191 143c-204 0 -275 -196 -275 -356c0 -171 71 -347 273 -347c96 0 165 47 198 150h21zM338 831h-20v55h20v-55z" />
    <glyph glyph-name="Ccedilla" unicode="&#xc7;" horiz-adv-x="632" 
d="M576 160c-26 -105 -102 -170 -222 -170h-3l-13 -43h10c42 0 76 -17 76 -57c0 -49 -38 -64 -81 -64c-28 0 -59 9 -91 24l7 16c32 -15 56 -23 89 -23c39 0 56 18 56 47c0 33 -31 40 -61 40c-9 0 -18 0 -28 -1l19 62c-197 11 -270 186 -270 366c0 178 76 376 295 376
c105 0 198 -48 212 -163h-21c-21 105 -99 143 -191 143c-204 0 -275 -196 -275 -356c0 -171 71 -347 273 -347c96 0 165 47 198 150h21z" />
    <glyph glyph-name="Dcaron" unicode="&#x10e;" horiz-adv-x="709" 
d="M645 366c0 -291 -184 -366 -372 -366h-155v723h166c68 0 109 -3 168 -24c103 -36 193 -132 193 -333zM625 365c0 246 -134 338 -336 338h-151v-683h128c258 0 359 134 359 345zM478 921l-102 -143h-28l-98 143h17l95 -123l99 123h17z" />
    <glyph glyph-name="Dcroat" unicode="&#x110;" horiz-adv-x="709" 
d="M645 366c0 -291 -184 -366 -372 -366h-155v396h-73v20h73v307h166c68 0 109 -3 168 -24c103 -36 193 -132 193 -333zM625 365c0 246 -134 338 -336 338h-151v-287h225v-20h-225v-376h128c258 0 359 134 359 345z" />
    <glyph glyph-name="Eth" unicode="&#xd0;" horiz-adv-x="709" 
d="M645 366c0 -291 -184 -366 -372 -366h-155v396h-73v20h73v307h166c68 0 109 -3 168 -24c103 -36 193 -132 193 -333zM625 365c0 246 -134 338 -336 338h-151v-287h225v-20h-225v-376h128c258 0 359 134 359 345z" />
    <glyph glyph-name="Egrave" unicode="&#xc8;" horiz-adv-x="586" 
d="M536 0h-418v723h401v-20h-381v-312h369v-21h-369v-350h398v-20zM356 778h-16l-102 143h29z" />
    <glyph glyph-name="Eacute" unicode="&#xc9;" horiz-adv-x="586" 
d="M536 0h-418v723h401v-20h-381v-312h369v-21h-369v-350h398v-20zM378 921l-102 -143h-16l89 143h29z" />
    <glyph glyph-name="Ecircumflex" unicode="&#xca;" horiz-adv-x="586" 
d="M536 0h-418v723h401v-20h-381v-312h369v-21h-369v-350h398v-20zM421 778h-17l-95 123l-99 -123h-17l102 143h28z" />
    <glyph glyph-name="Ecaron" unicode="&#x11a;" horiz-adv-x="586" 
d="M536 0h-418v723h401v-20h-381v-312h369v-21h-369v-350h398v-20zM423 921l-102 -143h-28l-98 143h17l95 -123l99 123h17z" />
    <glyph glyph-name="Edieresis" unicode="&#xcb;" horiz-adv-x="586" 
d="M536 0h-418v723h401v-20h-381v-312h369v-21h-369v-350h398v-20zM388 831h-19v55h19v-55zM250 831h-20v55h20v-55z" />
    <glyph glyph-name="Emacron" unicode="&#x112;" horiz-adv-x="586" 
d="M536 0h-418v723h401v-20h-381v-312h369v-21h-369v-350h398v-20zM409 835h-200v20h200v-20z" />
    <glyph glyph-name="Ebreve" unicode="&#x114;" horiz-adv-x="586" 
d="M536 0h-418v723h401v-20h-381v-312h369v-21h-369v-350h398v-20zM420 875c-4 -38 -46 -79 -112 -79c-57 0 -107 32 -110 79h20c8 -38 47 -59 90 -59c41 0 77 14 92 59h20z" />
    <glyph glyph-name="Edotaccent" unicode="&#x116;" horiz-adv-x="586" 
d="M536 0h-418v723h401v-20h-381v-312h369v-21h-369v-350h398v-20zM319 831h-20v55h20v-55z" />
    <glyph glyph-name="Eogonek" unicode="&#x118;" horiz-adv-x="586" 
d="M417 -96c0 -38 33 -52 65 -52c20 0 37 5 56 12l7 -14c-21 -10 -41 -16 -70 -16c-39 0 -82 19 -82 67c0 53 50 81 110 99h-385v723h401v-20h-381v-312h369v-21h-369v-350h398v-20c-79 -21 -119 -57 -119 -96z" />
    <glyph glyph-name="Gcircumflex" unicode="&#x11c;" horiz-adv-x="662" 
d="M590 35c-47 -18 -139 -40 -215 -40c-216 0 -311 177 -311 373c0 182 86 366 294 366c78 0 143 -28 181 -78c18 -23 33 -58 39 -99h-20c-13 99 -91 158 -202 158c-188 0 -272 -178 -272 -347c0 -180 87 -353 289 -353c66 0 136 12 197 35v278h-199v20h219v-313zM465 778
h-17l-95 123l-99 -123h-17l102 143h28z" />
    <glyph glyph-name="Gbreve" unicode="&#x11e;" horiz-adv-x="662" 
d="M590 35c-47 -18 -139 -40 -215 -40c-216 0 -311 177 -311 373c0 182 86 366 294 366c78 0 143 -28 181 -78c18 -23 33 -58 39 -99h-20c-13 99 -91 158 -202 158c-188 0 -272 -178 -272 -347c0 -180 87 -353 289 -353c66 0 136 12 197 35v278h-199v20h219v-313zM464 875
c-4 -38 -46 -79 -112 -79c-57 0 -107 32 -110 79h20c8 -38 47 -59 90 -59c41 0 77 14 92 59h20z" />
    <glyph glyph-name="Gdotaccent" unicode="&#x120;" horiz-adv-x="662" 
d="M590 35c-47 -18 -139 -40 -215 -40c-216 0 -311 177 -311 373c0 182 86 366 294 366c78 0 143 -28 181 -78c18 -23 33 -58 39 -99h-20c-13 99 -91 158 -202 158c-188 0 -272 -178 -272 -347c0 -180 87 -353 289 -353c66 0 136 12 197 35v278h-199v20h219v-313zM363 831
h-20v55h20v-55z" />
    <glyph glyph-name="Gcommaaccent" unicode="&#x122;" horiz-adv-x="662" 
d="M590 35c-47 -18 -139 -40 -215 -40c-216 0 -311 177 -311 373c0 182 86 366 294 366c78 0 143 -28 181 -78c18 -23 33 -58 39 -99h-20c-13 99 -91 158 -202 158c-188 0 -272 -178 -272 -347c0 -180 87 -353 289 -353c66 0 136 12 197 35v278h-199v20h219v-313zM328 -54
h28l-35 -147h-15z" />
    <glyph glyph-name="Hcircumflex" unicode="&#x124;" horiz-adv-x="722" 
d="M604 0h-20v366h-446v-366h-20v723h20v-337h446v337h20v-723zM474 778h-17l-95 123l-99 -123h-17l102 143h28z" />
    <glyph glyph-name="Hbar" unicode="&#x126;" horiz-adv-x="722" 
d="M584 386v100h-446v-100h446zM604 0h-20v366h-446v-366h-20v723h20v-217h446v217h20v-723z" />
    <glyph glyph-name="Igrave" unicode="&#xcc;" horiz-adv-x="256" 
d="M138 0h-20v723h20v-723zM175 778h-16l-102 143h29z" />
    <glyph glyph-name="Iacute" unicode="&#xcd;" horiz-adv-x="256" 
d="M138 0h-20v723h20v-723zM197 921l-102 -143h-16l89 143h29z" />
    <glyph glyph-name="Ibreve" unicode="&#x12c;" horiz-adv-x="256" 
d="M138 0h-20v723h20v-723zM239 875c-4 -38 -46 -79 -112 -79c-57 0 -107 32 -110 79h20c8 -38 47 -59 90 -59c41 0 77 14 92 59h20z" />
    <glyph glyph-name="Icircumflex" unicode="&#xce;" horiz-adv-x="256" 
d="M138 0h-20v723h20v-723zM240 778h-17l-95 123l-99 -123h-17l102 143h28z" />
    <glyph glyph-name="Itilde" unicode="&#x128;" horiz-adv-x="256" 
d="M138 0h-20v723h20v-723zM235 883c-10 -31 -29 -52 -65 -52c-15 0 -31 5 -47 10c-15 5 -29 10 -41 10c-26 0 -34 -7 -45 -29h-20c9 32 33 48 67 48c15 0 30 -5 45 -10c16 -5 29 -9 41 -9c24 0 34 9 45 32h20z" />
    <glyph glyph-name="Idieresis" unicode="&#xcf;" horiz-adv-x="256" 
d="M138 0h-20v723h20v-723zM207 831h-19v55h19v-55zM69 831h-20v55h20v-55z" />
    <glyph glyph-name="Imacron" unicode="&#x12a;" horiz-adv-x="256" 
d="M138 0h-20v723h20v-723zM228 835h-200v20h200v-20z" />
    <glyph glyph-name="Idotaccent" unicode="&#x130;" horiz-adv-x="256" 
d="M138 0h-20v723h20v-723zM138 831h-20v55h20v-55z" />
    <glyph glyph-name="Iogonek" unicode="&#x12e;" horiz-adv-x="256" 
d="M7 -99c0 53 48 79 111 99v723h20v-723c-62 -23 -107 -58 -107 -96s33 -52 65 -52c20 0 37 5 56 12l7 -14c-21 -10 -41 -16 -70 -16c-39 0 -82 19 -82 67z" />
    <glyph glyph-name="Jcircumflex" unicode="&#x134;" horiz-adv-x="461" 
d="M361 199c0 -111 -51 -204 -182 -204c-94 0 -163 56 -163 152v11h21v-11c0 -85 57 -132 143 -132c116 0 161 80 161 191v517h20v-524zM464 778h-17l-95 123l-99 -123h-17l102 143h28z" />
    <glyph glyph-name="Kcommaaccent" unicode="&#x136;" horiz-adv-x="575" 
d="M565 0h-27l-397 390l362 333h26l-362 -333zM138 0h-20v723h20v-723zM310 -54h28l-35 -147h-15z" />
    <glyph glyph-name="Lacute" unicode="&#x139;" horiz-adv-x="526" 
d="M514 0h-396v723h20v-703h376v-20zM236 921l-102 -143h-16l89 143h29z" />
    <glyph glyph-name="Lcaron" unicode="&#x13d;" horiz-adv-x="526" 
d="M514 0h-396v723h20v-703h376v-20zM261 723h32l-37 -181h-16z" />
    <glyph glyph-name="Lcommaaccent" unicode="&#x13b;" horiz-adv-x="526" 
d="M514 0h-396v723h20v-703h376v-20zM306 -54h28l-35 -147h-15z" />
    <glyph glyph-name="Lslash" unicode="&#x141;" horiz-adv-x="558" 
d="M512 0h-396v344l-56 -34v21l56 34v358h20v-343l221 134v-21l-221 -134v-339h376v-20z" />
    <glyph glyph-name="Ldot" unicode="&#x13f;" horiz-adv-x="526" 
d="M514 0h-396v723h20v-703h376v-20zM328 377h-20v55h20v-55z" />
    <glyph glyph-name="Nacute" unicode="&#x143;" horiz-adv-x="732" 
d="M614 0h-21l-451 684h-4v-684h-20v723h21l451 -684h4v684h20v-723zM432 921l-102 -143h-16l89 143h29z" />
    <glyph glyph-name="Ncaron" unicode="&#x147;" horiz-adv-x="732" 
d="M614 0h-21l-451 684h-4v-684h-20v723h21l451 -684h4v684h20v-723zM477 921l-102 -143h-28l-98 143h17l95 -123l99 123h17z" />
    <glyph glyph-name="Ntilde" unicode="&#xd1;" horiz-adv-x="732" 
d="M614 0h-21l-451 684h-4v-684h-20v723h21l451 -684h4v684h20v-723zM470 883c-10 -31 -29 -52 -65 -52c-15 0 -31 5 -47 10c-15 5 -29 10 -41 10c-26 0 -34 -7 -45 -29h-20c9 32 33 48 67 48c15 0 30 -5 45 -10c16 -5 29 -9 41 -9c24 0 34 9 45 32h20z" />
    <glyph glyph-name="Ncommaaccent" unicode="&#x145;" horiz-adv-x="732" 
d="M614 0h-21l-451 684h-4v-684h-20v723h21l451 -684h4v684h20v-723zM348 -54h28l-35 -147h-15z" />
    <glyph glyph-name="Ograve" unicode="&#xd2;" horiz-adv-x="736" 
d="M672 365c0 -189 -89 -376 -300 -376s-308 187 -308 375c0 196 93 369 309 369c221 0 299 -170 299 -368zM652 364c0 188 -72 349 -279 349c-204 0 -288 -166 -288 -349c0 -172 86 -355 288 -355c198 0 279 185 279 355zM420 778h-16l-102 143h29z" />
    <glyph glyph-name="Oacute" unicode="&#xd3;" horiz-adv-x="736" 
d="M672 365c0 -189 -89 -376 -300 -376s-308 187 -308 375c0 196 93 369 309 369c221 0 299 -170 299 -368zM652 364c0 188 -72 349 -279 349c-204 0 -288 -166 -288 -349c0 -172 86 -355 288 -355c198 0 279 185 279 355zM442 921l-102 -143h-16l89 143h29z" />
    <glyph glyph-name="Ocircumflex" unicode="&#xd4;" horiz-adv-x="736" 
d="M672 365c0 -189 -89 -376 -300 -376s-308 187 -308 375c0 196 93 369 309 369c221 0 299 -170 299 -368zM652 364c0 188 -72 349 -279 349c-204 0 -288 -166 -288 -349c0 -172 86 -355 288 -355c198 0 279 185 279 355zM485 778h-17l-95 123l-99 -123h-17l102 143h28z
" />
    <glyph glyph-name="Otilde" unicode="&#xd5;" horiz-adv-x="736" 
d="M672 365c0 -189 -89 -376 -300 -376s-308 187 -308 375c0 196 93 369 309 369c221 0 299 -170 299 -368zM652 364c0 188 -72 349 -279 349c-204 0 -288 -166 -288 -349c0 -172 86 -355 288 -355c198 0 279 185 279 355zM480 883c-10 -31 -29 -52 -65 -52
c-15 0 -31 5 -47 10c-15 5 -29 10 -41 10c-26 0 -34 -7 -45 -29h-20c9 32 33 48 67 48c15 0 30 -5 45 -10c16 -5 29 -9 41 -9c24 0 34 9 45 32h20z" />
    <glyph glyph-name="Odieresis" unicode="&#xd6;" horiz-adv-x="736" 
d="M672 365c0 -189 -89 -376 -300 -376s-308 187 -308 375c0 196 93 369 309 369c221 0 299 -170 299 -368zM652 364c0 188 -72 349 -279 349c-204 0 -288 -166 -288 -349c0 -172 86 -355 288 -355c198 0 279 185 279 355zM452 831h-19v55h19v-55zM314 831h-20v55h20v-55z
" />
    <glyph glyph-name="Omacron" unicode="&#x14c;" horiz-adv-x="736" 
d="M672 365c0 -189 -89 -376 -300 -376s-308 187 -308 375c0 196 93 369 309 369c221 0 299 -170 299 -368zM652 364c0 188 -72 349 -279 349c-204 0 -288 -166 -288 -349c0 -172 86 -355 288 -355c198 0 279 185 279 355zM473 835h-200v20h200v-20z" />
    <glyph glyph-name="Obreve" unicode="&#x14e;" horiz-adv-x="736" 
d="M672 365c0 -189 -89 -376 -300 -376s-308 187 -308 375c0 196 93 369 309 369c221 0 299 -170 299 -368zM652 364c0 188 -72 349 -279 349c-204 0 -288 -166 -288 -349c0 -172 86 -355 288 -355c198 0 279 185 279 355zM484 875c-4 -38 -46 -79 -112 -79
c-57 0 -107 32 -110 79h20c8 -38 47 -59 90 -59c41 0 77 14 92 59h20z" />
    <glyph glyph-name="Ohungarumlaut" unicode="&#x150;" horiz-adv-x="736" 
d="M672 365c0 -189 -89 -376 -300 -376s-308 187 -308 375c0 196 93 369 309 369c221 0 299 -170 299 -368zM652 364c0 188 -72 349 -279 349c-204 0 -288 -166 -288 -349c0 -172 86 -355 288 -355c198 0 279 185 279 355zM533 921l-102 -143h-16l89 143h29zM429 921
l-102 -143h-16l89 143h29z" />
    <glyph glyph-name="Oslash" unicode="&#xd8;" horiz-adv-x="736" 
d="M675 715l-75 -88c49 -68 69 -161 69 -262c0 -189 -89 -376 -300 -376c-100 0 -174 42 -225 106l-79 -93l-13 11l82 96c-49 70 -73 162 -73 255c0 196 93 369 309 369c101 0 172 -35 219 -92l73 85zM575 625c-44 55 -110 88 -205 88c-204 0 -288 -166 -288 -349
c0 -84 21 -172 66 -239zM649 364c0 95 -18 183 -63 247l-428 -500c47 -61 117 -102 212 -102c198 0 279 185 279 355z" />
    <glyph glyph-name="OE" unicode="&#x152;" horiz-adv-x="977" 
d="M927 20v-20h-247c-45 0 -90 0 -134 -2c-38 -2 -75 -6 -113 -6c-119 0 -205 27 -263 76c-67 55 -104 151 -104 289c0 154 50 256 139 316c43 29 120 57 214 57c37 0 73 -3 110 -5c35 -2 71 -2 106 -2h276v-20h-351v-315h338v-20h-338v-348h367zM540 17v687
c-36 3 -75 6 -110 6c-213 0 -344 -108 -344 -353c0 -237 108 -345 341 -345c37 0 79 1 113 5z" />
    <glyph glyph-name="Racute" unicode="&#x154;" horiz-adv-x="629" 
d="M561 0h-24c-19 36 -28 66 -35 150c-17 191 -30 224 -171 224h-193v-374h-20v723h221c63 0 114 -13 153 -47c28 -25 51 -66 51 -122c0 -90 -57 -153 -137 -168c79 -13 105 -64 116 -232c5 -79 17 -123 39 -154zM523 553c0 117 -92 150 -191 150h-194v-309h166
c104 0 219 24 219 159zM388 921l-102 -143h-16l89 143h29z" />
    <glyph glyph-name="Rcaron" unicode="&#x158;" horiz-adv-x="629" 
d="M561 0h-24c-19 36 -28 66 -35 150c-17 191 -30 224 -171 224h-193v-374h-20v723h221c63 0 114 -13 153 -47c28 -25 51 -66 51 -122c0 -90 -57 -153 -137 -168c79 -13 105 -64 116 -232c5 -79 17 -123 39 -154zM523 553c0 117 -92 150 -191 150h-194v-309h166
c104 0 219 24 219 159zM433 921l-102 -143h-28l-98 143h17l95 -123l99 123h17z" />
    <glyph glyph-name="Rcommaaccent" unicode="&#x156;" horiz-adv-x="629" 
d="M561 0h-24c-19 36 -28 66 -35 150c-17 191 -30 224 -171 224h-193v-374h-20v723h221c63 0 114 -13 153 -47c28 -25 51 -66 51 -122c0 -90 -57 -153 -137 -168c79 -13 105 -64 116 -232c5 -79 17 -123 39 -154zM523 553c0 117 -92 150 -191 150h-194v-309h166
c104 0 219 24 219 159zM306 -54h28l-35 -147h-15z" />
    <glyph glyph-name="Sacute" unicode="&#x15a;" horiz-adv-x="555" 
d="M497 184c0 -136 -108 -192 -228 -192c-125 0 -204 69 -211 187h21c3 -81 55 -167 191 -167c98 0 207 43 207 171c0 99 -82 135 -174 166l-73 25c-92 31 -167 75 -167 174c0 124 104 181 216 181c103 0 203 -41 208 -149h-21c-8 97 -102 129 -187 129
c-95 0 -196 -47 -196 -160c0 -89 71 -126 155 -155l75 -25c95 -33 184 -73 184 -185zM351 921l-102 -143h-16l89 143h29z" />
    <glyph glyph-name="Scircumflex" unicode="&#x15c;" horiz-adv-x="555" 
d="M497 184c0 -136 -108 -192 -228 -192c-125 0 -204 69 -211 187h21c3 -81 55 -167 191 -167c98 0 207 43 207 171c0 99 -82 135 -174 166l-73 25c-92 31 -167 75 -167 174c0 124 104 181 216 181c103 0 203 -41 208 -149h-21c-8 97 -102 129 -187 129
c-95 0 -196 -47 -196 -160c0 -89 71 -126 155 -155l75 -25c95 -33 184 -73 184 -185zM394 778h-17l-95 123l-99 -123h-17l102 143h28z" />
    <glyph glyph-name="Scaron" unicode="&#x160;" horiz-adv-x="555" 
d="M497 184c0 -136 -108 -192 -228 -192c-125 0 -204 69 -211 187h21c3 -81 55 -167 191 -167c98 0 207 43 207 171c0 99 -82 135 -174 166l-73 25c-92 31 -167 75 -167 174c0 124 104 181 216 181c103 0 203 -41 208 -149h-21c-8 97 -102 129 -187 129
c-95 0 -196 -47 -196 -160c0 -89 71 -126 155 -155l75 -25c95 -33 184 -73 184 -185zM396 921l-102 -143h-28l-98 143h17l95 -123l99 123h17z" />
    <glyph glyph-name="Scedilla" unicode="&#x15e;" horiz-adv-x="555" 
d="M365 -110c0 -49 -38 -64 -81 -64c-28 0 -59 9 -91 24l7 16c32 -15 56 -23 89 -23c39 0 56 18 56 47c0 33 -31 40 -61 40c-9 0 -18 0 -28 -1l19 63h-6c-125 0 -204 69 -211 187h21c3 -81 55 -167 191 -167c98 0 207 43 207 171c0 99 -82 135 -174 166l-73 25
c-92 31 -167 75 -167 174c0 124 104 181 216 181c103 0 203 -41 208 -149h-21c-8 97 -102 129 -187 129c-95 0 -196 -47 -196 -160c0 -89 71 -126 155 -155l75 -25c95 -33 184 -73 184 -185c0 -127 -94 -184 -205 -191l-13 -46h10c42 0 76 -17 76 -57z" />
    <glyph glyph-name="Scommaaccent" unicode="&#x218;" horiz-adv-x="555" 
d="M497 184c0 -136 -108 -192 -228 -192c-125 0 -204 69 -211 187h21c3 -81 55 -167 191 -167c98 0 207 43 207 171c0 99 -82 135 -174 166l-73 25c-92 31 -167 75 -167 174c0 124 104 181 216 181c103 0 203 -41 208 -149h-21c-8 97 -102 129 -187 129
c-95 0 -196 -47 -196 -160c0 -89 71 -126 155 -155l75 -25c95 -33 184 -73 184 -185zM269 -54h28l-35 -147h-15z" />
    <glyph glyph-name="Tcaron" unicode="&#x164;" horiz-adv-x="501" 
d="M495 703h-235v-703h-20v703h-234v20h489v-20zM365 921l-102 -143h-28l-98 143h17l95 -123l99 123h17z" />
    <glyph glyph-name="uni0162" unicode="&#x162;" horiz-adv-x="501" 
d="M495 703h-235v-703h-20v703h-234v20h489v-20zM236 -54h28l-35 -147h-15z" />
    <glyph glyph-name="uni021A" unicode="&#x21a;" horiz-adv-x="501" 
d="M495 703h-235v-703h-20v703h-234v20h489v-20zM236 -54h28l-35 -147h-15z" />
    <glyph glyph-name="Tbar" unicode="&#x166;" horiz-adv-x="501" 
d="M495 723v-20h-235v-310h223v-20h-223v-373h-20v373h-215v20h215v310h-234v20h489z" />
    <glyph glyph-name="Thorn" unicode="&#xde;" horiz-adv-x="565" 
d="M138 569h145c57 0 118 -2 168 -33c54 -33 74 -92 74 -154c0 -88 -43 -150 -117 -177c-43 -16 -118 -17 -173 -17h-97v-188h-20v723h20v-154zM505 382c0 136 -97 167 -208 167h-159v-341h117c43 0 98 0 141 13c70 21 109 86 109 161z" />
    <glyph glyph-name="Ugrave" unicode="&#xd9;" horiz-adv-x="714" 
d="M614 268c0 -175 -76 -276 -257 -276c-169 0 -257 91 -257 276v455h20v-450c0 -157 58 -261 237 -261c176 0 237 96 237 261v450h20v-455zM405 778h-16l-102 143h29z" />
    <glyph glyph-name="Uacute" unicode="&#xda;" horiz-adv-x="714" 
d="M614 268c0 -175 -76 -276 -257 -276c-169 0 -257 91 -257 276v455h20v-450c0 -157 58 -261 237 -261c176 0 237 96 237 261v450h20v-455zM427 921l-102 -143h-16l89 143h29z" />
    <glyph glyph-name="Ucircumflex" unicode="&#xdb;" horiz-adv-x="714" 
d="M614 268c0 -175 -76 -276 -257 -276c-169 0 -257 91 -257 276v455h20v-450c0 -157 58 -261 237 -261c176 0 237 96 237 261v450h20v-455zM470 778h-17l-95 123l-99 -123h-17l102 143h28z" />
    <glyph glyph-name="Utilde" unicode="&#x168;" horiz-adv-x="714" 
d="M614 268c0 -175 -76 -276 -257 -276c-169 0 -257 91 -257 276v455h20v-450c0 -157 58 -261 237 -261c176 0 237 96 237 261v450h20v-455zM465 883c-10 -31 -29 -52 -65 -52c-15 0 -31 5 -47 10c-15 5 -29 10 -41 10c-26 0 -34 -7 -45 -29h-20c9 32 33 48 67 48
c15 0 30 -5 45 -10c16 -5 29 -9 41 -9c24 0 34 9 45 32h20z" />
    <glyph glyph-name="Udieresis" unicode="&#xdc;" horiz-adv-x="714" 
d="M614 268c0 -175 -76 -276 -257 -276c-169 0 -257 91 -257 276v455h20v-450c0 -157 58 -261 237 -261c176 0 237 96 237 261v450h20v-455zM437 831h-19v55h19v-55zM299 831h-20v55h20v-55z" />
    <glyph glyph-name="Umacron" unicode="&#x16a;" horiz-adv-x="714" 
d="M614 268c0 -175 -76 -276 -257 -276c-169 0 -257 91 -257 276v455h20v-450c0 -157 58 -261 237 -261c176 0 237 96 237 261v450h20v-455zM458 835h-200v20h200v-20z" />
    <glyph glyph-name="Ubreve" unicode="&#x16c;" horiz-adv-x="714" 
d="M614 268c0 -175 -76 -276 -257 -276c-169 0 -257 91 -257 276v455h20v-450c0 -157 58 -261 237 -261c176 0 237 96 237 261v450h20v-455zM469 875c-4 -38 -46 -79 -112 -79c-57 0 -107 32 -110 79h20c8 -38 47 -59 90 -59c41 0 77 14 92 59h20z" />
    <glyph glyph-name="Uring" unicode="&#x16e;" horiz-adv-x="714" 
d="M614 268c0 -175 -76 -276 -257 -276c-169 0 -257 91 -257 276v455h20v-450c0 -157 58 -261 237 -261c176 0 237 96 237 261v450h20v-455zM278 823c0 45 35 80 80 80s80 -35 80 -80s-35 -80 -80 -80s-80 35 -80 80zM297 823c0 -36 26 -63 61 -63s61 27 61 63
s-26 63 -61 63s-61 -27 -61 -63z" />
    <glyph glyph-name="Uhungarumlaut" unicode="&#x170;" horiz-adv-x="714" 
d="M614 268c0 -175 -76 -276 -257 -276c-169 0 -257 91 -257 276v455h20v-450c0 -157 58 -261 237 -261c176 0 237 96 237 261v450h20v-455zM518 921l-102 -143h-16l89 143h29zM414 921l-102 -143h-16l89 143h29z" />
    <glyph glyph-name="Uogonek" unicode="&#x172;" horiz-adv-x="714" 
d="M275 -99c0 46 37 72 87 91h-5c-169 0 -257 91 -257 276v455h20v-450c0 -157 58 -261 237 -261c176 0 237 96 237 261v450h20v-455c0 -165 -68 -264 -226 -275c-56 -28 -89 -54 -89 -89c0 -38 33 -52 65 -52c20 0 37 5 56 12l7 -14c-21 -10 -41 -16 -70 -16
c-39 0 -82 19 -82 67z" />
    <glyph glyph-name="Wacute" unicode="&#x1e82;" horiz-adv-x="971" 
d="M947 723l-195 -723h-27l-242 683h-7l-233 -683h-31l-188 723h21l182 -699h6l234 699h23l245 -700h6l184 700h22zM564 921l-102 -143h-16l89 143h29z" />
    <glyph glyph-name="Wcircumflex" unicode="&#x174;" horiz-adv-x="971" 
d="M947 723l-195 -723h-27l-242 683h-7l-233 -683h-31l-188 723h21l182 -699h6l234 699h23l245 -700h6l184 700h22zM592 778h-17l-95 123l-99 -123h-17l102 143h28z" />
    <glyph glyph-name="Wdieresis" unicode="&#x1e84;" horiz-adv-x="971" 
d="M947 723l-195 -723h-27l-242 683h-7l-233 -683h-31l-188 723h21l182 -699h6l234 699h23l245 -700h6l184 700h22zM557 831h-19v55h19v-55zM419 831h-20v55h20v-55z" />
    <glyph glyph-name="Wgrave" unicode="&#x1e80;" horiz-adv-x="971" 
d="M947 723l-195 -723h-27l-242 683h-7l-233 -683h-31l-188 723h21l182 -699h6l234 699h23l245 -700h6l184 700h22zM516 778h-16l-102 143h29z" />
    <glyph glyph-name="Yacute" unicode="&#xdd;" horiz-adv-x="569" 
d="M575 723l-280 -395v-328h-20v328l-281 395h24l267 -378l266 378h24zM355 921l-102 -143h-16l89 143h29z" />
    <glyph glyph-name="Ycircumflex" unicode="&#x176;" horiz-adv-x="569" 
d="M575 723l-280 -395v-328h-20v328l-281 395h24l267 -378l266 378h24zM398 778h-17l-95 123l-99 -123h-17l102 143h28z" />
    <glyph glyph-name="Ydieresis" unicode="&#x178;" horiz-adv-x="569" 
d="M575 723l-280 -395v-328h-20v328l-281 395h24l267 -378l266 378h24zM365 831h-19v55h19v-55zM227 831h-20v55h20v-55z" />
    <glyph glyph-name="Ygrave" unicode="&#x1ef2;" horiz-adv-x="569" 
d="M575 723l-280 -395v-328h-20v328l-281 395h24l267 -378l266 378h24zM333 778h-16l-102 143h29z" />
    <glyph glyph-name="Zacute" unicode="&#x179;" horiz-adv-x="525" 
d="M505 0h-485v19l453 684h-421v20h443v-21l-450 -682h460v-20zM340 921l-102 -143h-16l89 143h29z" />
    <glyph glyph-name="Zcaron" unicode="&#x17d;" horiz-adv-x="525" 
d="M505 0h-485v19l453 684h-421v20h443v-21l-450 -682h460v-20zM385 921l-102 -143h-28l-98 143h17l95 -123l99 123h17z" />
    <glyph glyph-name="Zdotaccent" unicode="&#x17b;" horiz-adv-x="525" 
d="M505 0h-485v19l453 684h-421v20h443v-21l-450 -682h460v-20zM281 831h-20v55h20v-55z" />
    <glyph glyph-name="agrave" unicode="&#xe0;" horiz-adv-x="513" 
d="M428 0h-18c-1 26 -1 81 -1 134c-17 -98 -103 -145 -179 -145c-72 0 -172 27 -172 145c0 143 151 165 271 165c24 0 57 -1 77 -2v33c0 107 -41 162 -149 162c-70 0 -127 -27 -138 -109h-20c5 89 79 129 158 129c122 0 169 -61 169 -181v-184c0 -49 1 -99 2 -147zM406 212
v65c-17 1 -44 2 -63 2c-98 0 -265 -6 -265 -146c0 -91 70 -124 150 -124c119 0 178 92 178 203zM304 593h-16l-102 143h29z" />
    <glyph glyph-name="aacute" unicode="&#xe1;" horiz-adv-x="513" 
d="M428 0h-18c-1 26 -1 81 -1 134c-17 -98 -103 -145 -179 -145c-72 0 -172 27 -172 145c0 143 151 165 271 165c24 0 57 -1 77 -2v33c0 107 -41 162 -149 162c-70 0 -127 -27 -138 -109h-20c5 89 79 129 158 129c122 0 169 -61 169 -181v-184c0 -49 1 -99 2 -147zM406 212
v65c-17 1 -44 2 -63 2c-98 0 -265 -6 -265 -146c0 -91 70 -124 150 -124c119 0 178 92 178 203zM328 736l-102 -143h-16l89 143h29z" />
    <glyph glyph-name="acircumflex" unicode="&#xe2;" horiz-adv-x="513" 
d="M428 0h-18c-1 26 -1 81 -1 134c-17 -98 -103 -145 -179 -145c-72 0 -172 27 -172 145c0 143 151 165 271 165c24 0 57 -1 77 -2v33c0 107 -41 162 -149 162c-70 0 -127 -27 -138 -109h-20c5 89 79 129 158 129c122 0 169 -61 169 -181v-184c0 -49 1 -99 2 -147zM406 212
v65c-17 1 -44 2 -63 2c-98 0 -265 -6 -265 -146c0 -91 70 -124 150 -124c119 0 178 92 178 203zM372 593h-17l-95 123l-99 -123h-17l102 143h28z" />
    <glyph glyph-name="atilde" unicode="&#xe3;" horiz-adv-x="513" 
d="M428 0h-18c-1 26 -1 81 -1 134c-17 -98 -103 -145 -179 -145c-72 0 -172 27 -172 145c0 143 151 165 271 165c24 0 57 -1 77 -2v33c0 107 -41 162 -149 162c-70 0 -127 -27 -138 -109h-20c5 89 79 129 158 129c122 0 169 -61 169 -181v-184c0 -49 1 -99 2 -147zM406 212
v65c-17 1 -44 2 -63 2c-98 0 -265 -6 -265 -146c0 -91 70 -124 150 -124c119 0 178 92 178 203zM367 698c-10 -31 -29 -52 -65 -52c-15 0 -31 5 -47 10c-15 5 -29 10 -41 10c-26 0 -34 -7 -45 -29h-20c9 32 33 48 67 48c15 0 30 -5 45 -10c16 -5 29 -9 41 -9
c24 0 34 9 45 32h20z" />
    <glyph glyph-name="adieresis" unicode="&#xe4;" horiz-adv-x="513" 
d="M428 0h-18c-1 26 -1 81 -1 134c-17 -98 -103 -145 -179 -145c-72 0 -172 27 -172 145c0 143 151 165 271 165c24 0 57 -1 77 -2v33c0 107 -41 162 -149 162c-70 0 -127 -27 -138 -109h-20c5 89 79 129 158 129c122 0 169 -61 169 -181v-184c0 -49 1 -99 2 -147zM406 212
v65c-17 1 -44 2 -63 2c-98 0 -265 -6 -265 -146c0 -91 70 -124 150 -124c119 0 178 92 178 203zM336 666h-19v55h19v-55zM198 666h-20v55h20v-55z" />
    <glyph glyph-name="amacron" unicode="&#x101;" horiz-adv-x="513" 
d="M428 0h-18c-1 26 -1 81 -1 134c-17 -98 -103 -145 -179 -145c-72 0 -172 27 -172 145c0 143 151 165 271 165c24 0 57 -1 77 -2v33c0 107 -41 162 -149 162c-70 0 -127 -27 -138 -109h-20c5 89 79 129 158 129c122 0 169 -61 169 -181v-184c0 -49 1 -99 2 -147zM406 212
v65c-17 1 -44 2 -63 2c-98 0 -265 -6 -265 -146c0 -91 70 -124 150 -124c119 0 178 92 178 203zM357 660h-200v20h200v-20z" />
    <glyph glyph-name="abreve" unicode="&#x103;" horiz-adv-x="513" 
d="M428 0h-18c-1 26 -1 81 -1 134c-17 -98 -103 -145 -179 -145c-72 0 -172 27 -172 145c0 143 151 165 271 165c24 0 57 -1 77 -2v33c0 107 -41 162 -149 162c-70 0 -127 -27 -138 -109h-20c5 89 79 129 158 129c122 0 169 -61 169 -181v-184c0 -49 1 -99 2 -147zM406 212
v65c-17 1 -44 2 -63 2c-98 0 -265 -6 -265 -146c0 -91 70 -124 150 -124c119 0 178 92 178 203zM369 690c-4 -38 -46 -79 -112 -79c-57 0 -107 32 -110 79h20c8 -38 47 -59 90 -59c41 0 77 14 92 59h20z" />
    <glyph glyph-name="aring" unicode="&#xe5;" horiz-adv-x="513" 
d="M428 0h-18c-1 26 -1 81 -1 134c-17 -98 -103 -145 -179 -145c-72 0 -172 27 -172 145c0 143 151 165 271 165c24 0 57 -1 77 -2v33c0 107 -41 162 -149 162c-70 0 -127 -27 -138 -109h-20c5 89 79 129 158 129c122 0 169 -61 169 -181v-184c0 -49 1 -99 2 -147zM406 212
v65c-17 1 -44 2 -63 2c-98 0 -265 -6 -265 -146c0 -91 70 -124 150 -124c119 0 178 92 178 203zM177 655c0 45 35 80 80 80s80 -35 80 -80s-35 -80 -80 -80s-80 35 -80 80zM196 655c0 -36 26 -63 61 -63s61 27 61 63s-26 63 -61 63s-61 -27 -61 -63z" />
    <glyph glyph-name="aogonek" unicode="&#x105;" horiz-adv-x="513" 
d="M449 -150c-21 -10 -41 -16 -70 -16c-39 0 -82 19 -82 67c0 54 50 79 114 99c0 30 -1 89 -2 134c-17 -98 -103 -145 -179 -145c-72 0 -172 27 -172 145c0 143 151 165 271 165c24 0 57 -1 77 -2v33c0 107 -41 162 -149 162c-70 0 -127 -27 -138 -109h-20
c5 89 79 129 158 129c122 0 169 -61 169 -181v-184c0 -49 1 -99 2 -147c-68 -30 -107 -58 -107 -96s33 -52 65 -52c20 0 37 5 56 12zM406 212v65c-17 1 -44 2 -63 2c-98 0 -265 -6 -265 -146c0 -91 70 -124 150 -124c119 0 178 92 178 203z" />
    <glyph glyph-name="ae" unicode="&#xe6;" horiz-adv-x="808" 
d="M757 256h-353v-19c3 -113 41 -228 165 -228c82 0 140 56 154 136h20c-10 -82 -71 -156 -174 -156c-79 0 -163 47 -171 178c-5 -132 -92 -178 -170 -178c-84 0 -170 48 -170 142c0 134 121 145 228 145h98v16c0 101 -18 202 -144 202c-74 0 -120 -36 -140 -112h-21
c5 35 21 62 35 80c27 33 73 52 126 52c76 0 150 -29 158 -164c8 108 93 164 174 164c141 0 185 -117 185 -243v-15zM385 223c0 8 0 25 -1 33h-117c-125 0 -189 -36 -189 -125c0 -85 81 -122 149 -122c127 0 158 97 158 214zM737 276c-2 109 -35 218 -165 218
c-149 0 -165 -153 -168 -218h333z" />
    <glyph glyph-name="cacute" unicode="&#x107;" horiz-adv-x="505" 
d="M459 152c-4 -78 -72 -163 -186 -163c-148 0 -222 117 -222 258c0 143 68 268 227 268c103 0 170 -63 178 -159h-20c-9 89 -72 139 -159 139c-146 0 -206 -114 -206 -247c0 -127 68 -239 203 -239c124 0 161 103 165 143h20zM337 736l-102 -143h-16l89 143h29z" />
    <glyph glyph-name="ccircumflex" unicode="&#x109;" horiz-adv-x="505" 
d="M459 152c-4 -78 -72 -163 -186 -163c-148 0 -222 117 -222 258c0 143 68 268 227 268c103 0 170 -63 178 -159h-20c-9 89 -72 139 -159 139c-146 0 -206 -114 -206 -247c0 -127 68 -239 203 -239c124 0 161 103 165 143h20zM381 593h-17l-95 123l-99 -123h-17l102 143h28
z" />
    <glyph glyph-name="ccaron" unicode="&#x10d;" horiz-adv-x="505" 
d="M459 152c-4 -78 -72 -163 -186 -163c-148 0 -222 117 -222 258c0 143 68 268 227 268c103 0 170 -63 178 -159h-20c-9 89 -72 139 -159 139c-146 0 -206 -114 -206 -247c0 -127 68 -239 203 -239c124 0 161 103 165 143h20zM381 736l-102 -143h-28l-98 143h17l95 -123
l99 123h17z" />
    <glyph glyph-name="cdotaccent" unicode="&#x10b;" horiz-adv-x="505" 
d="M459 152c-4 -78 -72 -163 -186 -163c-148 0 -222 117 -222 258c0 143 68 268 227 268c103 0 170 -63 178 -159h-20c-9 89 -72 139 -159 139c-146 0 -206 -114 -206 -247c0 -127 68 -239 203 -239c124 0 161 103 165 143h20zM276 666h-20v55h20v-55z" />
    <glyph glyph-name="ccedilla" unicode="&#xe7;" horiz-adv-x="505" 
d="M459 152c-4 -78 -72 -163 -186 -163h-7l-12 -42h10c42 0 76 -17 76 -57c0 -49 -38 -64 -81 -64c-28 0 -59 9 -91 24l7 16c32 -15 56 -23 89 -23c39 0 56 18 56 47c0 33 -31 40 -61 40c-9 0 -18 0 -28 -1l19 61c-133 11 -199 123 -199 257c0 143 68 268 227 268
c103 0 170 -63 178 -159h-20c-9 89 -72 139 -159 139c-146 0 -206 -114 -206 -247c0 -127 68 -239 203 -239c124 0 161 103 165 143h20z" />
    <glyph glyph-name="dcaron" unicode="&#x10f;" horiz-adv-x="552" 
d="M459 0h-20v154c-16 -76 -72 -161 -179 -161c-147 0 -209 130 -209 263c0 127 57 257 199 257c86 0 164 -50 187 -161v371h20v-580c0 -53 0 -89 2 -143zM439 250c0 111 -54 243 -189 243c-129 0 -179 -127 -179 -237c0 -118 56 -243 189 -243c132 0 179 132 179 237z
M540 723h32l-37 -181h-16z" />
    <glyph glyph-name="dcroat" unicode="&#x111;" horiz-adv-x="552" 
d="M459 0h-20v154c-16 -76 -72 -161 -179 -161c-147 0 -209 130 -209 263c0 127 57 257 199 257c86 0 164 -50 187 -161v246h-288v20h288v105h20v-105h83v-20h-83v-455c0 -53 0 -89 2 -143zM439 250c0 111 -54 243 -189 243c-129 0 -179 -127 -179 -237
c0 -118 56 -243 189 -243c132 0 179 132 179 237z" />
    <glyph glyph-name="eth" unicode="&#xf0;" horiz-adv-x="538" 
d="M487 257c0 -37 -3 -74 -14 -111c-26 -84 -86 -157 -203 -157c-154 0 -219 113 -219 250c0 136 70 257 219 257c97 0 168 -54 193 -140c-21 172 -91 266 -165 317l-102 -57l-14 15l97 54c-40 25 -80 37 -111 43l10 20c49 -11 90 -28 125 -50l105 59l15 -15l-102 -56
c142 -101 166 -285 166 -429zM464 238c0 127 -61 237 -194 237s-196 -112 -196 -237c0 -124 61 -228 196 -228c131 0 194 105 194 228z" />
    <glyph glyph-name="egrave" unicode="&#xe8;" horiz-adv-x="500" 
d="M449 256h-378v-17c0 -119 58 -230 189 -230c87 0 136 43 163 137h20c-24 -98 -78 -157 -183 -157c-151 0 -209 123 -209 255c0 134 60 269 212 269c147 0 186 -135 186 -229v-28zM429 276c0 0 -1 14 -1 15c-4 102 -44 202 -165 202c-130 0 -181 -107 -192 -217h358z
M306 593h-16l-102 143h29z" />
    <glyph glyph-name="eacute" unicode="&#xe9;" horiz-adv-x="500" 
d="M449 256h-378v-17c0 -119 58 -230 189 -230c87 0 136 43 163 137h20c-24 -98 -78 -157 -183 -157c-151 0 -209 123 -209 255c0 134 60 269 212 269c147 0 186 -135 186 -229v-28zM429 276c0 0 -1 14 -1 15c-4 102 -44 202 -165 202c-130 0 -181 -107 -192 -217h358z
M330 736l-102 -143h-16l89 143h29z" />
    <glyph glyph-name="ecircumflex" unicode="&#xea;" horiz-adv-x="500" 
d="M449 256h-378v-17c0 -119 58 -230 189 -230c87 0 136 43 163 137h20c-24 -98 -78 -157 -183 -157c-151 0 -209 123 -209 255c0 134 60 269 212 269c147 0 186 -135 186 -229v-28zM429 276c0 0 -1 14 -1 15c-4 102 -44 202 -165 202c-130 0 -181 -107 -192 -217h358z
M374 593h-17l-95 123l-99 -123h-17l102 143h28z" />
    <glyph glyph-name="ecaron" unicode="&#x11b;" horiz-adv-x="500" 
d="M449 256h-378v-17c0 -119 58 -230 189 -230c87 0 136 43 163 137h20c-24 -98 -78 -157 -183 -157c-151 0 -209 123 -209 255c0 134 60 269 212 269c147 0 186 -135 186 -229v-28zM429 276c0 0 -1 14 -1 15c-4 102 -44 202 -165 202c-130 0 -181 -107 -192 -217h358z
M374 736l-102 -143h-28l-98 143h17l95 -123l99 123h17z" />
    <glyph glyph-name="edieresis" unicode="&#xeb;" horiz-adv-x="500" 
d="M449 256h-378v-17c0 -119 58 -230 189 -230c87 0 136 43 163 137h20c-24 -98 -78 -157 -183 -157c-151 0 -209 123 -209 255c0 134 60 269 212 269c147 0 186 -135 186 -229v-28zM429 276c0 0 -1 14 -1 15c-4 102 -44 202 -165 202c-130 0 -181 -107 -192 -217h358z
M338 666h-19v55h19v-55zM200 666h-20v55h20v-55z" />
    <glyph glyph-name="emacron" unicode="&#x113;" horiz-adv-x="500" 
d="M449 256h-378v-17c0 -119 58 -230 189 -230c87 0 136 43 163 137h20c-24 -98 -78 -157 -183 -157c-151 0 -209 123 -209 255c0 134 60 269 212 269c147 0 186 -135 186 -229v-28zM429 276c0 0 -1 14 -1 15c-4 102 -44 202 -165 202c-130 0 -181 -107 -192 -217h358z
M359 660h-200v20h200v-20z" />
    <glyph glyph-name="ebreve" unicode="&#x115;" horiz-adv-x="500" 
d="M449 256h-378v-17c0 -119 58 -230 189 -230c87 0 136 43 163 137h20c-24 -98 -78 -157 -183 -157c-151 0 -209 123 -209 255c0 134 60 269 212 269c147 0 186 -135 186 -229v-28zM429 276c0 0 -1 14 -1 15c-4 102 -44 202 -165 202c-130 0 -181 -107 -192 -217h358z
M371 690c-4 -38 -46 -79 -112 -79c-57 0 -107 32 -110 79h20c8 -38 47 -59 90 -59c41 0 77 14 92 59h20z" />
    <glyph glyph-name="edotaccent" unicode="&#x117;" horiz-adv-x="500" 
d="M449 256h-378v-17c0 -119 58 -230 189 -230c87 0 136 43 163 137h20c-24 -98 -78 -157 -183 -157c-151 0 -209 123 -209 255c0 134 60 269 212 269c147 0 186 -135 186 -229v-28zM429 276c0 0 -1 14 -1 15c-4 102 -44 202 -165 202c-130 0 -181 -107 -192 -217h358z
M269 666h-20v55h20v-55z" />
    <glyph glyph-name="eogonek" unicode="&#x119;" horiz-adv-x="500" 
d="M331 -150c-21 -10 -41 -16 -70 -16c-39 0 -82 19 -82 67c0 44 33 70 79 88c-150 1 -207 123 -207 255c0 134 60 269 212 269c147 0 186 -135 186 -229v-28h-378v-17c0 -119 58 -230 189 -230c87 0 136 43 163 137h20c-22 -89 -69 -146 -154 -155c-53 -27 -86 -53 -86 -87
c0 -38 33 -52 65 -52c20 0 37 5 56 12zM71 276h358s-1 14 -1 15c-4 102 -44 202 -165 202c-130 0 -181 -107 -192 -217z" />
    <glyph glyph-name="gcircumflex" unicode="&#x11d;" horiz-adv-x="552" 
d="M459 506c-2 -83 -2 -166 -2 -248v-185c0 -118 -14 -275 -201 -275c-68 0 -167 20 -173 129h20c6 -84 76 -109 157 -109c156 0 177 126 177 257v72c-24 -104 -97 -148 -177 -148c-133 0 -209 111 -209 251c0 137 60 263 203 263c90 0 171 -65 185 -166v159h20zM439 259
c0 114 -63 234 -184 234c-132 0 -184 -121 -184 -242c0 -115 64 -232 189 -232c132 0 179 123 179 240zM374 593h-17l-95 123l-99 -123h-17l102 143h28z" />
    <glyph glyph-name="gbreve" unicode="&#x11f;" horiz-adv-x="552" 
d="M459 506c-2 -83 -2 -166 -2 -248v-185c0 -118 -14 -275 -201 -275c-68 0 -167 20 -173 129h20c6 -84 76 -109 157 -109c156 0 177 126 177 257v72c-24 -104 -97 -148 -177 -148c-133 0 -209 111 -209 251c0 137 60 263 203 263c90 0 171 -65 185 -166v159h20zM439 259
c0 114 -63 234 -184 234c-132 0 -184 -121 -184 -242c0 -115 64 -232 189 -232c132 0 179 123 179 240zM371 690c-4 -38 -46 -79 -112 -79c-57 0 -107 32 -110 79h20c8 -38 47 -59 90 -59c41 0 77 14 92 59h20z" />
    <glyph glyph-name="gdotaccent" unicode="&#x121;" horiz-adv-x="552" 
d="M459 506c-2 -83 -2 -166 -2 -248v-185c0 -118 -14 -275 -201 -275c-68 0 -167 20 -173 129h20c6 -84 76 -109 157 -109c156 0 177 126 177 257v72c-24 -104 -97 -148 -177 -148c-133 0 -209 111 -209 251c0 137 60 263 203 263c90 0 171 -65 185 -166v159h20zM439 259
c0 114 -63 234 -184 234c-132 0 -184 -121 -184 -242c0 -115 64 -232 189 -232c132 0 179 123 179 240zM269 666h-20v55h20v-55z" />
    <glyph glyph-name="gcommaaccent" unicode="&#x123;" horiz-adv-x="552" 
d="M459 506c-2 -83 -2 -166 -2 -248v-185c0 -118 -14 -275 -201 -275c-68 0 -167 20 -173 129h20c6 -84 76 -109 157 -109c156 0 177 126 177 257v72c-24 -104 -97 -148 -177 -148c-133 0 -209 111 -209 251c0 137 60 263 203 263c90 0 171 -65 185 -166v159h20zM439 259
c0 114 -63 234 -184 234c-132 0 -184 -121 -184 -242c0 -115 64 -232 189 -232c132 0 179 123 179 240zM262 593h-28l34 143h15z" />
    <glyph glyph-name="hcircumflex" unicode="&#x125;" horiz-adv-x="545" 
d="M454 0h-20v296c0 105 -18 195 -142 195c-94 0 -153 -64 -172 -157c-5 -23 -5 -50 -5 -76v-258h-20v723h20v-355c19 90 92 144 173 144c99 0 166 -49 166 -191v-321zM220 778h-17l-95 123l-99 -123h-17l102 143h28z" />
    <glyph glyph-name="hbar" unicode="&#x127;" horiz-adv-x="545" 
d="M454 0h-20v296c0 105 -18 195 -142 195c-94 0 -153 -64 -172 -157c-5 -23 -5 -50 -5 -76v-258h-20v598h-83v20h83v105h20v-105h288v-20h-288v-230c19 90 92 144 173 144c99 0 166 -49 166 -191v-321z" />
    <glyph glyph-name="dotlessi" unicode="&#x131;" horiz-adv-x="210" 
d="M115 0h-20v506h20v-506z" />
    <glyph glyph-name="igrave" unicode="&#xec;" horiz-adv-x="210" 
d="M115 0h-20v506h20v-506zM153 593h-16l-102 143h29z" />
    <glyph glyph-name="iacute" unicode="&#xed;" horiz-adv-x="210" 
d="M115 0h-20v506h20v-506zM177 736l-102 -143h-16l89 143h29z" />
    <glyph glyph-name="ibreve" unicode="&#x12d;" horiz-adv-x="210" 
d="M115 0h-20v506h20v-506zM216 690c-4 -38 -46 -79 -112 -79c-57 0 -107 32 -110 79h20c8 -38 47 -59 90 -59c41 0 77 14 92 59h20z" />
    <glyph glyph-name="icircumflex" unicode="&#xee;" horiz-adv-x="210" 
d="M115 0h-20v506h20v-506zM221 593h-17l-95 123l-99 -123h-17l102 143h28z" />
    <glyph glyph-name="itilde" unicode="&#x129;" horiz-adv-x="210" 
d="M115 0h-20v506h20v-506zM216 698c-10 -31 -29 -52 -65 -52c-15 0 -31 5 -47 10c-15 5 -29 10 -41 10c-26 0 -34 -7 -45 -29h-20c9 32 33 48 67 48c15 0 30 -5 45 -10c16 -5 29 -9 41 -9c24 0 34 9 45 32h20z" />
    <glyph glyph-name="idieresis" unicode="&#xef;" horiz-adv-x="210" 
d="M115 0h-20v506h20v-506zM185 666h-19v55h19v-55zM47 666h-20v55h20v-55z" />
    <glyph glyph-name="imacron" unicode="&#x12b;" horiz-adv-x="210" 
d="M115 0h-20v506h20v-506zM206 660h-200v20h200v-20z" />
    <glyph glyph-name="iogonek" unicode="&#x12f;" horiz-adv-x="210" 
d="M137 -150c-21 -10 -41 -16 -70 -16c-39 0 -82 19 -82 67c0 53 48 79 110 99v506h20v-506c-68 -29 -106 -58 -106 -96s33 -52 65 -52c20 0 37 5 56 12zM115 666h-20v57h20v-57z" />
    <glyph glyph-name="dotlessj" unicode="&#x237;" horiz-adv-x="210" 
d="M115 -83c0 -76 -28 -96 -82 -96c-10 0 -36 3 -46 5v20c14 -2 29 -5 43 -5c58 0 65 30 65 83v582h20v-589z" />
    <glyph glyph-name="jcircumflex" unicode="&#x135;" horiz-adv-x="210" 
d="M115 -83c0 -76 -28 -96 -82 -96c-10 0 -36 3 -46 5v20c14 -2 29 -5 43 -5c58 0 65 30 65 83v582h20v-589zM221 593h-17l-95 123l-99 -123h-17l102 143h28z" />
    <glyph glyph-name="kcommaaccent" unicode="&#x137;" horiz-adv-x="460" 
d="M444 0h-27l-298 288l277 218h29l-279 -218zM115 0h-20v723h20v-723zM229 -54h28l-35 -147h-15z" />
    <glyph glyph-name="kgreenlandic" unicode="&#x138;" horiz-adv-x="460" 
d="M444 0h-27l-298 288l277 218h29l-279 -218zM115 0h-20v506h20v-506z" />
    <glyph glyph-name="lacute" unicode="&#x13a;" horiz-adv-x="210" 
d="M115 0h-20v723h20v-723zM177 901l-102 -143h-16l89 143h29z" />
    <glyph glyph-name="lcaron" unicode="&#x13e;" horiz-adv-x="210" 
d="M115 0h-20v723h20v-723zM198 723h32l-37 -181h-16z" />
    <glyph glyph-name="lcommaaccent" unicode="&#x13c;" horiz-adv-x="210" 
d="M115 0h-20v723h20v-723zM91 -54h28l-35 -147h-15z" />
    <glyph glyph-name="lslash" unicode="&#x142;" horiz-adv-x="210" 
d="M208 439l-93 -60v-379h-20v367l-93 -59v21l93 60v334h20v-322l93 59v-21z" />
    <glyph glyph-name="ldot" unicode="&#x140;" horiz-adv-x="210" 
d="M115 0h-20v723h20v-723zM220 349h-20v55h20v-55z" />
    <glyph glyph-name="nacute" unicode="&#x144;" horiz-adv-x="545" 
d="M454 0h-20v296c0 105 -18 195 -142 195c-94 0 -153 -64 -172 -157c-5 -23 -5 -50 -5 -76v-258h-20v361c0 36 0 91 -2 145h20v-142c19 90 94 148 175 148c99 0 166 -49 166 -191v-321zM352 736l-102 -143h-16l89 143h29z" />
    <glyph glyph-name="ncaron" unicode="&#x148;" horiz-adv-x="545" 
d="M454 0h-20v296c0 105 -18 195 -142 195c-94 0 -153 -64 -172 -157c-5 -23 -5 -50 -5 -76v-258h-20v361c0 36 0 91 -2 145h20v-142c19 90 94 148 175 148c99 0 166 -49 166 -191v-321zM396 736l-102 -143h-28l-98 143h17l95 -123l99 123h17z" />
    <glyph glyph-name="ntilde" unicode="&#xf1;" horiz-adv-x="545" 
d="M454 0h-20v296c0 105 -18 195 -142 195c-94 0 -153 -64 -172 -157c-5 -23 -5 -50 -5 -76v-258h-20v361c0 36 0 91 -2 145h20v-142c19 90 94 148 175 148c99 0 166 -49 166 -191v-321zM391 698c-10 -31 -29 -52 -65 -52c-15 0 -31 5 -47 10c-15 5 -29 10 -41 10
c-26 0 -34 -7 -45 -29h-20c9 32 33 48 67 48c15 0 30 -5 45 -10c16 -5 29 -9 41 -9c24 0 34 9 45 32h20z" />
    <glyph glyph-name="ncommaaccent" unicode="&#x146;" horiz-adv-x="545" 
d="M454 0h-20v296c0 105 -18 195 -142 195c-94 0 -153 -64 -172 -157c-5 -23 -5 -50 -5 -76v-258h-20v361c0 36 0 91 -2 145h20v-142c19 90 94 148 175 148c99 0 166 -49 166 -191v-321zM266 -54h28l-35 -147h-15z" />
    <glyph glyph-name="ograve" unicode="&#xf2;" horiz-adv-x="538" 
d="M487 257c0 -130 -71 -268 -217 -268c-154 0 -219 131 -219 268c0 136 70 257 219 257c152 0 217 -118 217 -257zM467 256c0 127 -64 238 -197 238s-199 -113 -199 -238c0 -124 64 -247 199 -247c131 0 197 124 197 247zM316 593h-16l-102 143h29z" />
    <glyph glyph-name="oacute" unicode="&#xf3;" horiz-adv-x="538" 
d="M487 257c0 -130 -71 -268 -217 -268c-154 0 -219 131 -219 268c0 136 70 257 219 257c152 0 217 -118 217 -257zM467 256c0 127 -64 238 -197 238s-199 -113 -199 -238c0 -124 64 -247 199 -247c131 0 197 124 197 247zM340 736l-102 -143h-16l89 143h29z" />
    <glyph glyph-name="ocircumflex" unicode="&#xf4;" horiz-adv-x="538" 
d="M487 257c0 -130 -71 -268 -217 -268c-154 0 -219 131 -219 268c0 136 70 257 219 257c152 0 217 -118 217 -257zM467 256c0 127 -64 238 -197 238s-199 -113 -199 -238c0 -124 64 -247 199 -247c131 0 197 124 197 247zM384 593h-17l-95 123l-99 -123h-17l102 143h28z
" />
    <glyph glyph-name="otilde" unicode="&#xf5;" horiz-adv-x="538" 
d="M487 257c0 -130 -71 -268 -217 -268c-154 0 -219 131 -219 268c0 136 70 257 219 257c152 0 217 -118 217 -257zM467 256c0 127 -64 238 -197 238s-199 -113 -199 -238c0 -124 64 -247 199 -247c131 0 197 124 197 247zM379 698c-10 -31 -29 -52 -65 -52
c-15 0 -31 5 -47 10c-15 5 -29 10 -41 10c-26 0 -34 -7 -45 -29h-20c9 32 33 48 67 48c15 0 30 -5 45 -10c16 -5 29 -9 41 -9c24 0 34 9 45 32h20z" />
    <glyph glyph-name="odieresis" unicode="&#xf6;" horiz-adv-x="538" 
d="M487 257c0 -130 -71 -268 -217 -268c-154 0 -219 131 -219 268c0 136 70 257 219 257c152 0 217 -118 217 -257zM467 256c0 127 -64 238 -197 238s-199 -113 -199 -238c0 -124 64 -247 199 -247c131 0 197 124 197 247zM348 666h-19v55h19v-55zM210 666h-20v55h20v-55z
" />
    <glyph glyph-name="omacron" unicode="&#x14d;" horiz-adv-x="538" 
d="M487 257c0 -130 -71 -268 -217 -268c-154 0 -219 131 -219 268c0 136 70 257 219 257c152 0 217 -118 217 -257zM467 256c0 127 -64 238 -197 238s-199 -113 -199 -238c0 -124 64 -247 199 -247c131 0 197 124 197 247zM369 660h-200v20h200v-20z" />
    <glyph glyph-name="obreve" unicode="&#x14f;" horiz-adv-x="538" 
d="M487 257c0 -130 -71 -268 -217 -268c-154 0 -219 131 -219 268c0 136 70 257 219 257c152 0 217 -118 217 -257zM467 256c0 127 -64 238 -197 238s-199 -113 -199 -238c0 -124 64 -247 199 -247c131 0 197 124 197 247zM381 690c-4 -38 -46 -79 -112 -79
c-57 0 -107 32 -110 79h20c8 -38 47 -59 90 -59c41 0 77 14 92 59h20z" />
    <glyph glyph-name="ohungarumlaut" unicode="&#x151;" horiz-adv-x="538" 
d="M487 257c0 -130 -71 -268 -217 -268c-154 0 -219 131 -219 268c0 136 70 257 219 257c152 0 217 -118 217 -257zM467 256c0 127 -64 238 -197 238s-199 -113 -199 -238c0 -124 64 -247 199 -247c131 0 197 124 197 247zM429 736l-102 -143h-16l89 143h29zM325 736
l-102 -143h-16l89 143h29z" />
    <glyph glyph-name="oslash" unicode="&#xf8;" horiz-adv-x="538" 
d="M514 484l-60 -63c27 -45 40 -102 40 -164c0 -130 -71 -268 -217 -268c-73 0 -126 30 -162 76l-57 -60l-14 15l59 62c-31 49 -45 111 -45 175c0 136 70 257 219 257c76 0 131 -30 166 -77l56 59c-6 11 18 -9 15 -12zM427 421c-33 45 -82 73 -150 73
c-133 0 -199 -113 -199 -238c0 -57 14 -113 41 -158zM474 256c0 55 -12 107 -36 148l-308 -323c33 -44 82 -72 147 -72c131 0 197 124 197 247z" />
    <glyph glyph-name="oe" unicode="&#x153;" horiz-adv-x="852" 
d="M801 256h-353c0 -10 0 -25 1 -35c6 -106 44 -212 167 -212c73 0 126 49 147 118c2 6 3 10 4 17h20c-1 -7 -1 -11 -3 -17c-18 -71 -74 -138 -169 -138c-78 0 -169 41 -176 199c-13 -125 -88 -199 -185 -199c-149 0 -203 132 -203 259c0 126 52 266 200 266
c99 0 176 -75 185 -188c6 110 85 188 177 188c153 0 188 -127 188 -245v-13zM428 245c0 114 -43 249 -177 249c-130 0 -180 -129 -180 -246c0 -121 51 -239 182 -239c125 0 175 128 175 236zM781 276c0 9 -1 9 -1 17c-7 144 -70 201 -167 201c-123 0 -155 -113 -163 -182
c-1 -9 -2 -26 -2 -36h333z" />
    <glyph glyph-name="racute" unicode="&#x155;" horiz-adv-x="315" 
d="M301 487c-10 2 -26 3 -40 3c-79 0 -123 -56 -140 -127c-6 -26 -6 -54 -6 -76v-287h-20v357c0 62 0 95 -2 149h20v-117c13 60 61 121 158 121c10 0 23 -1 30 -2v-21zM238 736l-102 -143h-16l89 143h29z" />
    <glyph glyph-name="rcaron" unicode="&#x159;" horiz-adv-x="315" 
d="M301 487c-10 2 -26 3 -40 3c-79 0 -123 -56 -140 -127c-6 -26 -6 -54 -6 -76v-287h-20v357c0 62 0 95 -2 149h20v-117c13 60 61 121 158 121c10 0 23 -1 30 -2v-21zM282 736l-102 -143h-28l-98 143h17l95 -123l99 123h17z" />
    <glyph glyph-name="rcommaaccent" unicode="&#x157;" horiz-adv-x="315" 
d="M301 487c-10 2 -26 3 -40 3c-79 0 -123 -56 -140 -127c-6 -26 -6 -54 -6 -76v-287h-20v357c0 62 0 95 -2 149h20v-117c13 60 61 121 158 121c10 0 23 -1 30 -2v-21zM90 -54h28l-35 -147h-15z" />
    <glyph glyph-name="sacute" unicode="&#x15b;" horiz-adv-x="439" 
d="M385 137c0 -98 -77 -146 -168 -146c-96 0 -161 52 -161 151h20c2 -83 48 -131 141 -131c67 0 148 29 148 126c0 54 -36 81 -120 104l-36 10c-77 21 -141 51 -141 133c0 88 75 133 157 133c91 0 151 -45 151 -141h-20c0 80 -48 121 -131 121c-66 0 -137 -33 -137 -113
c0 -63 47 -90 125 -112l32 -9c82 -23 140 -50 140 -126zM294 736l-102 -143h-16l89 143h29z" />
    <glyph glyph-name="scircumflex" unicode="&#x15d;" horiz-adv-x="439" 
d="M385 137c0 -98 -77 -146 -168 -146c-96 0 -161 52 -161 151h20c2 -83 48 -131 141 -131c67 0 148 29 148 126c0 54 -36 81 -120 104l-36 10c-77 21 -141 51 -141 133c0 88 75 133 157 133c91 0 151 -45 151 -141h-20c0 80 -48 121 -131 121c-66 0 -137 -33 -137 -113
c0 -63 47 -90 125 -112l32 -9c82 -23 140 -50 140 -126zM338 593h-17l-95 123l-99 -123h-17l102 143h28z" />
    <glyph glyph-name="scaron" unicode="&#x161;" horiz-adv-x="439" 
d="M385 137c0 -98 -77 -146 -168 -146c-96 0 -161 52 -161 151h20c2 -83 48 -131 141 -131c67 0 148 29 148 126c0 54 -36 81 -120 104l-36 10c-77 21 -141 51 -141 133c0 88 75 133 157 133c91 0 151 -45 151 -141h-20c0 80 -48 121 -131 121c-66 0 -137 -33 -137 -113
c0 -63 47 -90 125 -112l32 -9c82 -23 140 -50 140 -126zM338 736l-102 -143h-28l-98 143h17l95 -123l99 123h17z" />
    <glyph glyph-name="scedilla" unicode="&#x15f;" horiz-adv-x="439" 
d="M304 -110c0 -49 -38 -64 -81 -64c-28 0 -59 9 -91 24l7 16c32 -15 56 -23 89 -23c39 0 56 18 56 47c0 33 -31 40 -61 40c-9 0 -18 0 -28 -1l19 62c-95 1 -158 53 -158 151h20c2 -83 48 -131 141 -131c67 0 148 29 148 126c0 54 -36 81 -120 104l-36 10
c-77 21 -141 51 -141 133c0 88 75 133 157 133c91 0 151 -45 151 -141h-20c0 80 -48 121 -131 121c-66 0 -137 -33 -137 -113c0 -63 47 -90 125 -112l32 -9c82 -23 140 -50 140 -126c0 -93 -69 -140 -154 -145l-13 -45h10c42 0 76 -17 76 -57z" />
    <glyph glyph-name="scommaaccent" unicode="&#x219;" horiz-adv-x="439" 
d="M385 137c0 -98 -77 -146 -168 -146c-96 0 -161 52 -161 151h20c2 -83 48 -131 141 -131c67 0 148 29 148 126c0 54 -36 81 -120 104l-36 10c-77 21 -141 51 -141 133c0 88 75 133 157 133c91 0 151 -45 151 -141h-20c0 80 -48 121 -131 121c-66 0 -137 -33 -137 -113
c0 -63 47 -90 125 -112l32 -9c82 -23 140 -50 140 -126zM208 -54h28l-35 -147h-15z" />
    <glyph glyph-name="germandbls" unicode="&#xdf;" horiz-adv-x="561" 
d="M522 145c0 -92 -68 -150 -158 -150c-84 0 -134 63 -135 144h20c0 -73 44 -124 116 -124c66 0 137 42 137 130c0 141 -224 128 -224 250c0 71 122 129 122 198c0 82 -64 115 -126 115c-82 0 -144 -48 -155 -128c-6 -40 -3 -89 -3 -119v-461h-20v459c0 39 -1 85 5 131
c11 83 83 138 173 138c81 0 146 -47 146 -134c0 -85 -120 -134 -120 -200c0 -100 222 -98 222 -249z" />
    <glyph glyph-name="tcaron" unicode="&#x165;" horiz-adv-x="288" 
d="M257 2c-15 -3 -34 -5 -55 -5c-60 0 -81 40 -81 96v393h-103v20h103v113l20 12v-125h110v-20h-110v-379c0 -62 15 -90 68 -90c16 0 33 2 48 4v-19zM296 723h32l-37 -181h-16z" />
    <glyph glyph-name="uni0163" unicode="&#x163;" horiz-adv-x="288" 
d="M257 2c-15 -3 -34 -5 -55 -5c-60 0 -81 40 -81 96v393h-103v20h103v113l20 12v-125h110v-20h-110v-379c0 -62 15 -90 68 -90c16 0 33 2 48 4v-19zM117 -54h28l-35 -147h-15z" />
    <glyph glyph-name="uni021B" unicode="&#x21b;" horiz-adv-x="288" 
d="M257 2c-15 -3 -34 -5 -55 -5c-60 0 -81 40 -81 96v393h-103v20h103v113l20 12v-125h110v-20h-110v-379c0 -62 15 -90 68 -90c16 0 33 2 48 4v-19zM117 -54h28l-35 -147h-15z" />
    <glyph glyph-name="tbar" unicode="&#x167;" horiz-adv-x="288" 
d="M257 2c-26 -5 -37 -5 -55 -5c-60 0 -81 40 -81 96v253h-103v20h103v120h-103v20h103v113l20 12v-125h110v-20h-110v-120h110v-20h-110v-239c0 -56 10 -90 70 -90c16 0 30 3 46 4v-19z" />
    <glyph glyph-name="thorn" unicode="&#xfe;" horiz-adv-x="552" 
d="M501 250c0 -127 -57 -257 -199 -257c-86 0 -160 49 -187 156v-339h-20v913h20v-362c19 73 68 152 177 152c147 0 209 -130 209 -263zM481 250c0 118 -56 243 -189 243c-128 0 -175 -124 -175 -237c0 -117 50 -243 185 -243c129 0 179 127 179 237z" />
    <glyph glyph-name="ugrave" unicode="&#xf9;" horiz-adv-x="545" 
d="M452 0h-20v132c-19 -90 -92 -138 -173 -138c-99 0 -168 49 -168 191v321h20v-296c0 -105 21 -195 145 -195c94 0 150 54 169 147c5 23 5 50 5 76v268h20v-361c0 -36 1 -94 2 -145zM317 593h-16l-102 143h29z" />
    <glyph glyph-name="uacute" unicode="&#xfa;" horiz-adv-x="545" 
d="M452 0h-20v132c-19 -90 -92 -138 -173 -138c-99 0 -168 49 -168 191v321h20v-296c0 -105 21 -195 145 -195c94 0 150 54 169 147c5 23 5 50 5 76v268h20v-361c0 -36 1 -94 2 -145zM341 736l-102 -143h-16l89 143h29z" />
    <glyph glyph-name="ucircumflex" unicode="&#xfb;" horiz-adv-x="545" 
d="M452 0h-20v132c-19 -90 -92 -138 -173 -138c-99 0 -168 49 -168 191v321h20v-296c0 -105 21 -195 145 -195c94 0 150 54 169 147c5 23 5 50 5 76v268h20v-361c0 -36 1 -94 2 -145zM385 593h-17l-95 123l-99 -123h-17l102 143h28z" />
    <glyph glyph-name="utilde" unicode="&#x169;" horiz-adv-x="545" 
d="M452 0h-20v132c-19 -90 -92 -138 -173 -138c-99 0 -168 49 -168 191v321h20v-296c0 -105 21 -195 145 -195c94 0 150 54 169 147c5 23 5 50 5 76v268h20v-361c0 -36 1 -94 2 -145zM380 698c-10 -31 -29 -52 -65 -52c-15 0 -31 5 -47 10c-15 5 -29 10 -41 10
c-26 0 -34 -7 -45 -29h-20c9 32 33 48 67 48c15 0 30 -5 45 -10c16 -5 29 -9 41 -9c24 0 34 9 45 32h20z" />
    <glyph glyph-name="udieresis" unicode="&#xfc;" horiz-adv-x="545" 
d="M452 0h-20v132c-19 -90 -92 -138 -173 -138c-99 0 -168 49 -168 191v321h20v-296c0 -105 21 -195 145 -195c94 0 150 54 169 147c5 23 5 50 5 76v268h20v-361c0 -36 1 -94 2 -145zM349 666h-19v55h19v-55zM211 666h-20v55h20v-55z" />
    <glyph glyph-name="umacron" unicode="&#x16b;" horiz-adv-x="545" 
d="M452 0h-20v132c-19 -90 -92 -138 -173 -138c-99 0 -168 49 -168 191v321h20v-296c0 -105 21 -195 145 -195c94 0 150 54 169 147c5 23 5 50 5 76v268h20v-361c0 -36 1 -94 2 -145zM370 660h-200v20h200v-20z" />
    <glyph glyph-name="ubreve" unicode="&#x16d;" horiz-adv-x="545" 
d="M452 0h-20v132c-19 -90 -92 -138 -173 -138c-99 0 -168 49 -168 191v321h20v-296c0 -105 21 -195 145 -195c94 0 150 54 169 147c5 23 5 50 5 76v268h20v-361c0 -36 1 -94 2 -145zM382 690c-4 -38 -46 -79 -112 -79c-57 0 -107 32 -110 79h20c8 -38 47 -59 90 -59
c41 0 77 14 92 59h20z" />
    <glyph glyph-name="uring" unicode="&#x16f;" horiz-adv-x="545" 
d="M452 0h-20v132c-19 -90 -92 -138 -173 -138c-99 0 -168 49 -168 191v321h20v-296c0 -105 21 -195 145 -195c94 0 150 54 169 147c5 23 5 50 5 76v268h20v-361c0 -36 1 -94 2 -145zM190 655c0 45 35 80 80 80s80 -35 80 -80s-35 -80 -80 -80s-80 35 -80 80zM209 655
c0 -36 26 -63 61 -63s61 27 61 63s-26 63 -61 63s-61 -27 -61 -63z" />
    <glyph glyph-name="uhungarumlaut" unicode="&#x171;" horiz-adv-x="545" 
d="M452 0h-20v132c-19 -90 -92 -138 -173 -138c-99 0 -168 49 -168 191v321h20v-296c0 -105 21 -195 145 -195c94 0 150 54 169 147c5 23 5 50 5 76v268h20v-361c0 -36 1 -94 2 -145zM430 736l-102 -143h-16l89 143h29zM326 736l-102 -143h-16l89 143h29z" />
    <glyph glyph-name="uogonek" unicode="&#x173;" horiz-adv-x="545" 
d="M473 -150c-21 -10 -41 -16 -70 -16c-39 0 -82 19 -82 67c0 53 48 79 111 99v132c-19 -90 -92 -138 -173 -138c-99 0 -168 49 -168 191v321h20v-296c0 -105 21 -195 145 -195c94 0 150 54 169 147c5 23 5 50 5 76v268h20v-361c0 -36 0 -91 2 -145
c-68 -30 -107 -58 -107 -96s33 -52 65 -52c20 0 37 5 56 12z" />
    <glyph glyph-name="wacute" unicode="&#x1e83;" horiz-adv-x="763" 
d="M739 506l-180 -506h-19l-157 476l-165 -476h-19l-175 506h22l163 -475l163 475h22l156 -478l167 478h22zM452 736l-102 -143h-16l89 143h29z" />
    <glyph glyph-name="wcircumflex" unicode="&#x175;" horiz-adv-x="763" 
d="M739 506l-180 -506h-19l-157 476l-165 -476h-19l-175 506h22l163 -475l163 475h22l156 -478l167 478h22zM499 593h-17l-95 123l-99 -123h-17l102 143h28z" />
    <glyph glyph-name="wdieresis" unicode="&#x1e85;" horiz-adv-x="763" 
d="M739 506l-180 -506h-19l-157 476l-165 -476h-19l-175 506h22l163 -475l163 475h22l156 -478l167 478h22zM461 666h-19v55h19v-55zM323 666h-20v55h20v-55z" />
    <glyph glyph-name="wgrave" unicode="&#x1e81;" horiz-adv-x="763" 
d="M739 506l-180 -506h-19l-157 476l-165 -476h-19l-175 506h22l163 -475l163 475h22l156 -478l167 478h22zM428 593h-16l-102 143h29z" />
    <glyph glyph-name="yacute" unicode="&#xfd;" horiz-adv-x="469" 
d="M445 506l-273 -696h-22l79 200l-205 496h22l194 -468l183 468h22zM310 736l-102 -143h-16l89 143h29z" />
    <glyph glyph-name="ycircumflex" unicode="&#x177;" horiz-adv-x="469" 
d="M445 506l-273 -696h-22l79 200l-205 496h22l194 -468l183 468h22zM354 593h-17l-95 123l-99 -123h-17l102 143h28z" />
    <glyph glyph-name="ydieresis" unicode="&#xff;" horiz-adv-x="469" 
d="M445 506l-273 -696h-22l79 200l-205 496h22l194 -468l183 468h22zM318 666h-19v55h19v-55zM180 666h-20v55h20v-55z" />
    <glyph glyph-name="ygrave" unicode="&#x1ef3;" horiz-adv-x="469" 
d="M445 506l-273 -696h-22l79 200l-205 496h22l194 -468l183 468h22zM283 593h-16l-102 143h29z" />
    <glyph glyph-name="zacute" unicode="&#x17a;" horiz-adv-x="420" 
d="M376 0h-332v21l309 465h-302v20h319v-28l-304 -458h310v-20zM279 736l-102 -143h-16l89 143h29z" />
    <glyph glyph-name="zcaron" unicode="&#x17e;" horiz-adv-x="420" 
d="M376 0h-332v21l309 465h-302v20h319v-28l-304 -458h310v-20zM323 736l-102 -143h-28l-98 143h17l95 -123l99 123h17z" />
    <glyph glyph-name="zdotaccent" unicode="&#x17c;" horiz-adv-x="420" 
d="M376 0h-332v21l309 465h-302v20h319v-28l-304 -458h310v-20zM218 666h-20v55h20v-55z" />
    <glyph glyph-name="f_i" unicode="&#xf001;" horiz-adv-x="491" 
d="M262 708c-14 2 -35 3 -45 3c-57 0 -75 -30 -75 -99v-106h110v-20h-110v-486h-20v486h-104v20h104v107c0 77 24 118 92 118c16 0 30 -1 48 -3v-20zM397 666h-20v57h20v-57zM397 0h-20v506h20v-506z" />
    <glyph glyph-name="f_l" unicode="&#xf002;" horiz-adv-x="491" 
d="M262 708c-14 2 -35 3 -45 3c-57 0 -75 -30 -75 -99v-106h110v-20h-110v-486h-20v486h-104v20h104v107c0 77 24 118 92 118c16 0 30 -1 48 -3v-20zM397 0h-20v723h20v-723z" />
    <glyph glyph-name="grave.cap" horiz-adv-x="210" 
d="M152 778h-16l-102 143h29z" />
    <glyph glyph-name="acute" unicode="&#xb4;" horiz-adv-x="210" 
d="M176 736l-102 -143h-16l89 143h29z" />
    <glyph glyph-name="acute.cap" horiz-adv-x="210" 
d="M176 921l-102 -143h-16l89 143h29z" />
    <glyph glyph-name="circumflex" unicode="&#x2c6;" horiz-adv-x="210" 
d="M219 593h-17l-95 123l-99 -123h-17l102 143h28z" />
    <glyph glyph-name="circumflex.cap" horiz-adv-x="210" 
d="M219 778h-17l-95 123l-99 -123h-17l102 143h28z" />
    <glyph glyph-name="caron" unicode="&#x2c7;" horiz-adv-x="210" 
d="M219 736l-102 -143h-28l-98 143h17l95 -123l99 123h17z" />
    <glyph glyph-name="caron.cap" horiz-adv-x="210" 
d="M219 921l-102 -143h-28l-98 143h17l95 -123l99 123h17z" />
    <glyph glyph-name="caron.alt" horiz-adv-x="208" 
d="M99 723h32l-37 -181h-16z" />
    <glyph glyph-name="tilde" unicode="&#x2dc;" horiz-adv-x="210" 
d="M214 698c-10 -31 -29 -52 -65 -52c-15 0 -31 5 -47 10c-15 5 -29 10 -41 10c-26 0 -34 -7 -45 -29h-20c9 32 33 48 67 48c15 0 30 -5 45 -10c16 -5 29 -9 41 -9c24 0 34 9 45 32h20z" />
    <glyph glyph-name="tilde.cap" horiz-adv-x="210" 
d="M214 883c-10 -31 -29 -52 -65 -52c-15 0 -31 5 -47 10c-15 5 -29 10 -41 10c-26 0 -34 -7 -45 -29h-20c9 32 33 48 67 48c15 0 30 -5 45 -10c16 -5 29 -9 41 -9c24 0 34 9 45 32h20z" />
    <glyph glyph-name="dieresis" unicode="&#xa8;" horiz-adv-x="210" 
d="M184 666h-19v55h19v-55zM46 666h-20v55h20v-55z" />
    <glyph glyph-name="dieresis.cap" horiz-adv-x="210" 
d="M184 831h-19v55h19v-55zM46 831h-20v55h20v-55z" />
    <glyph glyph-name="macron" unicode="&#xaf;" horiz-adv-x="210" 
d="M205 660h-200v20h200v-20z" />
    <glyph glyph-name="macron.cap" horiz-adv-x="210" 
d="M205 835h-200v20h200v-20z" />
    <glyph glyph-name="uni02C9" unicode="&#x2c9;" horiz-adv-x="210" 
d="M205 835h-200v20h200v-20z" />
    <glyph glyph-name="breve" unicode="&#x2d8;" horiz-adv-x="210" 
d="M216 690c-4 -38 -46 -79 -112 -79c-57 0 -107 32 -110 79h20c8 -38 47 -59 90 -59c41 0 77 14 92 59h20z" />
    <glyph glyph-name="breve.cap" horiz-adv-x="210" 
d="M216 875c-4 -38 -46 -79 -112 -79c-57 0 -107 32 -110 79h20c8 -38 47 -59 90 -59c41 0 77 14 92 59h20z" />
    <glyph glyph-name="ring" unicode="&#x2da;" horiz-adv-x="210" 
d="M25 655c0 45 35 80 80 80s80 -35 80 -80s-35 -80 -80 -80s-80 35 -80 80zM44 655c0 -36 26 -63 61 -63s61 27 61 63s-26 63 -61 63s-61 -27 -61 -63z" />
    <glyph glyph-name="ring.cap" horiz-adv-x="210" 
d="M25 823c0 45 35 80 80 80s80 -35 80 -80s-35 -80 -80 -80s-80 35 -80 80zM44 823c0 -36 26 -63 61 -63s61 27 61 63s-26 63 -61 63s-61 -27 -61 -63z" />
    <glyph glyph-name="hungarumlaut" unicode="&#x2dd;" horiz-adv-x="210" 
d="M225 736l-102 -143h-16l89 143h29zM121 736l-102 -143h-16l89 143h29z" />
    <glyph glyph-name="hungarumlaut.cap" horiz-adv-x="210" 
d="M225 921l-102 -143h-16l89 143h29zM121 921l-102 -143h-16l89 143h29z" />
    <glyph glyph-name="dotaccent" unicode="&#x2d9;" horiz-adv-x="210" 
d="M115 666h-20v55h20v-55z" />
    <glyph glyph-name="dotaccent.cap" horiz-adv-x="210" 
d="M115 831h-20v55h20v-55z" />
    <glyph glyph-name="cedilla" unicode="&#xb8;" horiz-adv-x="210" 
d="M190 -110c0 -49 -38 -64 -81 -64c-28 0 -59 9 -91 24l7 16c32 -15 56 -23 89 -23c39 0 56 18 56 47c0 33 -31 40 -61 40c-9 0 -18 0 -28 -1l23 75h17l-17 -57h10c42 0 76 -17 76 -57z" />
    <glyph glyph-name="ogonek" unicode="&#x2db;" horiz-adv-x="210" 
d="M136 -150c-21 -10 -41 -16 -70 -16c-39 0 -82 19 -82 67c0 54 50 80 114 100h16c-66 -31 -106 -59 -106 -97s33 -52 65 -52c20 0 37 5 56 12z" />
    <glyph glyph-name="commaaccent" horiz-adv-x="208" 
d="M90 -54h28l-35 -147h-15z" />
    <glyph glyph-name="commaaccent.alt" horiz-adv-x="549" 
d="M276 593h-28l34 143h15z" />
    <glyph glyph-name="ellipsis" unicode="&#x2026;" horiz-adv-x="1000" 
d="M845 0h-24v45h24v-45zM512 0h-24v45h24v-45zM179 0h-24v45h24v-45z" />
    <glyph glyph-name="uni00AD" unicode="&#xad;" horiz-adv-x="299" 
d="M271 259h-243v20h243v-20z" />
    <glyph glyph-name="exclamdown" unicode="&#xa1;" horiz-adv-x="270" 
d="M147 475h-24v45h24v-45zM146 -203h-22l3 569h16z" />
    <glyph glyph-name="questiondown" unicode="&#xbf;" horiz-adv-x="502" 
d="M112 -41c0 70 47 136 143 224c40 37 47 60 47 102v83h20v-75c0 -52 -6 -79 -58 -127c-92 -85 -132 -143 -132 -207c0 -98 66 -150 160 -150c36 0 64 2 98 11v-22c-28 -5 -56 -9 -85 -9c-113 0 -193 53 -193 170zM300 522h23v-45h-23v45z" />
    <glyph glyph-name="quoteleft" unicode="&#x2018;" horiz-adv-x="277" 
d="M177 723l-42 -168h-35l60 168h17z" />
    <glyph glyph-name="quoteright" unicode="&#x2019;" horiz-adv-x="277" 
d="M177 723l-60 -168h-17l42 168h35z" />
    <glyph glyph-name="quotedblleft" unicode="&#x201c;" horiz-adv-x="441" 
d="M341 723l-42 -168h-35l60 168h17zM177 723l-42 -168h-35l60 168h17z" />
    <glyph glyph-name="quotedblright" unicode="&#x201d;" horiz-adv-x="441" 
d="M341 723l-60 -168h-17l42 168h35zM177 723l-60 -168h-17l42 168h35z" />
    <glyph glyph-name="quotesinglbase" unicode="&#x201a;" horiz-adv-x="277" 
d="M177 47l-60 -168h-17l42 168h35z" />
    <glyph glyph-name="quotedblbase" unicode="&#x201e;" horiz-adv-x="441" 
d="M341 47l-60 -168h-17l42 168h35zM177 47l-60 -168h-17l42 168h35z" />
    <glyph glyph-name="guilsinglleft" unicode="&#x2039;" horiz-adv-x="279" 
d="M196 67h-20l-93 195l93 193h20l-91 -194z" />
    <glyph glyph-name="guilsinglright" unicode="&#x203a;" horiz-adv-x="279" 
d="M196 260l-93 -193h-20l91 194l-91 194h20z" />
    <glyph glyph-name="guillemotleft" unicode="&#xab;" horiz-adv-x="428" 
d="M345 67h-20l-93 195l93 193h20l-91 -194zM196 67h-20l-93 195l93 193h20l-91 -194z" />
    <glyph glyph-name="guillemotright" unicode="&#xbb;" horiz-adv-x="428" 
d="M345 260l-93 -193h-20l91 194l-91 194h20zM196 260l-93 -193h-20l91 194l-91 194h20z" />
    <glyph glyph-name="endash" unicode="&#x2013;" horiz-adv-x="519" 
d="M509 249h-500v20h500v-20z" />
    <glyph glyph-name="emdash" unicode="&#x2014;" horiz-adv-x="1020" 
d="M880 249h-741v20h741v-20z" />
    <glyph glyph-name="bullet" unicode="&#x2022;" horiz-adv-x="519" 
d="M440 362c0 -99 -80 -181 -180 -181s-181 81 -181 181c0 99 82 180 181 180s180 -81 180 -180z" />
    <glyph glyph-name="periodcentered" unicode="&#xb7;" horiz-adv-x="270" 
d="M150 312h-29v49h29v-49z" />
    <glyph glyph-name="uni2219" unicode="&#x2219;" horiz-adv-x="270" 
d="M150 312h-29v49h29v-49z" />
    <glyph glyph-name="dagger" unicode="&#x2020;" horiz-adv-x="539" 
d="M457 507h-176v-507h-21v507h-178v20h178v195h21v-195h176v-20z" />
    <glyph glyph-name="daggerdbl" unicode="&#x2021;" horiz-adv-x="539" 
d="M457 188h-177v-188h-21v188h-177v20h177v304h-177v20h177v190h21v-190h177v-20h-177v-304h177v-20z" />
    <glyph glyph-name="section" unicode="&#xa7;" horiz-adv-x="538" 
d="M414 142c0 -98 -82 -145 -171 -145c-43 0 -70 7 -110 24v20c41 -18 71 -24 110 -24c78 0 151 41 151 124c0 79 -78 104 -149 127c-61 20 -118 39 -118 93c0 64 56 93 108 117c-53 24 -98 62 -98 126c0 88 71 130 151 130c32 0 64 -7 95 -16v-20c-33 10 -62 16 -96 16
c-61 0 -130 -34 -130 -108c0 -75 71 -103 137 -129c56 -22 107 -43 107 -92c0 -60 -74 -96 -116 -109c64 -23 129 -59 129 -134zM381 385c0 34 -37 55 -124 85c-43 -16 -110 -54 -110 -107c0 -39 44 -57 113 -79c43 13 121 48 121 101z" />
    <glyph glyph-name="paragraph" unicode="&#xb6;" horiz-adv-x="600" 
d="M482 0h-20v704h-176v-704h-20v339c-134 0 -216 56 -216 193c0 125 102 191 241 191h191v-723z" />
    <glyph glyph-name="brokenbar" unicode="&#xa6;" horiz-adv-x="222" 
d="M123 411h-24v250h24v-250zM123 -89h-24v250h24v-250z" />
    <glyph glyph-name="copyright" unicode="&#xa9;" horiz-adv-x="844" 
d="M52 362c0 212 160 371 371 371s371 -159 371 -371s-160 -372 -371 -372s-371 160 -371 372zM551 252h20c-18 -61 -71 -100 -138 -100c-119 0 -167 91 -167 207c0 112 51 213 173 213c59 0 116 -31 128 -96h-19c-16 57 -58 78 -109 78c-106 0 -153 -93 -153 -195
c0 -108 45 -189 149 -189c47 0 97 24 116 82zM774 362c0 200 -152 353 -351 353s-351 -153 -351 -353s152 -354 351 -354s351 154 351 354z" />
    <glyph glyph-name="registered" unicode="&#xae;" horiz-adv-x="389" 
d="M280 440h-20c-3 7 -4 19 -5 39c-1 37 -20 48 -66 48h-43v-87h-18v202h73c42 0 75 -10 75 -57c0 -24 -15 -41 -37 -49c26 -13 32 -25 34 -67c1 -12 3 -24 7 -29zM258 585c0 29 -17 40 -50 40h-62v-81h50c45 0 62 16 62 41zM11 540c0 102 81 183 183 183s184 -81 184 -183
s-82 -184 -184 -184s-183 82 -183 184zM29 540c0 -93 72 -168 165 -168s166 75 166 168s-73 167 -166 167s-165 -74 -165 -167z" />
    <glyph glyph-name="trademark" unicode="&#x2122;" horiz-adv-x="857" 
d="M769 367h-20v330l-134 -330h-21l-133 330v-330h-20v356h31l133 -330l133 330h31v-356zM365 705h-132v-338h-20v338h-132v18h284v-18z" />
    <glyph glyph-name="currency" unicode="&#xa4;" 
d="M53 565l14 14l65 -65c36 33 84 52 138 52c53 0 101 -19 137 -52l66 65l14 -14l-65 -65c32 -36 52 -84 52 -138s-20 -102 -52 -138l65 -65l-14 -14l-66 64c-36 -32 -84 -51 -137 -51c-54 0 -102 19 -138 51l-65 -64l-14 14l65 65c-33 36 -52 84 -52 138s19 102 52 138z
M454 362c0 105 -81 186 -184 186s-184 -81 -184 -186s81 -186 184 -186s184 81 184 186z" />
    <glyph glyph-name="Euro" unicode="&#x20ac;" 
d="M358 9c69 0 113 22 144 50v-29c-37 -25 -75 -40 -144 -40c-165 0 -230 126 -242 316h-83l5 18h77c-1 16 -1 33 -1 51c0 15 0 30 1 46h-80l5 18h77c13 144 73 294 234 294c91 0 136 -34 157 -52l-6 -24c-24 25 -70 57 -151 57c-137 0 -201 -129 -214 -275h310l-5 -18h-307
c-1 -15 -1 -31 -1 -46c0 -18 0 -35 1 -51h283l-5 -18h-277c11 -171 68 -297 222 -297z" />
    <glyph glyph-name="cent" unicode="&#xa2;" 
d="M371 503c62 -20 100 -76 105 -147h-20c-6 64 -41 112 -91 127l-132 -465c18 -6 39 -9 61 -9c124 0 161 103 165 143h20c-4 -78 -72 -163 -186 -163c-24 0 -45 3 -65 9l-26 -91l-19 5l27 92c-92 36 -139 132 -139 243c0 143 68 268 227 268c19 0 37 -2 54 -6l26 93l19 -6z
M346 489c-15 4 -31 6 -49 6c-146 0 -206 -114 -206 -247c0 -99 41 -189 124 -224z" />
    <glyph glyph-name="sterling" unicode="&#xa3;" 
d="M498 590h-20c-4 82 -75 125 -145 125c-142 0 -180 -102 -180 -233v-65h175v-18h-175v-381h327v-18h-400v18h53v381h-64v18h64v71c0 109 28 245 200 245c87 0 161 -49 165 -143z" />
    <glyph glyph-name="florin" unicode="&#x192;" 
d="M460 725l-4 -19c-11 4 -28 9 -49 9c-44 0 -70 -43 -87 -142l-21 -119h109l-3 -18h-110l-91 -483c-18 -98 -47 -129 -103 -129c-10 0 -22 2 -31 5l6 18c8 -2 18 -4 27 -4c38 0 63 25 78 105l91 488h-94l5 18h93l22 123c17 100 46 156 109 156c25 0 41 -4 53 -8z" />
    <glyph glyph-name="yen" unicode="&#xa5;" 
d="M524 723l-237 -396h186v-18h-192v-97h192v-18h-192v-194h-20v194h-190v18h190v97h-190v18h185l-240 396h24l232 -386l230 386h22z" />
    <glyph glyph-name="ordfeminine" unicode="&#xaa;" horiz-adv-x="291" 
d="M245 432h-22c-1 17 -2 34 -2 50c-19 -36 -52 -56 -96 -56c-58 0 -100 30 -100 84c0 80 76 98 194 98v18c0 62 -22 88 -82 88c-41 0 -75 -19 -80 -61h-21c7 53 46 80 101 80c67 0 103 -29 103 -104v-101c0 -32 2 -64 5 -96zM219 542v47h-10c-95 0 -164 -16 -164 -79
c0 -40 35 -65 79 -65c62 0 95 47 95 97z" />
    <glyph glyph-name="ordmasculine" unicode="&#xba;" horiz-adv-x="324" 
d="M294 578c0 -85 -45 -155 -132 -155c-89 0 -132 70 -132 155s45 155 132 155c89 0 132 -70 132 -155zM274 578c0 70 -37 136 -112 136c-77 0 -112 -66 -112 -136s37 -136 112 -136c77 0 112 66 112 136z" />
    <glyph glyph-name="onesuperior" unicode="&#xb9;" horiz-adv-x="350" 
d="M193 469h-20v401c-31 -30 -59 -45 -99 -65v19c36 16 68 40 96 65h23v-420z" />
    <glyph glyph-name="twosuperior" unicode="&#xb2;" horiz-adv-x="350" 
d="M304 469h-254v20l134 135c73 74 98 110 98 162c0 51 -41 88 -104 88c-60 0 -107 -40 -107 -98h-20c1 68 52 116 127 116c71 0 124 -41 124 -106c0 -55 -22 -92 -87 -158l-138 -140h227v-19z" />
    <glyph glyph-name="threesuperior" unicode="&#xb3;" horiz-adv-x="350" 
d="M308 585c0 -76 -56 -119 -136 -119c-81 0 -127 49 -133 111h20c10 -62 55 -93 113 -93c73 0 116 40 116 101c0 60 -39 92 -107 92h-21v19h21c58 0 97 35 97 88c0 62 -45 90 -106 90c-68 0 -106 -40 -109 -90h-20c3 65 57 108 129 108c76 0 126 -37 126 -108
c0 -56 -35 -87 -84 -97c52 -5 94 -38 94 -102z" />
    <glyph glyph-name="fraction" unicode="&#x2044;" horiz-adv-x="187" 
d="M337 748l-456 -772h-24l458 772h22z" />
    <glyph glyph-name="uni2215" unicode="&#x2215;" horiz-adv-x="187" 
d="M337 748l-456 -772h-24l458 772h22z" />
    <glyph glyph-name="onehalf" unicode="&#xbd;" horiz-adv-x="828" 
d="M757 0h-254v20l132 135c65 67 98 110 98 162c0 51 -42 87 -102 87s-107 -39 -107 -97h-20c1 68 52 116 127 116c71 0 122 -41 122 -106c0 -55 -35 -105 -87 -159l-135 -138h226v-20zM628 748l-456 -772h-24l458 772h22zM167 303h-20v401c-31 -30 -59 -45 -99 -65v19
c36 16 68 40 96 65h23v-420z" />
    <glyph glyph-name="onethird" unicode="&#x2153;" horiz-adv-x="850" 
d="M771 113c0 -76 -64 -116 -141 -116c-81 0 -132 49 -138 111h20c10 -62 60 -92 118 -92c70 0 121 36 121 97c0 64 -39 95 -107 95h-26v19h26c55 0 97 34 97 85c0 64 -54 92 -115 92c-66 0 -104 -35 -110 -89h-20c3 65 60 108 130 108c76 0 135 -37 135 -111
c0 -53 -41 -83 -89 -94c47 -5 99 -32 99 -105zM628 748l-456 -772h-24l458 772h22zM167 303h-20v401c-31 -30 -59 -45 -99 -65v19c36 16 68 40 96 65h23v-420z" />
    <glyph glyph-name="onequarter" unicode="&#xbc;" horiz-adv-x="850" 
d="M781 100h-65v-100h-20v100h-214v15l216 304h18v-300h65v-19zM637 748l-456 -772h-24l458 772h22zM176 303h-20v401c-31 -30 -59 -45 -99 -65v19c36 16 68 40 96 65h23v-420zM696 119v267l-188 -267h188z" />
    <glyph glyph-name="oneeighth" unicode="&#x215b;" horiz-adv-x="850" 
d="M628 748l-456 -772h-24l458 772h22zM167 303h-20v401c-31 -30 -59 -45 -99 -65v19c36 16 68 40 96 65h23v-420zM765 112c0 -77 -63 -115 -140 -115s-140 38 -140 115c0 49 35 90 98 105c-55 10 -92 47 -92 94c0 73 59 112 134 112s134 -39 134 -112
c0 -47 -40 -83 -92 -94c64 -14 98 -56 98 -105zM739 311c0 62 -53 93 -114 93s-114 -31 -114 -93c0 -59 55 -84 114 -84s114 25 114 84zM745 112c0 60 -55 96 -120 96s-120 -36 -120 -96c0 -64 56 -96 120 -96c65 0 120 32 120 96z" />
    <glyph glyph-name="twothirds" unicode="&#x2154;" horiz-adv-x="850" 
d="M811 110c0 -82 -68 -116 -143 -116c-83 0 -130 49 -136 112h20c10 -65 56 -93 116 -93c68 0 123 30 123 97c0 64 -39 97 -107 97h-26v19h26c55 0 97 35 97 86c0 64 -54 92 -115 92c-66 0 -104 -35 -110 -89h-20c3 65 60 108 130 108c76 0 135 -37 135 -111
c0 -53 -41 -84 -89 -95c47 -5 99 -34 99 -107zM291 303h-254v20l132 135c65 67 98 110 98 162c0 51 -42 87 -102 87s-107 -39 -107 -97h-20c1 68 52 116 127 116c71 0 122 -41 122 -106c0 -55 -35 -105 -87 -159l-135 -138h226v-20zM673 748l-456 -772h-24l458 772h22z" />
    <glyph glyph-name="threequarters" unicode="&#xbe;" horiz-adv-x="850" 
d="M819 100h-65v-100h-20v100h-214v15l216 304h18v-300h65v-19zM734 119v265l-188 -265h188zM328 416c0 -76 -64 -116 -141 -116c-81 0 -132 49 -138 111h20c10 -62 60 -92 118 -92c70 0 121 36 121 97c0 64 -39 95 -107 95h-26v19h26c55 0 97 34 97 85c0 64 -54 92 -115 92
c-66 0 -104 -35 -110 -89h-20c3 65 60 108 130 108c76 0 135 -37 135 -111c0 -53 -41 -83 -89 -94c47 -5 99 -32 99 -105zM691 748l-456 -772h-24l458 772h22z" />
    <glyph glyph-name="threeeighths" unicode="&#x215c;" horiz-adv-x="850" 
d="M800 112c0 -77 -63 -115 -140 -115s-140 38 -140 115c0 49 35 90 98 105c-55 10 -92 47 -92 94c0 73 59 112 134 112s134 -39 134 -112c0 -47 -40 -83 -92 -94c64 -14 98 -56 98 -105zM780 112c0 60 -55 96 -120 96s-120 -36 -120 -96c0 -64 56 -96 120 -96
c65 0 120 32 120 96zM774 311c0 62 -53 93 -114 93s-114 -31 -114 -93c0 -59 55 -84 114 -84s114 25 114 84zM326 416c0 -76 -64 -116 -141 -116c-81 0 -132 49 -138 111h20c10 -62 60 -92 118 -92c70 0 121 36 121 97c0 64 -39 95 -107 95h-26v19h26c55 0 97 34 97 85
c0 64 -54 92 -115 92c-66 0 -104 -35 -110 -89h-20c3 65 60 108 130 108c76 0 135 -37 135 -111c0 -53 -41 -83 -89 -94c47 -5 99 -32 99 -105zM666 748l-456 -772h-24l458 772h22z" />
    <glyph glyph-name="fiveeighths" unicode="&#x215d;" horiz-adv-x="850" 
d="M658 748l-456 -772h-24l458 772h22zM792 112c0 -77 -63 -115 -140 -115s-140 38 -140 115c0 49 35 90 98 105c-55 10 -92 47 -92 94c0 73 59 112 134 112s134 -39 134 -112c0 -47 -40 -83 -92 -94c64 -14 98 -56 98 -105zM766 311c0 62 -53 93 -114 93s-114 -31 -114 -93
c0 -59 55 -84 114 -84s114 25 114 84zM772 112c0 60 -55 96 -120 96s-120 -36 -120 -96c0 -64 56 -96 120 -96c65 0 120 32 120 96zM328 444c0 -81 -52 -144 -139 -144c-67 0 -116 33 -126 97h20c8 -51 51 -79 106 -79c77 0 119 58 119 126c0 73 -45 123 -114 123
c-50 0 -92 -30 -106 -78h-18l11 234h224v-19h-204l-11 -185c13 35 52 67 104 67c84 0 134 -57 134 -142z" />
    <glyph glyph-name="seveneighths" unicode="&#x215e;" horiz-adv-x="850" 
d="M632 748l-456 -772h-24l458 772h22zM787 112c0 -77 -63 -115 -140 -115s-140 38 -140 115c0 49 35 90 98 105c-55 10 -92 47 -92 94c0 73 59 112 134 112s134 -39 134 -112c0 -47 -40 -83 -92 -94c64 -14 98 -56 98 -105zM761 311c0 62 -53 93 -114 93s-114 -31 -114 -93
c0 -59 55 -84 114 -84s114 25 114 84zM767 112c0 60 -55 96 -120 96s-120 -36 -120 -96c0 -64 56 -96 120 -96c65 0 120 32 120 96zM358 704l-190 -401h-22l191 401h-247v19h268v-19z" />
    <glyph glyph-name="perthousand" unicode="&#x2030;" horiz-adv-x="1020" 
d="M977 137c0 -85 -53 -156 -143 -156c-87 0 -143 74 -143 157c0 91 45 160 143 160c92 0 143 -71 143 -161zM329 572c0 -85 -53 -156 -143 -156c-87 0 -143 74 -143 157c0 91 45 160 143 160c92 0 143 -71 143 -161zM586 748l-456 -768h-24l458 768h22zM629 137
c0 -85 -53 -156 -143 -156c-87 0 -143 74 -143 157c0 91 45 160 143 160c92 0 143 -71 143 -161zM957 138c0 84 -49 140 -123 140c-75 0 -123 -55 -123 -140c0 -83 55 -137 123 -137c72 0 123 51 123 137zM309 573c0 84 -49 140 -123 140c-75 0 -123 -55 -123 -140
c0 -83 55 -137 123 -137c72 0 123 51 123 137zM609 138c0 84 -49 140 -123 140c-75 0 -123 -55 -123 -140c0 -83 55 -137 123 -137c72 0 123 51 123 137z" />
    <glyph glyph-name="minus" unicode="&#x2212;" horiz-adv-x="593" 
d="M539 232h-485v18h485v-18z" />
    <glyph glyph-name="plusminus" unicode="&#xb1;" horiz-adv-x="593" 
d="M539 268h-233v-200h-20v200h-232v18h232v200h20v-200h233v-18zM539 0h-485v18h485v-18z" />
    <glyph glyph-name="multiply" unicode="&#xd7;" horiz-adv-x="593" 
d="M518 450l-208 -208l207 -207l-14 -14l-207 207l-208 -208l-14 14l208 208l-208 208l14 14l208 -208l208 208z" />
    <glyph glyph-name="divide" unicode="&#xf7;" horiz-adv-x="593" 
d="M539 232h-485v18h485v-18zM308 388h-24v45h24v-45zM308 49h-24v45h24v-45z" />
    <glyph glyph-name="notequal" unicode="&#x2260;" horiz-adv-x="593" 
d="M430 476l-71 -134h180v-18h-189l-87 -165h276v-18h-286l-75 -143l-17 9l71 134h-178v18h187l88 165h-275v18h284l76 143z" />
    <glyph glyph-name="approxequal" unicode="&#x2248;" horiz-adv-x="593" 
d="M429 290c57 0 79 37 90 88h20c-10 -55 -40 -106 -110 -106c-32 0 -75 17 -134 41c-49 20 -101 41 -131 41c-57 0 -79 -37 -90 -88h-20c10 55 40 106 110 106c32 0 76 -17 135 -41c49 -20 100 -41 130 -41zM429 127c57 0 79 37 90 88h20c-10 -55 -40 -106 -110 -106
c-32 0 -75 17 -134 41c-49 20 -101 41 -131 41c-57 0 -79 -37 -90 -88h-20c10 55 40 106 110 106c32 0 76 -17 135 -41c49 -20 100 -41 130 -41z" />
    <glyph glyph-name="lessequal" unicode="&#x2264;" horiz-adv-x="593" 
d="M539 80l-485 204v18l485 204v-20l-460 -193l460 -193v-20zM539 0h-485v18h485v-18z" />
    <glyph glyph-name="greaterequal" unicode="&#x2265;" horiz-adv-x="593" 
d="M539 284l-485 -204v20l460 193l-460 193v20l485 -204v-18zM539 0h-485v18h485v-18z" />
    <glyph glyph-name="logicalnot" unicode="&#xac;" horiz-adv-x="593" 
d="M539 136h-20v188h-465v18h485v-206z" />
    <glyph glyph-name="Delta" unicode="&#x2206;" horiz-adv-x="621" 
d="M609 0h-597l288 723h16zM578 19l-270 672l-265 -672h535z" />
    <glyph glyph-name="uni0394" unicode="&#x394;" horiz-adv-x="621" 
d="M609 0h-597l288 723h16zM578 19l-270 672l-265 -672h535z" />
    <glyph glyph-name="Omega" unicode="&#x2126;" horiz-adv-x="728" 
d="M664 376c0 -170 -79 -281 -185 -347v-9h197v-20h-217v39c120 72 185 182 185 337c0 204 -106 339 -280 339c-170 0 -280 -135 -280 -339c0 -155 65 -265 185 -337v-39h-217v20h197v9c-106 66 -185 177 -185 347c0 216 120 357 300 357c184 0 300 -141 300 -357z" />
    <glyph glyph-name="uni03A9" unicode="&#x3a9;" horiz-adv-x="725" 
d="M674 376c0 -170 -79 -281 -185 -347v-9h197v-20h-217v39c120 72 185 182 185 337c0 204 -106 339 -280 339c-170 0 -280 -135 -280 -339c0 -155 65 -265 185 -337v-39h-217v20h197v9c-106 66 -185 177 -185 347c0 216 120 357 300 357c184 0 300 -141 300 -357z" />
    <glyph glyph-name="mu" unicode="&#xb5;" horiz-adv-x="549" 
d="M95 -190v696h20v-296c0 -116 49 -195 153 -195c111 0 166 83 166 209v282h20v-361c0 -36 1 -94 2 -145h-20v121c-22 -78 -84 -127 -165 -127c-67 0 -126 30 -156 105v-289h-20z" />
    <glyph glyph-name="uni03BC" unicode="&#x3bc;" horiz-adv-x="549" 
d="M95 -190v696h20v-296c0 -116 49 -195 153 -195c111 0 166 83 166 209v282h20v-361c0 -36 1 -94 2 -145h-20v121c-22 -78 -84 -127 -165 -127c-67 0 -126 30 -156 105v-289h-20z" />
    <glyph glyph-name="pi" unicode="&#x3c0;" horiz-adv-x="561" 
d="M525 29v-19c-16 -9 -34 -14 -48 -14c-44 0 -60 30 -60 86v404h-292v-486h-20v486h-75v20h489v-20h-82v-405c0 -50 14 -67 41 -67c17 0 35 7 47 15z" />
    <glyph glyph-name="degree" unicode="&#xb0;" horiz-adv-x="360" 
d="M43 596c0 76 61 137 137 137s137 -61 137 -137s-61 -137 -137 -137s-137 61 -137 137zM63 596c0 -67 52 -119 117 -119s117 52 117 119s-52 119 -117 119s-117 -52 -117 -119z" />
    <glyph glyph-name="afii61289" unicode="&#x2113;" horiz-adv-x="466" 
d="M271 8c37 0 72 16 101 50l14 -12c-32 -37 -72 -56 -115 -56c-64 0 -105 40 -105 124v106l-69 -78l-13 12l82 94v321c0 110 47 164 113 164c62 0 100 -49 100 -129c0 -91 -53 -198 -193 -361v-129c0 -76 37 -106 85 -106zM186 571v-300c121 144 173 245 173 333
c0 69 -30 111 -80 111s-93 -44 -93 -144z" />
    <glyph glyph-name="estimated" unicode="&#x212e;" horiz-adv-x="600" 
d="M561 259h-404v-181c39 -39 88 -59 145 -59c84 0 142 36 193 120l35 -21c-61 -96 -123 -135 -228 -135c-157 0 -258 122 -258 276c0 155 101 276 258 276c154 0 259 -114 259 -276zM157 295h291v145c-42 40 -91 60 -147 60s-104 -20 -144 -60v-145z" />
    <glyph glyph-name="eng" unicode="&#x14b;" horiz-adv-x="547" 
d="M455 -71c0 -84 -36 -108 -94 -108c-9 0 -28 2 -42 5v20c14 -3 28 -5 39 -5c54 0 77 20 77 95v360c0 105 -18 195 -142 195c-94 0 -153 -64 -172 -157c-5 -23 -5 -50 -5 -76v-258h-20v361c0 36 0 91 -2 145h20v-142c19 90 94 148 175 148c99 0 166 -49 166 -191v-392z" />
    <glyph glyph-name="Eng" unicode="&#x14a;" horiz-adv-x="732" 
d="M594 -50v49l-452 685h-4v-684h-20v723h21l453 -686h2v686h20v-775c0 -96 -47 -127 -115 -127c-10 0 -32 2 -43 5v20c14 -3 26 -5 40 -5c65 0 98 29 98 109z" />
    <glyph glyph-name="infinity" unicode="&#x221e;" horiz-adv-x="726" 
d="M539 116c-58 0 -102 39 -177 113c-51 -53 -112 -113 -182 -113c-71 0 -124 51 -124 126c0 69 57 126 130 126c61 0 109 -43 177 -113c51 52 116 113 183 113c71 0 124 -51 124 -126c0 -69 -56 -126 -131 -126zM540 134c65 0 110 50 110 108c0 63 -42 108 -105 108
c-65 0 -126 -62 -170 -108c74 -73 113 -108 165 -108zM182 134c59 0 114 52 168 108c-77 78 -111 108 -164 108c-64 0 -110 -50 -110 -108c0 -63 43 -108 106 -108z" />
    <glyph glyph-name="partialdiff" unicode="&#x2202;" horiz-adv-x="520" 
d="M437 364c0 158 -65 351 -206 351c-50 0 -90 -15 -133 -43l-10 16c43 28 90 45 144 45c157 0 225 -207 225 -370c0 -249 -105 -373 -230 -373c-118 0 -175 95 -175 197c0 138 95 232 206 232c77 0 139 -44 177 -104c1 16 2 32 2 49zM259 401c-98 0 -187 -86 -187 -214
c0 -99 59 -179 155 -179c100 0 187 88 206 278c-34 65 -98 115 -174 115z" />
    <glyph glyph-name="integral" unicode="&#x222b;" horiz-adv-x="420" 
d="M220 601v-620c0 -129 -30 -183 -101 -183c-15 0 -28 3 -37 7l6 16c8 -3 22 -5 31 -5c61 0 81 51 81 164v620c0 129 30 183 101 183c15 0 28 -3 37 -7l-6 -16c-8 3 -22 5 -31 5c-61 0 -81 -51 -81 -164z" />
    <glyph glyph-name="radical" unicode="&#x221a;" horiz-adv-x="522" 
d="M506 786l-243 -988h-18l-149 384l-45 -18l-7 17l65 25l143 -372l233 952h21z" />
    <glyph glyph-name="summation" unicode="&#x2211;" horiz-adv-x="593" 
d="M551 -202h-510v19l340 473l-325 477v19h485v-20h-459l326 -476l-340 -472h483v-20z" />
    <glyph glyph-name="product" unicode="&#x220f;" horiz-adv-x="709" 
d="M614 -202h-20v968h-479v-968h-20v988h519v-988z" />
    <glyph glyph-name="lozenge" unicode="&#x25ca;" horiz-adv-x="516" 
d="M456 362l-190 -392h-16l-190 392l190 391h16zM434 362l-176 363l-176 -363l176 -364z" />
    <glyph glyph-name="uniF8FF" unicode="&#xf8ff;" horiz-adv-x="512" 
d="M278 117h-56v67h56v-67zM271 234h-48v17c0 72 15 98 59 140c43 42 50 61 50 89c0 48 -35 79 -76 79s-74 -27 -82 -95l-50 8c9 95 63 137 135 137c71 0 124 -49 124 -125c0 -46 -12 -79 -63 -126c-42 -38 -49 -55 -49 -100v-24zM50 50h412v617h-412v-617zM0 718h512v-718
h-512v718z" />
    <glyph glyph-name="exclam.sc" horiz-adv-x="223" 
d="M122 546l-2 -431h-17l-2 431h21zM123 0h-24v45h24v-45z" />
    <glyph glyph-name="dollar.sc" horiz-adv-x="442" 
d="M229 610v-58c85 -3 158 -38 162 -116h-20c-7 66 -72 95 -142 98v-245c103 -31 170 -63 170 -149c0 -95 -70 -143 -170 -146v-57h-20v57c-105 4 -160 58 -166 145h21c4 -68 48 -123 145 -126v261c-82 25 -162 51 -162 140c0 86 71 135 162 138v58h20zM229 268v-255
c86 3 150 42 150 127c0 71 -56 100 -150 128zM68 414c0 -69 57 -94 141 -119v239c-77 -3 -141 -44 -141 -120z" />
    <glyph glyph-name="percent.sc" horiz-adv-x="747" 
d="M561 564l-369 -582h-25l371 582h23zM290 412c0 -72 -40 -142 -125 -142s-125 70 -125 142s40 141 125 141s125 -69 125 -141zM270 412c0 61 -29 123 -105 123s-105 -62 -105 -123s29 -124 105 -124s105 63 105 124zM707 137c0 -72 -40 -142 -125 -142s-125 70 -125 142
s40 141 125 141s125 -69 125 -141zM687 137c0 61 -29 123 -105 123s-105 -62 -105 -123s29 -124 105 -124s105 63 105 124z" />
    <glyph glyph-name="ampersand.sc" horiz-adv-x="535" 
d="M490 6h-25h-1l-85 92c-46 -67 -102 -106 -171 -106c-85 0 -152 58 -152 150c0 79 51 120 129 163c-50 57 -70 93 -70 135c0 70 52 117 119 117c65 0 113 -48 113 -109c0 -73 -55 -107 -131 -149l158 -171c43 79 87 160 87 160h23s-95 -174 -94 -174
c50 -56 100 -108 100 -108zM326 445c0 57 -42 94 -94 94s-96 -41 -96 -98c0 -45 29 -84 67 -128c64 36 123 76 123 132zM364 114l-165 176c-64 -33 -123 -79 -123 -148c0 -80 62 -131 136 -131c60 0 116 42 152 103z" />
    <glyph glyph-name="zero.sc" horiz-adv-x="445" 
d="M392 278c0 -110 -34 -288 -170 -288c-144 0 -169 178 -169 288c0 109 25 278 169 278c134 0 170 -170 170 -278zM372 278c0 87 -34 260 -150 260c-128 0 -149 -173 -149 -260c0 -89 23 -270 149 -270c118 0 150 181 150 270z" />
    <glyph glyph-name="one.sc" horiz-adv-x="445" 
d="M242 0h-20v523c-38 -37 -73 -58 -123 -84v21c45 21 86 53 121 86h22v-546z" />
    <glyph glyph-name="two.sc" horiz-adv-x="445" 
d="M373 0h-318v20l165 180c61 66 124 139 124 212c0 74 -49 126 -129 126c-77 0 -136 -56 -136 -139h-20c1 91 62 157 156 157c91 0 149 -57 149 -144c0 -71 -55 -143 -113 -207l-172 -187h294v-18z" />
    <glyph glyph-name="three.sc" horiz-adv-x="445" 
d="M391 148c0 -98 -70 -158 -174 -158c-103 0 -160 62 -169 149h20c13 -95 77 -131 149 -131c93 0 154 53 154 140c0 80 -56 128 -139 128h-34v19h34c73 0 128 51 128 116c0 83 -60 127 -140 127c-86 0 -137 -56 -141 -125h-20c4 90 76 143 161 143c94 0 160 -52 160 -145
c0 -60 -37 -107 -100 -125c55 -10 111 -52 111 -138z" />
    <glyph glyph-name="four.sc" horiz-adv-x="445" 
d="M408 135h-89v-135h-20v135h-264v18l267 393h17v-393h89v-18zM299 153v355l-242 -355h242z" />
    <glyph glyph-name="five.sc" horiz-adv-x="445" 
d="M392 174c0 -102 -61 -184 -171 -184c-88 0 -151 45 -155 136h20c3 -79 60 -118 135 -118c102 0 151 77 151 165c0 91 -44 162 -144 162c-64 0 -117 -41 -134 -105h-19l13 316h279v-18h-258l-13 -249c29 55 88 74 132 74c112 0 164 -75 164 -179z" />
    <glyph glyph-name="six.sc" horiz-adv-x="445" 
d="M389 169c0 -92 -59 -179 -161 -179c-87 0 -136 47 -158 108c-12 33 -17 74 -17 146c0 120 12 312 178 312c84 0 146 -42 150 -133h-20c-6 71 -51 115 -130 115c-135 0 -158 -148 -158 -303c24 72 89 109 155 109c111 0 161 -80 161 -175zM369 169c0 81 -42 157 -141 157
c-90 0 -150 -76 -150 -159c0 -72 44 -159 150 -159c90 0 141 79 141 161z" />
    <glyph glyph-name="seven.sc" horiz-adv-x="445" 
d="M385 525l-223 -525h-23l225 527h-308v19h329v-21z" />
    <glyph glyph-name="eight.sc" horiz-adv-x="445" 
d="M396 142c0 -98 -79 -152 -173 -152s-173 52 -173 152c0 67 40 120 113 140c-61 15 -105 61 -105 125c0 96 73 149 165 149c91 0 165 -53 165 -149c0 -64 -44 -110 -105 -125c73 -20 113 -73 113 -140zM368 407c0 85 -68 131 -145 131s-145 -46 -145 -131
c0 -81 72 -115 145 -115s145 34 145 115zM376 142c0 83 -76 131 -153 131c-78 0 -153 -48 -153 -131c0 -87 74 -134 153 -134c78 0 153 47 153 134z" />
    <glyph glyph-name="nine.sc" horiz-adv-x="445" 
d="M390 303c0 -119 -12 -313 -180 -313c-84 0 -150 47 -153 137h20c6 -71 54 -119 133 -119c135 0 160 158 160 302c-23 -73 -90 -110 -155 -110c-110 0 -161 82 -161 178c0 91 62 178 164 178c89 0 135 -51 156 -111c10 -28 16 -68 16 -142zM364 379c0 72 -40 159 -146 159
c-90 0 -144 -79 -144 -160c0 -79 42 -160 141 -160c89 0 149 79 149 161z" />
    <glyph glyph-name="question.sc" horiz-adv-x="411" 
d="M319 427c0 -55 -42 -109 -115 -173c-30 -26 -38 -45 -38 -75v-64h-20v58c0 40 7 62 48 97c71 62 105 108 105 158c0 70 -48 108 -131 108c-29 0 -47 -2 -76 -9v21c24 5 47 8 70 8c92 0 157 -41 157 -129zM168 0h-23v45h23v-45z" />
    <glyph glyph-name="a.sc" horiz-adv-x="528" 
d="M495 0l-78 169h-311l-73 -169h-23l239 546h17l252 -546h-23zM258 517l-143 -328h293z" />
    <glyph glyph-name="b.sc" horiz-adv-x="516" 
d="M458 152c0 -130 -97 -152 -210 -152h-149v546h171c98 0 164 -52 164 -135c0 -62 -40 -108 -97 -124c39 -5 121 -28 121 -135zM438 152c0 99 -74 123 -166 123h-153v-256h125c95 0 194 11 194 133zM414 411c0 70 -56 116 -146 116h-149v-233h142c83 0 153 33 153 117z" />
    <glyph glyph-name="c.sc" horiz-adv-x="518" 
d="M449 122h21c-21 -82 -84 -132 -181 -132c-171 0 -235 139 -235 279c0 134 62 287 239 287c85 0 161 -37 173 -127h-21c-17 79 -79 107 -152 107c-162 0 -219 -148 -219 -267c0 -127 57 -259 218 -259c76 0 131 35 157 112z" />
    <glyph glyph-name="d.sc" horiz-adv-x="579" 
d="M525 276c0 -112 -37 -181 -95 -222c-56 -40 -130 -54 -205 -54h-126v546h139c73 0 136 -14 184 -44c65 -42 103 -115 103 -226zM505 275c0 105 -35 174 -96 212c-44 28 -103 40 -171 40h-119v-508h100c88 0 152 18 198 51c61 44 88 116 88 205z" />
    <glyph glyph-name="e.sc" horiz-adv-x="482" 
d="M438 0h-339v546h325v-19h-305v-231h296v-19h-296v-258h319v-19z" />
    <glyph glyph-name="f.sc" horiz-adv-x="439" 
d="M407 527h-288v-228h278v-19h-278v-280h-20v546h308v-19z" />
    <glyph glyph-name="g.sc" horiz-adv-x="545" 
d="M480 265v-240c-38 -15 -113 -31 -174 -31c-175 0 -252 135 -252 283c0 138 70 279 238 279c93 0 167 -48 179 -138h-20c-10 74 -72 119 -160 119c-150 0 -217 -134 -217 -260c0 -133 70 -263 230 -263c53 0 107 8 156 25v206h-159v20h179z" />
    <glyph glyph-name="h.sc" horiz-adv-x="594" 
d="M495 0h-20v273h-356v-273h-20v546h20v-253h356v253h20v-546z" />
    <glyph glyph-name="i.sc" horiz-adv-x="218" 
d="M119 0h-20v546h20v-546z" />
    <glyph glyph-name="j.sc" horiz-adv-x="381" 
d="M297 145c0 -85 -42 -155 -148 -155c-77 0 -133 43 -133 116v11h21v-11c0 -62 45 -96 112 -96c92 0 128 59 128 140v396h20v-401z" />
    <glyph glyph-name="k.sc" horiz-adv-x="475" 
d="M119 546v-546h-20v546h20zM120 294l289 252h28l-292 -252l320 -294h-29z" />
    <glyph glyph-name="l.sc" horiz-adv-x="432" 
d="M420 0h-321v546h20v-527h301v-19z" />
    <glyph glyph-name="m.sc" horiz-adv-x="745" 
d="M646 0h-20v524h-2l-232 -524h-26l-245 527h-2v-527h-20v546h34l246 -528l233 528h34v-546z" />
    <glyph glyph-name="n.sc" horiz-adv-x="600" 
d="M501 0h-22l-358 512h-2v-512h-20v546h21l359 -512h2v512h20v-546z" />
    <glyph glyph-name="o.sc" horiz-adv-x="592" 
d="M538 276c0 -143 -74 -286 -238 -286c-165 0 -246 143 -246 285c0 148 78 281 246 281c173 0 238 -130 238 -280zM518 275c0 140 -59 261 -218 261c-156 0 -225 -125 -225 -261c0 -127 71 -265 225 -265c152 0 218 139 218 265z" />
    <glyph glyph-name="p.sc" horiz-adv-x="468" 
d="M434 402c0 -66 -36 -116 -95 -136c-35 -12 -96 -13 -140 -13h-80v-253h-20v546h139c45 0 95 -3 136 -27s60 -66 60 -117zM414 402c0 51 -19 81 -51 100c-30 18 -67 25 -120 25h-124v-255h96c35 0 79 1 113 11c55 15 86 64 86 119z" />
    <glyph glyph-name="q.sc" horiz-adv-x="593" 
d="M548 20v-20h-97c-28 0 -64 0 -86 -2c-21 -2 -42 -3 -65 -3c-167 0 -246 139 -246 279c0 148 78 282 246 282c173 0 238 -131 238 -281c0 -100 -39 -215 -141 -258c31 2 77 3 111 3h40zM518 274c0 139 -59 262 -218 262c-158 0 -225 -128 -225 -262
c0 -124 68 -259 225 -259c153 0 218 133 218 259z" />
    <glyph glyph-name="r.sc" horiz-adv-x="515" 
d="M461 0h-25c-16 27 -23 53 -29 114c-13 132 -30 165 -124 165h-164v-279h-20v546h174c56 0 99 -10 130 -36c23 -20 41 -52 41 -93c0 -65 -39 -111 -101 -127c55 -13 75 -54 84 -173c4 -58 14 -92 34 -117zM424 416c0 37 -15 62 -36 80c-28 23 -64 31 -116 31h-153v-229
h161c76 0 144 38 144 118z" />
    <glyph glyph-name="s.sc" horiz-adv-x="462" 
d="M409 138c0 -103 -82 -148 -183 -148c-102 0 -175 53 -181 144h21c3 -60 53 -125 161 -125c84 0 162 34 162 128c0 72 -56 99 -137 125l-59 19c-72 23 -133 61 -133 135c0 95 82 140 175 140c84 0 164 -32 168 -117h-21c-6 73 -80 98 -147 98c-79 0 -155 -37 -155 -120
c0 -63 56 -97 121 -118l60 -19c77 -24 148 -57 148 -142z" />
    <glyph glyph-name="t.sc" horiz-adv-x="410" 
d="M403 527h-188v-527h-20v527h-188v19h396v-19z" />
    <glyph glyph-name="u.sc" horiz-adv-x="583" 
d="M499 199c0 -133 -61 -209 -207 -209c-137 0 -208 68 -208 209v347h20v-344c0 -116 45 -193 188 -193c139 0 187 71 187 193v344h20v-347z" />
    <glyph glyph-name="v.sc" horiz-adv-x="496" 
d="M486 546l-223 -546h-23l-230 546h21l219 -523h3l212 523h21z" />
    <glyph glyph-name="w.sc" horiz-adv-x="780" 
d="M759 546l-156 -546h-24l-193 512h-3l-185 -512h-27l-150 546h20l145 -524h2l186 524h20l195 -524h2l146 524h22z" />
    <glyph glyph-name="x.sc" horiz-adv-x="488" 
d="M466 0h-25l-200 263l-193 -263h-26l209 283l-204 263h24l191 -247l183 247h24l-197 -265z" />
    <glyph glyph-name="y.sc" horiz-adv-x="451" 
d="M456 546l-220 -300v-246h-20v246l-221 300h24l207 -282l205 282h25z" />
    <glyph glyph-name="z.sc" horiz-adv-x="429" 
d="M411 0h-393v17l361 510h-335v19h359v-19l-359 -508h367v-19z" />
    <glyph glyph-name="agrave.sc" horiz-adv-x="528" 
d="M495 0l-78 169h-311l-73 -169h-23l239 546h17l252 -546h-23zM258 517l-143 -328h293zM292 633h-16l-102 143h29z" />
    <glyph glyph-name="aacute.sc" horiz-adv-x="528" 
d="M495 0l-78 169h-311l-73 -169h-23l239 546h17l252 -546h-23zM258 517l-143 -328h293zM339 776l-102 -143h-16l89 143h29z" />
    <glyph glyph-name="acircumflex.sc" horiz-adv-x="528" 
d="M495 0l-78 169h-311l-73 -169h-23l239 546h17l252 -546h-23zM258 517l-143 -328h293zM372 633h-17l-95 123l-99 -123h-17l102 143h28z" />
    <glyph glyph-name="atilde.sc" horiz-adv-x="528" 
d="M495 0l-78 169h-311l-73 -169h-23l239 546h17l252 -546h-23zM258 517l-143 -328h293zM367 738c-10 -31 -29 -52 -65 -52c-15 0 -32 5 -47 10c-18 6 -31 10 -41 10c-26 0 -34 -7 -45 -29h-20c9 32 33 48 67 48c15 0 30 -5 45 -10c16 -5 29 -9 41 -9c24 0 34 9 45 32h20z
" />
    <glyph glyph-name="adieresis.sc" horiz-adv-x="528" 
d="M495 0l-78 169h-311l-73 -169h-23l239 546h17l252 -546h-23zM258 517l-143 -328h293zM337 706h-19v55h19v-55zM199 706h-20v55h20v-55z" />
    <glyph glyph-name="amacron.sc" horiz-adv-x="528" 
d="M495 0l-78 169h-311l-73 -169h-23l239 546h17l252 -546h-23zM258 517l-143 -328h293zM358 700h-200v20h200v-20z" />
    <glyph glyph-name="abreve.sc" horiz-adv-x="528" 
d="M495 0l-78 169h-311l-73 -169h-23l239 546h17l252 -546h-23zM258 517l-143 -328h293zM369 730c-4 -38 -46 -79 -112 -79c-57 0 -107 32 -110 79h20c8 -38 47 -59 90 -59c41 0 77 14 92 59h20z" />
    <glyph glyph-name="aring.sc" horiz-adv-x="528" 
d="M495 0l-78 169h-311l-73 -169h-23l239 546h17l252 -546h-23zM258 517l-143 -328h293zM338 695c0 -45 -35 -80 -80 -80s-80 35 -80 80s35 80 80 80s80 -35 80 -80zM319 695c0 36 -26 63 -61 63s-61 -27 -61 -63s26 -63 61 -63s61 27 61 63z" />
    <glyph glyph-name="aogonek.sc" horiz-adv-x="528" 
d="M495 0l-78 169h-311l-73 -169h-23l239 546h17l252 -546c-67 -30 -106 -58 -106 -96s33 -52 65 -52c20 0 37 5 56 12l7 -14c-21 -10 -41 -16 -70 -16c-39 0 -82 19 -82 67c0 53 48 79 110 99h-3zM258 517l-143 -328h293z" />
    <glyph glyph-name="ae.sc" horiz-adv-x="786" 
d="M717 277h-277l52 -258h250v-19h-267l-33 163h-316l-109 -163h-24l366 546h370v-19h-340l47 -231h281v-19zM369 523l-229 -340h298z" />
    <glyph glyph-name="cacute.sc" horiz-adv-x="518" 
d="M449 122h21c-21 -82 -84 -132 -181 -132c-171 0 -235 139 -235 279c0 134 62 287 239 287c85 0 161 -37 173 -127h-21c-17 79 -79 107 -152 107c-162 0 -219 -148 -219 -267c0 -127 57 -259 218 -259c76 0 131 35 157 112zM350 776l-102 -143h-16l89 143h29z" />
    <glyph glyph-name="ccircumflex.sc" horiz-adv-x="518" 
d="M449 122h21c-21 -82 -84 -132 -181 -132c-171 0 -235 139 -235 279c0 134 62 287 239 287c85 0 161 -37 173 -127h-21c-17 79 -79 107 -152 107c-162 0 -219 -148 -219 -267c0 -127 57 -259 218 -259c76 0 131 35 157 112zM393 633h-17l-95 123l-99 -123h-17l102 143h28z
" />
    <glyph glyph-name="ccaron.sc" horiz-adv-x="518" 
d="M449 122h21c-21 -82 -84 -132 -181 -132c-171 0 -235 139 -235 279c0 134 62 287 239 287c85 0 161 -37 173 -127h-21c-17 79 -79 107 -152 107c-162 0 -219 -148 -219 -267c0 -127 57 -259 218 -259c76 0 131 35 157 112zM393 776l-102 -143h-28l-98 143h17l95 -123
l99 123h17z" />
    <glyph glyph-name="cdotaccent.sc" horiz-adv-x="518" 
d="M449 122h21c-21 -82 -84 -132 -181 -132c-171 0 -235 139 -235 279c0 134 62 287 239 287c85 0 161 -37 173 -127h-21c-17 79 -79 107 -152 107c-162 0 -219 -148 -219 -267c0 -127 57 -259 218 -259c76 0 131 35 157 112zM289 706h-20v55h20v-55z" />
    <glyph glyph-name="ccedilla.sc" horiz-adv-x="518" 
d="M361 -110c0 -49 -38 -64 -81 -64c-28 0 -59 9 -91 24l7 16c32 -15 56 -23 89 -23c39 0 56 18 56 47c0 33 -31 40 -61 40c-9 0 -18 0 -28 -1l19 62c-158 9 -217 143 -217 278c0 134 62 287 239 287c85 0 161 -37 173 -127h-21c-17 79 -79 107 -152 107
c-162 0 -219 -148 -219 -267c0 -127 57 -259 218 -259c76 0 131 35 157 112h21c-21 -82 -84 -132 -182 -132l-13 -43h10c42 0 76 -17 76 -57z" />
    <glyph glyph-name="dcaron.sc" horiz-adv-x="579" 
d="M525 276c0 -112 -37 -181 -95 -222c-56 -40 -130 -54 -205 -54h-126v546h139c73 0 136 -14 184 -44c65 -42 103 -115 103 -226zM505 275c0 105 -35 174 -96 212c-44 28 -103 40 -171 40h-119v-508h100c88 0 152 18 198 51c61 44 88 116 88 205zM409 776l-102 -143h-28
l-98 143h17l95 -123l99 123h17z" />
    <glyph glyph-name="dcroat.sc" horiz-adv-x="579" 
d="M37 296v19h62v231h139c73 0 136 -14 184 -44c65 -42 103 -115 103 -226c0 -112 -37 -181 -95 -222c-56 -40 -130 -54 -205 -54h-126v296h-62zM505 275c0 105 -35 174 -96 212c-44 28 -103 40 -171 40h-119v-212h177v-19h-177v-277h100c88 0 152 18 198 51
c61 44 88 116 88 205z" />
    <glyph glyph-name="eth.sc" horiz-adv-x="579" 
d="M37 296v19h62v231h139c73 0 136 -14 184 -44c65 -42 103 -115 103 -226c0 -112 -37 -181 -95 -222c-56 -40 -130 -54 -205 -54h-126v296h-62zM505 275c0 105 -35 174 -96 212c-44 28 -103 40 -171 40h-119v-212h177v-19h-177v-277h100c88 0 152 18 198 51
c61 44 88 116 88 205z" />
    <glyph glyph-name="egrave.sc" horiz-adv-x="482" 
d="M438 0h-339v546h325v-19h-305v-231h296v-19h-296v-258h319v-19zM306 633h-16l-102 143h29z" />
    <glyph glyph-name="eacute.sc" horiz-adv-x="482" 
d="M438 0h-339v546h325v-19h-305v-231h296v-19h-296v-258h319v-19zM320 776l-102 -143h-16l89 143h29z" />
    <glyph glyph-name="ecircumflex.sc" horiz-adv-x="482" 
d="M438 0h-339v546h325v-19h-305v-231h296v-19h-296v-258h319v-19zM375 633h-17l-95 123l-99 -123h-17l102 143h28z" />
    <glyph glyph-name="ecaron.sc" horiz-adv-x="482" 
d="M438 0h-339v546h325v-19h-305v-231h296v-19h-296v-258h319v-19zM378 776l-102 -143h-28l-98 143h17l95 -123l99 123h17z" />
    <glyph glyph-name="edieresis.sc" horiz-adv-x="482" 
d="M438 0h-339v546h325v-19h-305v-231h296v-19h-296v-258h319v-19zM340 706h-19v55h19v-55zM202 706h-20v55h20v-55z" />
    <glyph glyph-name="emacron.sc" horiz-adv-x="482" 
d="M438 0h-339v546h325v-19h-305v-231h296v-19h-296v-258h319v-19zM361 700h-200v20h200v-20z" />
    <glyph glyph-name="ebreve.sc" horiz-adv-x="482" 
d="M438 0h-339v546h325v-19h-305v-231h296v-19h-296v-258h319v-19zM378 730c-4 -38 -46 -79 -112 -79c-57 0 -107 32 -110 79h20c8 -38 47 -59 90 -59c41 0 77 14 92 59h20z" />
    <glyph glyph-name="edotaccent.sc" horiz-adv-x="482" 
d="M438 0h-339v546h325v-19h-305v-231h296v-19h-296v-258h319v-19zM271 706h-20v55h20v-55z" />
    <glyph glyph-name="eogonek.sc" horiz-adv-x="482" 
d="M460 -150c-21 -10 -41 -16 -70 -16c-39 0 -82 19 -82 67c0 53 48 79 110 99h-319v546h325v-19h-305v-231h296v-19h-296v-258h319v-19c-67 -30 -106 -58 -106 -96s33 -52 65 -52c20 0 37 5 56 12z" />
    <glyph glyph-name="gcircumflex.sc" horiz-adv-x="545" 
d="M480 265v-240c-38 -15 -113 -31 -174 -31c-175 0 -252 135 -252 283c0 138 70 279 238 279c93 0 167 -48 179 -138h-20c-10 74 -72 119 -160 119c-150 0 -217 -134 -217 -260c0 -133 70 -263 230 -263c53 0 107 8 156 25v206h-159v20h179zM394 633h-17l-95 123l-99 -123
h-17l102 143h28z" />
    <glyph glyph-name="gbreve.sc" horiz-adv-x="545" 
d="M480 265v-240c-38 -15 -113 -31 -174 -31c-175 0 -252 135 -252 283c0 138 70 279 238 279c93 0 167 -48 179 -138h-20c-10 74 -72 119 -160 119c-150 0 -217 -134 -217 -260c0 -133 70 -263 230 -263c53 0 107 8 156 25v206h-159v20h179zM391 730
c-4 -38 -46 -79 -112 -79c-57 0 -107 32 -110 79h20c8 -38 47 -59 90 -59c41 0 77 14 92 59h20z" />
    <glyph glyph-name="gdotaccent.sc" horiz-adv-x="545" 
d="M480 265v-240c-38 -15 -113 -31 -174 -31c-175 0 -252 135 -252 283c0 138 70 279 238 279c93 0 167 -48 179 -138h-20c-10 74 -72 119 -160 119c-150 0 -217 -134 -217 -260c0 -133 70 -263 230 -263c53 0 107 8 156 25v206h-159v20h179zM290 706h-20v55h20v-55z" />
    <glyph glyph-name="gcommaaccent.sc" horiz-adv-x="545" 
d="M480 265v-240c-38 -15 -113 -31 -174 -31c-175 0 -252 135 -252 283c0 138 70 279 238 279c93 0 167 -48 179 -138h-20c-10 74 -72 119 -160 119c-150 0 -217 -134 -217 -260c0 -133 70 -263 230 -263c53 0 107 8 156 25v206h-159v20h179zM267 -54h28l-35 -147h-15z" />
    <glyph glyph-name="hcircumflex.sc" horiz-adv-x="594" 
d="M495 0h-20v273h-356v-273h-20v546h20v-253h356v253h20v-546zM411 633h-17l-95 123l-99 -123h-17l102 143h28z" />
    <glyph glyph-name="hbar.sc" horiz-adv-x="594" 
d="M495 0h-20v273h-356v-273h-20v546h20v-163h356v163h20v-546zM119 293h356v70h-356v-70z" />
    <glyph glyph-name="igrave.sc" horiz-adv-x="218" 
d="M119 0h-20v546h20v-546zM148 633h-16l-102 143h29z" />
    <glyph glyph-name="iacute.sc" horiz-adv-x="218" 
d="M119 0h-20v546h20v-546zM188 776l-102 -143h-16l89 143h29z" />
    <glyph glyph-name="ibreve.sc" horiz-adv-x="218" 
d="M119 0h-20v546h20v-546zM220 730c-4 -38 -46 -79 -112 -79c-57 0 -107 32 -110 79h20c8 -38 47 -59 90 -59c41 0 77 14 92 59h20z" />
    <glyph glyph-name="icircumflex.sc" horiz-adv-x="218" 
d="M119 0h-20v546h20v-546zM223 633h-17l-95 123l-99 -123h-17l102 143h28z" />
    <glyph glyph-name="itilde.sc" horiz-adv-x="218" 
d="M119 0h-20v546h20v-546zM218 738c-10 -31 -29 -52 -65 -52c-15 0 -32 5 -47 10c-18 6 -31 10 -41 10c-26 0 -34 -7 -45 -29h-20c9 32 33 48 67 48c15 0 30 -5 45 -10c16 -5 29 -9 41 -9c24 0 34 9 45 32h20z" />
    <glyph glyph-name="idieresis.sc" horiz-adv-x="218" 
d="M119 0h-20v546h20v-546zM188 706h-19v55h19v-55zM50 706h-20v55h20v-55z" />
    <glyph glyph-name="imacron.sc" horiz-adv-x="218" 
d="M119 0h-20v546h20v-546zM209 700h-200v20h200v-20z" />
    <glyph glyph-name="idotaccent.sc" horiz-adv-x="218" 
d="M119 0h-20v546h20v-546zM119 706h-20v55h20v-55z" />
    <glyph glyph-name="iogonek.sc" horiz-adv-x="218" 
d="M143 -150c-21 -10 -41 -16 -70 -16c-39 0 -82 19 -82 67c0 53 48 79 110 99h-2v546h20v-546c-66 -31 -104 -58 -104 -96s33 -52 65 -52c20 0 37 5 56 12z" />
    <glyph glyph-name="jcircumflex.sc" horiz-adv-x="381" 
d="M297 145c0 -85 -42 -155 -148 -155c-77 0 -133 43 -133 116v11h21v-11c0 -62 45 -96 112 -96c92 0 128 59 128 140v396h20v-401zM401 633h-17l-95 123l-99 -123h-17l102 143h28z" />
    <glyph glyph-name="kcommaaccent.sc" horiz-adv-x="475" 
d="M119 546v-546h-20v546h20zM120 294l289 252h28l-292 -252l320 -294h-29zM255 -54h28l-35 -147h-15z" />
    <glyph glyph-name="lacute.sc" horiz-adv-x="432" 
d="M420 0h-321v546h20v-527h301v-19zM221 776l-102 -143h-16l89 143h29z" />
    <glyph glyph-name="lcaron.sc" horiz-adv-x="432" 
d="M420 0h-321v546h20v-527h301v-19zM221 546h32l-37 -181h-16z" />
    <glyph glyph-name="lcommaaccent.sc" horiz-adv-x="432" 
d="M420 0h-321v546h20v-527h301v-19zM253 -54h28l-35 -147h-15z" />
    <glyph glyph-name="lslash.sc" horiz-adv-x="432" 
d="M420 0h-321v255l-45 -25v20l45 25v271h20v-259l177 102v-20l-177 -102v-248h301v-19z" />
    <glyph glyph-name="ldot.sc" horiz-adv-x="432" 
d="M420 0h-321v546h20v-527h301v-19zM299 273h-20v55h20v-55z" />
    <glyph glyph-name="nacute.sc" horiz-adv-x="600" 
d="M501 0h-22l-358 512h-2v-512h-20v546h21l359 -512h2v512h20v-546zM379 776l-102 -143h-16l89 143h29z" />
    <glyph glyph-name="ncaron.sc" horiz-adv-x="600" 
d="M501 0h-22l-358 512h-2v-512h-20v546h21l359 -512h2v512h20v-546zM414 776l-102 -143h-28l-98 143h17l95 -123l99 123h17z" />
    <glyph glyph-name="ntilde.sc" horiz-adv-x="600" 
d="M501 0h-22l-358 512h-2v-512h-20v546h21l359 -512h2v512h20v-546zM409 738c-10 -31 -29 -52 -65 -52c-15 0 -32 5 -47 10c-18 6 -31 10 -41 10c-26 0 -34 -7 -45 -29h-20c9 32 33 48 67 48c15 0 30 -5 45 -10c16 -5 29 -9 41 -9c24 0 34 9 45 32h20z" />
    <glyph glyph-name="ncommaaccent.sc" horiz-adv-x="600" 
d="M501 0h-22l-358 512h-2v-512h-20v546h21l359 -512h2v512h20v-546zM297 -54h28l-35 -147h-15z" />
    <glyph glyph-name="ograve.sc" horiz-adv-x="592" 
d="M538 276c0 -143 -74 -286 -238 -286c-165 0 -246 143 -246 285c0 148 78 281 246 281c173 0 238 -130 238 -280zM518 275c0 140 -59 261 -218 261c-156 0 -225 -125 -225 -261c0 -127 71 -265 225 -265c152 0 218 139 218 265zM345 633h-16l-102 143h29z" />
    <glyph glyph-name="oacute.sc" horiz-adv-x="592" 
d="M538 276c0 -143 -74 -286 -238 -286c-165 0 -246 143 -246 285c0 148 78 281 246 281c173 0 238 -130 238 -280zM518 275c0 140 -59 261 -218 261c-156 0 -225 -125 -225 -261c0 -127 71 -265 225 -265c152 0 218 139 218 265zM365 776l-102 -143h-16l89 143h29z" />
    <glyph glyph-name="ocircumflex.sc" horiz-adv-x="592" 
d="M538 276c0 -143 -74 -286 -238 -286c-165 0 -246 143 -246 285c0 148 78 281 246 281c173 0 238 -130 238 -280zM518 275c0 140 -59 261 -218 261c-156 0 -225 -125 -225 -261c0 -127 71 -265 225 -265c152 0 218 139 218 265zM410 633h-17l-95 123l-99 -123h-17l102 143
h28z" />
    <glyph glyph-name="otilde.sc" horiz-adv-x="592" 
d="M538 276c0 -143 -74 -286 -238 -286c-165 0 -246 143 -246 285c0 148 78 281 246 281c173 0 238 -130 238 -280zM518 275c0 140 -59 261 -218 261c-156 0 -225 -125 -225 -261c0 -127 71 -265 225 -265c152 0 218 139 218 265zM405 738c-10 -31 -29 -52 -65 -52
c-15 0 -32 5 -47 10c-18 6 -31 10 -41 10c-26 0 -34 -7 -45 -29h-20c9 32 33 48 67 48c15 0 30 -5 45 -10c16 -5 29 -9 41 -9c24 0 34 9 45 32h20z" />
    <glyph glyph-name="odieresis.sc" horiz-adv-x="592" 
d="M538 276c0 -143 -74 -286 -238 -286c-165 0 -246 143 -246 285c0 148 78 281 246 281c173 0 238 -130 238 -280zM518 275c0 140 -59 261 -218 261c-156 0 -225 -125 -225 -261c0 -127 71 -265 225 -265c152 0 218 139 218 265zM375 706h-19v55h19v-55zM237 706h-20v55h20
v-55z" />
    <glyph glyph-name="omacron.sc" horiz-adv-x="592" 
d="M538 276c0 -143 -74 -286 -238 -286c-165 0 -246 143 -246 285c0 148 78 281 246 281c173 0 238 -130 238 -280zM518 275c0 140 -59 261 -218 261c-156 0 -225 -125 -225 -261c0 -127 71 -265 225 -265c152 0 218 139 218 265zM396 700h-200v20h200v-20z" />
    <glyph glyph-name="obreve.sc" horiz-adv-x="592" 
d="M538 276c0 -143 -74 -286 -238 -286c-165 0 -246 143 -246 285c0 148 78 281 246 281c173 0 238 -130 238 -280zM518 275c0 140 -59 261 -218 261c-156 0 -225 -125 -225 -261c0 -127 71 -265 225 -265c152 0 218 139 218 265zM407 730c-4 -38 -46 -79 -112 -79
c-57 0 -107 32 -110 79h20c8 -38 47 -59 90 -59c41 0 77 14 92 59h20z" />
    <glyph glyph-name="ohungarumlaut.sc" horiz-adv-x="592" 
d="M538 276c0 -143 -74 -286 -238 -286c-165 0 -246 143 -246 285c0 148 78 281 246 281c173 0 238 -130 238 -280zM518 275c0 140 -59 261 -218 261c-156 0 -225 -125 -225 -261c0 -127 71 -265 225 -265c152 0 218 139 218 265zM437 776l-102 -143h-16l89 143h29zM333 776
l-102 -143h-16l89 143h29z" />
    <glyph glyph-name="oslash.sc" horiz-adv-x="592" 
d="M54 -1l-13 12l69 75c-38 52 -56 121 -56 189c0 148 78 281 246 281c80 0 137 -28 175 -73l59 65l13 -11l-62 -67c37 -51 53 -120 53 -194c0 -143 -74 -286 -238 -286c-79 0 -138 32 -179 82zM518 275c0 68 -15 131 -47 179l-336 -367c37 -46 92 -77 165 -77
c152 0 218 139 218 265zM75 275c0 -61 16 -124 50 -173l336 366c-35 42 -87 68 -161 68c-156 0 -225 -125 -225 -261z" />
    <glyph glyph-name="oe.sc" horiz-adv-x="793" 
d="M749 19v-19h-200c-36 0 -91 -1 -110 -2c-27 -2 -66 -4 -101 -4c-184 0 -284 85 -284 276c0 184 107 282 285 282c35 0 66 -2 89 -4c24 -2 57 -2 85 -2h223v-19h-282v-231h272v-20h-272v-257h295zM434 17v510c-28 3 -68 5 -95 5c-158 0 -265 -83 -265 -262
c0 -175 89 -257 265 -257c29 0 72 2 95 4z" />
    <glyph glyph-name="racute.sc" horiz-adv-x="515" 
d="M461 0h-25c-16 27 -23 53 -29 114c-13 132 -30 165 -124 165h-164v-279h-20v546h174c56 0 99 -10 130 -36c23 -20 41 -52 41 -93c0 -65 -39 -111 -101 -127c55 -13 75 -54 84 -173c4 -58 14 -92 34 -117zM424 416c0 37 -15 62 -36 80c-28 23 -64 31 -116 31h-153v-229
h161c76 0 144 38 144 118zM329 776l-102 -143h-16l89 143h29z" />
    <glyph glyph-name="rcaron.sc" horiz-adv-x="515" 
d="M461 0h-25c-16 27 -23 53 -29 114c-13 132 -30 165 -124 165h-164v-279h-20v546h174c56 0 99 -10 130 -36c23 -20 41 -52 41 -93c0 -65 -39 -111 -101 -127c55 -13 75 -54 84 -173c4 -58 14 -92 34 -117zM424 416c0 37 -15 62 -36 80c-28 23 -64 31 -116 31h-153v-229
h161c76 0 144 38 144 118zM374 776l-102 -143h-28l-98 143h17l95 -123l99 123h17z" />
    <glyph glyph-name="rcommaaccent.sc" horiz-adv-x="515" 
d="M461 0h-25c-16 27 -23 53 -29 114c-13 132 -30 165 -124 165h-164v-279h-20v546h174c56 0 99 -10 130 -36c23 -20 41 -52 41 -93c0 -65 -39 -111 -101 -127c55 -13 75 -54 84 -173c4 -58 14 -92 34 -117zM424 416c0 37 -15 62 -36 80c-28 23 -64 31 -116 31h-153v-229
h161c76 0 144 38 144 118zM257 -54h28l-35 -147h-15z" />
    <glyph glyph-name="sacute.sc" horiz-adv-x="462" 
d="M409 138c0 -103 -82 -148 -183 -148c-102 0 -175 53 -181 144h21c3 -60 53 -125 161 -125c84 0 162 34 162 128c0 72 -56 99 -137 125l-59 19c-72 23 -133 61 -133 135c0 95 82 140 175 140c84 0 164 -32 168 -117h-21c-6 73 -80 98 -147 98c-79 0 -155 -37 -155 -120
c0 -63 56 -97 121 -118l60 -19c77 -24 148 -57 148 -142zM305 776l-102 -143h-16l89 143h29z" />
    <glyph glyph-name="scircumflex.sc" horiz-adv-x="462" 
d="M409 138c0 -103 -82 -148 -183 -148c-102 0 -175 53 -181 144h21c3 -60 53 -125 161 -125c84 0 162 34 162 128c0 72 -56 99 -137 125l-59 19c-72 23 -133 61 -133 135c0 95 82 140 175 140c84 0 164 -32 168 -117h-21c-6 73 -80 98 -147 98c-79 0 -155 -37 -155 -120
c0 -63 56 -97 121 -118l60 -19c77 -24 148 -57 148 -142zM346 633h-17l-95 123l-99 -123h-17l102 143h28z" />
    <glyph glyph-name="scaron.sc" horiz-adv-x="462" 
d="M409 138c0 -103 -82 -148 -183 -148c-102 0 -175 53 -181 144h21c3 -60 53 -125 161 -125c84 0 162 34 162 128c0 72 -56 99 -137 125l-59 19c-72 23 -133 61 -133 135c0 95 82 140 175 140c84 0 164 -32 168 -117h-21c-6 73 -80 98 -147 98c-79 0 -155 -37 -155 -120
c0 -63 56 -97 121 -118l60 -19c77 -24 148 -57 148 -142zM346 776l-102 -143h-28l-98 143h17l95 -123l99 123h17z" />
    <glyph glyph-name="scedilla.sc" horiz-adv-x="462" 
d="M309 -110c0 -49 -38 -64 -81 -64c-28 0 -59 9 -91 24l7 16c32 -15 56 -23 89 -23c39 0 56 18 56 47c0 33 -31 40 -61 40c-9 0 -18 0 -28 -1l18 61c-98 3 -167 55 -173 144h21c3 -60 53 -125 161 -125c84 0 162 34 162 128c0 72 -56 99 -137 125l-59 19
c-72 23 -133 61 -133 135c0 95 82 140 175 140c84 0 164 -32 168 -117h-21c-6 73 -80 98 -147 98c-79 0 -155 -37 -155 -120c0 -63 56 -97 121 -118l60 -19c77 -24 148 -57 148 -142c0 -100 -77 -145 -173 -148l-13 -43h10c42 0 76 -17 76 -57z" />
    <glyph glyph-name="scommaaccent.sc" horiz-adv-x="462" 
d="M409 138c0 -103 -82 -148 -183 -148c-102 0 -175 53 -181 144h21c3 -60 53 -125 161 -125c84 0 162 34 162 128c0 72 -56 99 -137 125l-59 19c-72 23 -133 61 -133 135c0 95 82 140 175 140c84 0 164 -32 168 -117h-21c-6 73 -80 98 -147 98c-79 0 -155 -37 -155 -120
c0 -63 56 -97 121 -118l60 -19c77 -24 148 -57 148 -142zM229 -54h28l-35 -147h-15z" />
    <glyph glyph-name="tcaron.sc" horiz-adv-x="410" 
d="M403 527h-188v-527h-20v527h-188v19h396v-19zM319 776l-102 -143h-28l-98 143h17l95 -123l99 123h17z" />
    <glyph glyph-name="tcommaaccent.sc" horiz-adv-x="410" 
d="M403 527h-188v-527h-20v527h-188v19h396v-19zM190 -54h28l-35 -147h-15z" />
    <glyph glyph-name="tbar.sc" horiz-adv-x="410" 
d="M403 546v-19h-188v-228h173v-19h-173v-280h-20v280h-173v19h173v228h-188v19h396z" />
    <glyph glyph-name="thorn.sc" horiz-adv-x="468" 
d="M119 430h119c45 0 95 -3 136 -27s60 -66 60 -117c0 -66 -36 -116 -95 -136c-35 -12 -96 -13 -140 -13h-80v-137h-20v546h20v-116zM414 286c0 51 -19 81 -51 100c-30 18 -74 25 -120 25h-124v-254h96c35 0 79 0 113 10c55 15 86 64 86 119z" />
    <glyph glyph-name="ugrave.sc" horiz-adv-x="583" 
d="M499 199c0 -133 -61 -209 -207 -209c-137 0 -208 68 -208 209v347h20v-344c0 -116 45 -193 188 -193c139 0 187 71 187 193v344h20v-347zM350 633h-16l-102 143h29z" />
    <glyph glyph-name="uacute.sc" horiz-adv-x="583" 
d="M499 199c0 -133 -61 -209 -207 -209c-137 0 -208 68 -208 209v347h20v-344c0 -116 45 -193 188 -193c139 0 187 71 187 193v344h20v-347zM370 776l-102 -143h-16l89 143h29z" />
    <glyph glyph-name="ucircumflex.sc" horiz-adv-x="583" 
d="M499 199c0 -133 -61 -209 -207 -209c-137 0 -208 68 -208 209v347h20v-344c0 -116 45 -193 188 -193c139 0 187 71 187 193v344h20v-347zM405 633h-17l-95 123l-99 -123h-17l102 143h28z" />
    <glyph glyph-name="utilde.sc" horiz-adv-x="583" 
d="M499 199c0 -133 -61 -209 -207 -209c-137 0 -208 68 -208 209v347h20v-344c0 -116 45 -193 188 -193c139 0 187 71 187 193v344h20v-347zM400 738c-10 -31 -29 -52 -65 -52c-15 0 -32 5 -47 10c-18 6 -31 10 -41 10c-26 0 -34 -7 -45 -29h-20c9 32 33 48 67 48
c15 0 30 -5 45 -10c16 -5 29 -9 41 -9c24 0 34 9 45 32h20z" />
    <glyph glyph-name="udieresis.sc" horiz-adv-x="583" 
d="M499 199c0 -133 -61 -209 -207 -209c-137 0 -208 68 -208 209v347h20v-344c0 -116 45 -193 188 -193c139 0 187 71 187 193v344h20v-347zM370 706h-19v55h19v-55zM232 706h-20v55h20v-55z" />
    <glyph glyph-name="umacron.sc" horiz-adv-x="583" 
d="M499 199c0 -133 -61 -209 -207 -209c-137 0 -208 68 -208 209v347h20v-344c0 -116 45 -193 188 -193c139 0 187 71 187 193v344h20v-347zM391 700h-200v20h200v-20z" />
    <glyph glyph-name="ubreve.sc" horiz-adv-x="583" 
d="M499 199c0 -133 -61 -209 -207 -209c-137 0 -208 68 -208 209v347h20v-344c0 -116 45 -193 188 -193c139 0 187 71 187 193v344h20v-347zM402 730c-4 -38 -46 -79 -112 -79c-57 0 -107 32 -110 79h20c8 -38 47 -59 90 -59c41 0 77 14 92 59h20z" />
    <glyph glyph-name="uring.sc" horiz-adv-x="583" 
d="M499 199c0 -133 -61 -209 -207 -209c-137 0 -208 68 -208 209v347h20v-344c0 -116 45 -193 188 -193c139 0 187 71 187 193v344h20v-347zM371 695c0 -45 -35 -80 -80 -80s-80 35 -80 80s35 80 80 80s80 -35 80 -80zM352 695c0 36 -26 63 -61 63s-61 -27 -61 -63
s26 -63 61 -63s61 27 61 63z" />
    <glyph glyph-name="uhungarumlaut.sc" horiz-adv-x="583" 
d="M499 199c0 -133 -61 -209 -207 -209c-137 0 -208 68 -208 209v347h20v-344c0 -116 45 -193 188 -193c139 0 187 71 187 193v344h20v-347zM442 776l-102 -143h-16l89 143h29zM338 776l-102 -143h-16l89 143h29z" />
    <glyph glyph-name="uogonek.sc" horiz-adv-x="583" 
d="M359 -150c-21 -10 -41 -16 -70 -16c-39 0 -82 19 -82 67c0 45 34 70 82 89c-135 1 -205 69 -205 209v347h20v-344c0 -116 45 -193 188 -193c139 0 187 71 187 193v344h20v-347c0 -126 -55 -200 -184 -208c-53 -27 -84 -53 -84 -87c0 -38 33 -52 65 -52c20 0 37 5 56 12z
" />
    <glyph glyph-name="wacute.sc" horiz-adv-x="780" 
d="M759 546l-156 -546h-24l-193 512h-3l-185 -512h-27l-150 546h20l145 -524h2l186 524h20l195 -524h2l146 524h22zM469 776l-102 -143h-16l89 143h29z" />
    <glyph glyph-name="wcircumflex.sc" horiz-adv-x="780" 
d="M759 546l-156 -546h-24l-193 512h-3l-185 -512h-27l-150 546h20l145 -524h2l186 524h20l195 -524h2l146 524h22zM504 633h-17l-95 123l-99 -123h-17l102 143h28z" />
    <glyph glyph-name="wdieresis.sc" horiz-adv-x="780" 
d="M759 546l-156 -546h-24l-193 512h-3l-185 -512h-27l-150 546h20l145 -524h2l186 524h20l195 -524h2l146 524h22zM469 706h-19v55h19v-55zM331 706h-20v55h20v-55z" />
    <glyph glyph-name="wgrave.sc" horiz-adv-x="780" 
d="M759 546l-156 -546h-24l-193 512h-3l-185 -512h-27l-150 546h20l145 -524h2l186 524h20l195 -524h2l146 524h22zM419 633h-16l-102 143h29z" />
    <glyph glyph-name="yacute.sc" horiz-adv-x="451" 
d="M456 546l-220 -300v-246h-20v246l-221 300h24l207 -282l205 282h25zM304 776l-102 -143h-16l89 143h29z" />
    <glyph glyph-name="ycircumflex.sc" horiz-adv-x="451" 
d="M456 546l-220 -300v-246h-20v246l-221 300h24l207 -282l205 282h25zM339 633h-17l-95 123l-99 -123h-17l102 143h28z" />
    <glyph glyph-name="ydieresis.sc" horiz-adv-x="451" 
d="M456 546l-220 -300v-246h-20v246l-221 300h24l207 -282l205 282h25zM304 706h-19v55h19v-55zM166 706h-20v55h20v-55z" />
    <glyph glyph-name="ygrave.sc" horiz-adv-x="451" 
d="M456 546l-220 -300v-246h-20v246l-221 300h24l207 -282l205 282h25zM274 633h-16l-102 143h29z" />
    <glyph glyph-name="zacute.sc" horiz-adv-x="429" 
d="M411 0h-393v17l361 510h-335v19h359v-19l-359 -508h367v-19zM293 776l-102 -143h-16l89 143h29z" />
    <glyph glyph-name="zcaron.sc" horiz-adv-x="429" 
d="M411 0h-393v17l361 510h-335v19h359v-19l-359 -508h367v-19zM346 776l-102 -143h-28l-98 143h17l95 -123l99 123h17z" />
    <glyph glyph-name="zdotaccent.sc" horiz-adv-x="429" 
d="M411 0h-393v17l361 510h-335v19h359v-19l-359 -508h367v-19zM242 706h-20v55h20v-55z" />
    <glyph glyph-name="ij.sc" horiz-adv-x="599" 
d="M119 0h-20v546h20v-546zM515 145c0 -85 -42 -155 -148 -155c-77 0 -133 43 -133 116v11h21v-11c0 -62 45 -96 112 -96c92 0 128 59 128 140v396h20v-401z" />
    <glyph glyph-name="germandbls.sc" horiz-adv-x="924" 
d="M871 138c0 -103 -82 -148 -183 -148c-102 0 -175 53 -181 144h21c3 -60 53 -125 161 -125c84 0 162 34 162 128c0 72 -56 99 -137 125l-59 19c-72 23 -133 61 -133 135c0 95 82 140 175 140c84 0 164 -32 168 -117h-21c-6 73 -80 98 -147 98c-79 0 -155 -37 -155 -120
c0 -63 56 -97 121 -118l60 -19c77 -24 148 -57 148 -142zM409 138c0 -103 -82 -148 -183 -148c-102 0 -175 53 -181 144h21c3 -60 53 -125 161 -125c84 0 162 34 162 128c0 72 -56 99 -137 125l-59 19c-72 23 -133 61 -133 135c0 95 82 140 175 140c84 0 164 -32 168 -117
h-21c-6 73 -80 98 -147 98c-79 0 -155 -37 -155 -120c0 -63 56 -97 121 -118l60 -19c77 -24 148 -57 148 -142z" />
    <glyph glyph-name="eng.sc" horiz-adv-x="600" 
d="M481 -64v64l-360 512h-2v-512h-20v546h21l360 -512h1v512h20v-617c0 -72 -28 -108 -95 -108c-9 0 -30 2 -41 5v20c12 -3 28 -5 39 -5c54 0 77 23 77 95z" />
    <glyph glyph-name="grave.sc" horiz-adv-x="210" 
d="M152 633h-16l-102 143h29z" />
    <glyph glyph-name="acute.sc" horiz-adv-x="210" 
d="M176 776l-102 -143h-16l89 143h29z" />
    <glyph glyph-name="circumflex.sc" horiz-adv-x="210" 
d="M219 633h-17l-95 123l-99 -123h-17l102 143h28z" />
    <glyph glyph-name="caron.sc" horiz-adv-x="210" 
d="M219 776l-102 -143h-28l-98 143h17l95 -123l99 123h17z" />
    <glyph glyph-name="tilde.sc" horiz-adv-x="210" 
d="M214 738c-10 -31 -29 -52 -65 -52c-15 0 -32 5 -47 10c-18 6 -31 10 -41 10c-26 0 -34 -7 -45 -29h-20c9 32 33 48 67 48c15 0 30 -5 45 -10c16 -5 29 -9 41 -9c24 0 34 9 45 32h20z" />
    <glyph glyph-name="dieresis.sc" horiz-adv-x="210" 
d="M184 706h-19v55h19v-55zM46 706h-20v55h20v-55z" />
    <glyph glyph-name="macron.sc" horiz-adv-x="210" 
d="M205 700h-200v20h200v-20z" />
    <glyph glyph-name="breve.sc" horiz-adv-x="210" 
d="M216 730c-4 -38 -46 -79 -112 -79c-57 0 -107 32 -110 79h20c8 -38 47 -59 90 -59c41 0 77 14 92 59h20z" />
    <glyph glyph-name="ring.sc" horiz-adv-x="210" 
d="M185 695c0 -45 -35 -80 -80 -80s-80 35 -80 80s35 80 80 80s80 -35 80 -80zM166 695c0 36 -26 63 -61 63s-61 -27 -61 -63s26 -63 61 -63s61 27 61 63z" />
    <glyph glyph-name="hungarumlaut.sc" horiz-adv-x="210" 
d="M225 776l-102 -143h-16l89 143h29zM121 776l-102 -143h-16l89 143h29z" />
    <glyph glyph-name="dotaccent.sc" horiz-adv-x="210" 
d="M115 706h-20v55h20v-55z" />
    <glyph glyph-name="exclamdown.sc" horiz-adv-x="223" 
d="M101 0l2 431h17l2 -431h-21zM100 546h24v-45h-24v45z" />
    <glyph glyph-name="questiondown.sc" horiz-adv-x="411" 
d="M92 119c0 55 42 109 115 173c30 26 38 45 38 75v64h20v-58c0 -40 -7 -62 -48 -97c-71 -62 -105 -108 -105 -158c0 -70 48 -108 131 -108c29 0 47 2 76 9v-21c-24 -5 -47 -8 -70 -8c-92 0 -157 41 -157 129zM243 546h23v-45h-23v45z" />
    <glyph glyph-name="Euro.sc" horiz-adv-x="445" 
d="M340 225h-225c8 -109 46 -215 176 -215c55 0 92 17 118 40v-28c-31 -20 -63 -32 -118 -32c-142 0 -187 110 -196 235h-68l5 19h62c-1 12 -1 25 -1 38c0 12 0 25 1 37h-57l5 19h54c14 117 73 218 193 218c73 0 108 -26 125 -40l-6 -23c-20 19 -55 43 -119 43
c-106 0 -160 -91 -173 -198h252l-5 -19h-249c-1 -12 -1 -24 -1 -37s0 -25 1 -38h231z" />
    <glyph glyph-name="cent.sc" horiz-adv-x="445" 
d="M140 -10l29 94c-67 26 -110 92 -110 184c0 108 55 203 184 203c15 0 29 -1 42 -4l29 94l19 -5l-29 -95c50 -17 82 -58 84 -114h-20c-5 49 -30 80 -70 95l-105 -344c14 -4 30 -6 47 -6c90 0 120 56 131 107h20c-9 -67 -54 -127 -152 -127c-19 0 -36 2 -52 6l-28 -92z
M79 268c0 -81 36 -140 96 -164l104 343c-11 3 -24 4 -37 4c-114 0 -163 -85 -163 -183z" />
    <glyph glyph-name="sterling.sc" horiz-adv-x="445" 
d="M407 444h-19c-5 64 -60 94 -115 94c-112 0 -142 -76 -142 -172v-50h140v-18h-140v-280h262v-18h-325v18h43v280h-52v18h52v54c0 83 22 186 162 186c71 0 131 -38 134 -112z" />
    <glyph glyph-name="florin.sc" horiz-adv-x="445" 
d="M332 329h-89l-72 -360c-14 -72 -40 -98 -85 -98c-8 0 -18 1 -28 4l7 18c8 -2 16 -3 23 -3c29 0 49 20 61 77l73 362h-77l6 18h74l19 90c16 79 38 119 89 119c15 0 34 -3 45 -7l-5 -19c-10 4 -24 8 -40 8c-33 0 -54 -28 -69 -105l-17 -86h88z" />
    <glyph glyph-name="yen.sc" horiz-adv-x="445" 
d="M435 546l-195 -297h144v-19h-150v-75h150v-19h-150v-136h-20v136h-149v19h149v75h-149v19h142l-197 297h24l190 -288l189 288h22z" />
    <glyph glyph-name="perthousand.sc" horiz-adv-x="850" 
d="M482 564l-369 -579h-24l371 579h22zM254 432c0 63 -40 103 -97 103s-97 -40 -97 -103s40 -103 97 -103s97 40 97 103zM40 432c0 65 43 121 117 121s117 -56 117 -121s-43 -121 -117 -121s-117 56 -117 121zM511 116c0 63 -40 103 -97 103s-97 -40 -97 -103
s40 -103 97 -103s97 40 97 103zM297 116c0 65 43 121 117 121s117 -56 117 -121s-43 -121 -117 -121s-117 56 -117 121zM790 116c0 63 -40 103 -97 103s-97 -40 -97 -103s40 -103 97 -103s97 40 97 103zM576 116c0 65 43 121 117 121s117 -56 117 -121s-43 -121 -117 -121
s-117 56 -117 121z" />
    <glyph glyph-name="parenleft.sc" horiz-adv-x="252" 
d="M85 272c0 108 45 228 88 330h18c-41 -99 -86 -236 -86 -330s45 -233 86 -332h-18c-43 102 -88 224 -88 332z" />
    <glyph glyph-name="parenright.sc" horiz-adv-x="252" 
d="M167 272c0 -108 -45 -230 -88 -332h-18c41 99 86 238 86 332s-45 231 -86 330h18c43 -102 88 -222 88 -330z" />
    <glyph glyph-name="bracketleft.sc" horiz-adv-x="251" 
d="M172 -60h-87v662h87v-19h-67v-624h67v-19z" />
    <glyph glyph-name="bracketright.sc" horiz-adv-x="251" 
d="M166 -60h-87v19h67v624h-67v19h87v-662z" />
    <glyph glyph-name="braceleft.sc" horiz-adv-x="297" 
d="M263 -60c-114 0 -131 59 -131 149v52c0 86 -24 112 -116 119v20c96 8 116 36 116 113v49c0 91 16 160 131 160v-19c-103 0 -110 -70 -110 -143v-47c0 -65 -15 -111 -87 -123c79 -15 87 -62 87 -129v-49c0 -81 15 -133 110 -133v-19z" />
    <glyph glyph-name="braceright.sc" horiz-adv-x="297" 
d="M34 -60v19c95 0 110 52 110 133v49c0 67 8 114 87 129c-72 12 -87 58 -87 123v47c0 73 -7 143 -110 143v19c115 0 131 -69 131 -160v-49c0 -77 20 -105 116 -113v-20c-92 -7 -116 -33 -116 -119v-52c0 -90 -17 -149 -131 -149z" />
    <glyph glyph-name="zero.onum" 
d="M502 276c0 -164 -85 -286 -232 -286s-232 122 -232 286s85 286 232 286s232 -122 232 -286zM482 276c0 141 -71 268 -212 268s-212 -127 -212 -268s71 -268 212 -268s212 127 212 268z" />
    <glyph glyph-name="one.onum" 
d="M317 0h-20v531c-48 -42 -97 -71 -153 -96v21c50 23 107 58 148 96h25v-552z" />
    <glyph glyph-name="two.onum" 
d="M467 0h-407v27l231 165c106 76 143 146 143 211c0 87 -70 141 -165 141c-98 0 -171 -63 -184 -146h-20c13 89 87 164 203 164c112 0 186 -64 186 -159c0 -79 -48 -153 -150 -225l-226 -160h389v-18z" />
    <glyph glyph-name="three.onum" 
d="M478 39c0 -123 -85 -196 -209 -196c-127 0 -198 84 -207 187h20c11 -106 84 -170 187 -170c115 0 189 67 189 179c0 106 -67 169 -171 169h-40v18h40c84 0 152 64 152 153c0 107 -75 165 -174 165c-108 0 -172 -71 -177 -161h-20c5 109 89 179 197 179
c114 0 194 -65 194 -183c0 -84 -54 -143 -128 -162c73 -8 147 -62 147 -178z" />
    <glyph glyph-name="four.onum" 
d="M498 0h-111v-147h-20v147h-329v20l332 532h17v-534h111v-18zM367 18v492l-308 -492h308z" />
    <glyph glyph-name="five.onum" 
d="M488 75c0 -130 -70 -232 -206 -232c-108 0 -186 52 -191 167h20c4 -102 76 -150 171 -150c129 0 186 99 186 214c0 118 -51 211 -177 211c-81 0 -148 -54 -169 -140h-20l17 407h342v-18h-321l-17 -340c33 81 110 109 168 109c137 0 197 -96 197 -228z" />
    <glyph glyph-name="six.onum" 
d="M483 221c0 -121 -72 -231 -198 -231c-107 0 -165 58 -193 138c-15 43 -21 95 -21 190c0 159 13 405 218 405c103 0 178 -54 182 -171h-20c-8 95 -62 153 -162 153c-186 0 -198 -238 -198 -420c21 110 108 163 194 163c137 0 198 -101 198 -227zM463 221
c0 107 -53 209 -178 209c-113 0 -187 -99 -187 -211c0 -98 53 -211 187 -211c114 0 178 102 178 213z" />
    <glyph glyph-name="seven.onum" 
d="M462 528l-275 -675h-23l278 680h-385v19h405v-24z" />
    <glyph glyph-name="eight.onum" 
d="M479 186c0 -129 -93 -196 -209 -196s-208 67 -208 196c0 93 48 162 147 185c-81 16 -137 82 -137 166c0 119 85 186 198 186s199 -66 199 -186c0 -84 -56 -150 -137 -166c99 -23 147 -92 147 -185zM449 537c0 112 -82 168 -179 168s-178 -56 -178 -168
c0 -104 86 -156 178 -156s179 52 179 156zM459 187c0 112 -83 176 -189 176s-188 -64 -188 -176c0 -117 83 -179 188 -179c107 0 189 62 189 179z" />
    <glyph glyph-name="nine.onum" 
d="M469 243c0 -165 -13 -400 -220 -400c-103 0 -174 59 -178 172h20c5 -99 65 -154 158 -154c170 0 203 176 200 408c-25 -106 -104 -160 -190 -160c-137 0 -192 107 -192 226s70 227 196 227c113 0 162 -61 187 -139c12 -37 19 -82 19 -180zM442 337c0 96 -45 207 -179 207
c-114 0 -176 -100 -176 -209c0 -105 47 -208 172 -208c113 0 183 100 183 210z" />
    <glyph glyph-name="zero.scprop" horiz-adv-x="445" 
d="M392 278c0 -110 -34 -288 -170 -288c-144 0 -169 178 -169 288c0 109 25 278 169 278c134 0 170 -170 170 -278zM372 278c0 87 -34 260 -150 260c-128 0 -149 -173 -149 -260c0 -89 23 -270 149 -270c118 0 150 181 150 270z" />
    <glyph glyph-name="one.scprop" horiz-adv-x="295" 
d="M172 0h-20v523c-38 -37 -73 -58 -123 -84v21c45 21 86 53 121 86h22v-546z" />
    <glyph glyph-name="two.scprop" horiz-adv-x="445" 
d="M373 0h-318v20l165 180c61 66 124 139 124 212c0 74 -49 126 -129 126c-77 0 -136 -56 -136 -139h-20c1 91 62 157 156 157c91 0 149 -57 149 -144c0 -71 -55 -143 -113 -207l-172 -187h294v-18z" />
    <glyph glyph-name="three.scprop" horiz-adv-x="445" 
d="M391 148c0 -98 -70 -158 -174 -158c-103 0 -160 62 -169 149h20c13 -95 77 -131 149 -131c93 0 154 53 154 140c0 80 -56 128 -139 128h-34v19h34c73 0 128 51 128 116c0 83 -60 127 -140 127c-86 0 -137 -56 -141 -125h-20c4 90 76 143 161 143c94 0 160 -52 160 -145
c0 -60 -37 -107 -100 -125c55 -10 111 -52 111 -138z" />
    <glyph glyph-name="four.scprop" horiz-adv-x="445" 
d="M408 135h-89v-135h-20v135h-264v18l267 393h17v-393h89v-18zM299 153v355l-242 -355h242z" />
    <glyph glyph-name="five.scprop" horiz-adv-x="445" 
d="M392 174c0 -102 -61 -184 -171 -184c-88 0 -151 45 -155 136h20c3 -79 60 -118 135 -118c102 0 151 77 151 165c0 91 -44 162 -144 162c-64 0 -117 -41 -134 -105h-19l13 316h279v-18h-258l-13 -249c29 55 88 74 132 74c112 0 164 -75 164 -179z" />
    <glyph glyph-name="six.scprop" horiz-adv-x="445" 
d="M389 169c0 -92 -59 -179 -161 -179c-87 0 -136 47 -158 108c-12 33 -17 74 -17 146c0 120 12 312 178 312c84 0 146 -42 150 -133h-20c-6 71 -51 115 -130 115c-135 0 -158 -148 -158 -303c24 72 89 109 155 109c111 0 161 -80 161 -175zM369 169c0 81 -42 157 -141 157
c-90 0 -150 -76 -150 -159c0 -72 44 -159 150 -159c90 0 141 79 141 161z" />
    <glyph glyph-name="seven.scprop" horiz-adv-x="345" 
d="M335 525l-223 -525h-23l225 527h-308v19h329v-21z" />
    <glyph glyph-name="eight.scprop" horiz-adv-x="445" 
d="M396 142c0 -98 -79 -152 -173 -152s-173 52 -173 152c0 67 40 120 113 140c-61 15 -105 61 -105 125c0 96 73 149 165 149c91 0 165 -53 165 -149c0 -64 -44 -110 -105 -125c73 -20 113 -73 113 -140zM368 407c0 85 -68 131 -145 131s-145 -46 -145 -131
c0 -81 72 -115 145 -115s145 34 145 115zM376 142c0 83 -76 131 -153 131c-78 0 -153 -48 -153 -131c0 -87 74 -134 153 -134c78 0 153 47 153 134z" />
    <glyph glyph-name="nine.scprop" horiz-adv-x="445" 
d="M390 303c0 -119 -12 -313 -180 -313c-84 0 -150 47 -153 137h20c6 -71 54 -119 133 -119c135 0 160 158 160 302c-23 -73 -90 -110 -155 -110c-110 0 -161 82 -161 178c0 91 62 178 164 178c89 0 135 -51 156 -111c10 -28 16 -68 16 -142zM364 379c0 72 -40 159 -146 159
c-90 0 -144 -79 -144 -160c0 -79 42 -160 141 -160c89 0 149 79 149 161z" />
    <glyph glyph-name="zero.prop" 
d="M477 369c0 -146 -42 -379 -208 -379c-176 0 -206 233 -206 379c0 144 30 364 206 364c164 0 208 -221 208 -364zM457 369c0 117 -43 346 -188 346c-160 0 -186 -229 -186 -346c0 -120 28 -361 186 -361c147 0 188 241 188 361z" />
    <glyph glyph-name="one.prop" horiz-adv-x="340" 
d="M217 0h-20v702c-48 -52 -92 -78 -153 -113v21c55 28 105 69 148 113h25v-723z" />
    <glyph glyph-name="two.prop" 
d="M457 0h-391v23l203 239c76 89 157 186 157 285c0 100 -69 168 -163 168c-98 0 -172 -74 -172 -185h-20c1 118 75 203 191 203c106 0 184 -72 184 -186c0 -96 -69 -187 -142 -273l-217 -256h370v-18z" />
    <glyph glyph-name="three.prop" 
d="M477 190c0 -129 -96 -200 -215 -200c-127 0 -200 80 -209 193h20c8 -98 72 -176 189 -176c109 0 195 65 195 183c0 112 -71 177 -175 177h-40v18h40c84 0 156 69 156 158c0 113 -84 172 -183 172c-97 0 -170 -64 -176 -165h-20c5 113 92 183 196 183
c114 0 203 -65 203 -190c0 -84 -58 -148 -132 -167c73 -8 151 -63 151 -186z" />
    <glyph glyph-name="four.prop" 
d="M498 181h-111v-181h-20v181h-329v20l332 522h17v-524h111v-18zM367 199v485l-309 -485h309z" />
    <glyph glyph-name="five.prop" 
d="M479 230c0 -135 -75 -240 -211 -240c-108 0 -186 58 -191 175h20c4 -106 76 -158 171 -158c129 0 191 102 191 222c0 123 -56 219 -182 219c-81 0 -148 -54 -169 -140h-20l17 415h342v-18h-321l-17 -348c33 81 110 109 168 109c137 0 202 -99 202 -236z" />
    <glyph glyph-name="six.prop" 
d="M477 224c0 -121 -72 -234 -198 -234c-107 0 -167 61 -195 141c-15 43 -21 97 -21 192c0 159 15 410 220 410c103 0 180 -54 184 -171h-20c-8 95 -64 153 -164 153c-172 0 -196 -204 -200 -379v-46c21 110 110 164 196 164c137 0 198 -104 198 -230zM457 224
c0 107 -53 212 -178 212c-113 0 -189 -102 -189 -214c0 -98 55 -214 189 -214c114 0 178 105 178 216z" />
    <glyph glyph-name="seven.prop" horiz-adv-x="388" 
d="M386 699l-277 -699h-23l280 704h-385v19h405v-24z" />
    <glyph glyph-name="eight.prop" 
d="M483 188c0 -131 -97 -198 -213 -198s-212 67 -212 198c0 93 52 163 151 186c-81 16 -142 75 -142 163c0 126 90 196 203 196s204 -70 204 -196c0 -88 -61 -147 -142 -163c99 -23 151 -93 151 -186zM453 537c0 116 -86 178 -183 178s-183 -62 -183 -178
c0 -110 91 -153 183 -153s183 43 183 153zM462 189c0 112 -94 177 -192 177s-192 -65 -192 -177c0 -119 93 -181 192 -181s192 62 192 181z" />
    <glyph glyph-name="nine.prop" 
d="M476 402c0 -158 -15 -412 -222 -412c-103 0 -184 60 -188 177h20c8 -95 68 -159 168 -159c170 0 202 209 202 396v28c-21 -110 -110 -164 -196 -164c-137 0 -198 104 -198 230c0 121 76 235 202 235c113 0 168 -68 193 -146c12 -37 19 -85 19 -185zM449 500
c0 98 -51 215 -185 215c-114 0 -182 -106 -182 -217c0 -107 53 -212 178 -212c113 0 189 102 189 214z" />
    <glyph glyph-name="Euro.prop" 
d="M358 9c69 0 113 22 144 50v-29c-37 -25 -75 -40 -144 -40c-165 0 -230 126 -242 316h-83l5 18h77c-1 16 -1 33 -1 51c0 15 0 30 1 46h-80l5 18h77c13 144 73 294 234 294c91 0 136 -34 157 -52l-6 -24c-24 25 -70 57 -151 57c-137 0 -201 -129 -214 -275h310l-5 -18h-307
c-1 -15 -1 -31 -1 -46c0 -18 0 -35 1 -51h283l-5 -18h-277c11 -171 68 -297 222 -297z" />
    <glyph glyph-name="cent.prop" horiz-adv-x="520" 
d="M361 503c62 -20 100 -76 105 -147h-20c-6 64 -41 112 -91 127l-132 -465c18 -6 39 -9 61 -9c124 0 161 103 165 143h20c-4 -78 -72 -163 -186 -163c-24 0 -45 3 -65 9l-26 -91l-19 5l27 92c-92 36 -139 132 -139 243c0 143 68 268 227 268c19 0 37 -2 54 -6l26 93l19 -6z
M336 489c-15 4 -31 6 -49 6c-146 0 -206 -114 -206 -247c0 -99 41 -189 124 -224z" />
    <glyph glyph-name="dollar.prop" 
d="M278 -84h-20v76c-119 3 -197 73 -204 188h20c7 -100 73 -167 184 -170v355c-120 42 -197 79 -197 186c0 116 90 178 197 182v76h20v-76c107 -3 194 -47 199 -150h-20c-6 90 -82 129 -179 132v-336c126 -44 210 -80 210 -194c0 -126 -95 -189 -210 -193v-76zM468 184
c0 103 -74 133 -190 174v-348c103 4 190 57 190 174zM81 552c0 -96 70 -129 177 -166v329c-95 -4 -177 -59 -177 -163z" />
    <glyph glyph-name="sterling.prop" 
d="M498 590h-20c-4 82 -75 125 -145 125c-142 0 -180 -102 -180 -233v-65h175v-18h-175v-381h327v-18h-400v18h53v381h-64v18h64v71c0 109 28 245 200 245c87 0 161 -49 165 -143z" />
    <glyph glyph-name="florin.prop" horiz-adv-x="460" 
d="M430 725l-4 -19c-11 4 -28 9 -49 9c-44 0 -70 -43 -87 -142l-21 -119h109l-3 -18h-110l-91 -483c-18 -98 -47 -129 -103 -129c-10 0 -22 2 -31 5l6 18c8 -2 18 -4 27 -4c38 0 63 25 78 105l91 488h-94l5 18h93l22 123c17 100 46 156 109 156c25 0 41 -4 53 -8z" />
    <glyph glyph-name="yen.prop" 
d="M524 723l-237 -396h186v-18h-192v-97h192v-18h-192v-194h-20v194h-190v18h190v97h-190v18h185l-240 396h24l232 -386l230 386h22z" />
    <glyph glyph-name="zero.onumprop" horiz-adv-x="572" 
d="M518 276c0 -164 -85 -286 -232 -286s-232 122 -232 286s85 286 232 286s232 -122 232 -286zM498 276c0 141 -71 268 -212 268s-212 -127 -212 -268s71 -268 212 -268s212 127 212 268z" />
    <glyph glyph-name="one.onumprop" horiz-adv-x="400" 
d="M248 0h-20v531c-48 -42 -97 -71 -153 -96v21c50 23 107 58 148 96h25v-552z" />
    <glyph glyph-name="two.onumprop" 
d="M467 0h-407v27l231 165c106 76 143 146 143 211c0 87 -70 141 -165 141c-98 0 -171 -63 -184 -146h-20c13 89 87 164 203 164c112 0 186 -64 186 -159c0 -79 -48 -153 -150 -225l-226 -160h389v-18z" />
    <glyph glyph-name="three.onumprop" 
d="M480 39c0 -123 -85 -196 -209 -196c-127 0 -198 84 -207 187h20c11 -106 84 -170 187 -170c115 0 189 67 189 179c0 106 -67 169 -171 169h-40v18h40c84 0 152 64 152 153c0 107 -75 165 -174 165c-108 0 -172 -71 -177 -161h-20c5 109 89 179 197 179
c114 0 194 -65 194 -183c0 -84 -54 -143 -128 -162c73 -8 147 -62 147 -178z" />
    <glyph glyph-name="four.onumprop" 
d="M498 0h-111v-147h-20v147h-329v20l332 532h17v-534h111v-18zM367 18v492l-308 -492h308z" />
    <glyph glyph-name="five.onumprop" 
d="M488 75c0 -130 -70 -232 -206 -232c-108 0 -186 52 -191 167h20c4 -102 76 -150 171 -150c129 0 186 99 186 214c0 118 -51 211 -177 211c-81 0 -148 -54 -169 -140h-20l17 407h342v-18h-321l-17 -340c33 81 110 109 168 109c137 0 197 -96 197 -228z" />
    <glyph glyph-name="six.onumprop" 
d="M483 221c0 -121 -72 -231 -198 -231c-107 0 -165 58 -193 138c-15 43 -21 95 -21 190c0 159 13 405 218 405c103 0 178 -54 182 -171h-20c-8 95 -62 153 -162 153c-186 0 -198 -238 -198 -420c21 110 108 163 194 163c137 0 198 -101 198 -227zM463 221
c0 107 -53 209 -178 209c-113 0 -187 -99 -187 -211c0 -98 53 -211 187 -211c114 0 178 102 178 213z" />
    <glyph glyph-name="seven.onumprop" horiz-adv-x="500" 
d="M442 528l-275 -675h-23l278 680h-385v19h405v-24z" />
    <glyph glyph-name="eight.onumprop" 
d="M479 186c0 -129 -93 -196 -209 -196s-208 67 -208 196c0 93 48 162 147 185c-81 16 -137 82 -137 166c0 119 85 186 198 186s199 -66 199 -186c0 -84 -56 -150 -137 -166c99 -23 147 -92 147 -185zM449 537c0 112 -82 168 -179 168s-178 -56 -178 -168
c0 -104 86 -156 178 -156s179 52 179 156zM459 187c0 112 -83 176 -189 176s-188 -64 -188 -176c0 -117 83 -179 188 -179c107 0 189 62 189 179z" />
    <glyph glyph-name="nine.onumprop" 
d="M471 243c0 -165 -13 -400 -220 -400c-103 0 -174 59 -178 172h20c5 -99 65 -154 158 -154c170 0 203 176 200 408c-25 -106 -104 -160 -190 -160c-137 0 -192 107 -192 226s70 227 196 227c113 0 162 -61 187 -139c12 -37 19 -82 19 -180zM444 337c0 96 -45 207 -179 207
c-114 0 -176 -100 -176 -209c0 -105 47 -208 172 -208c113 0 183 100 183 210z" />
    <glyph glyph-name="zero.inferior" unicode="&#x2080;" horiz-adv-x="350" 
d="M320 46c0 -123 -47 -213 -145 -213c-100 0 -145 87 -145 213s47 213 145 213c100 0 145 -87 145 -213zM300 46c0 110 -42 195 -125 195s-125 -85 -125 -195s42 -195 125 -195s125 85 125 195z" />
    <glyph glyph-name="one.inferior" unicode="&#x2081;" horiz-adv-x="350" 
d="M193 -164h-20v401c-31 -30 -59 -45 -99 -65v19c36 16 68 40 96 65h23v-420z" />
    <glyph glyph-name="two.inferior" unicode="&#x2082;" horiz-adv-x="350" 
d="M304 -164h-254v20l134 135c73 74 98 110 98 162c0 51 -41 88 -104 88c-60 0 -107 -40 -107 -98h-20c1 68 52 116 127 116c71 0 124 -41 124 -106c0 -55 -22 -92 -87 -158l-138 -140h227v-19z" />
    <glyph glyph-name="three.inferior" unicode="&#x2083;" horiz-adv-x="350" 
d="M308 -48c0 -76 -56 -119 -136 -119c-81 0 -127 49 -133 111h20c10 -62 55 -93 113 -93c73 0 116 40 116 101c0 60 -39 92 -107 92h-21v19h21c58 0 97 35 97 88c0 62 -45 90 -106 90c-68 0 -106 -40 -109 -90h-20c3 65 57 108 129 108c76 0 126 -37 126 -108
c0 -56 -35 -87 -84 -97c52 -5 94 -38 94 -102z" />
    <glyph glyph-name="four.inferior" unicode="&#x2084;" horiz-adv-x="350" 
d="M328 -63h-65v-101h-20v101h-214v14l216 305h18v-301h65v-18zM243 -45v266l-188 -266h188z" />
    <glyph glyph-name="five.inferior" unicode="&#x2085;" horiz-adv-x="350" 
d="M313 -23c0 -81 -50 -144 -137 -144c-67 0 -114 33 -124 97h20c8 -51 49 -79 104 -79c77 0 117 58 117 126c0 73 -42 124 -111 124c-50 0 -91 -31 -105 -79h-18l11 234h222v-19h-202l-11 -185c13 35 51 67 103 67c84 0 131 -57 131 -142z" />
    <glyph glyph-name="six.inferior" unicode="&#x2086;" horiz-adv-x="350" 
d="M309 -31c0 -71 -45 -136 -128 -136c-70 0 -107 34 -125 80c-9 24 -14 57 -14 111c0 105 13 235 142 235c67 0 113 -32 119 -101h-20c-6 53 -38 83 -99 83c-104 0 -122 -99 -122 -221c21 50 58 82 119 82c90 0 128 -59 128 -133zM289 -31c0 61 -31 115 -108 115
c-70 0 -115 -56 -115 -117c0 -53 32 -116 115 -116c70 0 108 56 108 118z" />
    <glyph glyph-name="seven.inferior" unicode="&#x2087;" horiz-adv-x="350" 
d="M320 237l-190 -401h-22l191 401h-247v19h268v-19z" />
    <glyph glyph-name="eight.inferior" unicode="&#x2088;" horiz-adv-x="350" 
d="M313 -52c0 -77 -61 -115 -138 -115s-138 37 -138 114c0 51 33 93 96 106c-57 10 -90 48 -90 95c0 71 57 111 132 111s132 -39 132 -110c0 -50 -36 -85 -90 -96c64 -13 96 -54 96 -105zM287 149c0 62 -51 92 -112 92s-112 -31 -112 -93c0 -59 53 -85 112 -85
s112 27 112 86zM293 -52c0 60 -53 96 -118 96s-118 -37 -118 -97c0 -64 54 -96 118 -96c65 0 118 33 118 97z" />
    <glyph glyph-name="nine.inferior" unicode="&#x2089;" horiz-adv-x="350" 
d="M308 68c0 -125 -18 -235 -139 -235c-68 0 -121 36 -126 103h20c5 -51 44 -85 106 -85c105 0 119 102 119 218c-20 -51 -62 -81 -119 -81c-90 0 -128 61 -128 134c0 70 48 137 130 137c71 0 107 -37 123 -80c11 -29 14 -68 14 -111zM284 123c0 53 -30 118 -113 118
c-70 0 -110 -59 -110 -119c0 -58 31 -116 108 -116c70 0 115 56 115 117z" />
    <glyph glyph-name="zero.superior" unicode="&#x2070;" horiz-adv-x="350" 
d="M320 679c0 -123 -47 -213 -145 -213c-100 0 -145 87 -145 213s47 213 145 213c100 0 145 -87 145 -213zM300 679c0 110 -42 195 -125 195s-125 -85 -125 -195s42 -195 125 -195s125 85 125 195z" />
    <glyph glyph-name="four.superior" unicode="&#x2074;" horiz-adv-x="350" 
d="M328 570h-65v-101h-20v101h-214v14l216 305h18v-301h65v-18zM243 588v266l-188 -266h188z" />
    <glyph glyph-name="five.superior" unicode="&#x2075;" horiz-adv-x="350" 
d="M313 610c0 -81 -50 -144 -137 -144c-67 0 -114 33 -124 97h20c8 -51 49 -79 104 -79c77 0 117 58 117 126c0 73 -42 124 -111 124c-50 0 -91 -31 -105 -79h-18l11 234h222v-19h-202l-11 -185c13 35 51 67 103 67c84 0 131 -57 131 -142z" />
    <glyph glyph-name="six.superior" unicode="&#x2076;" horiz-adv-x="350" 
d="M309 602c0 -71 -45 -136 -128 -136c-70 0 -107 34 -125 80c-9 24 -14 57 -14 111c0 105 13 235 142 235c67 0 113 -32 119 -101h-20c-6 53 -38 83 -99 83c-104 0 -122 -99 -122 -221c21 50 58 82 119 82c90 0 128 -59 128 -133zM289 602c0 61 -31 115 -108 115
c-70 0 -115 -56 -115 -117c0 -53 32 -116 115 -116c70 0 108 56 108 118z" />
    <glyph glyph-name="seven.superior" unicode="&#x2077;" horiz-adv-x="350" 
d="M320 870l-190 -401h-22l191 401h-247v19h268v-19z" />
    <glyph glyph-name="eight.superior" unicode="&#x2078;" horiz-adv-x="350" 
d="M313 581c0 -77 -61 -115 -138 -115s-138 37 -138 114c0 51 33 93 96 106c-57 10 -90 48 -90 95c0 71 57 111 132 111s132 -39 132 -110c0 -50 -36 -85 -90 -96c64 -13 96 -54 96 -105zM287 782c0 62 -51 92 -112 92s-112 -31 -112 -93c0 -59 53 -85 112 -85
s112 27 112 86zM293 581c0 60 -53 96 -118 96s-118 -37 -118 -97c0 -64 54 -96 118 -96c65 0 118 33 118 97z" />
    <glyph glyph-name="nine.superior" unicode="&#x2079;" horiz-adv-x="350" 
d="M308 701c0 -125 -18 -235 -139 -235c-68 0 -121 36 -126 103h20c5 -51 44 -85 106 -85c105 0 119 102 119 218c-20 -51 -62 -81 -119 -81c-90 0 -128 61 -128 134c0 70 48 137 130 137c71 0 107 -37 123 -80c11 -29 14 -68 14 -111zM284 756c0 53 -30 118 -113 118
c-70 0 -110 -59 -110 -119c0 -58 31 -116 108 -116c70 0 115 56 115 117z" />
    <glyph glyph-name="zero.numerator" horiz-adv-x="350" 
d="M320 513c0 -123 -47 -213 -145 -213c-100 0 -145 87 -145 213s47 213 145 213c100 0 145 -87 145 -213zM300 513c0 110 -42 195 -125 195s-125 -85 -125 -195s42 -195 125 -195s125 85 125 195z" />
    <glyph glyph-name="one.numerator" horiz-adv-x="350" 
d="M193 303h-20v401c-31 -30 -59 -45 -99 -65v19c36 16 68 40 96 65h23v-420z" />
    <glyph glyph-name="two.numerator" horiz-adv-x="350" 
d="M304 303h-254v20l134 135c73 74 98 110 98 162c0 51 -41 88 -104 88c-60 0 -107 -40 -107 -98h-20c1 68 52 116 127 116c71 0 124 -41 124 -106c0 -55 -22 -92 -87 -158l-138 -140h227v-19z" />
    <glyph glyph-name="three.numerator" horiz-adv-x="350" 
d="M308 419c0 -76 -56 -119 -136 -119c-81 0 -127 49 -133 111h20c10 -62 55 -93 113 -93c73 0 116 40 116 101c0 60 -39 92 -107 92h-21v19h21c58 0 97 35 97 88c0 62 -45 90 -106 90c-68 0 -106 -40 -109 -90h-20c3 65 57 108 129 108c76 0 126 -37 126 -108
c0 -56 -35 -87 -84 -97c52 -5 94 -38 94 -102z" />
    <glyph glyph-name="four.numerator" horiz-adv-x="350" 
d="M328 404h-65v-101h-20v101h-214v14l216 305h18v-301h65v-18zM243 422v266l-188 -266h188z" />
    <glyph glyph-name="five.numerator" horiz-adv-x="350" 
d="M313 444c0 -81 -50 -144 -137 -144c-67 0 -114 33 -124 97h20c8 -51 49 -79 104 -79c77 0 117 58 117 126c0 73 -42 124 -111 124c-50 0 -91 -31 -105 -79h-18l11 234h222v-19h-202l-11 -185c13 35 51 67 103 67c84 0 131 -57 131 -142z" />
    <glyph glyph-name="six.numerator" horiz-adv-x="350" 
d="M309 436c0 -71 -45 -136 -128 -136c-70 0 -107 34 -125 80c-9 24 -14 57 -14 111c0 105 13 235 142 235c67 0 113 -32 119 -101h-20c-6 53 -38 83 -99 83c-104 0 -122 -99 -122 -221c21 50 58 82 119 82c90 0 128 -59 128 -133zM289 436c0 61 -31 115 -108 115
c-70 0 -115 -56 -115 -117c0 -53 32 -116 115 -116c70 0 108 56 108 118z" />
    <glyph glyph-name="seven.numerator" horiz-adv-x="350" 
d="M320 704l-190 -401h-22l191 401h-247v19h268v-19z" />
    <glyph glyph-name="eight.numerator" horiz-adv-x="350" 
d="M313 415c0 -77 -61 -115 -138 -115s-138 37 -138 114c0 51 33 93 96 106c-57 10 -90 48 -90 95c0 71 57 111 132 111s132 -39 132 -110c0 -50 -36 -85 -90 -96c64 -13 96 -54 96 -105zM287 616c0 62 -51 92 -112 92s-112 -31 -112 -93c0 -59 53 -85 112 -85
s112 27 112 86zM293 415c0 60 -53 96 -118 96s-118 -37 -118 -97c0 -64 54 -96 118 -96c65 0 118 33 118 97z" />
    <glyph glyph-name="nine.numerator" horiz-adv-x="350" 
d="M308 535c0 -125 -18 -235 -139 -235c-68 0 -121 36 -126 103h20c5 -51 44 -85 106 -85c105 0 119 102 119 218c-20 -51 -62 -81 -119 -81c-90 0 -128 61 -128 134c0 70 48 137 130 137c71 0 107 -37 123 -80c11 -29 14 -68 14 -111zM284 590c0 53 -30 118 -113 118
c-70 0 -110 -59 -110 -119c0 -58 31 -116 108 -116c70 0 115 56 115 117z" />
    <glyph glyph-name="zero.denominator" horiz-adv-x="350" 
d="M320 210c0 -123 -47 -213 -145 -213c-100 0 -145 87 -145 213s47 213 145 213c100 0 145 -87 145 -213zM300 210c0 110 -42 195 -125 195s-125 -85 -125 -195s42 -195 125 -195s125 85 125 195z" />
    <glyph glyph-name="one.denominator" horiz-adv-x="350" 
d="M193 0h-20v401c-31 -30 -59 -45 -99 -65v19c36 16 68 40 96 65h23v-420z" />
    <glyph glyph-name="two.denominator" horiz-adv-x="350" 
d="M304 0h-254v20l134 135c73 74 98 110 98 162c0 51 -41 88 -104 88c-60 0 -107 -40 -107 -98h-20c1 68 52 116 127 116c71 0 124 -41 124 -106c0 -55 -22 -92 -87 -158l-138 -140h227v-19z" />
    <glyph glyph-name="three.denominator" horiz-adv-x="350" 
d="M308 116c0 -76 -56 -119 -136 -119c-81 0 -127 49 -133 111h20c10 -62 55 -93 113 -93c73 0 116 40 116 101c0 60 -39 92 -107 92h-21v19h21c58 0 97 35 97 88c0 62 -45 90 -106 90c-68 0 -106 -40 -109 -90h-20c3 65 57 108 129 108c76 0 126 -37 126 -108
c0 -56 -35 -87 -84 -97c52 -5 94 -38 94 -102z" />
    <glyph glyph-name="four.denominator" horiz-adv-x="350" 
d="M328 101h-65v-101h-20v101h-214v14l216 305h18v-301h65v-18zM243 119v266l-188 -266h188z" />
    <glyph glyph-name="five.denominator" horiz-adv-x="350" 
d="M313 141c0 -81 -50 -144 -137 -144c-67 0 -114 33 -124 97h20c8 -51 49 -79 104 -79c77 0 117 58 117 126c0 73 -42 124 -111 124c-50 0 -91 -31 -105 -79h-18l11 234h222v-19h-202l-11 -185c13 35 51 67 103 67c84 0 131 -57 131 -142z" />
    <glyph glyph-name="six.denominator" horiz-adv-x="350" 
d="M309 133c0 -71 -45 -136 -128 -136c-70 0 -107 34 -125 80c-9 24 -14 57 -14 111c0 105 13 235 142 235c67 0 113 -32 119 -101h-20c-6 53 -38 83 -99 83c-104 0 -122 -99 -122 -221c21 50 58 82 119 82c90 0 128 -59 128 -133zM289 133c0 61 -31 115 -108 115
c-70 0 -115 -56 -115 -117c0 -53 32 -116 115 -116c70 0 108 56 108 118z" />
    <glyph glyph-name="seven.denominator" horiz-adv-x="350" 
d="M320 401l-190 -401h-22l191 401h-247v19h268v-19z" />
    <glyph glyph-name="eight.denominator" horiz-adv-x="350" 
d="M313 112c0 -77 -61 -115 -138 -115s-138 37 -138 114c0 51 33 93 96 106c-57 10 -90 48 -90 95c0 71 57 111 132 111s132 -39 132 -110c0 -50 -36 -85 -90 -96c64 -13 96 -54 96 -105zM287 313c0 62 -51 92 -112 92s-112 -31 -112 -93c0 -59 53 -85 112 -85
s112 27 112 86zM293 112c0 60 -53 96 -118 96s-118 -37 -118 -97c0 -64 54 -96 118 -96c65 0 118 33 118 97z" />
    <glyph glyph-name="nine.denominator" horiz-adv-x="350" 
d="M308 232c0 -125 -18 -235 -139 -235c-68 0 -121 36 -126 103h20c5 -51 44 -85 106 -85c105 0 119 102 119 218c-20 -51 -62 -81 -119 -81c-90 0 -128 61 -128 134c0 70 48 137 130 137c71 0 107 -37 123 -80c11 -29 14 -68 14 -111zM284 287c0 53 -30 118 -113 118
c-70 0 -110 -59 -110 -119c0 -58 31 -116 108 -116c70 0 115 56 115 117z" />
    <glyph glyph-name="onehalf.alt01" 
d="M284 457h-18v244c-19 -15 -43 -27 -68 -38v18c25 11 49 26 68 42h18v-266zM472 359h-404v16h404v-16zM360 0h-177v15l88 85c48 47 66 67 66 99c0 33 -26 57 -65 57c-40 0 -69 -25 -69 -66h-18c0 47 34 81 86 81c48 0 84 -28 84 -72c0 -35 -27 -67 -63 -101l-87 -83h155
v-15z" />
    <glyph glyph-name="onethird.alt01" 
d="M284 457h-18v245c-19 -15 -43 -27 -68 -38v17c25 11 49 26 68 42h18v-266zM472 359h-404v16h404v-16zM368 73c0 -49 -40 -78 -97 -78c-58 0 -89 31 -96 74h18c10 -43 40 -59 78 -59c48 0 79 23 79 63c0 39 -23 58 -71 58h-22v15h22c40 0 63 21 63 52c0 40 -29 58 -73 58
c-45 0 -69 -20 -73 -57h-17c3 47 41 72 90 72c52 0 91 -23 91 -73c0 -28 -17 -49 -49 -59c30 -5 57 -24 57 -66z" />
    <glyph glyph-name="onequarter.alt01" 
d="M284 457h-18v245c-19 -15 -43 -27 -68 -38v17c25 11 49 26 68 42h18v-266zM472 359h-404v16h404v-16zM356 64h-47v-64h-18v64h-141v13l144 189h15v-187h47v-15zM291 79v155l-119 -155h119z" />
    <glyph glyph-name="oneeighth.alt01" 
d="M284 457h-18v245c-19 -15 -43 -27 -68 -38v17c25 11 49 26 68 42h18v-266zM472 359h-404v16h404v-16zM368 69c0 -52 -45 -74 -97 -74c-54 0 -98 22 -98 74c0 32 22 57 58 68c-34 8 -53 31 -53 61c0 50 41 73 93 73c51 0 92 -22 92 -72c0 -30 -19 -52 -51 -62
c37 -11 56 -36 56 -68zM345 199c0 40 -35 56 -74 56c-40 0 -75 -17 -75 -57c0 -37 37 -53 75 -53c37 0 74 17 74 54zM350 69c0 39 -36 61 -79 61s-80 -22 -80 -61c0 -42 39 -59 80 -59c40 0 79 17 79 59z" />
    <glyph glyph-name="twothirds.alt01" 
d="M360 457h-177v15l88 85c48 47 66 67 66 99c0 33 -26 57 -65 57c-40 0 -69 -25 -69 -66h-18c0 47 34 81 86 81c48 0 84 -28 84 -72c0 -35 -27 -67 -63 -101l-87 -83h155v-15zM472 359h-404v16h404v-16zM368 73c0 -49 -40 -78 -97 -78c-58 0 -89 31 -96 74h18
c10 -43 40 -59 78 -59c48 0 79 23 79 63c0 39 -23 58 -71 58h-22v15h22c40 0 63 21 63 52c0 40 -29 58 -73 58c-45 0 -69 -20 -73 -57h-17c3 47 41 72 90 72c52 0 91 -23 91 -73c0 -28 -17 -49 -49 -59c30 -5 57 -24 57 -66z" />
    <glyph glyph-name="threequarters.alt01" 
d="M368 530c0 -49 -40 -78 -97 -78c-58 0 -89 31 -96 74h18c10 -43 40 -59 78 -59c48 0 79 23 79 63c0 39 -23 58 -71 58h-22v15h22c40 0 63 21 63 52c0 40 -29 58 -73 58c-45 0 -69 -20 -73 -57h-17c3 47 41 72 90 72c52 0 91 -23 91 -73c0 -28 -17 -49 -49 -59
c30 -5 57 -24 57 -66zM472 359h-404v16h404v-16zM356 64h-47v-64h-18v64h-141v13l144 189h15v-187h47v-15zM291 79v155l-119 -155h119z" />
    <glyph glyph-name="threeeighths.alt01" 
d="M368 530c0 -49 -40 -78 -97 -78c-58 0 -89 31 -96 74h18c10 -43 40 -59 78 -59c48 0 79 23 79 63c0 39 -23 58 -71 58h-22v15h22c40 0 63 21 63 52c0 40 -29 58 -73 58c-45 0 -69 -20 -73 -57h-17c3 47 41 72 90 72c52 0 91 -23 91 -73c0 -28 -17 -49 -49 -59
c30 -5 57 -24 57 -66zM472 359h-404v16h404v-16zM368 69c0 -52 -45 -74 -97 -74c-54 0 -98 22 -98 74c0 32 22 57 58 68c-34 8 -53 31 -53 61c0 50 41 73 93 73c51 0 92 -22 92 -72c0 -30 -19 -52 -51 -62c37 -11 56 -36 56 -68zM345 199c0 40 -35 56 -74 56
c-40 0 -75 -17 -75 -57c0 -37 37 -53 75 -53c37 0 74 17 74 54zM350 69c0 39 -36 61 -79 61s-80 -22 -80 -61c0 -42 39 -59 80 -59c40 0 79 17 79 59z" />
    <glyph glyph-name="fiveeighths.alt01" 
d="M365 543c0 -51 -33 -91 -94 -91c-49 0 -84 25 -88 68h18c5 -35 32 -53 70 -53c52 0 76 35 76 75c0 42 -22 74 -72 74c-33 0 -60 -19 -70 -47h-17l7 154h156v-16h-138l-6 -110c9 16 33 34 68 34c62 0 90 -37 90 -88zM472 359h-404v16h404v-16zM368 69
c0 -52 -45 -74 -97 -74c-54 0 -98 22 -98 74c0 32 22 57 58 68c-34 8 -53 31 -53 61c0 50 41 73 93 73c51 0 92 -22 92 -72c0 -30 -19 -52 -51 -62c37 -11 56 -36 56 -68zM345 199c0 40 -35 56 -74 56c-40 0 -75 -17 -75 -57c0 -37 37 -53 75 -53c37 0 74 17 74 54zM350 69
c0 39 -36 61 -79 61s-80 -22 -80 -61c0 -42 39 -59 80 -59c40 0 79 17 79 59z" />
    <glyph glyph-name="seveneighths.alt01" 
d="M255 457h-20l120 250h-163v16h183v-14zM472 359h-404v16h404v-16zM368 69c0 -52 -45 -74 -97 -74c-54 0 -98 22 -98 74c0 32 22 57 58 68c-34 8 -53 31 -53 61c0 50 41 73 93 73c51 0 92 -22 92 -72c0 -30 -19 -52 -51 -62c37 -11 56 -36 56 -68zM345 199
c0 40 -35 56 -74 56c-40 0 -75 -17 -75 -57c0 -37 37 -53 75 -53c37 0 74 17 74 54zM350 69c0 39 -36 61 -79 61s-80 -22 -80 -61c0 -42 39 -59 80 -59c40 0 79 17 79 59z" />
    </font>
</defs>
</svg>
